<svg width="30.48mm" height="73.66mm" viewBox="0 0 12000000 29000000"  version="1.1" xmlns="http://www.w3.org/2000/svg" xmlns:xlink="http://www.w3.org/1999/xlink">
<desc>
Origin 0 0 Bound 14000000 15000000 12000000 29000000
</desc>
<g fill-rule="evenodd" fill="rgb(0, 0, 255)" stroke="black" stroke-width="1" transform="translate(0, 29000000) scale(1, -1) translate(-14000000, -15000000)">
<path id="N" d="M 17000002.99 26500005.10 m -317671.90 0 a 317671.90 317671.90 0 1 1 635343.80 0a 317671.90 317671.90 0 1 1 -635343.80 0M 17000001.22 26499996.65 m -220780.35 0 a 220780.35 220780.35 0 1 1 441560.70 0a 220780.35 220780.35 0 1 1 -441560.70 0"/>
<path id="N" d="M 14999996.32 26999994.16 m -307757.99 0 a 307757.99 307757.99 0 1 1 615515.98 0a 307757.99 307757.99 0 1 1 -615515.98 0M 14999999.24 26999999.93 m -204721.07 0 a 204721.07 204721.07 0 1 1 409442.13 0a 204721.07 204721.07 0 1 1 -409442.13 0"/>
<path id="N" d="M 18572096.00 40572096.00 L 19321727.40 39822464.60 L 19404418.00 39856716.00 A 369289.41 369289.41 0 1 0 19143284.00 39595582.00 L 19177535.40 39678272.60 L 18457767.00 40398041.00 L 16542233.00 40398041.00 L 16101959.00 39957767.00 L 16101959.00 28750000.00 L 16094198.00 28710982.00 L 16072096.00 28677904.00 L 15322096.00 27927904.00 L 15292090.02 27907854.66 L 15266520.00 27846124.00 A 307746.40 307746.40 0 1 0 15217613.00 28217613.00 L 15263551.99 28157743.99 L 15898041.00 28792233.00 L 15898041.00 33253849.00 L 15322096.00 32677904.00 L 15292090.02 32657854.66 L 15266520.00 32596124.00 A 307746.40 307746.40 0 1 0 15217613.00 32967613.00 L 15263551.99 32907743.99 L 15898041.00 33542233.00 L 15898041.00 38253849.00 L 15322096.00 37677904.00 L 15292090.02 37657854.66 L 15266520.00 37596124.00 A 307746.40 307746.40 0 1 0 15217613.00 37967613.00 L 15263551.99 37907743.99 L 15898041.00 38542233.00 L 15898041.00 40000000.00 L 15905802.00 40039018.00 L 15927904.00 40072096.00 L 16427904.00 40572096.00 L 16460982.00 40594198.00 L 16500000.00 40601959.00 L 18500000.00 40601959.00 L 18539018.00 40594198.00 L 18572096.00 40572096.00  zM 14999999.24 27999999.93 m -204721.07 0 a 204721.07 204721.07 0 1 1 409442.13 0a 204721.07 204721.07 0 1 1 -409442.13 0M 14999999.24 32749999.93 m -204721.07 0 a 204721.07 204721.07 0 1 1 409442.13 0a 204721.07 204721.07 0 1 1 -409442.13 0M 14999999.24 37749999.93 m -204721.07 0 a 204721.07 204721.07 0 1 1 409442.13 0a 204721.07 204721.07 0 1 1 -409442.13 0M 19500001.69 39499995.47 m -248880.53 0 a 248880.53 248880.53 0 1 1 497761.06 0a 248880.53 248880.53 0 1 1 -497761.06 0"/>
<path id="N" d="M 23724883.00 38341161.00 L 23701322.69 38398041.00 L 21437902.00 38398041.00 L 21224812.14 38184951.14 L 21240848.00 38104331.00 A 240838.32 240838.32 0 1 0 21000000.00 38345179.00 L 21080620.14 38329143.14 L 21323573.00 38572096.00 L 21356651.00 38594198.00 L 21395669.00 38601959.00 L 23701322.69 38601959.00 L 23724883.00 38658839.00 A 317683.20 317683.20 0 1 0 23724883.00 38341161.00  zM 21000002.38 38104325.09 m -140500.91 0 a 140500.91 140500.91 0 1 1 281001.82 0a 140500.91 140500.91 0 1 1 -281001.82 0M 24000001.22 38499996.65 m -220780.35 0 a 220780.35 220780.35 0 1 1 441560.70 0a 220780.35 220780.35 0 1 1 -441560.70 0"/>
<path id="N" d="M 18999996.79 37999995.53 m -407030.24 0 a 407030.24 407030.24 0 1 1 814060.47 0a 407030.24 407030.24 0 1 1 -814060.47 0M 18999997.17 38000009.88 m -307741.12 0 a 307741.12 307741.12 0 1 1 615482.25 0a 307741.12 307741.12 0 1 1 -615482.25 0"/>
<path id="N" d="M 21779532.79 29750009.21 m -259692.04 0 a 259692.04 259692.04 0 1 1 519384.07 0a 259692.04 259692.04 0 1 1 -519384.07 0M 21779526.59 29750001.48 m -160563.52 0 a 160563.52 160563.52 0 1 1 321127.04 0a 160563.52 160563.52 0 1 1 -321127.04 0"/>
<path id="N" d="M 17000002.99 24500005.10 m -317671.90 0 a 317671.90 317671.90 0 1 1 635343.80 0a 317671.90 317671.90 0 1 1 -635343.80 0M 17000001.22 24499996.65 m -220780.35 0 a 220780.35 220780.35 0 1 1 441560.70 0a 220780.35 220780.35 0 1 1 -441560.70 0"/>
<path id="N" d="M 15000002.99 24500005.10 m -317671.90 0 a 317671.90 317671.90 0 1 1 635343.80 0a 317671.90 317671.90 0 1 1 -635343.80 0M 15000001.22 24499996.65 m -220780.35 0 a 220780.35 220780.35 0 1 1 441560.70 0a 220780.35 220780.35 0 1 1 -441560.70 0"/>
<path id="N" d="M 22499991.06 37734243.06 m -240860.29 0 a 240860.29 240860.29 0 1 1 481720.58 0a 240860.29 240860.29 0 1 1 -481720.58 0M 22500002.38 37734246.09 m -140500.91 0 a 140500.91 140500.91 0 1 1 281001.82 0a 140500.91 140500.91 0 1 1 -281001.82 0"/>
<path id="N" d="M 21509842.00 42017717.00 L 20958662.00 42017717.00 L 20958662.00 42568897.00 L 21509842.00 42568897.00 L 21509842.00 42017717.00  zM 21234252.44 42293305.65 m -180637.35 0 a 180637.35 180637.35 0 1 1 361274.69 0a 180637.35 180637.35 0 1 1 -361274.69 0"/>
<path id="N" d="M 21866141.00 39133859.00 L 21133859.00 39133859.00 L 21133859.00 39866141.00 L 21866141.00 39866141.00 L 21866141.00 39133859.00  zM 21500001.69 39499995.47 m -248880.53 0 a 248880.53 248880.53 0 1 1 497761.06 0a 248880.53 248880.53 0 1 1 -497761.06 0"/>
<path id="N" d="M 23921916.20 43720591.71 L 23792446.00 43654623.00 A 1354160.62 1354160.62 0 0 1 23150000.00 42606247.00 L 23150000.00 42550000.00 L 23250070.04 42550000.00 L 23261572.00 42696148.00 A 1253907.24 1253907.24 0 1 0 24696148.00 41261572.00 L 24550000.00 41250070.04 L 24550000.00 41150000.00 L 24606247.00 41150000.00 A 1354204.51 1354204.51 0 0 1 25654623.00 41792446.00 L 25720591.71 41921916.20 L 25770592.00 41909912.14 L 25770592.00 17090087.86 L 25720591.71 17078083.80 L 25654623.00 17207554.00 A 1354160.62 1354160.62 0 0 1 24606247.00 17850000.00 L 24550000.00 17850000.00 L 24550000.00 17749929.96 L 24696148.00 17738428.00 A 1253907.24 1253907.24 0 1 0 23261572.00 16303852.00 L 23250070.04 16450000.00 L 23150000.00 16450000.00 L 23150000.00 16393753.00 A 1354204.51 1354204.51 0 0 1 23792446.00 15345377.00 L 23921916.20 15279408.29 L 23909912.14 15229408.00 L 16090087.86 15229408.00 L 16078083.80 15279408.29 L 16207554.00 15345377.00 A 1354160.62 1354160.62 0 0 1 16850000.00 16393753.00 L 16850000.00 16450000.00 L 16749929.96 16450000.00 L 16738428.00 16303852.00 A 1253907.24 1253907.24 0 1 0 15303852.00 17738428.00 L 15450000.00 17749929.96 L 15450000.00 17850000.00 L 15393753.00 17850000.00 A 1354204.51 1354204.51 0 0 1 14345377.00 17207554.00 L 14279408.29 17078083.80 L 14229408.00 17090087.86 L 14229408.00 41909912.14 L 14279408.29 41921916.20 L 14345377.00 41792446.00 A 1354160.62 1354160.62 0 0 1 15393753.00 41150000.00 L 15450000.00 41150000.00 L 15450000.00 41250070.04 L 15303852.00 41261572.00 A 1253907.24 1253907.24 0 1 0 16738428.00 42696148.00 L 16749929.96 42550000.00 L 16850000.00 42550000.00 L 16850000.00 42606247.00 A 1354204.51 1354204.51 0 0 1 16207554.00 43654623.00 L 16078083.80 43720591.71 L 16090087.86 43770592.00 L 23909912.14 43770592.00 L 23921916.20 43720591.71  zM 15499998.53 16500003.48 m -628020.52 0 a 628020.52 628020.52 0 1 1 1256041.05 0a 628020.52 628020.52 0 1 1 -1256041.05 0M 15606247.00 17850000.00 L 15550000.00 17850000.00 L 15550000.00 17749929.96 L 15696148.00 17738428.00 A 1253907.24 1253907.24 0 0 0 16738428.00 16696148.00 L 16749929.96 16550000.00 L 16850000.00 16550000.00 L 16850000.00 16606247.00 A 1354204.51 1354204.51 0 0 1 15606247.00 17850000.00  zM 17000000.00 20500000.77 m -418539.97 0 a 418539.97 418539.97 0 1 1 837079.95 0a 418539.97 418539.97 0 1 1 -837079.95 0M 17000000.00 21500000.77 m -418539.97 0 a 418539.97 418539.97 0 1 1 837079.95 0a 418539.97 418539.97 0 1 1 -837079.95 0M 17966887.44 21449999.98 L 17863093.18 21449999.97 A 365243.64 365243.64 0 0 1 18178346.03 21134747.16 L 18178346.02 21238541.43 L 18158972.00 21241092.00 A 268067.42 268067.42 0 0 0 17969438.00 21430626.00 L 17966887.44 21449999.98  zM 14688904.87 22449999.99 L 14585040.00 22449999.98 L 14585040.00 22445369.00 A 418550.66 418550.66 0 0 1 14945369.00 22085040.00 L 14950000.02 22085040.00 L 14950000.01 22188904.87 L 14917779.00 22193147.00 A 317671.90 317671.90 0 0 0 14693147.00 22417779.00 L 14688904.87 22449999.99  zM 16688904.87 22450000.00 L 16585040.00 22450000.00 L 16585040.00 22445369.00 A 418550.66 418550.66 0 0 1 16945369.00 22085040.00 L 16950000.00 22085040.00 L 16950000.00 22188904.87 L 16917779.00 22193147.00 A 317671.90 317671.90 0 0 0 16693147.00 22417779.00 L 16688904.87 22450000.00  zM 17414960.00 22450000.00 L 17311095.13 22450000.00 L 17306853.00 22417779.00 A 317671.90 317671.90 0 0 0 17082221.00 22193147.00 L 17050000.00 22188904.87 L 17050000.00 22085040.00 L 17054631.00 22085040.00 A 418550.66 418550.66 0 0 1 17414960.00 22445369.00 L 17414960.00 22450000.00  zM 18178345.97 21865252.82 A 365243.64 365243.64 0 0 1 17863093.16 21549999.97 L 17966887.43 21549999.98 L 17969438.00 21569374.00 A 268067.42 268067.42 0 0 0 18158972.00 21758908.00 L 18178345.98 21761458.56 L 18178345.97 21865252.82  zM 18228345.05 21500002.89 m -170598.11 0 a 170598.11 170598.11 0 1 1 341196.22 0a 170598.11 170598.11 0 1 1 -341196.22 0M 14949999.98 22914960.00 L 14945369.00 22914960.00 A 418550.66 418550.66 0 0 1 14585040.00 22554631.00 L 14585040.00 22549999.98 L 14688904.87 22549999.99 L 14693147.00 22582221.00 A 317671.90 317671.90 0 0 0 14917779.00 22806853.00 L 14949999.99 22811095.13 L 14949999.98 22914960.00  zM 15000001.22 22499996.65 m -220780.35 0 a 220780.35 220780.35 0 1 1 441560.70 0a 220780.35 220780.35 0 1 1 -441560.70 0M 15414960.00 22450000.02 L 15311095.13 22450000.01 L 15306853.00 22417779.00 A 317671.90 317671.90 0 0 0 15082221.00 22193147.00 L 15050000.01 22188904.87 L 15050000.02 22085040.00 L 15054631.00 22085040.00 A 418550.66 418550.66 0 0 1 15414960.00 22445369.00 L 15414960.00 22450000.02  zM 15054631.00 22914960.00 L 15049999.98 22914960.00 L 15049999.99 22811095.13 L 15082221.00 22806853.00 A 317671.90 317671.90 0 0 0 15306853.00 22582221.00 L 15311095.13 22550000.01 L 15414960.00 22550000.02 L 15414960.00 22554631.00 A 418550.66 418550.66 0 0 1 15054631.00 22914960.00  zM 15000000.00 23500000.77 m -418539.97 0 a 418539.97 418539.97 0 1 1 837079.95 0a 418539.97 418539.97 0 1 1 -837079.95 0M 16950000.00 22914960.00 L 16945369.00 22914960.00 A 418550.66 418550.66 0 0 1 16585040.00 22554631.00 L 16585040.00 22550000.00 L 16688904.87 22550000.00 L 16693147.00 22582221.00 A 317671.90 317671.90 0 0 0 16917779.00 22806853.00 L 16950000.00 22811095.13 L 16950000.00 22914960.00  zM 17000001.22 22499996.65 m -220780.35 0 a 220780.35 220780.35 0 1 1 441560.70 0a 220780.35 220780.35 0 1 1 -441560.70 0M 17000000.00 23500000.77 m -418539.97 0 a 418539.97 418539.97 0 1 1 837079.95 0a 418539.97 418539.97 0 1 1 -837079.95 0M 17054631.00 22914960.00 L 17050000.00 22914960.00 L 17050000.00 22811095.13 L 17082221.00 22806853.00 A 317671.90 317671.90 0 0 0 17306853.00 22582221.00 L 17311095.13 22550000.00 L 17414960.00 22550000.00 L 17414960.00 22554631.00 A 418550.66 418550.66 0 0 1 17054631.00 22914960.00  zM 18228346.00 22750001.63 m -368902.45 0 a 368902.45 368902.45 0 1 1 737804.91 0a 368902.45 368902.45 0 1 1 -737804.91 0M 19000000.00 17000004.01 m -497957.16 0 a 497957.16 497957.16 0 1 1 995914.32 0a 497957.16 497957.16 0 1 1 -995914.32 0M 18279528.00 18692918.64 m -468173.66 0 a 468173.66 468173.66 0 1 1 936347.33 0a 468173.66 468173.66 0 1 1 -936347.33 0M 21559056.00 17000004.01 m -497957.16 0 a 497957.16 497957.16 0 1 1 995914.32 0a 497957.16 497957.16 0 1 1 -995914.32 0M 20279528.00 18692918.64 m -468173.66 0 a 468173.66 468173.66 0 1 1 936347.33 0a 468173.66 468173.66 0 1 1 -936347.33 0M 18593598.84 21450000.03 L 18489804.57 21450000.02 L 18487254.00 21430626.00 A 268067.42 268067.42 0 0 0 18297720.00 21241092.00 L 18278346.02 21238541.44 L 18278346.03 21134747.18 A 365243.64 365243.64 0 0 1 18593598.84 21450000.03  zM 24450000.00 17850000.00 L 24393753.00 17850000.00 A 1354204.51 1354204.51 0 0 1 23150000.00 16606247.00 L 23150000.00 16550000.00 L 23250070.04 16550000.00 L 23261572.00 16696148.00 A 1253907.24 1253907.24 0 0 0 24303852.00 17738428.00 L 24450000.00 17749929.96 L 24450000.00 17850000.00  zM 24499998.53 16500003.48 m -628020.52 0 a 628020.52 628020.52 0 1 1 1256041.05 0a 628020.52 628020.52 0 1 1 -1256041.05 0M 24414960.00 20914960.00 L 23585040.00 20914960.00 L 23585040.00 20085040.00 L 24414960.00 20085040.00 L 24414960.00 20914960.00  zM 22137402.00 21865748.00 L 21405906.00 21865748.00 L 21405906.00 21134252.00 L 22137402.00 21134252.00 L 22137402.00 21865748.00  zM 24000000.00 21500000.77 m -418539.97 0 a 418539.97 418539.97 0 1 1 837079.95 0a 418539.97 418539.97 0 1 1 -837079.95 0M 18278345.97 21865252.84 L 18278345.98 21761458.57 L 18297720.00 21758908.00 A 268067.42 268067.42 0 0 0 18487254.00 21569374.00 L 18489804.56 21550000.02 L 18593598.82 21550000.03 A 365243.64 365243.64 0 0 1 18278345.97 21865252.84  zM 21510195.44 23950000.00 L 21406401.17 23950000.00 A 365243.70 365243.70 0 0 1 21721654.00 23634747.17 L 21721654.00 23738541.44 L 21702280.00 23741092.00 A 268067.42 268067.42 0 0 0 21512746.00 23930626.00 L 21510195.44 23950000.00  zM 21771653.05 24000002.89 m -170598.11 0 a 170598.11 170598.11 0 1 1 341196.22 0a 170598.11 170598.11 0 1 1 -341196.22 0M 22136906.83 23950000.00 L 22033112.56 23950000.00 L 22030562.00 23930626.00 A 268067.42 268067.42 0 0 0 21841028.00 23741092.00 L 21821654.00 23738541.44 L 21821654.00 23634747.17 A 365243.70 365243.70 0 0 1 22136906.83 23950000.00  zM 23667949.00 23754792.00 L 23638577.21 23703918.00 L 22521654.00 23703918.00 L 22443618.00 23688396.00 L 22377462.00 23644192.00 L 21849018.00 23115748.00 L 21405906.00 23115748.00 L 21405906.00 22384252.00 L 22137402.00 22384252.00 L 22137402.00 22827364.00 L 22606120.00 23296082.00 L 23638577.21 23296082.00 L 23667949.00 23245208.00 A 418532.10 418532.10 0 1 1 23667949.00 23754792.00  zM 23688904.87 22449999.99 L 23585040.00 22449999.98 L 23585040.00 22445369.00 A 418550.66 418550.66 0 0 1 23945369.00 22085040.00 L 23950000.02 22085040.00 L 23950000.01 22188904.87 L 23917779.00 22193147.00 A 317671.90 317671.90 0 0 0 23693147.00 22417779.00 L 23688904.87 22449999.99  zM 24000001.22 22499996.65 m -220780.35 0 a 220780.35 220780.35 0 1 1 441560.70 0a 220780.35 220780.35 0 1 1 -441560.70 0M 23949999.98 22914960.00 L 23945369.00 22914960.00 A 418550.66 418550.66 0 0 1 23585040.00 22554631.00 L 23585040.00 22549999.98 L 23688904.87 22549999.99 L 23693147.00 22582221.00 A 317671.90 317671.90 0 0 0 23917779.00 22806853.00 L 23949999.99 22811095.13 L 23949999.98 22914960.00  zM 24414960.00 22450000.02 L 24311095.13 22450000.01 L 24306853.00 22417779.00 A 317671.90 317671.90 0 0 0 24082221.00 22193147.00 L 24050000.01 22188904.87 L 24050000.02 22085040.00 L 24054631.00 22085040.00 A 418550.66 418550.66 0 0 1 24414960.00 22445369.00 L 24414960.00 22450000.02  zM 24054631.00 22914960.00 L 24049999.98 22914960.00 L 24049999.99 22811095.13 L 24082221.00 22806853.00 A 317671.90 317671.90 0 0 0 24306853.00 22582221.00 L 24311095.13 22550000.01 L 24414960.00 22550000.02 L 24414960.00 22554631.00 A 418550.66 418550.66 0 0 1 24054631.00 22914960.00  zM 15000000.00 24500000.77 m -418539.97 0 a 418539.97 418539.97 0 1 1 837079.95 0a 418539.97 418539.97 0 1 1 -837079.95 0M 17000000.00 25500000.77 m -418539.97 0 a 418539.97 418539.97 0 1 1 837079.95 0a 418539.97 418539.97 0 1 1 -837079.95 0M 17000000.00 24500000.77 m -418539.97 0 a 418539.97 418539.97 0 1 1 837079.95 0a 418539.97 418539.97 0 1 1 -837079.95 0M 18594094.00 24365748.00 L 17862598.00 24365748.00 L 17862598.00 23634252.00 L 18594094.00 23634252.00 L 18594094.00 24365748.00  zM 19122047.00 25769677.59 m -397303.33 0 a 397303.33 397303.33 0 1 1 794606.66 0a 397303.33 397303.33 0 1 1 -794606.66 0M 17000000.00 26500000.77 m -418539.97 0 a 418539.97 418539.97 0 1 1 837079.95 0a 418539.97 418539.97 0 1 1 -837079.95 0M 24054631.00 35085040.00 L 24111372.36 35100243.90 L 24796082.00 34415534.94 L 24796082.00 20334466.00 L 23358448.00 18896832.00 L 22743701.00 18896832.00 L 22743701.00 19157087.00 L 21815355.00 19157087.00 L 21815355.00 18896832.00 L 21442914.00 18896832.00 L 21364878.00 18881310.00 L 21298722.00 18837106.00 L 20415534.00 17953918.00 L 16834466.00 17953918.00 L 15203918.00 19584466.00 L 15203918.00 21085040.00 L 15414960.00 21085040.00 L 15414960.00 21914960.00 L 14585040.00 21914960.00 L 14585040.00 21085040.00 L 14796082.00 21085040.00 L 14796082.00 19500000.00 L 14811604.00 19421964.00 L 14855808.00 19355808.00 L 16605808.00 17605808.00 L 16671964.00 17561604.00 L 16750000.00 17546082.00 L 20500000.00 17546082.00 L 20578036.00 17561604.00 L 20644192.00 17605808.00 L 21527380.00 18488996.00 L 21815355.00 18488996.00 L 21815355.00 18228741.00 L 22743701.00 18228741.00 L 22743701.00 18488996.00 L 23442914.00 18488996.00 L 23520950.00 18504518.00 L 23587106.00 18548722.00 L 25144192.00 20105808.00 L 25188396.00 20171964.00 L 25203918.00 20250000.00 L 25203919.00 34500000.00 L 25188396.00 34578036.00 L 25144188.99 34644194.01 L 24399756.10 35388627.64 L 24414960.00 35445369.00 A 418539.97 418539.97 0 1 1 24054631.00 35085040.00  zM 15000000.00 26999997.09 m -408616.66 0 a 408616.66 408616.66 0 1 1 817233.32 0a 408616.66 408616.66 0 1 1 -817233.32 0M 16688904.87 27450000.00 L 16585040.00 27450000.00 L 16585040.00 27445369.00 A 418550.66 418550.66 0 0 1 16945369.00 27085040.00 L 16950000.00 27085040.00 L 16950000.00 27188904.87 L 16917779.00 27193147.00 A 317671.90 317671.90 0 0 0 16693147.00 27417779.00 L 16688904.87 27450000.00  zM 17414960.00 27450000.00 L 17311095.13 27450000.00 L 17306853.00 27417779.00 A 317671.90 317671.90 0 0 0 17082221.00 27193147.00 L 17050000.00 27188904.87 L 17050000.00 27085040.00 L 17054631.00 27085040.00 A 418550.66 418550.66 0 0 1 17414960.00 27445369.00 L 17414960.00 27450000.00  zM 14694882.00 28950000.00 L 14594882.00 28950000.00 L 14594882.00 28594882.00 L 14950000.00 28594882.00 L 14950000.00 28694882.00 L 14694882.00 28694882.00 L 14694882.00 28950000.00  zM 14999999.24 28999999.93 m -204721.07 0 a 204721.07 204721.07 0 1 1 409442.13 0a 204721.07 204721.07 0 1 1 -409442.13 0M 14950000.00 29405118.00 L 14594882.00 29405118.00 L 14594882.00 29050000.00 L 14694882.00 29050000.00 L 14694882.00 29305118.00 L 14950000.00 29305118.00 L 14950000.00 29405118.00  zM 15405118.00 28950000.00 L 15305118.00 28950000.00 L 15305118.00 28694882.00 L 15050000.00 28694882.00 L 15050000.00 28594882.00 L 15405118.00 28594882.00 L 15405118.00 28950000.00  zM 15405118.00 29405118.00 L 15050000.00 29405118.00 L 15050000.00 29305118.00 L 15305118.00 29305118.00 L 15305118.00 29050000.00 L 15405118.00 29050000.00 L 15405118.00 29405118.00  zM 16950000.00 27914960.00 L 16945369.00 27914960.00 A 418550.66 418550.66 0 0 1 16585040.00 27554631.00 L 16585040.00 27550000.00 L 16688904.87 27550000.00 L 16693147.00 27582221.00 A 317671.90 317671.90 0 0 0 16917779.00 27806853.00 L 16950000.00 27811095.13 L 16950000.00 27914960.00  zM 17000001.22 27499996.65 m -220780.35 0 a 220780.35 220780.35 0 1 1 441560.70 0a 220780.35 220780.35 0 1 1 -441560.70 0M 17054631.00 27914960.00 L 17050000.00 27914960.00 L 17050000.00 27811095.13 L 17082221.00 27806853.00 A 317671.90 317671.90 0 0 0 17306853.00 27582221.00 L 17311095.13 27550000.00 L 17414960.00 27550000.00 L 17414960.00 27554631.00 A 418550.66 418550.66 0 0 1 17054631.00 27914960.00  zM 17000000.00 28500000.77 m -418539.97 0 a 418539.97 418539.97 0 1 1 837079.95 0a 418539.97 418539.97 0 1 1 -837079.95 0M 17000000.00 29500000.77 m -418539.97 0 a 418539.97 418539.97 0 1 1 837079.95 0a 418539.97 418539.97 0 1 1 -837079.95 0M 20145669.00 25769677.59 m -397303.33 0 a 397303.33 397303.33 0 1 1 794606.66 0a 397303.33 397303.33 0 1 1 -794606.66 0M 21119292.97 26163582.00 A 393895.90 393895.90 0 0 1 20775394.00 25819682.97 L 20879440.51 25819682.97 L 20882959.00 25846408.00 A 296416.08 296416.08 0 0 0 21092568.00 26056017.00 L 21119292.97 26059535.49 L 21119292.97 26163582.00  zM 20879441.04 25719682.97 L 20775394.00 25719682.97 A 393902.80 393902.80 0 0 1 21119293.03 25375788.00 L 21119293.03 25479834.51 L 21092568.00 25483353.00 A 296416.08 296416.08 0 0 0 20882959.00 25692962.00 L 20879441.04 25719682.97  zM 21169291.74 25769682.83 m -192680.17 0 a 192680.17 192680.17 0 1 1 385360.34 0a 192680.17 192680.17 0 1 1 -385360.34 0M 21219292.97 26163582.00 L 21219292.97 26059534.97 L 21246014.00 26056017.00 A 296416.08 296416.08 0 0 0 21455623.00 25846408.00 L 21459141.49 25819683.03 L 21563188.00 25819683.03 A 393895.90 393895.90 0 0 1 21219292.97 26163582.00  zM 21721654.00 24365252.83 A 365243.70 365243.70 0 0 1 21406401.17 24050000.00 L 21510195.44 24050000.00 L 21512746.00 24069374.00 A 268067.42 268067.42 0 0 0 21702280.00 24258908.00 L 21721654.00 24261458.56 L 21721654.00 24365252.83  zM 21821654.00 24365252.83 L 21821654.00 24261458.56 L 21841028.00 24258908.00 A 268067.42 268067.42 0 0 0 22030562.00 24069374.00 L 22033112.56 24050000.00 L 22136906.83 24050000.00 A 365243.70 365243.70 0 0 1 21821654.00 24365252.83  zM 21563188.00 25719683.03 L 21459140.97 25719683.03 L 21455623.00 25692962.00 A 296416.08 296416.08 0 0 0 21246014.00 25483353.00 L 21219293.03 25479835.04 L 21219293.03 25375788.00 A 393902.80 393902.80 0 0 1 21563188.00 25717827.00 L 21563188.00 25719683.03  zM 24000000.00 24500000.77 m -418539.97 0 a 418539.97 418539.97 0 1 1 837079.95 0a 418539.97 418539.97 0 1 1 -837079.95 0M 24000000.00 25500000.77 m -418539.97 0 a 418539.97 418539.97 0 1 1 837079.95 0a 418539.97 418539.97 0 1 1 -837079.95 0M 24000000.00 26500000.77 m -418539.97 0 a 418539.97 418539.97 0 1 1 837079.95 0a 418539.97 418539.97 0 1 1 -837079.95 0M 23688904.87 27449999.99 L 23585040.00 27449999.98 L 23585040.00 27445369.00 A 418550.66 418550.66 0 0 1 23945369.00 27085040.00 L 23950000.02 27085040.00 L 23950000.01 27188904.87 L 23917779.00 27193147.00 A 317671.90 317671.90 0 0 0 23693147.00 27417779.00 L 23688904.87 27449999.99  zM 24414960.00 27450000.02 L 24311095.13 27450000.01 L 24306853.00 27417779.00 A 317671.90 317671.90 0 0 0 24082221.00 27193147.00 L 24050000.01 27188904.87 L 24050000.02 27085040.00 L 24054631.00 27085040.00 A 418550.66 418550.66 0 0 1 24414960.00 27445369.00 L 24414960.00 27450000.02  zM 23949999.98 27914960.00 L 23945369.00 27914960.00 A 418550.66 418550.66 0 0 1 23585040.00 27554631.00 L 23585040.00 27549999.98 L 23688904.87 27549999.99 L 23693147.00 27582221.00 A 317671.90 317671.90 0 0 0 23917779.00 27806853.00 L 23949999.99 27811095.13 L 23949999.98 27914960.00  zM 24000001.22 27499996.65 m -220780.35 0 a 220780.35 220780.35 0 1 1 441560.70 0a 220780.35 220780.35 0 1 1 -441560.70 0M 21779528.00 29749991.30 m -360573.29 0 a 360573.29 360573.29 0 1 1 721146.59 0a 360573.29 360573.29 0 1 1 -721146.59 0M 24000000.00 28500000.77 m -418539.97 0 a 418539.97 418539.97 0 1 1 837079.95 0a 418539.97 418539.97 0 1 1 -837079.95 0M 24054631.00 27914960.00 L 24049999.98 27914960.00 L 24049999.99 27811095.13 L 24082221.00 27806853.00 A 317671.90 317671.90 0 0 0 24306853.00 27582221.00 L 24311095.13 27550000.01 L 24414960.00 27550000.02 L 24414960.00 27554631.00 A 418550.66 418550.66 0 0 1 24054631.00 27914960.00  zM 24000000.00 29500000.77 m -418539.97 0 a 418539.97 418539.97 0 1 1 837079.95 0a 418539.97 418539.97 0 1 1 -837079.95 0M 15000000.00 31749997.09 m -408616.66 0 a 408616.66 408616.66 0 1 1 817233.32 0a 408616.66 408616.66 0 1 1 -817233.32 0M 16688904.87 32450000.00 L 16585040.00 32450000.00 L 16585040.00 32445369.00 A 418550.66 418550.66 0 0 1 16945369.00 32085040.00 L 16950000.00 32085040.00 L 16950000.00 32188904.87 L 16917779.00 32193147.00 A 317671.90 317671.90 0 0 0 16693147.00 32417779.00 L 16688904.87 32450000.00  zM 17000000.00 30500000.77 m -418539.97 0 a 418539.97 418539.97 0 1 1 837079.95 0a 418539.97 418539.97 0 1 1 -837079.95 0M 16950000.00 32914960.00 L 16945369.00 32914960.00 A 418550.66 418550.66 0 0 1 16585040.00 32554631.00 L 16585040.00 32550000.00 L 16688904.87 32550000.00 L 16693147.00 32582221.00 A 317671.90 317671.90 0 0 0 16917779.00 32806853.00 L 16950000.00 32811095.13 L 16950000.00 32914960.00  zM 17000001.22 32499996.65 m -220780.35 0 a 220780.35 220780.35 0 1 1 441560.70 0a 220780.35 220780.35 0 1 1 -441560.70 0M 17000000.00 31500000.77 m -418539.97 0 a 418539.97 418539.97 0 1 1 837079.95 0a 418539.97 418539.97 0 1 1 -837079.95 0M 19220472.00 29749991.30 m -360573.29 0 a 360573.29 360573.29 0 1 1 721146.59 0a 360573.29 360573.29 0 1 1 -721146.59 0M 17414960.00 32450000.00 L 17311095.13 32450000.00 L 17306853.00 32417779.00 A 317671.90 317671.90 0 0 0 17082221.00 32193147.00 L 17050000.00 32188904.87 L 17050000.00 32085040.00 L 17054631.00 32085040.00 A 418550.66 418550.66 0 0 1 17414960.00 32445369.00 L 17414960.00 32450000.00  zM 17054631.00 32914960.00 L 17050000.00 32914960.00 L 17050000.00 32811095.13 L 17082221.00 32806853.00 A 317671.90 317671.90 0 0 0 17306853.00 32582221.00 L 17311095.13 32550000.00 L 17414960.00 32550000.00 L 17414960.00 32554631.00 A 418550.66 418550.66 0 0 1 17054631.00 32914960.00  zM 19000000.00 32688983.69 m -507880.47 0 a 507880.47 507880.47 0 1 1 1015760.94 0a 507880.47 507880.47 0 1 1 -1015760.94 0M 14694882.00 33700000.00 L 14594882.00 33700000.00 L 14594882.00 33344882.00 L 14950000.00 33344882.00 L 14950000.00 33444882.00 L 14694882.00 33444882.00 L 14694882.00 33700000.00  zM 14999999.24 33749999.93 m -204721.07 0 a 204721.07 204721.07 0 1 1 409442.13 0a 204721.07 204721.07 0 1 1 -409442.13 0M 14950000.00 34155118.00 L 14594882.00 34155118.00 L 14594882.00 33800000.00 L 14694882.00 33800000.00 L 14694882.00 34055118.00 L 14950000.00 34055118.00 L 14950000.00 34155118.00  zM 15405118.00 33700000.00 L 15305118.00 33700000.00 L 15305118.00 33444882.00 L 15050000.00 33444882.00 L 15050000.00 33344882.00 L 15405118.00 33344882.00 L 15405118.00 33700000.00  zM 17000000.00 33500000.77 m -418539.97 0 a 418539.97 418539.97 0 1 1 837079.95 0a 418539.97 418539.97 0 1 1 -837079.95 0M 15405118.00 34155118.00 L 15050000.00 34155118.00 L 15050000.00 34055118.00 L 15305118.00 34055118.00 L 15305118.00 33800000.00 L 15405118.00 33800000.00 L 15405118.00 34155118.00  zM 18500000.00 40703918.00 L 16500000.00 40703918.00 L 16421964.00 40688396.00 L 16355808.00 40644192.00 L 15855808.00 40144192.00 L 15811604.00 40078036.00 L 15796082.00 40000000.00 L 15796082.00 38584466.00 L 15267269.50 38055653.50 L 15248748.00 38074175.00 A 408604.28 408604.28 0 1 1 15377510.00 37593630.00 L 15394192.00 37605808.00 L 15749887.60 37961503.60 L 15796082.00 37942369.25 L 15796082.00 33584466.00 L 15267269.50 33055653.50 L 15248748.00 33074175.00 A 408604.28 408604.28 0 1 1 15377510.00 32593630.00 L 15394192.00 32605808.00 L 15749887.60 32961503.60 L 15796082.00 32942369.25 L 15796082.00 28834466.00 L 15267269.50 28305653.50 L 15248748.00 28324175.00 A 408604.28 408604.28 0 1 1 15377510.00 27843630.00 L 15394192.00 27855808.00 L 16144192.00 28605808.00 L 16188396.00 28671964.00 L 16203918.00 28750000.00 L 16203918.00 39915534.00 L 16584466.00 40296082.00 L 18415534.06 40296082.00 L 19058455.00 39653161.70 L 19033859.00 39561369.00 A 470160.73 470160.73 0 1 1 19438631.00 39966141.00 L 19346838.30 39941545.00 L 18644192.00 40644192.00 L 18578036.00 40688396.00 L 18500000.00 40703918.00  zM 17000000.00 34500000.77 m -418539.97 0 a 418539.97 418539.97 0 1 1 837079.95 0a 418539.97 418539.97 0 1 1 -837079.95 0M 17000000.00 35500000.77 m -418539.97 0 a 418539.97 418539.97 0 1 1 837079.95 0a 418539.97 418539.97 0 1 1 -837079.95 0M 17000000.00 36500000.77 m -418539.97 0 a 418539.97 418539.97 0 1 1 837079.95 0a 418539.97 418539.97 0 1 1 -837079.95 0M 24000000.00 30500000.77 m -418539.97 0 a 418539.97 418539.97 0 1 1 837079.95 0a 418539.97 418539.97 0 1 1 -837079.95 0M 24000000.00 31500000.77 m -418539.97 0 a 418539.97 418539.97 0 1 1 837079.95 0a 418539.97 418539.97 0 1 1 -837079.95 0M 23688904.87 32449999.99 L 23585040.00 32449999.98 L 23585040.00 32445369.00 A 418550.66 418550.66 0 0 1 23945369.00 32085040.00 L 23950000.02 32085040.00 L 23950000.01 32188904.87 L 23917779.00 32193147.00 A 317671.90 317671.90 0 0 0 23693147.00 32417779.00 L 23688904.87 32449999.99  zM 24000001.22 32499996.65 m -220780.35 0 a 220780.35 220780.35 0 1 1 441560.70 0a 220780.35 220780.35 0 1 1 -441560.70 0M 24414960.00 32450000.02 L 24311095.13 32450000.01 L 24306853.00 32417779.00 A 317671.90 317671.90 0 0 0 24082221.00 32193147.00 L 24050000.01 32188904.87 L 24050000.02 32085040.00 L 24054631.00 32085040.00 A 418550.66 418550.66 0 0 1 24414960.00 32445369.00 L 24414960.00 32450000.02  zM 20763780.00 34845667.99 L 20663780.00 34845667.99 L 20663780.00 34559449.00 L 20949999.01 34559449.00 L 20949999.01 34659449.00 L 20763780.00 34659449.00 L 20763780.00 34845667.99  zM 23949999.98 32914960.00 L 23945369.00 32914960.00 A 418550.66 418550.66 0 0 1 23585040.00 32554631.00 L 23585040.00 32549999.98 L 23688904.87 32549999.99 L 23693147.00 32582221.00 A 317671.90 317671.90 0 0 0 23917779.00 32806853.00 L 23949999.99 32811095.13 L 23949999.98 32914960.00  zM 24000000.00 33500000.77 m -418539.97 0 a 418539.97 418539.97 0 1 1 837079.95 0a 418539.97 418539.97 0 1 1 -837079.95 0M 24054631.00 32914960.00 L 24049999.98 32914960.00 L 24049999.99 32811095.13 L 24082221.00 32806853.00 A 317671.90 317671.90 0 0 0 24306853.00 32582221.00 L 24311095.13 32550000.01 L 24414960.00 32550000.02 L 24414960.00 32554631.00 A 418550.66 418550.66 0 0 1 24054631.00 32914960.00  zM 24000000.00 34500000.77 m -418539.97 0 a 418539.97 418539.97 0 1 1 837079.95 0a 418539.97 418539.97 0 1 1 -837079.95 0M 20949998.99 35231889.00 L 20663780.00 35231889.00 L 20663780.00 34945667.99 L 20763780.00 34945667.99 L 20763780.00 35131889.00 L 20949998.99 35131889.00 L 20949998.99 35231889.00  zM 21000002.38 34895663.09 m -140500.91 0 a 140500.91 140500.91 0 1 1 281001.82 0a 140500.91 140500.91 0 1 1 -281001.82 0M 21336220.00 35231889.00 L 21049998.99 35231889.00 L 21049998.99 35131889.00 L 21236220.00 35131889.00 L 21236220.00 34945668.01 L 21336220.00 34945668.01 L 21336220.00 35231889.00  zM 21336220.00 34845668.01 L 21236220.00 34845668.01 L 21236220.00 34659449.00 L 21049999.01 34659449.00 L 21049999.01 34559449.00 L 21336220.00 34559449.00 L 21336220.00 34845668.01  zM 22449999.99 36101968.00 L 22163780.00 36101968.00 L 22163780.00 35815747.99 L 22263780.00 35815747.99 L 22263780.00 36001968.00 L 22449999.99 36001968.00 L 22449999.99 36101968.00  zM 22263780.00 35715747.99 L 22163780.00 35715747.99 L 22163780.00 35429528.00 L 22450000.01 35429528.00 L 22450000.01 35529528.00 L 22263780.00 35529528.00 L 22263780.00 35715747.99  zM 22500002.38 35765742.09 m -140500.91 0 a 140500.91 140500.91 0 1 1 281001.82 0a 140500.91 140500.91 0 1 1 -281001.82 0M 22836220.00 36101968.00 L 22549999.99 36101968.00 L 22549999.99 36001968.00 L 22736220.00 36001968.00 L 22736220.00 35815748.01 L 22836220.00 35815748.01 L 22836220.00 36101968.00  zM 22836220.00 35715748.01 L 22736220.00 35715748.01 L 22736220.00 35529528.00 L 22550000.01 35529528.00 L 22550000.01 35429528.00 L 22836220.00 35429528.00 L 22836220.00 35715748.01  zM 24000000.00 36500000.77 m -418539.97 0 a 418539.97 418539.97 0 1 1 837079.95 0a 418539.97 418539.97 0 1 1 -837079.95 0M 15000000.00 36749997.09 m -408616.66 0 a 408616.66 408616.66 0 1 1 817233.32 0a 408616.66 408616.66 0 1 1 -817233.32 0M 14694882.00 38700000.00 L 14594882.00 38700000.00 L 14594882.00 38344882.00 L 14950000.00 38344882.00 L 14950000.00 38444882.00 L 14694882.00 38444882.00 L 14694882.00 38700000.00  zM 15405118.00 38700000.00 L 15305118.00 38700000.00 L 15305118.00 38444882.00 L 15050000.00 38444882.00 L 15050000.00 38344882.00 L 15405118.00 38344882.00 L 15405118.00 38700000.00  zM 16688904.87 37450000.00 L 16585040.00 37450000.00 L 16585040.00 37445369.00 A 418550.66 418550.66 0 0 1 16945369.00 37085040.00 L 16950000.00 37085040.00 L 16950000.00 37188904.87 L 16917779.00 37193147.00 A 317671.90 317671.90 0 0 0 16693147.00 37417779.00 L 16688904.87 37450000.00  zM 16950000.00 37914960.00 L 16945369.00 37914960.00 A 418550.66 418550.66 0 0 1 16585040.00 37554631.00 L 16585040.00 37550000.00 L 16688904.87 37550000.00 L 16693147.00 37582221.00 A 317671.90 317671.90 0 0 0 16917779.00 37806853.00 L 16950000.00 37811095.13 L 16950000.00 37914960.00  zM 17000001.22 37499996.65 m -220780.35 0 a 220780.35 220780.35 0 1 1 441560.70 0a 220780.35 220780.35 0 1 1 -441560.70 0M 17054631.00 37914960.00 L 17050000.00 37914960.00 L 17050000.00 37811095.13 L 17082221.00 37806853.00 A 317671.90 317671.90 0 0 0 17306853.00 37582221.00 L 17311095.13 37550000.00 L 17414960.00 37550000.00 L 17414960.00 37554631.00 A 418550.66 418550.66 0 0 1 17054631.00 37914960.00  zM 17000000.00 38500000.77 m -418539.97 0 a 418539.97 418539.97 0 1 1 837079.95 0a 418539.97 418539.97 0 1 1 -837079.95 0M 17414960.00 37450000.00 L 17311095.13 37450000.00 L 17306853.00 37417779.00 A 317671.90 317671.90 0 0 0 17082221.00 37193147.00 L 17050000.00 37188904.87 L 17050000.00 37085040.00 L 17054631.00 37085040.00 A 418550.66 418550.66 0 0 1 17414960.00 37445369.00 L 17414960.00 37450000.00  zM 19000000.00 38000007.69 m -507880.47 0 a 507880.47 507880.47 0 1 1 1015760.94 0a 507880.47 507880.47 0 1 1 -1015760.94 0M 14950000.00 39155118.00 L 14594882.00 39155118.00 L 14594882.00 38800000.00 L 14694882.00 38800000.00 L 14694882.00 39055118.00 L 14950000.00 39055118.00 L 14950000.00 39155118.00  zM 14999999.24 38749999.93 m -204721.07 0 a 204721.07 204721.07 0 1 1 409442.13 0a 204721.07 204721.07 0 1 1 -409442.13 0M 15405118.00 39155118.00 L 15050000.00 39155118.00 L 15050000.00 39055118.00 L 15305118.00 39055118.00 L 15305118.00 38800000.00 L 15405118.00 38800000.00 L 15405118.00 39155118.00  zM 15499998.53 42500003.48 m -628020.52 0 a 628020.52 628020.52 0 1 1 1256041.05 0a 628020.52 628020.52 0 1 1 -1256041.05 0M 16850000.00 42450000.00 L 16749929.96 42450000.00 L 16738428.00 42303852.00 A 1253907.24 1253907.24 0 0 0 15696148.00 41261572.00 L 15550000.00 41250070.04 L 15550000.00 41150000.00 L 15606247.00 41150000.00 A 1354204.51 1354204.51 0 0 1 16850000.00 42393753.00 L 16850000.00 42450000.00  zM 17414960.00 39914960.00 L 16585040.00 39914960.00 L 16585040.00 39085040.00 L 17414960.00 39085040.00 L 17414960.00 39914960.00  zM 18994362.73 42243308.98 L 18890305.65 42243308.97 A 377750.69 377750.69 0 0 1 19215748.03 41917865.17 L 19215748.02 42021921.99 L 19193805.00 42024811.00 A 277967.15 277967.15 0 0 0 18997252.00 42221364.00 L 18994362.73 42243308.98  zM 19265748.44 42293305.65 m -180637.35 0 a 180637.35 180637.35 0 1 1 361274.69 0a 180637.35 180637.35 0 1 1 -361274.69 0M 19215747.97 42668748.81 A 377746.72 377746.72 0 0 1 18890306.70 42343308.97 L 18994363.25 42343308.98 L 18997252.00 42365250.00 A 277967.15 277967.15 0 0 0 19193805.00 42561803.00 L 19215747.98 42564692.01 L 19215747.97 42668748.81  zM 19315747.97 42668748.83 L 19315747.98 42564692.01 L 19337691.00 42561803.00 A 277967.15 277967.15 0 0 0 19534244.00 42365250.00 L 19537132.74 42343309.02 L 19641189.28 42343309.03 A 377742.76 377742.76 0 0 1 19315747.97 42668748.83  zM 20137282.83 39449999.97 L 20033859.00 39449999.96 L 20033859.00 39438631.00 A 470157.75 470157.75 0 0 1 20438631.00 39033859.00 L 20450000.04 39033859.00 L 20450000.03 39137282.83 L 20404418.00 39143284.00 A 369308.83 369308.83 0 0 0 20143284.00 39404418.00 L 20137282.83 39449999.97  zM 20966141.00 39450000.04 L 20862717.17 39450000.03 L 20856716.00 39404418.00 A 369308.83 369308.83 0 0 0 20595582.00 39143284.00 L 20550000.03 39137282.83 L 20550000.04 39033859.00 L 20561369.00 39033859.00 A 470157.75 470157.75 0 0 1 20966141.00 39438631.00 L 20966141.00 39450000.04  zM 21966141.00 39966141.00 L 21033859.00 39966141.00 L 21033859.00 39033859.00 L 21966141.00 39033859.00 L 21966141.00 39966141.00  zM 22500000.00 37734254.26 m -339118.96 0 a 339118.96 339118.96 0 1 1 678237.92 0a 339118.96 339118.96 0 1 1 -678237.92 0M 23667949.00 38754792.00 L 23638577.21 38703918.00 L 21395669.00 38703918.00 L 21317632.00 38688396.00 L 21251474.99 38644188.99 L 21047081.53 38439796.04 A 334040.18 334040.18 0 0 1 20793556.00 38373374.00 A 339117.53 339117.53 0 1 1 21335465.04 38151412.53 L 21480134.15 38296082.00 L 23638577.21 38296082.00 L 23667949.00 38245208.00 A 418532.10 418532.10 0 1 1 23667949.00 38754792.00  zM 23688904.87 37449999.99 L 23585040.00 37449999.98 L 23585040.00 37445369.00 A 418550.66 418550.66 0 0 1 23945369.00 37085040.00 L 23950000.02 37085040.00 L 23950000.01 37188904.87 L 23917779.00 37193147.00 A 317671.90 317671.90 0 0 0 23693147.00 37417779.00 L 23688904.87 37449999.99  zM 24000001.22 37499996.65 m -220780.35 0 a 220780.35 220780.35 0 1 1 441560.70 0a 220780.35 220780.35 0 1 1 -441560.70 0M 23949999.98 37914960.00 L 23945369.00 37914960.00 A 418550.66 418550.66 0 0 1 23585040.00 37554631.00 L 23585040.00 37549999.98 L 23688904.87 37549999.99 L 23693147.00 37582221.00 A 317671.90 317671.90 0 0 0 23917779.00 37806853.00 L 23949999.99 37811095.13 L 23949999.98 37914960.00  zM 24414960.00 37450000.02 L 24311095.13 37450000.01 L 24306853.00 37417779.00 A 317671.90 317671.90 0 0 0 24082221.00 37193147.00 L 24050000.01 37188904.87 L 24050000.02 37085040.00 L 24054631.00 37085040.00 A 418550.66 418550.66 0 0 1 24414960.00 37445369.00 L 24414960.00 37450000.02  zM 24054631.00 37914960.00 L 24049999.98 37914960.00 L 24049999.99 37811095.13 L 24082221.00 37806853.00 A 317671.90 317671.90 0 0 0 24306853.00 37582221.00 L 24311095.13 37550000.01 L 24414960.00 37550000.02 L 24414960.00 37554631.00 A 418550.66 418550.66 0 0 1 24054631.00 37914960.00  zM 20449999.96 39966141.00 L 20438631.00 39966141.00 A 470157.75 470157.75 0 0 1 20033859.00 39561369.00 L 20033859.00 39549999.96 L 20137282.83 39549999.97 L 20143284.00 39595582.00 A 369308.83 369308.83 0 0 0 20404418.00 39856716.00 L 20449999.97 39862717.17 L 20449999.96 39966141.00  zM 20500001.69 39499995.47 m -248880.53 0 a 248880.53 248880.53 0 1 1 497761.06 0a 248880.53 248880.53 0 1 1 -497761.06 0M 20561369.00 39966141.00 L 20549999.96 39966141.00 L 20549999.97 39862717.17 L 20595582.00 39856716.00 A 369308.83 369308.83 0 0 0 20856716.00 39595582.00 L 20862717.17 39550000.03 L 20966141.00 39550000.04 L 20966141.00 39561369.00 A 470157.75 470157.75 0 0 1 20561369.00 39966141.00  zM 19641190.37 42243309.03 L 19537133.28 42243309.02 L 19534244.00 42221364.00 A 277967.15 277967.15 0 0 0 19337691.00 42024811.00 L 19315748.02 42021921.99 L 19315748.03 41917865.19 A 377746.72 377746.72 0 0 1 19641190.37 42243309.03  zM 20250000.00 42293310.38 m -378827.55 0 a 378827.55 378827.55 0 1 1 757655.10 0a 378827.55 378827.55 0 1 1 -757655.10 0M 21609842.00 42668897.00 L 20858662.00 42668897.00 L 20858662.00 41917717.00 L 21609842.00 41917717.00 L 21609842.00 42668897.00  zM 23250070.04 42450000.00 L 23150000.00 42450000.00 L 23150000.00 42393753.00 A 1354204.51 1354204.51 0 0 1 24393753.00 41150000.00 L 24450000.00 41150000.00 L 24450000.00 41250070.04 L 24303852.00 41261572.00 A 1253907.24 1253907.24 0 0 0 23261572.00 42303852.00 L 23250070.04 42450000.00  zM 24000000.00 39500000.77 m -418539.97 0 a 418539.97 418539.97 0 1 1 837079.95 0a 418539.97 418539.97 0 1 1 -837079.95 0M 24499998.53 42500003.48 m -628020.52 0 a 628020.52 628020.52 0 1 1 1256041.05 0a 628020.52 628020.52 0 1 1 -1256041.05 0"/>
<path id="N" d="M 18999996.79 32688971.53 m -407030.24 0 a 407030.24 407030.24 0 1 1 814060.47 0a 407030.24 407030.24 0 1 1 -814060.47 0M 18999997.17 32688985.88 m -307741.12 0 a 307741.12 307741.12 0 1 1 615482.25 0a 307741.12 307741.12 0 1 1 -615482.25 0"/>
<path id="N" d="M 19122056.56 25769699.80 m -296416.08 0 a 296416.08 296416.08 0 1 1 592832.16 0a 296416.08 296416.08 0 1 1 -592832.16 0M 19122047.74 25769682.83 m -192680.17 0 a 192680.17 192680.17 0 1 1 385360.34 0a 192680.17 192680.17 0 1 1 -385360.34 0"/>
<path id="N" d="M 19220476.79 29750009.21 m -259692.04 0 a 259692.04 259692.04 0 1 1 519384.07 0a 259692.04 259692.04 0 1 1 -519384.07 0M 19220470.59 29750001.48 m -160563.52 0 a 160563.52 160563.52 0 1 1 321127.04 0a 160563.52 160563.52 0 1 1 -321127.04 0"/>
<path id="N" d="M 24000002.99 31500005.10 m -317671.90 0 a 317671.90 317671.90 0 1 1 635343.80 0a 317671.90 317671.90 0 1 1 -635343.80 0M 24000001.22 31499996.65 m -220780.35 0 a 220780.35 220780.35 0 1 1 441560.70 0a 220780.35 220780.35 0 1 1 -441560.70 0"/>
<path id="N" d="M 24000002.99 30500005.10 m -317671.90 0 a 317671.90 317671.90 0 1 1 635343.80 0a 317671.90 317671.90 0 1 1 -635343.80 0M 24000001.22 30499996.65 m -220780.35 0 a 220780.35 220780.35 0 1 1 441560.70 0a 220780.35 220780.35 0 1 1 -441560.70 0"/>
<path id="N" d="M 24000002.99 34500005.10 m -317671.90 0 a 317671.90 317671.90 0 1 1 635343.80 0a 317671.90 317671.90 0 1 1 -635343.80 0M 24000001.22 34499996.65 m -220780.35 0 a 220780.35 220780.35 0 1 1 441560.70 0a 220780.35 220780.35 0 1 1 -441560.70 0"/>
<path id="N" d="M 18279530.21 18692917.15 m -367311.31 0 a 367311.31 367311.31 0 1 1 734622.63 0a 367311.31 367311.31 0 1 1 -734622.63 0M 18279524.50 18692923.68 m -240838.32 0 a 240838.32 240838.32 0 1 1 481676.63 0a 240838.32 240838.32 0 1 1 -481676.63 0"/>
<path id="N" d="M 17000002.99 33500005.10 m -317671.90 0 a 317671.90 317671.90 0 1 1 635343.80 0a 317671.90 317671.90 0 1 1 -635343.80 0M 17000001.22 33499996.65 m -220780.35 0 a 220780.35 220780.35 0 1 1 441560.70 0a 220780.35 220780.35 0 1 1 -441560.70 0"/>
<path id="N" d="M 24000002.99 39500005.10 m -317671.90 0 a 317671.90 317671.90 0 1 1 635343.80 0a 317671.90 317671.90 0 1 1 -635343.80 0M 24000001.22 39499996.65 m -220780.35 0 a 220780.35 220780.35 0 1 1 441560.70 0a 220780.35 220780.35 0 1 1 -441560.70 0"/>
<path id="N" d="M 24000002.99 36500005.10 m -317671.90 0 a 317671.90 317671.90 0 1 1 635343.80 0a 317671.90 317671.90 0 1 1 -635343.80 0M 24000001.22 36499996.65 m -220780.35 0 a 220780.35 220780.35 0 1 1 441560.70 0a 220780.35 220780.35 0 1 1 -441560.70 0"/>
<path id="N" d="M 17000002.99 38500005.10 m -317671.90 0 a 317671.90 317671.90 0 1 1 635343.80 0a 317671.90 317671.90 0 1 1 -635343.80 0M 17000001.22 38499996.65 m -220780.35 0 a 220780.35 220780.35 0 1 1 441560.70 0a 220780.35 220780.35 0 1 1 -441560.70 0"/>
<path id="N" d="M 17000002.99 35500005.10 m -317671.90 0 a 317671.90 317671.90 0 1 1 635343.80 0a 317671.90 317671.90 0 1 1 -635343.80 0M 17000001.22 35499996.65 m -220780.35 0 a 220780.35 220780.35 0 1 1 441560.70 0a 220780.35 220780.35 0 1 1 -441560.70 0"/>
<path id="N" d="M 17000002.99 31500005.10 m -317671.90 0 a 317671.90 317671.90 0 1 1 635343.80 0a 317671.90 317671.90 0 1 1 -635343.80 0M 17000001.22 31499996.65 m -220780.35 0 a 220780.35 220780.35 0 1 1 441560.70 0a 220780.35 220780.35 0 1 1 -441560.70 0"/>
<path id="N" d="M 17000002.99 36500005.10 m -317671.90 0 a 317671.90 317671.90 0 1 1 635343.80 0a 317671.90 317671.90 0 1 1 -635343.80 0M 17000001.22 36499996.65 m -220780.35 0 a 220780.35 220780.35 0 1 1 441560.70 0a 220780.35 220780.35 0 1 1 -441560.70 0"/>
<path id="N" d="M 20250001.07 42293307.01 m -277967.15 0 a 277967.15 277967.15 0 1 1 555934.30 0a 277967.15 277967.15 0 1 1 -555934.30 0M 20250000.44 42293305.65 m -180637.35 0 a 180637.35 180637.35 0 1 1 361274.69 0a 180637.35 180637.35 0 1 1 -361274.69 0"/>
<path id="N" d="M 24000002.99 26500005.10 m -317671.90 0 a 317671.90 317671.90 0 1 1 635343.80 0a 317671.90 317671.90 0 1 1 -635343.80 0M 24000001.22 26499996.65 m -220780.35 0 a 220780.35 220780.35 0 1 1 441560.70 0a 220780.35 220780.35 0 1 1 -441560.70 0"/>
<path id="N" d="M 17000002.99 28500005.10 m -317671.90 0 a 317671.90 317671.90 0 1 1 635343.80 0a 317671.90 317671.90 0 1 1 -635343.80 0M 17000001.22 28499996.65 m -220780.35 0 a 220780.35 220780.35 0 1 1 441560.70 0a 220780.35 220780.35 0 1 1 -441560.70 0"/>
<path id="N" d="M 17000002.99 20500005.10 m -317671.90 0 a 317671.90 317671.90 0 1 1 635343.80 0a 317671.90 317671.90 0 1 1 -635343.80 0M 17000001.22 20499996.65 m -220780.35 0 a 220780.35 220780.35 0 1 1 441560.70 0a 220780.35 220780.35 0 1 1 -441560.70 0"/>
<path id="N" d="M 17000002.99 21500005.10 m -317671.90 0 a 317671.90 317671.90 0 1 1 635343.80 0a 317671.90 317671.90 0 1 1 -635343.80 0M 17000001.22 21499996.65 m -220780.35 0 a 220780.35 220780.35 0 1 1 441560.70 0a 220780.35 220780.35 0 1 1 -441560.70 0"/>
<path id="N" d="M 24000002.99 21500005.10 m -317671.90 0 a 317671.90 317671.90 0 1 1 635343.80 0a 317671.90 317671.90 0 1 1 -635343.80 0M 24000001.22 21499996.65 m -220780.35 0 a 220780.35 220780.35 0 1 1 441560.70 0a 220780.35 220780.35 0 1 1 -441560.70 0"/>
<path id="N" d="M 24000002.99 24500005.10 m -317671.90 0 a 317671.90 317671.90 0 1 1 635343.80 0a 317671.90 317671.90 0 1 1 -635343.80 0M 24000001.22 24499996.65 m -220780.35 0 a 220780.35 220780.35 0 1 1 441560.70 0a 220780.35 220780.35 0 1 1 -441560.70 0"/>
<path id="N" d="M 17000002.99 25500005.10 m -317671.90 0 a 317671.90 317671.90 0 1 1 635343.80 0a 317671.90 317671.90 0 1 1 -635343.80 0M 17000001.22 25499996.65 m -220780.35 0 a 220780.35 220780.35 0 1 1 441560.70 0a 220780.35 220780.35 0 1 1 -441560.70 0"/>
<path id="N" d="M 24000002.99 25500005.10 m -317671.90 0 a 317671.90 317671.90 0 1 1 635343.80 0a 317671.90 317671.90 0 1 1 -635343.80 0M 24000001.22 25499996.65 m -220780.35 0 a 220780.35 220780.35 0 1 1 441560.70 0a 220780.35 220780.35 0 1 1 -441560.70 0"/>
<path id="N" d="M 24000002.99 28500005.10 m -317671.90 0 a 317671.90 317671.90 0 1 1 635343.80 0a 317671.90 317671.90 0 1 1 -635343.80 0M 24000001.22 28499996.65 m -220780.35 0 a 220780.35 220780.35 0 1 1 441560.70 0a 220780.35 220780.35 0 1 1 -441560.70 0"/>
<path id="N" d="M 17000002.99 30500005.10 m -317671.90 0 a 317671.90 317671.90 0 1 1 635343.80 0a 317671.90 317671.90 0 1 1 -635343.80 0M 17000001.22 30499996.65 m -220780.35 0 a 220780.35 220780.35 0 1 1 441560.70 0a 220780.35 220780.35 0 1 1 -441560.70 0"/>
<path id="N" d="M 24000002.99 29500005.10 m -317671.90 0 a 317671.90 317671.90 0 1 1 635343.80 0a 317671.90 317671.90 0 1 1 -635343.80 0M 24000001.22 29499996.65 m -220780.35 0 a 220780.35 220780.35 0 1 1 441560.70 0a 220780.35 220780.35 0 1 1 -441560.70 0"/>
<path id="N" d="M 24314960.00 20185040.00 L 23685040.00 20185040.00 L 23685040.00 20814960.00 L 24314960.00 20814960.00 L 24314960.00 20185040.00  zM 24000001.22 20499996.65 m -220780.35 0 a 220780.35 220780.35 0 1 1 441560.70 0a 220780.35 220780.35 0 1 1 -441560.70 0"/>
<path id="N" d="M 17314960.00 39185040.00 L 16685040.00 39185040.00 L 16685040.00 39814960.00 L 17314960.00 39814960.00 L 17314960.00 39185040.00  zM 17000001.22 39499996.65 m -220780.35 0 a 220780.35 220780.35 0 1 1 441560.70 0a 220780.35 220780.35 0 1 1 -441560.70 0"/>
<path id="N" d="M 17000002.99 29500005.10 m -317671.90 0 a 317671.90 317671.90 0 1 1 635343.80 0a 317671.90 317671.90 0 1 1 -635343.80 0M 17000001.22 29499996.65 m -220780.35 0 a 220780.35 220780.35 0 1 1 441560.70 0a 220780.35 220780.35 0 1 1 -441560.70 0"/>
<path id="N" d="M 14999996.32 31749994.16 m -307757.99 0 a 307757.99 307757.99 0 1 1 615515.98 0a 307757.99 307757.99 0 1 1 -615515.98 0M 14999999.24 31749999.93 m -204721.07 0 a 204721.07 204721.07 0 1 1 409442.13 0a 204721.07 204721.07 0 1 1 -409442.13 0"/>
<path id="N" d="M 23724883.00 23341161.00 L 23701322.69 23398041.00 L 22563887.00 23398041.00 L 22037402.00 22871556.00 L 22037402.00 22484252.00 L 21505906.00 22484252.00 L 21505906.00 23015748.00 L 21893210.00 23015748.00 L 22449558.00 23572096.00 L 22482636.00 23594198.00 L 22521654.00 23601959.00 L 23701322.69 23601959.00 L 23724883.00 23658839.00 A 317683.20 317683.20 0 1 0 23724883.00 23341161.00  zM 21771653.05 22750002.89 m -170598.11 0 a 170598.11 170598.11 0 1 1 341196.22 0a 170598.11 170598.11 0 1 1 -341196.22 0M 24000001.22 23499996.65 m -220780.35 0 a 220780.35 220780.35 0 1 1 441560.70 0a 220780.35 220780.35 0 1 1 -441560.70 0"/>
<path id="N" d="M 24306853.00 35417779.00 L 24283292.78 35360899.22 L 25072096.00 34572096.00 L 25094198.00 34539018.00 L 25101959.00 34500000.00 L 25101959.00 20250000.00 L 25094198.00 20210982.00 L 25072096.00 20177904.00 L 23515010.00 18620818.00 L 23481932.00 18598716.00 L 23442914.00 18590955.00 L 22643701.00 18590955.00 L 22643701.00 18328741.00 L 21915355.00 18328741.00 L 21915355.00 18590955.00 L 21485147.00 18590955.00 L 20572096.00 17677904.00 L 20539018.00 17655802.00 L 20500000.00 17648041.00 L 16750000.00 17648041.00 L 16710982.00 17655802.00 L 16677904.00 17677904.00 L 14927904.00 19427904.00 L 14905802.00 19460982.00 L 14898041.00 19500000.00 L 14898041.00 21185040.00 L 14685040.00 21185040.00 L 14685040.00 21814960.00 L 15314960.00 21814960.00 L 15314960.00 21185040.00 L 15101959.00 21185040.00 L 15101959.00 19542233.00 L 16792233.00 17851959.00 L 20457767.00 17851959.00 L 21370818.00 18765010.00 L 21403896.00 18787112.00 L 21442914.00 18794873.00 L 21915355.00 18794873.00 L 21915355.00 19057087.00 L 22643701.00 19057087.00 L 22643701.00 18794873.00 L 23400681.00 18794873.00 L 24898041.00 20292233.00 L 24898041.00 34457767.00 L 24139100.78 35216707.22 L 24082221.00 35193147.00 A 317666.21 317666.21 0 1 0 24306853.00 35417779.00  zM 15000001.22 21499996.65 m -220780.35 0 a 220780.35 220780.35 0 1 1 441560.70 0a 220780.35 220780.35 0 1 1 -441560.70 0M 22279524.50 18692923.68 m -240838.32 0 a 240838.32 240838.32 0 1 1 481676.63 0a 240838.32 240838.32 0 1 1 -481676.63 0M 24000001.22 35499996.65 m -220780.35 0 a 220780.35 220780.35 0 1 1 441560.70 0a 220780.35 220780.35 0 1 1 -441560.70 0"/>
<path id="N" d="M 17000002.99 34500005.10 m -317671.90 0 a 317671.90 317671.90 0 1 1 635343.80 0a 317671.90 317671.90 0 1 1 -635343.80 0M 17000001.22 34499996.65 m -220780.35 0 a 220780.35 220780.35 0 1 1 441560.70 0a 220780.35 220780.35 0 1 1 -441560.70 0"/>
<path id="N" d="M 14999996.32 36749994.16 m -307757.99 0 a 307757.99 307757.99 0 1 1 615515.98 0a 307757.99 307757.99 0 1 1 -615515.98 0M 14999999.24 36749999.93 m -204721.07 0 a 204721.07 204721.07 0 1 1 409442.13 0a 204721.07 204721.07 0 1 1 -409442.13 0"/>
<path id="N" d="M 18228333.06 22749976.36 m -268067.42 0 a 268067.42 268067.42 0 1 1 536134.83 0a 268067.42 268067.42 0 1 1 -536134.83 0M 18228345.05 22750002.89 m -170598.11 0 a 170598.11 170598.11 0 1 1 341196.22 0a 170598.11 170598.11 0 1 1 -341196.22 0"/>
<path id="N" d="M 20145678.56 25769699.80 m -296416.08 0 a 296416.08 296416.08 0 1 1 592832.16 0a 296416.08 296416.08 0 1 1 -592832.16 0M 20145669.74 25769682.83 m -192680.17 0 a 192680.17 192680.17 0 1 1 385360.34 0a 192680.17 192680.17 0 1 1 -385360.34 0"/>
<path id="N" d="M 18494094.00 23734252.00 L 17962598.00 23734252.00 L 17962598.00 24265748.00 L 18494094.00 24265748.00 L 18494094.00 23734252.00  zM 18228345.05 24000002.89 m -170598.11 0 a 170598.11 170598.11 0 1 1 341196.22 0a 170598.11 170598.11 0 1 1 -341196.22 0"/>
<path id="N" d="M 24000002.99 33500005.10 m -317671.90 0 a 317671.90 317671.90 0 1 1 635343.80 0a 317671.90 317671.90 0 1 1 -635343.80 0M 24000001.22 33499996.65 m -220780.35 0 a 220780.35 220780.35 0 1 1 441560.70 0a 220780.35 220780.35 0 1 1 -441560.70 0"/>
<path id="N" d="M 20279530.21 18692917.15 m -367311.31 0 a 367311.31 367311.31 0 1 1 734622.63 0a 367311.31 367311.31 0 1 1 -734622.63 0M 20279524.50 18692923.68 m -240838.32 0 a 240838.32 240838.32 0 1 1 481676.63 0a 240838.32 240838.32 0 1 1 -481676.63 0"/>
<path id="N" d="M 22037402.00 21234252.00 L 21505906.00 21234252.00 L 21505906.00 21765748.00 L 22037402.00 21765748.00 L 22037402.00 21234252.00  zM 21771653.05 21500002.89 m -170598.11 0 a 170598.11 170598.11 0 1 1 341196.22 0a 170598.11 170598.11 0 1 1 -341196.22 0"/>
<path id="N" d="M 17000002.99 23500005.10 m -317671.90 0 a 317671.90 317671.90 0 1 1 635343.80 0a 317671.90 317671.90 0 1 1 -635343.80 0M 17000001.22 23499996.65 m -220780.35 0 a 220780.35 220780.35 0 1 1 441560.70 0a 220780.35 220780.35 0 1 1 -441560.70 0"/>
<path id="N" d="M 15000002.99 23500005.10 m -317671.90 0 a 317671.90 317671.90 0 1 1 635343.80 0a 317671.90 317671.90 0 1 1 -635343.80 0M 15000001.22 23499996.65 m -220780.35 0 a 220780.35 220780.35 0 1 1 441560.70 0a 220780.35 220780.35 0 1 1 -441560.70 0"/>
</g>
</svg>
