<svg width="30.48mm" height="73.66mm" viewBox="0 0 12000000 29000000"  version="1.1" xmlns="http://www.w3.org/2000/svg" xmlns:xlink="http://www.w3.org/1999/xlink">
<desc>
Origin 0 0 Bound 14000000 15000000 12000000 29000000
</desc>
<g fill-rule="evenodd" fill="rgb(255, 0, 255)" stroke="black" stroke-width="1" transform="translate(0, 29000000) scale(1, -1) translate(-14000000, -15000000)">
<path id="N" d="M 26000000.00 15000000.00 L 14000000.00 15000000.00 L 14000000.00 44000000.00 L 26000000.00 44000000.00 L 26000000.00 15000000.00  zM 15500000.45 16499988.19 m -1294000.81 0 a 1294000.81 1294000.81 0 1 1 2588001.62 0a 1294000.81 1294000.81 0 1 1 -2588001.62 0M 18279528.84 18692909.78 m -367319.22 0 a 367319.22 367319.22 0 1 1 734638.44 0a 367319.22 367319.22 0 1 1 -734638.44 0M 16999998.32 20500004.50 m -358018.50 0 a 358018.50 358018.50 0 1 1 716037.01 0a 358018.50 358018.50 0 1 1 -716037.01 0M 15354960.00 21854960.00 L 14645040.00 21854960.00 L 14645040.00 21145040.00 L 15354960.00 21145040.00 L 15354960.00 21854960.00  zM 16999998.32 21500004.50 m -358018.50 0 a 358018.50 358018.50 0 1 1 716037.01 0a 358018.50 358018.50 0 1 1 -716037.01 0M 18228346.16 21500000.10 m -308385.90 0 a 308385.90 308385.90 0 1 1 616771.80 0a 308385.90 308385.90 0 1 1 -616771.80 0M 14999998.32 22500004.50 m -358018.50 0 a 358018.50 358018.50 0 1 1 716037.01 0a 358018.50 358018.50 0 1 1 -716037.01 0M 14999998.32 23500004.50 m -358018.50 0 a 358018.50 358018.50 0 1 1 716037.01 0a 358018.50 358018.50 0 1 1 -716037.01 0M 16999998.32 22500004.50 m -358018.50 0 a 358018.50 358018.50 0 1 1 716037.01 0a 358018.50 358018.50 0 1 1 -716037.01 0M 16999998.32 23500004.50 m -358018.50 0 a 358018.50 358018.50 0 1 1 716037.01 0a 358018.50 358018.50 0 1 1 -716037.01 0M 18228346.16 22750000.10 m -308385.90 0 a 308385.90 308385.90 0 1 1 616771.80 0a 308385.90 308385.90 0 1 1 -616771.80 0M 19000000.71 16999997.07 m -397100.93 0 a 397100.93 397100.93 0 1 1 794201.86 0a 397100.93 397100.93 0 1 1 -794201.86 0M 20279528.84 18692909.78 m -367319.22 0 a 367319.22 367319.22 0 1 1 734638.44 0a 367319.22 367319.22 0 1 1 -734638.44 0M 21559056.71 16999997.07 m -397100.93 0 a 397100.93 397100.93 0 1 1 794201.86 0a 397100.93 397100.93 0 1 1 -794201.86 0M 22643701.00 19057087.00 L 21915355.00 19057087.00 L 21915355.00 18328741.00 L 22643701.00 18328741.00 L 22643701.00 19057087.00  zM 24500000.45 16499988.19 m -1294000.81 0 a 1294000.81 1294000.81 0 1 1 2588001.62 0a 1294000.81 1294000.81 0 1 1 -2588001.62 0M 24354960.00 20854960.00 L 23645040.00 20854960.00 L 23645040.00 20145040.00 L 24354960.00 20145040.00 L 24354960.00 20854960.00  zM 22077402.00 21805748.00 L 21465906.00 21805748.00 L 21465906.00 21194252.00 L 22077402.00 21194252.00 L 22077402.00 21805748.00  zM 22077402.00 23055748.00 L 21465906.00 23055748.00 L 21465906.00 22444252.00 L 22077402.00 22444252.00 L 22077402.00 23055748.00  zM 23999998.32 21500004.50 m -358018.50 0 a 358018.50 358018.50 0 1 1 716037.01 0a 358018.50 358018.50 0 1 1 -716037.01 0M 23999998.32 22500004.50 m -358018.50 0 a 358018.50 358018.50 0 1 1 716037.01 0a 358018.50 358018.50 0 1 1 -716037.01 0M 23999998.32 23500004.50 m -358018.50 0 a 358018.50 358018.50 0 1 1 716037.01 0a 358018.50 358018.50 0 1 1 -716037.01 0M 14999998.32 24500004.50 m -358018.50 0 a 358018.50 358018.50 0 1 1 716037.01 0a 358018.50 358018.50 0 1 1 -716037.01 0M 16999998.32 24500004.50 m -358018.50 0 a 358018.50 358018.50 0 1 1 716037.01 0a 358018.50 358018.50 0 1 1 -716037.01 0M 14999999.17 27000002.94 m -348093.06 0 a 348093.06 348093.06 0 1 1 696186.11 0a 348093.06 348093.06 0 1 1 -696186.11 0M 18534094.00 24305748.00 L 17922598.00 24305748.00 L 17922598.00 23694252.00 L 18534094.00 23694252.00 L 18534094.00 24305748.00  zM 16999998.32 25500004.50 m -358018.50 0 a 358018.50 358018.50 0 1 1 716037.01 0a 358018.50 358018.50 0 1 1 -716037.01 0M 16999998.32 26500004.50 m -358018.50 0 a 358018.50 358018.50 0 1 1 716037.01 0a 358018.50 358018.50 0 1 1 -716037.01 0M 14999999.17 28000002.94 m -348093.06 0 a 348093.06 348093.06 0 1 1 696186.11 0a 348093.06 348093.06 0 1 1 -696186.11 0M 16999998.32 27500004.50 m -358018.50 0 a 358018.50 358018.50 0 1 1 716037.01 0a 358018.50 358018.50 0 1 1 -716037.01 0M 16999998.32 28500004.50 m -358018.50 0 a 358018.50 358018.50 0 1 1 716037.01 0a 358018.50 358018.50 0 1 1 -716037.01 0M 15345118.00 29345118.00 L 14654882.00 29345118.00 L 14654882.00 28654882.00 L 15345118.00 28654882.00 L 15345118.00 29345118.00  zM 16999998.32 29500004.50 m -358018.50 0 a 358018.50 358018.50 0 1 1 716037.01 0a 358018.50 358018.50 0 1 1 -716037.01 0M 19122042.46 25769703.91 m -336759.09 0 a 336759.09 336759.09 0 1 1 673518.18 0a 336759.09 336759.09 0 1 1 -673518.18 0M 20145664.46 25769703.91 m -336759.09 0 a 336759.09 336759.09 0 1 1 673518.18 0a 336759.09 336759.09 0 1 1 -673518.18 0M 21771654.16 24000000.10 m -308385.90 0 a 308385.90 308385.90 0 1 1 616771.80 0a 308385.90 308385.90 0 1 1 -616771.80 0M 23999998.32 24500004.50 m -358018.50 0 a 358018.50 358018.50 0 1 1 716037.01 0a 358018.50 358018.50 0 1 1 -716037.01 0M 23999998.32 25500004.50 m -358018.50 0 a 358018.50 358018.50 0 1 1 716037.01 0a 358018.50 358018.50 0 1 1 -716037.01 0M 21169286.46 25769703.91 m -336759.09 0 a 336759.09 336759.09 0 1 1 673518.18 0a 336759.09 336759.09 0 1 1 -673518.18 0M 23999998.32 26500004.50 m -358018.50 0 a 358018.50 358018.50 0 1 1 716037.01 0a 358018.50 358018.50 0 1 1 -716037.01 0M 23999998.32 27500004.50 m -358018.50 0 a 358018.50 358018.50 0 1 1 716037.01 0a 358018.50 358018.50 0 1 1 -716037.01 0M 23999998.32 28500004.50 m -358018.50 0 a 358018.50 358018.50 0 1 1 716037.01 0a 358018.50 358018.50 0 1 1 -716037.01 0M 23999998.32 29500004.50 m -358018.50 0 a 358018.50 358018.50 0 1 1 716037.01 0a 358018.50 358018.50 0 1 1 -716037.01 0M 14999999.17 31750002.94 m -348093.06 0 a 348093.06 348093.06 0 1 1 696186.11 0a 348093.06 348093.06 0 1 1 -696186.11 0M 16999998.32 31500004.50 m -358018.50 0 a 358018.50 358018.50 0 1 1 716037.01 0a 358018.50 358018.50 0 1 1 -716037.01 0M 16999998.32 30500004.50 m -358018.50 0 a 358018.50 358018.50 0 1 1 716037.01 0a 358018.50 358018.50 0 1 1 -716037.01 0M 19220472.77 29749997.34 m -300049.66 0 a 300049.66 300049.66 0 1 1 600099.32 0a 300049.66 300049.66 0 1 1 -600099.32 0M 16999998.32 32500004.50 m -358018.50 0 a 358018.50 358018.50 0 1 1 716037.01 0a 358018.50 358018.50 0 1 1 -716037.01 0M 19000001.85 32688967.69 m -447378.31 0 a 447378.31 447378.31 0 1 1 894756.62 0a 447378.31 447378.31 0 1 1 -894756.62 0M 14999999.17 32750002.94 m -348093.06 0 a 348093.06 348093.06 0 1 1 696186.11 0a 348093.06 348093.06 0 1 1 -696186.11 0M 15345118.00 34095118.00 L 14654882.00 34095118.00 L 14654882.00 33404882.00 L 15345118.00 33404882.00 L 15345118.00 34095118.00  zM 16999998.32 33500004.50 m -358018.50 0 a 358018.50 358018.50 0 1 1 716037.01 0a 358018.50 358018.50 0 1 1 -716037.01 0M 16999998.32 34500004.50 m -358018.50 0 a 358018.50 358018.50 0 1 1 716037.01 0a 358018.50 358018.50 0 1 1 -716037.01 0M 16999998.32 35500004.50 m -358018.50 0 a 358018.50 358018.50 0 1 1 716037.01 0a 358018.50 358018.50 0 1 1 -716037.01 0M 21779528.77 29749997.34 m -300049.66 0 a 300049.66 300049.66 0 1 1 600099.32 0a 300049.66 300049.66 0 1 1 -600099.32 0M 23999998.32 30500004.50 m -358018.50 0 a 358018.50 358018.50 0 1 1 716037.01 0a 358018.50 358018.50 0 1 1 -716037.01 0M 23999998.32 31500004.50 m -358018.50 0 a 358018.50 358018.50 0 1 1 716037.01 0a 358018.50 358018.50 0 1 1 -716037.01 0M 23999998.32 32500004.50 m -358018.50 0 a 358018.50 358018.50 0 1 1 716037.01 0a 358018.50 358018.50 0 1 1 -716037.01 0M 23999998.32 33500004.50 m -358018.50 0 a 358018.50 358018.50 0 1 1 716037.01 0a 358018.50 358018.50 0 1 1 -716037.01 0M 21236220.00 35131889.00 L 20763780.00 35131889.00 L 20763780.00 34659449.00 L 21236220.00 34659449.00 L 21236220.00 35131889.00  zM 22736220.00 36001968.00 L 22263780.00 36001968.00 L 22263780.00 35529528.00 L 22736220.00 35529528.00 L 22736220.00 36001968.00  zM 23999998.32 35500004.50 m -358018.50 0 a 358018.50 358018.50 0 1 1 716037.01 0a 358018.50 358018.50 0 1 1 -716037.01 0M 23999998.32 34500004.50 m -358018.50 0 a 358018.50 358018.50 0 1 1 716037.01 0a 358018.50 358018.50 0 1 1 -716037.01 0M 23999998.32 36500004.50 m -358018.50 0 a 358018.50 358018.50 0 1 1 716037.01 0a 358018.50 358018.50 0 1 1 -716037.01 0M 14999999.17 36750002.94 m -348093.06 0 a 348093.06 348093.06 0 1 1 696186.11 0a 348093.06 348093.06 0 1 1 -696186.11 0M 14999999.17 37750002.94 m -348093.06 0 a 348093.06 348093.06 0 1 1 696186.11 0a 348093.06 348093.06 0 1 1 -696186.11 0M 16999998.32 36500004.50 m -358018.50 0 a 358018.50 358018.50 0 1 1 716037.01 0a 358018.50 358018.50 0 1 1 -716037.01 0M 16999998.32 37500004.50 m -358018.50 0 a 358018.50 358018.50 0 1 1 716037.01 0a 358018.50 358018.50 0 1 1 -716037.01 0M 16999998.32 38500004.50 m -358018.50 0 a 358018.50 358018.50 0 1 1 716037.01 0a 358018.50 358018.50 0 1 1 -716037.01 0M 19000001.85 37999991.69 m -447378.31 0 a 447378.31 447378.31 0 1 1 894756.62 0a 447378.31 447378.31 0 1 1 -894756.62 0M 15345118.00 39095118.00 L 14654882.00 39095118.00 L 14654882.00 38404882.00 L 15345118.00 38404882.00 L 15345118.00 39095118.00  zM 17354960.00 39854960.00 L 16645040.00 39854960.00 L 16645040.00 39145040.00 L 17354960.00 39145040.00 L 17354960.00 39854960.00  zM 15500000.45 42499988.19 m -1294000.81 0 a 1294000.81 1294000.81 0 1 1 2588001.62 0a 1294000.81 1294000.81 0 1 1 -2588001.62 0M 19499998.07 39500006.19 m -409639.81 0 a 409639.81 409639.81 0 1 1 819279.63 0a 409639.81 409639.81 0 1 1 -819279.63 0M 19265751.68 42293295.54 m -277979.46 0 a 277979.46 277979.46 0 1 1 555958.91 0a 277979.46 277979.46 0 1 1 -555958.91 0M 20999996.50 38104340.68 m -240838.32 0 a 240838.32 240838.32 0 1 1 481676.63 0a 240838.32 240838.32 0 1 1 -481676.63 0M 20499998.07 39500006.19 m -409639.81 0 a 409639.81 409639.81 0 1 1 819279.63 0a 409639.81 409639.81 0 1 1 -819279.63 0M 22499996.50 37734261.68 m -240838.32 0 a 240838.32 240838.32 0 1 1 481676.63 0a 240838.32 240838.32 0 1 1 -481676.63 0M 23999998.32 37500004.50 m -358018.50 0 a 358018.50 358018.50 0 1 1 716037.01 0a 358018.50 358018.50 0 1 1 -716037.01 0M 23999998.32 38500004.50 m -358018.50 0 a 358018.50 358018.50 0 1 1 716037.01 0a 358018.50 358018.50 0 1 1 -716037.01 0M 21906141.00 39906141.00 L 21093859.00 39906141.00 L 21093859.00 39093859.00 L 21906141.00 39093859.00 L 21906141.00 39906141.00  zM 21509842.00 42568897.00 L 20958662.00 42568897.00 L 20958662.00 42017717.00 L 21509842.00 42017717.00 L 21509842.00 42568897.00  zM 20250003.68 42293295.54 m -277979.46 0 a 277979.46 277979.46 0 1 1 555958.91 0a 277979.46 277979.46 0 1 1 -555958.91 0M 23999998.32 39500004.50 m -358018.50 0 a 358018.50 358018.50 0 1 1 716037.01 0a 358018.50 358018.50 0 1 1 -716037.01 0M 24500000.45 42499988.19 m -1294000.81 0 a 1294000.81 1294000.81 0 1 1 2588001.62 0a 1294000.81 1294000.81 0 1 1 -2588001.62 0"/>
</g>
</svg>
