<svg width="30.48mm" height="73.66mm" viewBox="0 0 12000000 29000000"  version="1.1" xmlns="http://www.w3.org/2000/svg" xmlns:xlink="http://www.w3.org/1999/xlink">
<desc>
Origin 0 0 Bound 14000000 15000000 12000000 29000000
</desc>
<g fill-rule="evenodd" fill="rgb(255, 255, 0)" stroke="black" stroke-width="1" transform="translate(0, 29000000) scale(1, -1) translate(-14000000, -15000000)">
<path id="N" d="M 21662824.00 15838379.00 L 21712808.00 15788395.00 L 21720387.00 15770098.21 L 21720387.00 15800110.00 A 54118.70 54118.70 0 0 0 21828627.00 15800110.00 L 21828627.00 15704278.00 L 21920322.00 15704278.00 L 21920322.00 15800110.00 A 54118.70 54118.70 0 0 0 22012711.00 15838379.00 L 22024426.13 15810095.21 L 22036142.00 15838379.00 L 22074411.00 15854230.00 L 22112679.00 15838378.00 L 22196794.16 15754262.00 L 22220225.00 15754262.00 L 22220225.00 15800110.00 A 54118.70 54118.70 0 1 0 22328465.00 15800110.00 L 22328465.00 15500207.00 L 22312614.00 15461938.00 L 22274345.00 15446087.00 L 22124392.00 15446086.00 L 22086123.29 15461939.71 L 22036141.00 15511922.00 L 22020290.00 15550191.00 L 22020290.00 15580202.79 L 22012711.00 15561906.00 L 21912743.00 15461938.00 L 21874474.00 15446086.00 L 21836204.29 15461939.71 L 21736238.00 15561906.00 L 21728659.00 15580203.95 L 21728660.00 15550191.00 L 21712808.00 15511922.00 L 21662824.00 15461938.00 L 21624552.59 15446087.00 L 21524586.00 15446087.00 L 21486317.29 15461939.71 L 21436335.00 15511923.00 L 21428756.00 15530219.79 L 21428756.00 15500207.00 L 21412905.00 15461938.00 L 21374636.00 15446087.00 L 21224683.00 15446086.00 L 21186414.29 15461939.71 L 21136432.00 15511922.00 L 21128853.00 15530219.95 L 21128853.00 15500207.00 L 21113002.00 15461938.00 L 21074733.00 15446087.00 L 20924780.00 15446087.00 L 20886511.29 15461939.71 L 20836529.00 15511922.00 L 20828950.00 15530219.79 L 20828950.00 15500207.00 L 20813099.00 15461938.00 L 20774830.00 15446087.00 L 20574895.00 15446087.00 L 20536626.00 15461938.00 L 20524911.00 15490221.47 L 20513196.00 15461938.00 L 20474927.00 15446087.00 L 20324974.00 15446086.00 L 20286705.29 15461939.71 L 20236723.00 15511922.00 L 20229144.00 15530219.95 L 20229144.00 15500207.00 L 20213293.00 15461938.00 L 20175024.00 15446087.00 L 20025071.00 15446086.00 L 19986802.29 15461939.71 L 19936820.00 15511922.00 L 19929241.00 15530219.95 L 19929241.00 15500207.00 A 54118.70 54118.70 0 0 0 19821001.00 15500207.00 L 19821001.00 15527773.84 L 19775153.50 15573620.88 L 19729306.00 15527773.84 L 19729306.00 15500207.00 A 54118.70 54118.70 0 0 0 19621066.00 15500207.00 L 19621065.00 15550191.00 L 19636918.71 15588460.71 L 19721033.00 15672575.84 L 19721033.00 15800110.00 A 54118.70 54118.70 0 0 0 19829273.00 15800110.00 L 19829273.00 15672576.00 L 19913390.00 15588460.00 L 19920969.00 15570162.05 L 19920968.00 15650157.00 L 19936821.71 15688427.71 L 19973527.13 15725133.87 L 19936820.00 15761841.00 A 54120.63 54120.63 0 1 0 20013358.00 15838378.00 L 20097473.16 15754262.00 L 20120904.00 15754262.00 L 20120904.00 15800110.00 A 54118.70 54118.70 0 0 0 20213293.00 15838379.00 L 20225008.13 15810095.21 L 20236724.00 15838379.00 L 20274993.00 15854230.00 L 20313261.00 15838378.00 L 20397376.16 15754262.00 L 20420807.00 15754262.00 L 20420807.00 15800110.00 A 54118.70 54118.70 0 0 0 20513196.00 15838379.00 L 20524911.00 15810095.53 L 20536626.00 15838379.00 L 20574895.00 15854230.00 L 20774830.00 15854230.00 L 20813099.00 15838379.00 L 20828950.00 15800110.00 L 20828950.00 15770097.05 L 20836530.71 15788395.71 L 20886512.00 15838379.00 L 20924782.41 15854230.00 L 21074733.00 15854230.00 L 21113002.00 15838379.00 L 21128853.00 15800110.00 L 21128853.00 15670129.21 L 21136433.71 15688427.71 L 21186415.00 15738411.00 L 21224684.00 15754262.00 L 21320516.00 15754262.00 L 21320516.00 15800110.00 A 54118.70 54118.70 0 0 0 21428756.00 15800110.00 L 21428756.00 15770097.21 L 21436336.71 15788395.71 L 21486318.00 15838379.00 L 21524587.00 15854230.00 L 21624555.00 15854231.00 L 21662824.00 15838379.00  zM 20120904.00 15646022.00 L 20047489.32 15646022.00 L 20029209.00 15627741.32 L 20029209.00 15572607.68 L 20047489.32 15554327.00 L 20120904.00 15554327.00 L 20120904.00 15646022.00  zM 20229144.00 15780138.95 L 20229144.00 15670129.21 L 20236724.71 15688427.71 L 20273430.13 15725133.87 L 20236723.00 15761841.00 L 20229144.00 15780138.95  zM 20420807.00 15646022.00 L 20347392.32 15646022.00 L 20329112.00 15627741.32 L 20329112.00 15572607.68 L 20347392.32 15554327.00 L 20420807.00 15554327.00 L 20420807.00 15646022.00  zM 20529047.00 15780138.95 L 20529047.00 15520178.05 L 20536626.00 15538476.00 L 20574895.00 15554327.00 L 20720710.00 15554327.00 L 20720710.00 15596038.00 L 20674862.00 15596038.00 A 54118.70 54118.70 0 0 0 20674862.00 15704278.00 L 20720710.00 15704278.00 L 20720710.00 15745990.00 L 20574895.00 15745990.00 L 20536626.00 15761841.00 L 20529047.00 15780138.95  zM 20828950.00 15680170.79 L 20828950.00 15620146.69 L 20836530.71 15638444.71 L 20848244.27 15650158.50 L 20836529.00 15661873.00 L 20829963.11 15677725.00 L 20828950.00 15680170.79  zM 21020613.00 15596038.00 L 20947198.68 15596038.00 L 20928918.00 15577757.68 L 20928918.00 15572607.68 L 20947198.32 15554327.00 L 21020613.00 15554327.00 L 21020613.00 15596038.00  zM 21020613.00 15745990.00 L 20947198.32 15745990.00 L 20928918.00 15727709.32 L 20928918.00 15722558.68 L 20947198.32 15704278.00 L 21020613.00 15704278.00 L 21020613.00 15745990.00  zM 21320516.00 15646022.00 L 21247101.32 15646022.00 L 21228821.00 15627741.32 L 21228821.00 15572607.68 L 21247101.32 15554327.00 L 21320516.00 15554327.00 L 21320516.00 15646022.00  zM 21428756.00 15680170.95 L 21428756.00 15570162.43 L 21436336.00 15588460.00 L 21474605.00 15604312.00 L 21512873.00 15588459.00 L 21547004.32 15554327.00 L 21602137.00 15554327.00 L 21620419.00 15572609.00 L 21620419.00 15577757.68 L 21602138.32 15596038.00 L 21524586.00 15596037.00 L 21486317.29 15611890.71 L 21436335.00 15661873.00 L 21428756.00 15680170.95  zM 21893767.00 15596038.00 L 21855180.58 15596038.00 L 21874473.69 15576744.69 L 21893767.00 15596038.00  zM 21602137.00 15745990.00 L 21547004.32 15745990.00 L 21528724.00 15727709.32 L 21528724.00 15722558.68 L 21547004.32 15704278.00 L 21624555.00 15704278.00 L 21662824.71 15688425.29 L 21712808.00 15638444.00 L 21720387.00 15620146.43 L 21720387.00 15730153.79 L 21712808.00 15711857.00 L 21674539.00 15696005.00 L 21636270.00 15711857.00 L 21602137.00 15745990.00  zM 22220225.00 15646022.00 L 22146810.32 15646022.00 L 22128530.00 15627741.32 L 22128530.00 15572607.68 L 22146810.32 15554327.00 L 22220225.00 15554327.00 L 22220225.00 15646022.00  zM 22028562.00 15780138.95 L 22028562.00 15670129.21 L 22036142.71 15688427.71 L 22072848.13 15725133.87 L 22036141.00 15761841.00 L 22028562.00 15780138.95  z"/>
<path id="N" d="M 22362598.00 16438263.00 L 22412582.00 16388279.00 L 22428433.00 16350007.59 L 22428433.00 16270013.21 L 22436013.71 16288311.71 L 22472719.13 16325017.87 L 22436012.00 16361725.00 A 54120.63 54120.63 0 1 0 22512550.00 16438262.00 L 22596665.16 16354146.00 L 22620096.00 16354146.00 L 22620096.00 16399994.00 A 54118.70 54118.70 0 1 0 22728336.00 16399994.00 L 22728336.00 16100091.00 L 22712485.00 16061822.00 L 22674216.00 16045971.00 L 22524263.00 16045970.00 L 22485994.29 16061823.71 L 22436012.00 16111806.00 L 22424297.37 16140088.58 L 22412582.00 16111806.00 L 22362598.00 16061822.00 L 22324326.59 16045971.00 L 22224360.00 16045971.00 L 22186091.29 16061823.71 L 22136109.00 16111806.00 L 22124394.21 16140088.19 L 22112679.00 16111806.00 L 22062695.00 16061822.00 L 22024423.59 16045971.00 L 21924457.00 16045971.00 L 21886188.29 16061823.71 L 21836206.00 16111807.00 L 21828627.00 16130103.79 L 21828627.00 16100091.00 A 54118.70 54118.70 0 0 0 21720387.00 16100091.00 L 21720387.00 16169368.46 L 21612841.00 16061822.00 L 21574572.00 16045970.00 L 21536303.00 16061822.00 L 21524587.63 16090104.58 L 21512873.00 16061822.00 L 21474604.00 16045971.00 L 21274669.00 16045971.00 L 21236400.00 16061822.00 L 21224685.00 16090105.47 L 21212970.00 16061822.00 L 21174701.00 16045971.00 L 20974766.00 16045971.00 A 54118.70 54118.70 0 0 0 20974766.00 16154211.00 L 21020613.00 16154211.00 L 21020613.00 16399994.00 A 54118.70 54118.70 0 1 0 21128853.00 16399994.00 L 21128853.00 16154211.00 L 21174701.00 16154211.00 L 21212970.00 16138360.00 L 21224685.00 16110076.53 L 21236400.00 16138360.00 L 21274669.00 16154211.00 L 21420484.00 16154211.00 L 21420484.00 16195922.00 L 21374636.00 16195922.00 A 54118.70 54118.70 0 1 0 21374636.00 16304162.00 L 21420484.00 16304162.00 L 21420484.00 16345874.00 L 21274669.00 16345874.00 A 54118.70 54118.70 0 0 0 21274669.00 16454114.00 L 21474604.00 16454114.00 L 21512873.00 16438263.00 L 21524588.18 16409979.08 L 21536304.00 16438262.00 L 21574572.00 16454114.00 L 21612841.00 16438262.00 L 21720387.00 16330715.28 L 21720387.00 16399994.00 A 54118.70 54118.70 0 0 0 21828627.00 16399994.00 L 21828627.00 16369980.53 L 21836206.00 16388278.00 L 21886189.00 16438263.00 L 21924459.41 16454114.00 L 22024426.00 16454115.00 L 22062695.00 16438263.00 L 22112679.00 16388279.00 L 22124394.37 16359996.42 L 22136110.71 16388279.71 L 22186092.00 16438263.00 L 22224362.41 16454114.00 L 22324329.00 16454115.00 L 22362598.00 16438263.00  zM 21528724.00 16380024.21 L 21528724.00 16120063.21 L 21536303.00 16138360.00 L 21647985.85 16250042.41 L 21536304.00 16361725.00 L 21528724.00 16380024.21  zM 22620096.00 16245906.00 L 22546681.32 16245906.00 L 22528401.00 16227625.32 L 22528401.00 16172491.68 L 22546681.32 16154211.00 L 22620096.00 16154211.00 L 22620096.00 16245906.00  zM 22002008.00 16345874.00 L 21946875.32 16345874.00 L 21912744.00 16311742.00 L 21874476.00 16295890.00 L 21836207.00 16311741.00 L 21828627.00 16330040.21 L 21828627.00 16170046.43 L 21836207.00 16188344.00 L 21874476.00 16204196.00 L 21912744.00 16188343.00 L 21946875.32 16154211.00 L 22002008.00 16154211.00 L 22020290.00 16172493.00 L 22020290.00 16327592.00 L 22002008.00 16345874.00  zM 22301911.00 16345874.00 L 22246778.32 16345874.00 L 22228498.00 16327593.32 L 22228498.00 16172491.68 L 22246778.32 16154211.00 L 22301911.00 16154211.00 L 22320193.00 16172493.00 L 22320193.00 16327592.00 L 22301911.00 16345874.00  z"/>
<path id="N" d="M 20513196.00 16438263.00 L 20613164.00 16338295.00 L 20629015.00 16300023.59 L 20629015.00 16100091.00 A 54118.70 54118.70 0 0 0 20520775.00 16100091.00 L 20520775.00 16277608.00 L 20474926.69 16323456.31 L 20429080.00 16277609.16 L 20429080.00 16100091.00 A 54118.70 54118.70 0 0 0 20320840.00 16100091.00 L 20320840.00 16230070.57 L 20313259.29 16211772.29 L 20263277.00 16161790.00 L 20225008.00 16145939.00 L 20125040.00 16145938.00 L 20086771.00 16161790.00 L 20036788.00 16211773.00 L 20029209.00 16230070.31 L 20029209.00 16200059.00 A 54118.70 54118.70 0 0 0 19936820.00 16161790.00 L 19929957.48 16178358.15 L 19913390.00 16161790.00 L 19875121.00 16145939.00 L 19825137.00 16145939.00 A 54118.70 54118.70 0 1 0 19825137.00 16254179.00 L 19852704.32 16254179.00 L 19920969.00 16322444.00 L 19920969.00 16399994.00 A 54118.70 54118.70 0 0 0 20029209.00 16399994.00 L 20029209.00 16319997.05 L 20036788.00 16338295.00 L 20075057.00 16354146.00 L 20105068.95 16354146.00 L 20086771.00 16361725.00 A 54121.84 54121.84 0 0 0 20125040.00 16454114.00 L 20225008.00 16454115.00 L 20263277.00 16438263.00 L 20313261.00 16388279.00 L 20329112.00 16350007.59 L 20329112.00 16319997.05 L 20336691.00 16338295.00 L 20436658.00 16438263.00 L 20474927.00 16454115.00 L 20513196.00 16438263.00  z"/>
<path id="N" d="M 18713778.00 15838379.00 L 18763762.00 15788395.00 L 18779613.00 15750123.59 L 18779614.00 15550191.00 L 18763762.00 15511922.00 L 18713778.00 15461938.00 L 18675506.59 15446087.00 L 18575540.00 15446087.00 L 18537271.29 15461939.71 L 18487289.00 15511923.00 L 18475574.21 15540204.19 L 18463859.00 15511922.00 L 18413875.00 15461938.00 L 18375603.59 15446087.00 L 18275637.00 15446087.00 L 18237368.29 15461939.71 L 18187386.00 15511922.00 L 18171535.00 15550194.41 L 18171535.00 15750126.00 L 18187387.71 15788395.71 L 18237369.00 15838379.00 L 18275639.41 15854230.00 L 18375606.00 15854231.00 L 18413875.00 15838379.00 L 18463859.00 15788395.00 L 18475574.42 15760112.29 L 18487289.00 15788394.00 L 18537272.00 15838379.00 L 18575542.41 15854230.00 L 18675509.00 15854231.00 L 18713778.00 15838379.00  zM 18353188.00 15745990.00 L 18298055.32 15745990.00 L 18279775.00 15727709.32 L 18279775.00 15572607.68 L 18298055.32 15554327.00 L 18353188.00 15554327.00 L 18371470.00 15572609.00 L 18371470.00 15727708.00 L 18353188.00 15745990.00  zM 18653091.00 15745990.00 L 18597958.32 15745990.00 L 18563827.00 15711858.00 L 18525559.00 15696006.00 L 18487290.00 15711857.00 L 18479710.00 15730156.21 L 18479710.00 15570162.43 L 18487290.00 15588460.00 L 18525559.00 15604312.00 L 18563827.00 15588459.00 L 18597958.32 15554327.00 L 18653091.00 15554327.00 L 18671373.00 15572609.00 L 18671373.00 15727708.00 L 18653091.00 15745990.00  z"/>
<path id="N" d="M 19525235.41 16454114.00 L 19675186.00 16454114.00 A 54118.70 54118.70 0 0 0 19675186.00 16345874.00 L 19645174.21 16345874.00 L 19663471.00 16338295.00 L 19713455.00 16288311.00 L 19729307.00 16250041.00 L 19713453.29 16211772.29 L 19663471.00 16161790.00 L 19625202.00 16145939.00 L 19475251.00 16145939.00 L 19436982.00 16161790.00 L 19425267.00 16190073.47 L 19413552.00 16161790.00 L 19375283.00 16145939.00 L 19345270.05 16145939.00 L 19363568.00 16138360.00 A 54121.84 54121.84 0 1 0 19287030.00 16138360.00 L 19315313.47 16150075.00 L 19287030.00 16161790.00 L 19271179.00 16200059.00 L 19271179.00 16347587.13 L 19237046.00 16361725.00 A 54121.84 54121.84 0 0 0 19275315.00 16454114.00 L 19375283.00 16454114.00 A 54118.70 54118.70 0 0 0 19379419.00 16347587.13 L 19379419.00 16252465.87 L 19413552.00 16238328.00 L 19425267.00 16210044.53 L 19436982.00 16238328.00 L 19475251.00 16254179.00 L 19505260.53 16254179.00 L 19486964.29 16261758.71 L 19436982.00 16311742.00 L 19421130.00 16350011.00 L 19436982.00 16388278.00 L 19486965.00 16438263.00 L 19502816.22 16444828.57 L 19525235.41 16454114.00  z"/>
<path id="N" d="M 14838333.00 35338170.00 L 14938301.00 35238202.00 A 54121.84 54121.84 0 1 0 14861763.00 35161664.00 L 14777646.00 35245781.00 L 14622547.00 35245781.00 L 14554281.00 35177515.00 L 14554281.00 35022416.00 L 14622547.00 34954150.00 L 14687320.06 34954150.00 L 14875829.00 35048404.00 L 14888392.92 35049297.10 L 14900032.00 35054118.00 L 14908261.29 35050709.43 L 14917146.00 35051341.00 L 14926661.49 35043088.08 L 14938301.00 35038267.00 L 14941710.24 35030036.08 L 14948438.00 35024201.00 L 14949331.10 35011637.08 L 14954152.00 34999998.00 L 14954152.00 34700095.00 L 14938301.00 34661826.00 L 14900032.00 34645975.00 L 14500161.00 34645975.00 A 54118.70 54118.70 0 0 0 14500161.00 34754215.00 L 14845912.00 34754215.00 L 14845912.00 34912430.11 L 14724301.00 34851624.00 L 14711735.93 34850730.84 L 14700097.00 34845910.00 L 14600129.00 34845909.00 L 14561860.00 34861761.00 L 14461892.00 34961729.00 L 14446041.00 34999998.00 L 14446040.00 35199933.00 L 14461892.00 35238202.00 L 14561860.00 35338170.00 L 14600129.00 35354021.00 L 14800064.00 35354022.00 L 14838333.00 35338170.00  z"/>
<path id="N" d="M 19113649.00 16438263.00 L 19163633.00 16388279.00 L 19179484.00 16350007.59 L 19179484.00 16250041.00 L 19163631.29 16211772.29 L 19113649.00 16161790.00 L 19075376.59 16145939.00 L 18975412.00 16145938.00 L 18937142.29 16161791.71 L 18887160.00 16211773.00 L 18879581.00 16230069.79 L 18879581.00 16200059.00 L 18863730.00 16161790.00 L 18825461.00 16145939.00 L 18675509.00 16145938.00 L 18637240.00 16161790.00 L 18587257.00 16211773.00 L 18571406.00 16250044.41 L 18571406.00 16399994.00 A 54118.70 54118.70 0 0 0 18679646.00 16399994.00 L 18679646.00 16272459.32 L 18697926.68 16254179.00 L 18771341.00 16254179.00 L 18771341.00 16399994.00 A 54118.70 54118.70 0 1 0 18879581.00 16399994.00 L 18879581.00 16369981.05 L 18887161.71 16388279.71 L 18937143.00 16438263.00 L 18975413.41 16454114.00 L 19075380.00 16454115.00 L 19113649.00 16438263.00  zM 19052962.00 16345874.00 L 18997829.32 16345874.00 L 18979549.00 16327593.32 L 18979549.00 16272459.68 L 18997829.32 16254179.00 L 19052963.32 16254179.00 L 19071244.00 16272459.32 L 19071244.00 16327592.00 L 19052962.00 16345874.00  z"/>
<path id="N" d="M 14838333.00 25888170.00 L 14938301.00 25788202.00 A 54121.84 54121.84 0 0 0 14861763.00 25711664.00 L 14777646.00 25795781.00 L 14622547.00 25795781.00 L 14554281.00 25727515.00 L 14554281.00 25672384.00 L 14622547.00 25604118.00 L 14700097.00 25604118.00 A 54118.70 54118.70 0 1 0 14700097.00 25495878.00 L 14622547.00 25495878.00 L 14554281.00 25427612.00 L 14554281.00 25372481.00 L 14622547.00 25304215.00 L 14777646.00 25304215.00 L 14861763.00 25388332.00 A 54119.43 54119.43 0 0 0 14938301.00 25311794.00 L 14838333.00 25211826.00 L 14800064.00 25195975.00 L 14600129.00 25195974.00 L 14561860.00 25211826.00 L 14461892.00 25311794.00 L 14446041.00 25350063.00 L 14446040.00 25450030.00 L 14461892.00 25488299.00 L 14523591.00 25549998.00 L 14461892.00 25611697.00 L 14446041.00 25649966.00 L 14446040.00 25749933.00 L 14461892.00 25788202.00 L 14561860.00 25888170.00 L 14600129.00 25904021.00 L 14800064.00 25904022.00 L 14838333.00 25888170.00  z"/>
<path id="N" d="M 25206316.00 30539541.00 L 25272961.00 30472896.00 L 25282472.00 30449935.00 L 25282472.00 30316645.00 L 25272961.00 30293684.00 L 25206316.00 30227039.00 L 25183355.00 30217528.00 L 25160394.00 30227039.00 L 25150883.00 30250000.00 L 25160394.00 30272961.00 L 25217528.00 30330095.00 L 25217528.00 30436485.00 L 25169905.00 30484108.00 L 25130160.00 30484108.00 L 25082537.00 30436485.00 L 25082537.00 30383290.00 L 25073026.00 30360329.00 L 25050065.00 30350818.00 L 25027104.00 30360329.00 L 25017593.00 30383290.00 L 25017593.00 30436485.00 L 24969970.00 30484108.00 L 24930224.00 30484108.00 L 24882601.00 30436485.00 L 24882601.00 30330095.00 L 24939735.00 30272961.00 L 24949246.00 30250000.00 L 24939735.00 30227039.00 L 24916774.00 30217528.00 L 24893813.00 30227039.00 L 24827168.00 30293684.00 L 24817657.00 30316645.00 L 24817657.00 30449935.00 L 24827168.00 30472896.00 L 24893813.00 30539541.00 L 24916774.00 30549052.00 L 24983420.00 30549052.00 L 25006381.00 30539541.00 L 25050065.00 30495857.00 L 25093749.00 30539541.00 L 25116710.00 30549052.00 L 25183355.00 30549052.00 L 25206316.00 30539541.00  z"/>
<path id="N" d="M 18279775.00 16399994.00 L 18279775.00 16200059.00 L 18263924.00 16161790.00 L 18225655.00 16145939.00 L 18075703.00 16145938.00 L 18037434.00 16161790.00 L 17987451.00 16211773.00 L 17971600.00 16250044.41 L 17971600.00 16380022.95 L 17964021.00 16361725.00 L 17929888.00 16347587.13 L 17929888.00 16202482.76 L 17964021.00 16188344.00 L 17979873.00 16150075.00 L 17964021.00 16111806.00 L 17914037.00 16061822.00 A 54119.43 54119.43 0 0 0 17821648.00 16100093.41 L 17821648.00 16347587.13 L 17787515.00 16361725.00 A 54121.84 54121.84 0 0 0 17825784.00 16454114.00 L 17925752.00 16454114.00 L 17964021.00 16438263.00 L 17975736.00 16409979.53 L 17987451.00 16438263.00 A 54121.84 54121.84 0 0 0 18079840.00 16399994.00 L 18079840.00 16272459.32 L 18098120.68 16254179.00 L 18171535.00 16254179.00 L 18171535.00 16399994.00 A 54118.70 54118.70 0 1 0 18279775.00 16399994.00  z"/>
<path id="N" d="M 14600131.41 30554021.00 L 14800064.00 30554021.00 L 14838333.00 30538170.00 L 14938301.00 30438202.00 L 14954152.00 30399930.59 L 14954153.00 30199998.00 L 14938299.29 30161728.29 L 14738366.00 29961794.00 L 14730136.14 29958384.98 L 14724300.00 29951656.00 L 14524364.00 29851689.00 A 54118.07 54118.07 0 0 0 14475958.00 29948501.00 L 14668036.06 30044540.03 L 14769374.54 30145878.00 L 14600129.00 30145878.00 L 14561860.00 30161729.00 L 14461892.00 30261697.00 L 14446041.00 30299968.41 L 14446041.00 30399933.00 L 14461892.00 30438202.00 L 14561860.00 30538170.00 L 14600131.41 30554021.00  zM 14777646.00 30445781.00 L 14622547.00 30445781.00 L 14554281.00 30377515.00 L 14554281.00 30322384.00 L 14622547.00 30254118.00 L 14845912.00 30254118.00 L 14845912.00 30377515.00 L 14777646.00 30445781.00  z"/>
<path id="N" d="M 25272961.00 20289541.00 L 25282472.00 20266580.00 L 25282472.00 20000000.00 L 25272961.00 19977039.00 L 25250000.00 19967528.00 L 25227039.00 19977039.00 L 24969970.00 20234108.00 L 24930224.00 20234108.00 L 24882601.00 20186485.00 L 24882601.00 20080095.00 L 24939735.00 20022961.00 L 24949246.00 20000000.00 L 24939735.00 19977039.00 L 24916774.00 19967528.00 L 24893813.00 19977039.00 L 24827168.00 20043684.00 L 24817657.00 20066645.00 L 24817657.00 20199935.00 L 24827168.00 20222896.00 L 24893813.00 20289541.00 L 24916774.00 20299052.00 L 24983420.00 20299052.00 L 25006381.00 20289541.00 L 25217528.00 20078394.00 L 25217528.00 20266580.00 L 25227039.00 20289541.00 L 25250000.00 20299052.00 L 25272961.00 20289541.00  z"/>
<path id="N" d="M 16222961.00 20289541.00 L 16232472.00 20266580.00 L 16232472.00 20000000.00 L 16222961.00 19977039.00 L 16200000.00 19967528.00 L 16177039.00 19977039.00 L 15919970.00 20234108.00 L 15880224.00 20234108.00 L 15832601.00 20186485.00 L 15832601.00 20080095.00 L 15889735.00 20022961.00 L 15899246.00 20000000.00 L 15889735.00 19977039.00 L 15866774.00 19967528.00 L 15843813.00 19977039.00 L 15777168.00 20043684.00 L 15767657.00 20066645.00 L 15767657.00 20199935.00 L 15777168.00 20222896.00 L 15843813.00 20289541.00 L 15866774.00 20299052.00 L 15933420.00 20299052.00 L 15956381.00 20289541.00 L 16167528.00 20078394.00 L 16167528.00 20266580.00 L 16177039.00 20289541.00 L 16200000.00 20299052.00 L 16222961.00 20289541.00  z"/>
<path id="N" d="M 23938301.00 40761632.00 L 23554281.00 40377612.00 L 23554281.00 40322481.00 L 23622547.00 40254215.00 L 23777646.00 40254215.00 L 23861763.00 40338332.00 A 54121.84 54121.84 0 0 0 23938301.00 40261794.00 L 23838333.00 40161826.00 L 23800061.59 40145975.00 L 23600129.00 40145975.00 L 23561860.00 40161826.00 L 23461892.00 40261794.00 L 23446041.00 40300065.41 L 23446040.00 40400030.00 L 23461892.00 40438299.00 L 23769374.00 40745781.00 L 23500161.00 40745781.00 A 54118.70 54118.70 0 0 0 23500161.00 40854021.00 L 23900032.00 40854022.00 A 54119.43 54119.43 0 0 0 23938301.00 40761632.00  z"/>
<path id="N" d="M 17838171.00 43588170.00 L 17938139.00 43488202.00 A 54121.84 54121.84 0 0 0 17861601.00 43411664.00 L 17777484.00 43495781.00 L 17722353.00 43495781.00 L 17654087.00 43427515.00 L 17654087.00 43004215.00 L 17699935.00 43004215.00 A 54118.70 54118.70 0 0 0 17699935.00 42895975.00 L 17499999.00 42895975.00 A 54118.70 54118.70 0 0 0 17499999.00 43004215.00 L 17545847.00 43004215.00 L 17545846.00 43449933.00 L 17561698.00 43488202.00 L 17661666.00 43588170.00 L 17699935.00 43604021.00 L 17799902.00 43604022.00 L 17838171.00 43588170.00  z"/>
<path id="N" d="M 16156316.00 20689412.00 L 16222961.00 20622767.00 L 16232472.00 20599806.00 L 16232472.00 20466516.00 L 16222961.00 20443555.00 L 16156316.00 20376910.00 L 16133355.00 20367399.00 L 15866774.00 20367399.00 L 15843813.00 20376910.00 L 15777168.00 20443555.00 L 15767657.00 20466516.00 L 15767657.00 20599806.00 L 15777168.00 20622767.00 L 15843813.00 20689412.00 L 15866774.00 20698923.00 L 16133355.00 20698923.00 L 16156316.00 20689412.00  zM 16119905.00 20633979.00 L 15880224.00 20633979.00 L 15832601.00 20586356.00 L 15832601.00 20479966.00 L 15880224.00 20432343.00 L 16119905.00 20432343.00 L 16167528.00 20479966.00 L 16167528.00 20586356.00 L 16119905.00 20633979.00  z"/>
<path id="N" d="M 14654249.00 40299901.00 L 14654249.00 40054118.00 L 14900032.00 40054119.00 A 54122.11 54122.11 0 0 0 14938301.00 39961729.00 L 14638398.00 39661826.00 A 54119.43 54119.43 0 0 0 14546009.00 39700097.41 L 14546009.00 39945878.00 L 14500161.00 39945878.00 A 54118.70 54118.70 0 0 0 14500161.00 40054118.00 L 14546009.00 40054118.00 L 14546009.00 40299901.00 A 54118.70 54118.70 0 0 0 14654249.00 40299901.00  zM 14769374.00 39945878.00 L 14654249.00 39945878.00 L 14654249.00 39830753.00 L 14769374.00 39945878.00  z"/>
<path id="N" d="M 25206316.00 30939412.00 L 25272961.00 30872767.00 L 25282472.00 30849806.00 L 25282472.00 30716516.00 L 25272961.00 30693555.00 L 25206316.00 30626910.00 L 25183355.00 30617399.00 L 24916774.00 30617399.00 L 24893813.00 30626910.00 L 24827168.00 30693555.00 L 24817657.00 30716516.00 L 24817657.00 30849806.00 L 24827168.00 30872767.00 L 24893813.00 30939412.00 L 24916774.00 30948923.00 L 25183355.00 30948923.00 L 25206316.00 30939412.00  zM 25169905.00 30883979.00 L 24930224.00 30883979.00 L 24882601.00 30836356.00 L 24882601.00 30729966.00 L 24930224.00 30682343.00 L 25169905.00 30682343.00 L 25217528.00 30729966.00 L 25217528.00 30836356.00 L 25169905.00 30883979.00  z"/>
<path id="N" d="M 25073026.00 39789541.00 L 25082537.00 39766580.00 L 25082537.00 39732407.00 L 25250000.00 39732407.00 L 25272961.00 39722896.00 L 25282472.00 39699935.00 L 25272961.00 39676974.00 L 25250000.00 39667463.00 L 25082537.00 39667463.00 L 25082537.00 39500000.00 L 25073026.00 39477039.00 L 25050065.00 39467528.00 L 25027104.00 39477039.00 L 24827168.00 39676974.00 L 24817657.00 39699935.00 L 24827168.00 39722896.00 L 24850129.00 39732407.00 L 25017593.00 39732407.00 L 25017593.00 39766580.00 L 25027104.00 39789541.00 L 25050065.00 39799052.00 L 25073026.00 39789541.00  zM 25017593.00 39667463.00 L 24928523.55 39667463.00 L 25017593.00 39578394.45 L 25017593.00 39667463.00  z"/>
<path id="N" d="M 16156316.00 30872767.00 L 16222961.00 30806122.00 L 16232472.00 30783161.00 L 16232472.00 30649871.00 L 16222961.00 30626910.00 L 16156316.00 30560265.00 L 16133355.00 30550754.00 L 15866774.00 30550754.00 L 15843813.00 30560265.00 L 15777168.00 30626910.00 L 15767657.00 30649871.00 L 15767657.00 30783161.00 L 15777168.00 30806122.00 L 15843813.00 30872767.00 L 15866774.00 30882278.00 L 16133355.00 30882278.00 L 16156316.00 30872767.00  zM 16119905.00 30817334.00 L 15880224.00 30817334.00 L 15832601.00 30769711.00 L 15832601.00 30663321.00 L 15880224.00 30615698.00 L 16119905.00 30615698.00 L 16167528.00 30663321.00 L 16167528.00 30769711.00 L 16119905.00 30817334.00  z"/>
<path id="N" d="M 25206316.00 40189412.00 L 25272961.00 40122767.00 L 25282472.00 40099806.00 L 25282472.00 39966516.00 L 25272961.00 39943555.00 L 25206316.00 39876910.00 L 25183355.00 39867399.00 L 24916774.00 39867399.00 L 24893813.00 39876910.00 L 24827168.00 39943555.00 L 24817657.00 39966516.00 L 24817657.00 40099806.00 L 24827168.00 40122767.00 L 24893813.00 40189412.00 L 24916774.00 40198923.00 L 25183355.00 40198923.00 L 25206316.00 40189412.00  zM 25169905.00 40133979.00 L 24930224.00 40133979.00 L 24882601.00 40086356.00 L 24882601.00 39979966.00 L 24930224.00 39932343.00 L 25169905.00 39932343.00 L 25217528.00 39979966.00 L 25217528.00 40086356.00 L 25169905.00 40133979.00  z"/>
<path id="N" d="M 15553958.00 40299901.00 L 15553958.00 39700095.00 L 15538107.00 39661826.00 L 15499838.00 39645975.00 L 15199935.00 39645974.00 L 15161666.00 39661826.00 L 15061698.00 39761794.00 L 15045847.00 39800063.00 L 15045846.00 39999998.00 L 15061698.00 40038267.00 L 15161666.00 40138235.00 L 15199935.00 40154086.00 L 15445718.00 40154086.00 L 15445718.00 40299901.00 A 54118.70 54118.70 0 0 0 15553958.00 40299901.00  zM 15445718.00 40045846.00 L 15222353.00 40045846.00 L 15154087.00 39977580.00 L 15154087.00 39822481.00 L 15222353.00 39754215.00 L 15445718.00 39754215.00 L 15445718.00 40045846.00  z"/>
<path id="N" d="M 15553958.00 30499901.00 L 15553958.00 29900095.00 L 15538107.00 29861826.00 L 15499838.00 29845975.00 L 15199935.00 29845974.00 L 15161666.00 29861826.00 L 15061698.00 29961794.00 L 15045847.00 30000063.00 L 15045846.00 30199998.00 L 15061698.00 30238267.00 L 15161666.00 30338235.00 L 15199935.00 30354086.00 L 15445718.00 30354086.00 L 15445718.00 30499901.00 A 54118.70 54118.70 0 0 0 15553958.00 30499901.00  zM 15445718.00 30245846.00 L 15222353.00 30245846.00 L 15154087.00 30177580.00 L 15154087.00 30022481.00 L 15222353.00 29954215.00 L 15445718.00 29954215.00 L 15445718.00 30245846.00  z"/>
<path id="N" d="M 15553958.00 35299901.00 L 15553958.00 34700095.00 L 15538107.00 34661826.00 L 15499838.00 34645975.00 L 15199935.00 34645974.00 L 15161666.00 34661826.00 L 15061698.00 34761794.00 L 15045847.00 34800063.00 L 15045846.00 34999998.00 L 15061698.00 35038267.00 L 15161666.00 35138235.00 L 15199935.00 35154086.00 L 15445718.00 35154086.00 L 15445718.00 35299901.00 A 54118.70 54118.70 0 0 0 15553958.00 35299901.00  zM 15445718.00 35045846.00 L 15222353.00 35045846.00 L 15154087.00 34977580.00 L 15154087.00 34822481.00 L 15222353.00 34754215.00 L 15445718.00 34754215.00 L 15445718.00 35045846.00  z"/>
<path id="N" d="M 17453990.00 40799901.00 L 17453990.00 40200095.00 L 17438139.00 40161826.00 L 17399870.00 40145975.00 L 17099967.00 40145974.00 L 17061698.00 40161826.00 L 16961730.00 40261794.00 L 16945879.00 40300063.00 L 16945878.00 40499998.00 L 16961730.00 40538267.00 L 17061698.00 40638235.00 L 17099967.00 40654086.00 L 17345750.00 40654086.00 L 17345750.00 40799901.00 A 54118.70 54118.70 0 0 0 17453990.00 40799901.00  zM 17345750.00 40545846.00 L 17122385.00 40545846.00 L 17054119.00 40477580.00 L 17054119.00 40322481.00 L 17122385.00 40254215.00 L 17345750.00 40254215.00 L 17345750.00 40545846.00  z"/>
<path id="N" d="M 15553958.00 25849901.00 L 15553958.00 25250095.00 L 15538107.00 25211826.00 L 15499838.00 25195975.00 L 15199935.00 25195974.00 L 15161666.00 25211826.00 L 15061698.00 25311794.00 L 15045847.00 25350063.00 L 15045846.00 25549998.00 L 15061698.00 25588267.00 L 15161666.00 25688235.00 L 15199935.00 25704086.00 L 15445718.00 25704086.00 L 15445718.00 25849901.00 A 54118.70 54118.70 0 0 0 15553958.00 25849901.00  zM 15445718.00 25595846.00 L 15222353.00 25595846.00 L 15154087.00 25527580.00 L 15154087.00 25372481.00 L 15222353.00 25304215.00 L 15445718.00 25304215.00 L 15445718.00 25595846.00  z"/>
<path id="N" d="M 24553958.00 40799901.00 L 24553958.00 40200095.00 L 24538107.00 40161826.00 L 24499838.00 40145975.00 L 24199935.00 40145974.00 L 24161666.00 40161826.00 L 24061698.00 40261794.00 L 24045847.00 40300063.00 L 24045846.00 40499998.00 L 24061698.00 40538267.00 L 24161666.00 40638235.00 L 24199935.00 40654086.00 L 24445718.00 40654086.00 L 24445718.00 40799901.00 A 54118.70 54118.70 0 0 0 24553958.00 40799901.00  zM 24445718.00 40545846.00 L 24222353.00 40545846.00 L 24154087.00 40477580.00 L 24154087.00 40322481.00 L 24222353.00 40254215.00 L 24445718.00 40254215.00 L 24445718.00 40545846.00  z"/>
<path id="N" d="M 19329435.00 15800110.00 L 19329435.00 15500207.00 L 19313584.00 15461938.00 L 19275315.00 15446087.00 L 19125362.00 15446086.00 L 19087093.29 15461939.71 L 19037111.00 15511922.00 L 19021260.00 15550191.00 L 19021259.00 15650157.00 L 19037112.71 15688427.71 L 19087094.00 15738411.00 L 19125363.00 15754262.00 L 19221195.00 15754262.00 L 19221195.00 15800110.00 A 54118.70 54118.70 0 1 0 19329435.00 15800110.00  zM 19221195.00 15646022.00 L 19147780.32 15646022.00 L 19129500.00 15627741.32 L 19129500.00 15572607.68 L 19147780.32 15554327.00 L 19221195.00 15554327.00 L 19221195.00 15646022.00  z"/>
<path id="N" d="M 16800064.00 40745781.00 L 16754216.00 40745781.00 L 16754216.00 40330753.00 L 16761795.00 40338332.00 A 54121.84 54121.84 0 0 0 16838333.00 40261794.00 L 16738365.00 40161826.00 A 54119.43 54119.43 0 0 0 16645976.00 40200097.41 L 16645976.00 40745781.00 L 16600129.00 40745781.00 A 54118.70 54118.70 0 0 0 16600129.00 40854021.00 L 16800064.00 40854021.00 A 54121.84 54121.84 0 0 0 16800064.00 40745781.00  z"/>
<path id="N" d="M 16222961.00 39656251.00 L 16232472.00 39633290.00 L 16232472.00 39500000.00 L 16222961.00 39477039.00 L 16200000.00 39467528.00 L 16177039.00 39477039.00 L 16167528.00 39500000.00 L 16167528.00 39534173.00 L 15878523.00 39534173.00 L 15889735.00 39522961.00 L 15899246.00 39500000.00 L 15889735.00 39477039.00 L 15866774.00 39467528.00 L 15843813.00 39477039.00 L 15777168.00 39543684.00 L 15767657.00 39566645.00 L 15777168.00 39589606.00 L 15800129.00 39599117.00 L 16167528.00 39599117.00 L 16167528.00 39633290.00 L 16177039.00 39656251.00 L 16200000.00 39665762.00 L 16222961.00 39656251.00  z"/>
<path id="N" d="M 17300064.00 43495781.00 L 17254216.00 43495781.00 L 17254216.00 43080753.00 L 17261795.00 43088332.00 A 54121.84 54121.84 0 0 0 17338333.00 43011794.00 L 17238365.00 42911826.00 A 54119.43 54119.43 0 0 0 17145976.00 42950097.41 L 17145976.00 43495781.00 L 17100129.00 43495781.00 A 54118.70 54118.70 0 0 0 17100129.00 43604021.00 L 17300064.00 43604021.00 A 54121.84 54121.84 0 0 0 17300064.00 43495781.00  z"/>
<path id="N" d="M 25272961.00 20556122.00 L 25282472.00 20533161.00 L 25282472.00 20399871.00 L 25272961.00 20376910.00 L 25250000.00 20367399.00 L 25227039.00 20376910.00 L 25217528.00 20399871.00 L 25217528.00 20434044.00 L 24928523.00 20434044.00 L 24939735.00 20422832.00 L 24949246.00 20399871.00 L 24939735.00 20376910.00 L 24916774.00 20367399.00 L 24893813.00 20376910.00 L 24827168.00 20443555.00 L 24817657.00 20466516.00 L 24827168.00 20489477.00 L 24850129.00 20498988.00 L 25217528.00 20498988.00 L 25217528.00 20533161.00 L 25227039.00 20556122.00 L 25250000.00 20565633.00 L 25272961.00 20556122.00  z"/>
<path id="N" d="M 16222961.00 30406251.00 L 16232472.00 30383290.00 L 16232472.00 30250000.00 L 16222961.00 30227039.00 L 16200000.00 30217528.00 L 16177039.00 30227039.00 L 16167528.00 30250000.00 L 16167528.00 30284173.00 L 15878523.00 30284173.00 L 15889735.00 30272961.00 L 15899246.00 30250000.00 L 15889735.00 30227039.00 L 15866774.00 30217528.00 L 15843813.00 30227039.00 L 15777168.00 30293684.00 L 15767657.00 30316645.00 L 15777168.00 30339606.00 L 15800129.00 30349117.00 L 16167528.00 30349117.00 L 16167528.00 30383290.00 L 16177039.00 30406251.00 L 16200000.00 30415762.00 L 16222961.00 30406251.00  z"/>
<path id="N" d="M 18979548.00 15747703.13 L 18979548.00 15552613.87 L 19013681.00 15538476.00 A 54121.84 54121.84 0 0 0 18975412.00 15446087.00 L 18875444.00 15446087.00 A 54118.70 54118.70 0 0 0 18871308.00 15552613.87 L 18871308.00 15747703.13 L 18837175.00 15761841.00 A 54121.84 54121.84 0 0 0 18875444.00 15854230.00 L 18975412.00 15854230.00 A 54121.84 54121.84 0 0 0 18979548.00 15747703.13  z"/>
<path id="N" d="M 22228952.00 43662023.00 L 22241433.00 43631890.00 L 22241433.00 41368110.00 L 22228952.00 41337977.00 L 22198819.00 41325496.00 L 18301181.00 41325496.00 L 18271048.00 41337977.00 L 18258567.00 41368110.00 L 18258567.00 43631890.00 L 18271048.00 43662023.00 L 18301181.00 43674504.00 L 22198819.00 43674504.00 L 22228952.00 43662023.00  zM 22156205.00 43589276.00 L 18343795.00 43589276.00 L 18343795.00 41410724.00 L 22156205.00 41410724.00 L 22156205.00 43589276.00  z"/>
<path id="N" d="M 15559661.00 25089188.00 L 15572142.00 25059055.00 L 15572142.00 20940945.00 L 15559661.00 20910812.00 L 15529528.00 20898331.00 L 14470472.00 20898331.00 L 14440339.00 20910812.00 L 14427858.00 20940945.00 L 14427858.00 25059055.00 L 14440339.00 25089188.00 L 14470472.00 25101669.00 L 15529528.00 25101669.00 L 15559661.00 25089188.00  zM 15486914.00 25016441.00 L 14513086.00 25016441.00 L 14513086.00 20983559.00 L 15486914.00 20983559.00 L 15486914.00 25016441.00  z"/>
<path id="N" d="M 24559661.00 40089188.00 L 24572142.00 40059055.00 L 24572142.00 19940945.00 L 24559661.00 19910812.00 L 24529528.00 19898331.00 L 23470472.00 19898331.00 L 23440339.00 19910812.00 L 23427858.00 19940945.00 L 23427858.00 40059055.00 L 23440339.00 40089188.00 L 23470472.00 40101669.00 L 24529528.00 40101669.00 L 24559661.00 40089188.00  zM 24486914.00 40016441.00 L 23513086.00 40016441.00 L 23513086.00 19983559.00 L 24486914.00 19983559.00 L 24486914.00 40016441.00  z"/>
<path id="N" d="M 17559661.00 40089188.00 L 17572142.00 40059055.00 L 17572142.00 19940945.00 L 17559661.00 19910812.00 L 17529528.00 19898331.00 L 16470472.00 19898331.00 L 16440339.00 19910812.00 L 16427858.00 19940945.00 L 16427858.00 40059055.00 L 16440339.00 40089188.00 L 16470472.00 40101669.00 L 17529528.00 40101669.00 L 17559661.00 40089188.00  zM 17486914.00 40016441.00 L 16513086.00 40016441.00 L 16513086.00 19983559.00 L 17486914.00 19983559.00 L 17486914.00 40016441.00  z"/>
<path id="N" d="M 15530133.00 39354936.00 L 15542614.00 39324803.00 L 15542614.00 36175197.00 L 15530133.00 36145064.00 L 15500000.00 36132583.00 L 14500000.00 36132583.00 L 14469867.00 36145064.00 L 14457386.00 36175197.00 L 14457386.00 39324803.00 L 14469867.00 39354936.00 L 14500000.00 39367417.00 L 15500000.00 39367417.00 L 15530133.00 39354936.00  zM 15457386.00 39282189.00 L 14542614.00 39282189.00 L 14542614.00 36217811.00 L 15457386.00 36217811.00 L 15457386.00 39282189.00  z"/>
<path id="N" d="M 22409447.47 42299211.47 m -100354.75 0 a 100354.75 100354.75 0 1 1 200709.51 0a 100354.75 100354.75 0 1 1 -200709.51 0"/>
<path id="N" d="M 15530133.00 34354936.00 L 15542614.00 34324803.00 L 15542614.00 31175197.00 L 15530133.00 31145064.00 L 15500000.00 31132583.00 L 14500000.00 31132583.00 L 14469867.00 31145064.00 L 14457386.00 31175197.00 L 14457386.00 34324803.00 L 14469867.00 34354936.00 L 14500000.00 34367417.00 L 15500000.00 34367417.00 L 15530133.00 34354936.00  zM 15457386.00 34282189.00 L 14542614.00 34282189.00 L 14542614.00 31217811.00 L 15457386.00 31217811.00 L 15457386.00 34282189.00  z"/>
<path id="N" d="M 15530133.00 29604936.00 L 15542614.00 29574803.00 L 15542614.00 26425197.00 L 15530133.00 26395064.00 L 15500000.00 26382583.00 L 14500000.00 26382583.00 L 14469867.00 26395064.00 L 14457386.00 26425197.00 L 14457386.00 29574803.00 L 14469867.00 29604936.00 L 14500000.00 29617417.00 L 15500000.00 29617417.00 L 15530133.00 29604936.00  zM 15457386.00 29532189.00 L 14542614.00 29532189.00 L 14542614.00 26467811.00 L 15457386.00 26467811.00 L 15457386.00 29532189.00  z"/>
</g>
</svg>
