<svg width="30.48mm" height="73.66mm" viewBox="0 0 12000000 29000000"  version="1.1" xmlns="http://www.w3.org/2000/svg" xmlns:xlink="http://www.w3.org/1999/xlink">
<desc>
Origin 0 0 Bound 14000000 15000000 12000000 29000000
</desc>
<g fill-rule="evenodd" fill="rgb(255, 0, 0)" stroke="black" stroke-width="1" transform="translate(0, 29000000) scale(1, -1) translate(-14000000, -15000000)">
<path id="N" d="M 15297265.00 27079652.00 L 15302582.29 27039261.71 L 15776900.00 26564944.00 L 16690872.36 26564944.00 L 16693147.00 26582221.00 A 317671.90 317671.90 0 1 0 16693147.00 26417779.00 L 16690872.36 26435056.00 L 15750000.00 26435056.00 L 15704078.00 26454078.00 L 15279850.28 26878305.72 L 15266520.00 26846124.00 A 307746.40 307746.40 0 1 0 15297265.00 27079652.00  zM 14999999.24 26999999.93 m -204721.07 0 a 204721.07 204721.07 0 1 1 409442.13 0a 204721.07 204721.07 0 1 1 -409442.13 0M 17000001.22 26499996.65 m -220780.35 0 a 220780.35 220780.35 0 1 1 441560.70 0a 220780.35 220780.35 0 1 1 -441560.70 0"/>
<path id="N" d="M 19321727.40 39177535.40 L 19101959.00 38957767.00 L 19101959.00 38393601.90 A 401068.07 401068.07 0 0 0 19393601.90 38101959.00 L 20759623.81 38101959.00 A 237957.21 237957.21 0 1 0 20907831.00 37881816.00 L 20866449.68 37909466.75 L 20860965.00 37905802.00 L 20821947.00 37898041.00 L 19393601.90 37898041.00 A 401068.07 401068.07 0 0 0 19101959.00 37606398.10 L 19101959.00 35042233.00 L 21851624.00 32292568.00 L 21873726.00 32259490.00 L 21881487.00 32220472.00 L 21881487.00 29986462.13 L 21909379.00 29974909.00 A 259715.78 259715.78 0 1 0 21649677.00 29974909.00 L 21677569.00 29986462.13 L 21677569.00 32178239.00 L 18927904.00 34927904.00 L 18905802.00 34960982.00 L 18898041.00 35000000.00 L 18898041.00 37606398.10 A 401068.07 401068.07 0 0 0 18647506.00 37796488.00 A 407019.04 407019.04 0 0 0 18898041.00 38393601.90 L 18898041.00 39000000.00 L 18905802.00 39039018.00 L 18927904.00 39072096.00 L 19177535.40 39321727.40 L 19143284.00 39404418.00 A 369289.41 369289.41 0 1 0 19321727.40 39177535.40  zM 21779526.59 29750001.48 m -160563.52 0 a 160563.52 160563.52 0 1 1 321127.04 0a 160563.52 160563.52 0 1 1 -321127.04 0M 18999997.17 38000009.88 m -307741.12 0 a 307741.12 307741.12 0 1 1 615482.25 0a 307741.12 307741.12 0 1 1 -615482.25 0M 19500001.69 39499995.47 m -248880.53 0 a 248880.53 248880.53 0 1 1 497761.06 0a 248880.53 248880.53 0 1 1 -497761.06 0M 21000002.38 38104325.09 m -140500.91 0 a 140500.91 140500.91 0 1 1 281001.82 0a 140500.91 140500.91 0 1 1 -281001.82 0"/>
<path id="N" d="M 14999996.32 32749994.16 m -307757.99 0 a 307757.99 307757.99 0 1 1 615515.98 0a 307757.99 307757.99 0 1 1 -615515.98 0M 14999999.24 32749999.93 m -204721.07 0 a 204721.07 204721.07 0 1 1 409442.13 0a 204721.07 204721.07 0 1 1 -409442.13 0"/>
<path id="N" d="M 14999996.32 27999994.16 m -307757.99 0 a 307757.99 307757.99 0 1 1 615515.98 0a 307757.99 307757.99 0 1 1 -615515.98 0M 14999999.24 27999999.93 m -204721.07 0 a 204721.07 204721.07 0 1 1 409442.13 0a 204721.07 204721.07 0 1 1 -409442.13 0"/>
<path id="N" d="M 24000002.99 38500005.10 m -317671.90 0 a 317671.90 317671.90 0 1 1 635343.80 0a 317671.90 317671.90 0 1 1 -635343.80 0M 24000001.22 38499996.65 m -220780.35 0 a 220780.35 220780.35 0 1 1 441560.70 0a 220780.35 220780.35 0 1 1 -441560.70 0"/>
<path id="N" d="M 14999996.32 37749994.16 m -307757.99 0 a 307757.99 307757.99 0 1 1 615515.98 0a 307757.99 307757.99 0 1 1 -615515.98 0M 14999999.24 37749999.93 m -204721.07 0 a 204721.07 204721.07 0 1 1 409442.13 0a 204721.07 204721.07 0 1 1 -409442.13 0"/>
<path id="N" d="M 21509842.00 42197957.00 L 21590120.00 42117679.00 L 21617748.00 42076332.00 L 21627449.00 42027559.00 L 21627449.00 39866141.00 L 21866141.00 39866141.00 L 21866141.00 39314099.00 L 22590120.00 38590120.00 L 22617748.00 38548773.00 L 22627449.00 38500000.00 L 22627449.00 37933193.12 L 22670305.00 37904557.00 A 240838.32 240838.32 0 1 0 22329695.00 37904557.00 L 22372551.00 37933193.12 L 22372551.00 38447209.00 L 21685901.00 39133859.00 L 21133859.00 39133859.00 L 21133859.00 39866141.00 L 21372551.00 39866141.00 L 21372551.00 41974768.00 L 21329602.00 42017717.00 L 20958662.00 42017717.00 L 20958662.00 42568897.00 L 21509842.00 42568897.00 L 21509842.00 42197957.00  zM 22500002.38 37734246.09 m -140500.91 0 a 140500.91 140500.91 0 1 1 281001.82 0a 140500.91 140500.91 0 1 1 -281001.82 0M 21500001.69 39499995.47 m -248880.53 0 a 248880.53 248880.53 0 1 1 497761.06 0a 248880.53 248880.53 0 1 1 -497761.06 0M 21234252.44 42293305.65 m -180637.35 0 a 180637.35 180637.35 0 1 1 361274.69 0a 180637.35 180637.35 0 1 1 -361274.69 0"/>
<path id="N" d="M 16693147.00 24417779.00 L 16690872.36 24435056.00 L 15309127.64 24435056.00 L 15306853.00 24417779.00 A 317671.90 317671.90 0 1 0 15306853.00 24582221.00 L 15309127.64 24564944.00 L 16690872.36 24564944.00 L 16693147.00 24582221.00 A 317671.90 317671.90 0 1 0 16693147.00 24417779.00  zM 15000001.22 24499996.65 m -220780.35 0 a 220780.35 220780.35 0 1 1 441560.70 0a 220780.35 220780.35 0 1 1 -441560.70 0M 17000001.22 24499996.65 m -220780.35 0 a 220780.35 220780.35 0 1 1 441560.70 0a 220780.35 220780.35 0 1 1 -441560.70 0"/>
<path id="N" d="M 19287810.00 32401166.00 L 19276445.37 32392445.63 L 19292568.00 32376323.00 L 19314670.00 32343246.00 L 19322431.00 32304227.00 L 19322431.00 29986462.13 L 19350323.00 29974909.00 A 259715.78 259715.78 0 0 0 19287688.00 29499147.00 L 19273219.00 29497242.15 L 19273219.00 26024136.52 L 19331657.00 25979295.00 L 19378766.00 25917902.00 A 296447.24 296447.24 0 1 0 19045324.00 26056017.00 L 19069301.00 26059173.70 L 19069301.00 29541450.63 L 19036835.00 29566363.00 A 259692.04 259692.04 0 0 0 19090621.00 29974909.00 L 19118513.00 29986462.13 L 19118513.00 32261994.00 L 19087090.39 32293416.61 L 19000000.00 32281951.00 A 407019.04 407019.04 0 1 0 19287810.00 32401166.00  zM 19122047.74 25769682.83 m -192680.17 0 a 192680.17 192680.17 0 1 1 385360.34 0a 192680.17 192680.17 0 1 1 -385360.34 0M 19220470.59 29750001.48 m -160563.52 0 a 160563.52 160563.52 0 1 1 321127.04 0a 160563.52 160563.52 0 1 1 -321127.04 0M 18999997.17 32688985.88 m -307741.12 0 a 307741.12 307741.12 0 1 1 615482.25 0a 307741.12 307741.12 0 1 1 -615482.25 0"/>
<path id="N" d="M 23921916.20 43720591.71 L 23792446.00 43654623.00 A 1354160.62 1354160.62 0 0 1 23150000.00 42606247.00 L 23150000.00 42550000.00 L 23250070.04 42550000.00 L 23261572.00 42696148.00 A 1253907.24 1253907.24 0 1 0 24696148.00 41261572.00 L 24550000.00 41250070.04 L 24550000.00 41150000.00 L 24606247.00 41150000.00 A 1354204.51 1354204.51 0 0 1 25654623.00 41792446.00 L 25720591.71 41921916.20 L 25770592.00 41909912.14 L 25770592.00 17090087.86 L 25720591.71 17078083.80 L 25654623.00 17207554.00 A 1354160.62 1354160.62 0 0 1 24606247.00 17850000.00 L 24550000.00 17850000.00 L 24550000.00 17749929.96 L 24696148.00 17738428.00 A 1253907.24 1253907.24 0 1 0 23261572.00 16303852.00 L 23250070.04 16450000.00 L 23150000.00 16450000.00 L 23150000.00 16393753.00 A 1354204.51 1354204.51 0 0 1 23792446.00 15345377.00 L 23921916.20 15279408.29 L 23909912.14 15229408.00 L 16090087.86 15229408.00 L 16078083.80 15279408.29 L 16207554.00 15345377.00 A 1354160.62 1354160.62 0 0 1 16850000.00 16393753.00 L 16850000.00 16450000.00 L 16749929.96 16450000.00 L 16738428.00 16303852.00 A 1253907.24 1253907.24 0 1 0 15303852.00 17738428.00 L 15450000.00 17749929.96 L 15450000.00 17850000.00 L 15393753.00 17850000.00 A 1354204.51 1354204.51 0 0 1 14345377.00 17207554.00 L 14279408.29 17078083.80 L 14229408.00 17090087.86 L 14229408.00 41909912.14 L 14279408.29 41921916.20 L 14345377.00 41792446.00 A 1354160.62 1354160.62 0 0 1 15393753.00 41150000.00 L 15450000.00 41150000.00 L 15450000.00 41250070.04 L 15303852.00 41261572.00 A 1253907.24 1253907.24 0 1 0 16738428.00 42696148.00 L 16749929.96 42550000.00 L 16850000.00 42550000.00 L 16850000.00 42606247.00 A 1354204.51 1354204.51 0 0 1 16207554.00 43654623.00 L 16078083.80 43720591.71 L 16090087.86 43770592.00 L 23909912.14 43770592.00 L 23921916.20 43720591.71  zM 15499998.53 16500003.48 m -628020.52 0 a 628020.52 628020.52 0 1 1 1256041.05 0a 628020.52 628020.52 0 1 1 -1256041.05 0M 15606247.00 17850000.00 L 15550000.00 17850000.00 L 15550000.00 17749929.96 L 15696148.00 17738428.00 A 1253907.24 1253907.24 0 0 0 16738428.00 16696148.00 L 16749929.96 16550000.00 L 16850000.00 16550000.00 L 16850000.00 16606247.00 A 1354204.51 1354204.51 0 0 1 15606247.00 17850000.00  zM 17000000.00 20500000.77 m -418539.97 0 a 418539.97 418539.97 0 1 1 837079.95 0a 418539.97 418539.97 0 1 1 -837079.95 0M 15414960.00 21914960.00 L 14585040.00 21914960.00 L 14585040.00 21085040.00 L 15414960.00 21085040.00 L 15414960.00 21914960.00  zM 17966887.44 21449999.98 L 17863093.18 21449999.97 A 365243.64 365243.64 0 0 1 18178346.03 21134747.16 L 18178346.02 21238541.43 L 18158972.00 21241092.00 A 268067.42 268067.42 0 0 0 17969438.00 21430626.00 L 17966887.44 21449999.98  zM 14688904.87 22449999.99 L 14585040.00 22449999.98 L 14585040.00 22445369.00 A 418550.66 418550.66 0 0 1 14945369.00 22085040.00 L 14950000.02 22085040.00 L 14950000.01 22188904.87 L 14917779.00 22193147.00 A 317671.90 317671.90 0 0 0 14693147.00 22417779.00 L 14688904.87 22449999.99  zM 16688904.87 22450000.00 L 16585040.00 22450000.00 L 16585040.00 22445369.00 A 418550.66 418550.66 0 0 1 16945369.00 22085040.00 L 16950000.00 22085040.00 L 16950000.00 22188904.87 L 16917779.00 22193147.00 A 317671.90 317671.90 0 0 0 16693147.00 22417779.00 L 16688904.87 22450000.00  zM 17000000.00 21500000.77 m -418539.97 0 a 418539.97 418539.97 0 1 1 837079.95 0a 418539.97 418539.97 0 1 1 -837079.95 0M 18178345.97 21865252.82 A 365243.64 365243.64 0 0 1 17863093.16 21549999.97 L 17966887.43 21549999.98 L 17969438.00 21569374.00 A 268067.42 268067.42 0 0 0 18158972.00 21758908.00 L 18178345.98 21761458.56 L 18178345.97 21865252.82  zM 18228345.05 21500002.89 m -170598.11 0 a 170598.11 170598.11 0 1 1 341196.22 0a 170598.11 170598.11 0 1 1 -341196.22 0M 14949999.98 22914960.00 L 14945369.00 22914960.00 A 418550.66 418550.66 0 0 1 14585040.00 22554631.00 L 14585040.00 22549999.98 L 14688904.87 22549999.99 L 14693147.00 22582221.00 A 317671.90 317671.90 0 0 0 14917779.00 22806853.00 L 14949999.99 22811095.13 L 14949999.98 22914960.00  zM 15000001.22 22499996.65 m -220780.35 0 a 220780.35 220780.35 0 1 1 441560.70 0a 220780.35 220780.35 0 1 1 -441560.70 0M 15054631.00 22914960.00 L 15049999.98 22914960.00 L 15049999.99 22811095.13 L 15082221.00 22806853.00 A 317671.90 317671.90 0 0 0 15306853.00 22582221.00 L 15311095.13 22550000.01 L 15414960.00 22550000.02 L 15414960.00 22554631.00 A 418550.66 418550.66 0 0 1 15054631.00 22914960.00  zM 15414960.00 22450000.02 L 15311095.13 22450000.01 L 15306853.00 22417779.00 A 317671.90 317671.90 0 0 0 15082221.00 22193147.00 L 15050000.01 22188904.87 L 15050000.02 22085040.00 L 15054631.00 22085040.00 A 418550.66 418550.66 0 0 1 15414960.00 22445369.00 L 15414960.00 22450000.02  zM 16615031.40 23663135.00 L 15384968.60 23663135.00 L 15332051.00 23754792.00 L 15254792.00 23832051.00 A 418550.66 418550.66 0 1 1 15384968.60 23336865.00 L 16615031.40 23336865.00 L 16667949.00 23245208.00 L 16745208.00 23167949.00 A 418550.66 418550.66 0 1 1 16615031.40 23663135.00  zM 16950000.00 22914960.00 L 16945369.00 22914960.00 A 418550.66 418550.66 0 0 1 16585040.00 22554631.00 L 16585040.00 22550000.00 L 16688904.87 22550000.00 L 16693147.00 22582221.00 A 317671.90 317671.90 0 0 0 16917779.00 22806853.00 L 16950000.00 22811095.13 L 16950000.00 22914960.00  zM 17000001.22 22499996.65 m -220780.35 0 a 220780.35 220780.35 0 1 1 441560.70 0a 220780.35 220780.35 0 1 1 -441560.70 0M 17414960.00 22450000.00 L 17311095.13 22450000.00 L 17306853.00 22417779.00 A 317671.90 317671.90 0 0 0 17082221.00 22193147.00 L 17050000.00 22188904.87 L 17050000.00 22085040.00 L 17054631.00 22085040.00 A 418550.66 418550.66 0 0 1 17414960.00 22445369.00 L 17414960.00 22450000.00  zM 17054631.00 22914960.00 L 17050000.00 22914960.00 L 17050000.00 22811095.13 L 17082221.00 22806853.00 A 317671.90 317671.90 0 0 0 17306853.00 22582221.00 L 17311095.13 22550000.00 L 17414960.00 22550000.00 L 17414960.00 22554631.00 A 418550.66 418550.66 0 0 1 17054631.00 22914960.00  zM 19000000.00 17000004.01 m -497957.16 0 a 497957.16 497957.16 0 1 1 995914.32 0a 497957.16 497957.16 0 1 1 -995914.32 0M 18279528.00 18692918.64 m -468173.66 0 a 468173.66 468173.66 0 1 1 936347.33 0a 468173.66 468173.66 0 1 1 -936347.33 0M 21559056.00 17000004.01 m -497957.16 0 a 497957.16 497957.16 0 1 1 995914.32 0a 497957.16 497957.16 0 1 1 -995914.32 0M 18593598.84 21450000.03 L 18489804.57 21450000.02 L 18487254.00 21430626.00 A 268067.42 268067.42 0 0 0 18297720.00 21241092.00 L 18278346.02 21238541.44 L 18278346.03 21134747.18 A 365243.64 365243.64 0 0 1 18593598.84 21450000.03  zM 22743701.00 19157087.00 L 21815355.00 19157087.00 L 21815355.00 18228741.00 L 22743701.00 18228741.00 L 22743701.00 19157087.00  zM 24450000.00 17850000.00 L 24393753.00 17850000.00 A 1354204.51 1354204.51 0 0 1 23150000.00 16606247.00 L 23150000.00 16550000.00 L 23250070.04 16550000.00 L 23261572.00 16696148.00 A 1253907.24 1253907.24 0 0 0 24303852.00 17738428.00 L 24450000.00 17749929.96 L 24450000.00 17850000.00  zM 24499998.53 16500003.48 m -628020.52 0 a 628020.52 628020.52 0 1 1 1256041.05 0a 628020.52 628020.52 0 1 1 -1256041.05 0M 24414960.00 20914960.00 L 23585040.00 20914960.00 L 23585040.00 20085040.00 L 24414960.00 20085040.00 L 24414960.00 20914960.00  zM 24000000.00 21500000.77 m -418539.97 0 a 418539.97 418539.97 0 1 1 837079.95 0a 418539.97 418539.97 0 1 1 -837079.95 0M 18278345.97 21865252.84 L 18278345.98 21761458.57 L 18297720.00 21758908.00 A 268067.42 268067.42 0 0 0 18487254.00 21569374.00 L 18489804.56 21550000.02 L 18593598.82 21550000.03 A 365243.64 365243.64 0 0 1 18278345.97 21865252.84  zM 22137402.00 23115748.00 L 21405906.00 23115748.00 L 21405906.00 22384252.00 L 22137402.00 22384252.00 L 22137402.00 23115748.00  zM 22136906.83 23950000.00 L 22033112.56 23950000.00 L 22030562.00 23930626.00 A 268067.42 268067.42 0 0 0 21841028.00 23741092.00 L 21821654.00 23738541.44 L 21821654.00 23634747.17 A 365243.70 365243.70 0 0 1 22136906.83 23950000.00  zM 23688904.87 22449999.99 L 23585040.00 22449999.98 L 23585040.00 22445369.00 A 418550.66 418550.66 0 0 1 23945369.00 22085040.00 L 23950000.02 22085040.00 L 23950000.01 22188904.87 L 23917779.00 22193147.00 A 317671.90 317671.90 0 0 0 23693147.00 22417779.00 L 23688904.87 22449999.99  zM 23949999.98 22914960.00 L 23945369.00 22914960.00 A 418550.66 418550.66 0 0 1 23585040.00 22554631.00 L 23585040.00 22549999.98 L 23688904.87 22549999.99 L 23693147.00 22582221.00 A 317671.90 317671.90 0 0 0 23917779.00 22806853.00 L 23949999.99 22811095.13 L 23949999.98 22914960.00  zM 24000001.22 22499996.65 m -220780.35 0 a 220780.35 220780.35 0 1 1 441560.70 0a 220780.35 220780.35 0 1 1 -441560.70 0M 24414960.00 22450000.02 L 24311095.13 22450000.01 L 24306853.00 22417779.00 A 317671.90 317671.90 0 0 0 24082221.00 22193147.00 L 24050000.01 22188904.87 L 24050000.02 22085040.00 L 24054631.00 22085040.00 A 418550.66 418550.66 0 0 1 24414960.00 22445369.00 L 24414960.00 22450000.02  zM 24054631.00 22914960.00 L 24049999.98 22914960.00 L 24049999.99 22811095.13 L 24082221.00 22806853.00 A 317671.90 317671.90 0 0 0 24306853.00 22582221.00 L 24311095.13 22550000.01 L 24414960.00 22550000.02 L 24414960.00 22554631.00 A 418550.66 418550.66 0 0 1 24054631.00 22914960.00  zM 24000000.00 23500000.77 m -418539.97 0 a 418539.97 418539.97 0 1 1 837079.95 0a 418539.97 418539.97 0 1 1 -837079.95 0M 16615031.40 24663135.00 L 15384968.60 24663135.00 L 15332051.00 24754792.00 L 15254792.00 24832051.00 A 418550.66 418550.66 0 1 1 15384968.60 24336865.00 L 16615031.40 24336865.00 L 16667949.00 24245208.00 L 16745208.00 24167949.00 A 418550.66 418550.66 0 1 1 16615031.40 24663135.00  zM 17000000.00 25500000.77 m -418539.97 0 a 418539.97 418539.97 0 1 1 837079.95 0a 418539.97 418539.97 0 1 1 -837079.95 0M 15248748.00 26675825.00 L 15296107.50 26723184.50 L 15634646.00 26384646.00 L 15687571.00 26349283.00 L 15750000.00 26336865.00 L 16615031.40 26336865.00 L 16667949.00 26245208.00 L 16745208.00 26167949.00 A 418550.66 418550.66 0 1 1 16615031.40 26663135.00 L 15817573.00 26663135.00 L 15396972.16 27083735.84 L 15377510.00 27156370.00 A 408620.31 408620.31 0 1 1 15248748.00 26675825.00  zM 16688904.87 27450000.00 L 16585040.00 27450000.00 L 16585040.00 27445369.00 A 418550.66 418550.66 0 0 1 16945369.00 27085040.00 L 16950000.00 27085040.00 L 16950000.00 27188904.87 L 16917779.00 27193147.00 A 317671.90 317671.90 0 0 0 16693147.00 27417779.00 L 16688904.87 27450000.00  zM 16950000.00 27914960.00 L 16945369.00 27914960.00 A 418550.66 418550.66 0 0 1 16585040.00 27554631.00 L 16585040.00 27550000.00 L 16688904.87 27550000.00 L 16693147.00 27582221.00 A 317671.90 317671.90 0 0 0 16917779.00 27806853.00 L 16950000.00 27811095.13 L 16950000.00 27914960.00  zM 17000001.22 27499996.65 m -220780.35 0 a 220780.35 220780.35 0 1 1 441560.70 0a 220780.35 220780.35 0 1 1 -441560.70 0M 17414960.00 27450000.00 L 17311095.13 27450000.00 L 17306853.00 27417779.00 A 317671.90 317671.90 0 0 0 17082221.00 27193147.00 L 17050000.00 27188904.87 L 17050000.00 27085040.00 L 17054631.00 27085040.00 A 418550.66 418550.66 0 0 1 17414960.00 27445369.00 L 17414960.00 27450000.00  zM 21119292.97 26163582.00 A 393895.90 393895.90 0 0 1 20775394.00 25819682.97 L 20879440.51 25819682.97 L 20882959.00 25846408.00 A 296416.08 296416.08 0 0 0 21092568.00 26056017.00 L 21119292.97 26059535.49 L 21119292.97 26163582.00  zM 20879441.04 25719682.97 L 20775394.00 25719682.97 A 393902.80 393902.80 0 0 1 21119293.03 25375788.00 L 21119293.03 25479834.51 L 21092568.00 25483353.00 A 296416.08 296416.08 0 0 0 20882959.00 25692962.00 L 20879441.04 25719682.97  zM 21169291.74 25769682.83 m -192680.17 0 a 192680.17 192680.17 0 1 1 385360.34 0a 192680.17 192680.17 0 1 1 -385360.34 0M 17054631.00 27914960.00 L 17050000.00 27914960.00 L 17050000.00 27811095.13 L 17082221.00 27806853.00 A 317671.90 317671.90 0 0 0 17306853.00 27582221.00 L 17311095.13 27550000.00 L 17414960.00 27550000.00 L 17414960.00 27554631.00 A 418550.66 418550.66 0 0 1 17054631.00 27914960.00  zM 18933707.00 32185433.00 L 19016554.00 32185433.00 L 19016554.00 30045050.25 L 19000974.00 30036055.00 A 360574.08 360574.08 0 0 1 18934417.00 29530502.00 L 18967342.00 29497577.00 L 18967342.00 26135199.76 A 391412.65 391412.65 0 0 1 18754993.00 25921724.00 A 397303.33 397303.33 0 0 1 19274085.29 25402630.81 L 19299574.02 25359611.31 L 18305710.13 24365748.00 L 17862598.00 24365748.00 L 17862598.00 23634252.00 L 18024428.00 23634252.00 L 18024428.00 23054597.28 L 18003771.00 23042671.00 A 368901.89 368901.89 0 1 1 18452921.00 23042671.00 L 18432264.00 23054597.28 L 18432264.00 23634252.00 L 18594094.00 23634252.00 L 18594094.00 24077364.13 L 19946545.08 25429816.00 L 19993630.00 25402631.00 A 397303.33 397303.33 0 1 1 19751772.00 25821543.00 L 19751772.00 25811809.02 L 19532120.51 25592157.65 L 19489101.19 25617646.71 A 397301.93 397301.93 0 0 1 19437243.00 26011543.00 L 19375178.00 26073608.00 L 19375178.00 29426536.75 L 19439970.00 29463945.00 A 360574.08 360574.08 0 0 1 19439970.00 30036055.00 L 19424390.00 30045050.25 L 19424390.00 32304227.00 L 19408868.00 32382264.00 L 19406450.43 32385882.01 L 19469227.00 32494616.00 A 507880.47 507880.47 0 1 1 18933707.00 32185433.00  zM 15000000.00 27999997.09 m -408616.66 0 a 408616.66 408616.66 0 1 1 817233.32 0a 408616.66 408616.66 0 1 1 -817233.32 0M 14694882.00 28950000.00 L 14594882.00 28950000.00 L 14594882.00 28594882.00 L 14950000.00 28594882.00 L 14950000.00 28694882.00 L 14694882.00 28694882.00 L 14694882.00 28950000.00  zM 17000000.00 28500000.77 m -418539.97 0 a 418539.97 418539.97 0 1 1 837079.95 0a 418539.97 418539.97 0 1 1 -837079.95 0M 14950000.00 29405118.00 L 14594882.00 29405118.00 L 14594882.00 29050000.00 L 14694882.00 29050000.00 L 14694882.00 29305118.00 L 14950000.00 29305118.00 L 14950000.00 29405118.00  zM 14999999.24 28999999.93 m -204721.07 0 a 204721.07 204721.07 0 1 1 409442.13 0a 204721.07 204721.07 0 1 1 -409442.13 0M 15405118.00 28950000.00 L 15305118.00 28950000.00 L 15305118.00 28694882.00 L 15050000.00 28694882.00 L 15050000.00 28594882.00 L 15405118.00 28594882.00 L 15405118.00 28950000.00  zM 15405118.00 29405118.00 L 15050000.00 29405118.00 L 15050000.00 29305118.00 L 15305118.00 29305118.00 L 15305118.00 29050000.00 L 15405118.00 29050000.00 L 15405118.00 29405118.00  zM 21510195.44 23950000.00 L 21406401.17 23950000.00 A 365243.70 365243.70 0 0 1 21721654.00 23634747.17 L 21721654.00 23738541.44 L 21702280.00 23741092.00 A 268067.42 268067.42 0 0 0 21512746.00 23930626.00 L 21510195.44 23950000.00  zM 21771653.05 24000002.89 m -170598.11 0 a 170598.11 170598.11 0 1 1 341196.22 0a 170598.11 170598.11 0 1 1 -341196.22 0M 21721654.00 24365252.83 A 365243.70 365243.70 0 0 1 21406401.17 24050000.00 L 21510195.44 24050000.00 L 21512746.00 24069374.00 A 268067.42 268067.42 0 0 0 21702280.00 24258908.00 L 21721654.00 24261458.56 L 21721654.00 24365252.83  zM 21821654.00 24365252.83 L 21821654.00 24261458.56 L 21841028.00 24258908.00 A 268067.42 268067.42 0 0 0 22030562.00 24069374.00 L 22033112.56 24050000.00 L 22136906.83 24050000.00 A 365243.70 365243.70 0 0 1 21821654.00 24365252.83  zM 24000000.00 24500000.77 m -418539.97 0 a 418539.97 418539.97 0 1 1 837079.95 0a 418539.97 418539.97 0 1 1 -837079.95 0M 21563188.00 25719683.03 L 21459140.97 25719683.03 L 21455623.00 25692962.00 A 296416.08 296416.08 0 0 0 21246014.00 25483353.00 L 21219293.03 25479835.04 L 21219293.03 25375788.00 A 393902.80 393902.80 0 0 1 21563188.00 25717827.00 L 21563188.00 25719683.03  zM 24000000.00 25500000.77 m -418539.97 0 a 418539.97 418539.97 0 1 1 837079.95 0a 418539.97 418539.97 0 1 1 -837079.95 0M 21219292.97 26163582.00 L 21219292.97 26059534.97 L 21246014.00 26056017.00 A 296416.08 296416.08 0 0 0 21455623.00 25846408.00 L 21459141.49 25819683.03 L 21563188.00 25819683.03 A 393895.90 393895.90 0 0 1 21219292.97 26163582.00  zM 23585040.00 33445369.00 L 23600244.00 33388627.26 L 22855808.00 32644192.00 L 22811604.00 32578036.00 L 22796082.00 32500000.00 L 22796082.00 22812811.05 L 21849018.18 21865748.00 L 21405906.00 21865748.00 L 21405906.00 21134252.00 L 21567736.00 21134252.00 L 21567736.00 20269506.00 L 20431082.11 19132852.11 L 20340637.00 19157087.00 A 468173.66 468173.66 0 1 1 20743701.00 18754023.00 L 20719466.11 18844468.11 L 21915846.00 20040848.00 L 21960050.00 20107004.00 L 21975572.00 20185040.00 L 21975572.00 21134252.00 L 22137402.00 21134252.00 L 22137402.00 21577364.18 L 23144192.00 22584154.00 L 23188396.00 22650310.00 L 23203918.00 22728351.03 L 23203918.00 32415534.06 L 23888627.26 33100244.00 L 23945369.00 33085040.00 A 418539.97 418539.97 0 1 1 23585040.00 33445369.00  zM 24000000.00 26500000.77 m -418539.97 0 a 418539.97 418539.97 0 1 1 837079.95 0a 418539.97 418539.97 0 1 1 -837079.95 0M 23688904.87 27449999.99 L 23585040.00 27449999.98 L 23585040.00 27445369.00 A 418550.66 418550.66 0 0 1 23945369.00 27085040.00 L 23950000.02 27085040.00 L 23950000.01 27188904.87 L 23917779.00 27193147.00 A 317671.90 317671.90 0 0 0 23693147.00 27417779.00 L 23688904.87 27449999.99  zM 24414960.00 27450000.02 L 24311095.13 27450000.01 L 24306853.00 27417779.00 A 317671.90 317671.90 0 0 0 24082221.00 27193147.00 L 24050000.01 27188904.87 L 24050000.02 27085040.00 L 24054631.00 27085040.00 A 418550.66 418550.66 0 0 1 24414960.00 27445369.00 L 24414960.00 27450000.02  zM 23949999.98 27914960.00 L 23945369.00 27914960.00 A 418550.66 418550.66 0 0 1 23585040.00 27554631.00 L 23585040.00 27549999.98 L 23688904.87 27549999.99 L 23693147.00 27582221.00 A 317671.90 317671.90 0 0 0 23917779.00 27806853.00 L 23949999.99 27811095.13 L 23949999.98 27914960.00  zM 24000001.22 27499996.65 m -220780.35 0 a 220780.35 220780.35 0 1 1 441560.70 0a 220780.35 220780.35 0 1 1 -441560.70 0M 24054631.00 27914960.00 L 24049999.98 27914960.00 L 24049999.99 27811095.13 L 24082221.00 27806853.00 A 317671.90 317671.90 0 0 0 24306853.00 27582221.00 L 24311095.13 27550000.01 L 24414960.00 27550000.02 L 24414960.00 27554631.00 A 418550.66 418550.66 0 0 1 24054631.00 27914960.00  zM 24000000.00 28500000.77 m -418539.97 0 a 418539.97 418539.97 0 1 1 837079.95 0a 418539.97 418539.97 0 1 1 -837079.95 0M 24000000.00 29500000.77 m -418539.97 0 a 418539.97 418539.97 0 1 1 837079.95 0a 418539.97 418539.97 0 1 1 -837079.95 0M 24000000.00 30500000.77 m -418539.97 0 a 418539.97 418539.97 0 1 1 837079.95 0a 418539.97 418539.97 0 1 1 -837079.95 0M 17000000.00 30500000.77 m -418539.97 0 a 418539.97 418539.97 0 1 1 837079.95 0a 418539.97 418539.97 0 1 1 -837079.95 0M 15053334.27 31344882.00 L 15086865.00 31319152.93 L 15086865.00 31250000.00 L 15099283.00 31187571.00 L 15134646.00 31134646.00 L 16612432.28 29656859.72 L 16585040.00 29554631.00 L 16585040.00 29445369.00 A 418550.66 418550.66 0 1 1 16843140.28 29887567.72 L 15413135.00 31317573.00 L 15413135.00 31750000.00 L 15405118.00 31790303.86 L 15405118.00 31803335.00 A 408604.28 408604.28 0 1 1 15053334.27 31344882.00  zM 17000000.00 31500000.77 m -418539.97 0 a 418539.97 418539.97 0 1 1 837079.95 0a 418539.97 418539.97 0 1 1 -837079.95 0M 16688904.87 32450000.00 L 16585040.00 32450000.00 L 16585040.00 32445369.00 A 418550.66 418550.66 0 0 1 16945369.00 32085040.00 L 16950000.00 32085040.00 L 16950000.00 32188904.87 L 16917779.00 32193147.00 A 317671.90 317671.90 0 0 0 16693147.00 32417779.00 L 16688904.87 32450000.00  zM 17000001.22 32499996.65 m -220780.35 0 a 220780.35 220780.35 0 1 1 441560.70 0a 220780.35 220780.35 0 1 1 -441560.70 0M 15000000.00 32749997.09 m -408616.66 0 a 408616.66 408616.66 0 1 1 817233.32 0a 408616.66 408616.66 0 1 1 -817233.32 0M 14694882.00 33700000.00 L 14594882.00 33700000.00 L 14594882.00 33344882.00 L 14950000.00 33344882.00 L 14950000.00 33444882.00 L 14694882.00 33444882.00 L 14694882.00 33700000.00  zM 14999999.24 33749999.93 m -204721.07 0 a 204721.07 204721.07 0 1 1 409442.13 0a 204721.07 204721.07 0 1 1 -409442.13 0M 15405118.00 33700000.00 L 15305118.00 33700000.00 L 15305118.00 33444882.00 L 15050000.00 33444882.00 L 15050000.00 33344882.00 L 15405118.00 33344882.00 L 15405118.00 33700000.00  zM 16950000.00 32914960.00 L 16945369.00 32914960.00 A 418550.66 418550.66 0 0 1 16585040.00 32554631.00 L 16585040.00 32550000.00 L 16688904.87 32550000.00 L 16693147.00 32582221.00 A 317671.90 317671.90 0 0 0 16917779.00 32806853.00 L 16950000.00 32811095.13 L 16950000.00 32914960.00  zM 17414960.00 32450000.00 L 17311095.13 32450000.00 L 17306853.00 32417779.00 A 317671.90 317671.90 0 0 0 17082221.00 32193147.00 L 17050000.00 32188904.87 L 17050000.00 32085040.00 L 17054631.00 32085040.00 A 418550.66 418550.66 0 0 1 17414960.00 32445369.00 L 17414960.00 32450000.00  zM 17054631.00 32914960.00 L 17050000.00 32914960.00 L 17050000.00 32811095.13 L 17082221.00 32806853.00 A 317671.90 317671.90 0 0 0 17306853.00 32582221.00 L 17311095.13 32550000.00 L 17414960.00 32550000.00 L 17414960.00 32554631.00 A 418550.66 418550.66 0 0 1 17054631.00 32914960.00  zM 17000000.00 33500000.77 m -418539.97 0 a 418539.97 418539.97 0 1 1 837079.95 0a 418539.97 418539.97 0 1 1 -837079.95 0M 23688904.87 32449999.99 L 23585040.00 32449999.98 L 23585040.00 32445369.00 A 418550.66 418550.66 0 0 1 23945369.00 32085040.00 L 23950000.02 32085040.00 L 23950000.01 32188904.87 L 23917779.00 32193147.00 A 317671.90 317671.90 0 0 0 23693147.00 32417779.00 L 23688904.87 32449999.99  zM 23949999.98 32914960.00 L 23945369.00 32914960.00 A 418550.66 418550.66 0 0 1 23585040.00 32554631.00 L 23585040.00 32549999.98 L 23688904.87 32549999.99 L 23693147.00 32582221.00 A 317671.90 317671.90 0 0 0 23917779.00 32806853.00 L 23949999.99 32811095.13 L 23949999.98 32914960.00  zM 24000000.00 31500000.77 m -418539.97 0 a 418539.97 418539.97 0 1 1 837079.95 0a 418539.97 418539.97 0 1 1 -837079.95 0M 24414960.00 32450000.02 L 24311095.13 32450000.01 L 24306853.00 32417779.00 A 317671.90 317671.90 0 0 0 24082221.00 32193147.00 L 24050000.01 32188904.87 L 24050000.02 32085040.00 L 24054631.00 32085040.00 A 418550.66 418550.66 0 0 1 24414960.00 32445369.00 L 24414960.00 32450000.02  zM 24000001.22 32499996.65 m -220780.35 0 a 220780.35 220780.35 0 1 1 441560.70 0a 220780.35 220780.35 0 1 1 -441560.70 0M 24054631.00 32914960.00 L 24049999.98 32914960.00 L 24049999.99 32811095.13 L 24082221.00 32806853.00 A 317671.90 317671.90 0 0 0 24306853.00 32582221.00 L 24311095.13 32550000.01 L 24414960.00 32550000.02 L 24414960.00 32554631.00 A 418550.66 418550.66 0 0 1 24054631.00 32914960.00  zM 14950000.00 34155118.00 L 14594882.00 34155118.00 L 14594882.00 33800000.00 L 14694882.00 33800000.00 L 14694882.00 34055118.00 L 14950000.00 34055118.00 L 14950000.00 34155118.00  zM 15405118.00 34155118.00 L 15050000.00 34155118.00 L 15050000.00 34055118.00 L 15305118.00 34055118.00 L 15305118.00 33800000.00 L 15405118.00 33800000.00 L 15405118.00 34155118.00  zM 24000000.00 34500000.77 m -418539.97 0 a 418539.97 418539.97 0 1 1 837079.95 0a 418539.97 418539.97 0 1 1 -837079.95 0M 19033859.00 39438631.00 L 19058454.85 39346838.85 L 18855808.00 39144192.00 L 18811604.00 39078036.00 L 18796082.00 39000000.00 L 18796082.00 38463708.78 L 18690817.00 38402935.00 A 507874.72 507874.72 0 0 1 18690817.00 37597065.00 L 18796082.00 37536291.22 L 18796082.00 35000000.00 L 18811604.00 34921964.00 L 18855808.00 34855808.00 L 21575610.00 32136006.00 L 21575610.00 30045050.25 L 21560030.00 30036055.00 A 360574.08 360574.08 0 1 1 21999026.00 30036055.00 L 21983446.00 30045050.25 L 21983446.00 32220472.00 L 21967924.00 32298508.00 L 21923720.00 32364664.00 L 19203918.00 35084466.00 L 19203918.00 37536291.22 L 19309183.00 37597065.00 L 19402935.00 37690817.00 L 19463708.78 37796082.00 L 20821947.00 37796082.00 L 20851337.56 37801928.02 L 20870224.00 37791024.00 A 339118.96 339118.96 0 1 1 20686693.00 38234107.00 L 20678603.84 38203918.00 L 19463708.78 38203918.00 L 19402935.00 38309183.00 L 19309183.00 38402935.00 L 19203918.00 38463708.78 L 19203918.00 38915534.00 L 19346838.85 39058454.85 L 19438631.00 39033859.00 A 470160.73 470160.73 0 1 1 19033859.00 39438631.00  zM 20763780.00 34845667.99 L 20663780.00 34845667.99 L 20663780.00 34559449.00 L 20949999.01 34559449.00 L 20949999.01 34659449.00 L 20763780.00 34659449.00 L 20763780.00 34845667.99  zM 20949998.99 35231889.00 L 20663780.00 35231889.00 L 20663780.00 34945667.99 L 20763780.00 34945667.99 L 20763780.00 35131889.00 L 20949998.99 35131889.00 L 20949998.99 35231889.00  zM 21000002.38 34895663.09 m -140500.91 0 a 140500.91 140500.91 0 1 1 281001.82 0a 140500.91 140500.91 0 1 1 -281001.82 0M 21336220.00 34845668.01 L 21236220.00 34845668.01 L 21236220.00 34659449.00 L 21049999.01 34659449.00 L 21049999.01 34559449.00 L 21336220.00 34559449.00 L 21336220.00 34845668.01  zM 21336220.00 35231889.00 L 21049998.99 35231889.00 L 21049998.99 35131889.00 L 21236220.00 35131889.00 L 21236220.00 34945668.01 L 21336220.00 34945668.01 L 21336220.00 35231889.00  zM 17000000.00 35500000.77 m -418539.97 0 a 418539.97 418539.97 0 1 1 837079.95 0a 418539.97 418539.97 0 1 1 -837079.95 0M 15053334.27 36344882.00 L 15086865.00 36319152.93 L 15086865.00 36250000.00 L 15099283.00 36187571.00 L 15134646.00 36134646.00 L 16612432.28 34656859.72 L 16585040.00 34554631.00 L 16585040.00 34445369.00 A 418550.66 418550.66 0 1 1 16843140.28 34887567.72 L 15413135.00 36317573.00 L 15413135.00 36750000.00 L 15405118.00 36790303.86 L 15405118.00 36803335.00 A 408604.28 408604.28 0 1 1 15053334.27 36344882.00  zM 17000000.00 36500000.77 m -418539.97 0 a 418539.97 418539.97 0 1 1 837079.95 0a 418539.97 418539.97 0 1 1 -837079.95 0M 22263780.00 35715747.99 L 22163780.00 35715747.99 L 22163780.00 35429528.00 L 22450000.01 35429528.00 L 22450000.01 35529528.00 L 22263780.00 35529528.00 L 22263780.00 35715747.99  zM 22449999.99 36101968.00 L 22163780.00 36101968.00 L 22163780.00 35815747.99 L 22263780.00 35815747.99 L 22263780.00 36001968.00 L 22449999.99 36001968.00 L 22449999.99 36101968.00  zM 22500002.38 35765742.09 m -140500.91 0 a 140500.91 140500.91 0 1 1 281001.82 0a 140500.91 140500.91 0 1 1 -281001.82 0M 22836220.00 36101968.00 L 22549999.99 36101968.00 L 22549999.99 36001968.00 L 22736220.00 36001968.00 L 22736220.00 35815748.01 L 22836220.00 35815748.01 L 22836220.00 36101968.00  zM 22836220.00 35715748.01 L 22736220.00 35715748.01 L 22736220.00 35529528.00 L 22550000.01 35529528.00 L 22550000.01 35429528.00 L 22836220.00 35429528.00 L 22836220.00 35715748.01  zM 24000000.00 35500000.77 m -418539.97 0 a 418539.97 418539.97 0 1 1 837079.95 0a 418539.97 418539.97 0 1 1 -837079.95 0M 15000000.00 37749997.09 m -408616.66 0 a 408616.66 408616.66 0 1 1 817233.32 0a 408616.66 408616.66 0 1 1 -817233.32 0M 14694882.00 38700000.00 L 14594882.00 38700000.00 L 14594882.00 38344882.00 L 14950000.00 38344882.00 L 14950000.00 38444882.00 L 14694882.00 38444882.00 L 14694882.00 38700000.00  zM 14999999.24 38749999.93 m -204721.07 0 a 204721.07 204721.07 0 1 1 409442.13 0a 204721.07 204721.07 0 1 1 -409442.13 0M 15405118.00 38700000.00 L 15305118.00 38700000.00 L 15305118.00 38444882.00 L 15050000.00 38444882.00 L 15050000.00 38344882.00 L 15405118.00 38344882.00 L 15405118.00 38700000.00  zM 16950000.00 37914960.00 L 16945369.00 37914960.00 A 418550.66 418550.66 0 0 1 16585040.00 37554631.00 L 16585040.00 37550000.00 L 16688904.87 37550000.00 L 16693147.00 37582221.00 A 317671.90 317671.90 0 0 0 16917779.00 37806853.00 L 16950000.00 37811095.13 L 16950000.00 37914960.00  zM 16688904.87 37450000.00 L 16585040.00 37450000.00 L 16585040.00 37445369.00 A 418550.66 418550.66 0 0 1 16945369.00 37085040.00 L 16950000.00 37085040.00 L 16950000.00 37188904.87 L 16917779.00 37193147.00 A 317671.90 317671.90 0 0 0 16693147.00 37417779.00 L 16688904.87 37450000.00  zM 17000001.22 37499996.65 m -220780.35 0 a 220780.35 220780.35 0 1 1 441560.70 0a 220780.35 220780.35 0 1 1 -441560.70 0M 17414960.00 37450000.00 L 17311095.13 37450000.00 L 17306853.00 37417779.00 A 317671.90 317671.90 0 0 0 17082221.00 37193147.00 L 17050000.00 37188904.87 L 17050000.00 37085040.00 L 17054631.00 37085040.00 A 418550.66 418550.66 0 0 1 17414960.00 37445369.00 L 17414960.00 37450000.00  zM 17054631.00 37914960.00 L 17050000.00 37914960.00 L 17050000.00 37811095.13 L 17082221.00 37806853.00 A 317671.90 317671.90 0 0 0 17306853.00 37582221.00 L 17311095.13 37550000.00 L 17414960.00 37550000.00 L 17414960.00 37554631.00 A 418550.66 418550.66 0 0 1 17054631.00 37914960.00  zM 17000000.00 38500000.77 m -418539.97 0 a 418539.97 418539.97 0 1 1 837079.95 0a 418539.97 418539.97 0 1 1 -837079.95 0M 14950000.00 39155118.00 L 14594882.00 39155118.00 L 14594882.00 38800000.00 L 14694882.00 38800000.00 L 14694882.00 39055118.00 L 14950000.00 39055118.00 L 14950000.00 39155118.00  zM 15405118.00 39155118.00 L 15050000.00 39155118.00 L 15050000.00 39055118.00 L 15305118.00 39055118.00 L 15305118.00 38800000.00 L 15405118.00 38800000.00 L 15405118.00 39155118.00  zM 17414960.00 39914960.00 L 16585040.00 39914960.00 L 16585040.00 39085040.00 L 17414960.00 39085040.00 L 17414960.00 39914960.00  zM 15499998.53 42500003.48 m -628020.52 0 a 628020.52 628020.52 0 1 1 1256041.05 0a 628020.52 628020.52 0 1 1 -1256041.05 0M 16850000.00 42450000.00 L 16749929.96 42450000.00 L 16738428.00 42303852.00 A 1253907.24 1253907.24 0 0 0 15696148.00 41261572.00 L 15550000.00 41250070.04 L 15550000.00 41150000.00 L 15606247.00 41150000.00 A 1354204.51 1354204.51 0 0 1 16850000.00 42393753.00 L 16850000.00 42450000.00  zM 18994362.73 42243308.98 L 18890305.65 42243308.97 A 377750.69 377750.69 0 0 1 19215748.03 41917865.17 L 19215748.02 42021921.99 L 19193805.00 42024811.00 A 277967.15 277967.15 0 0 0 18997252.00 42221364.00 L 18994362.73 42243308.98  zM 19265748.44 42293305.65 m -180637.35 0 a 180637.35 180637.35 0 1 1 361274.69 0a 180637.35 180637.35 0 1 1 -361274.69 0M 19215747.97 42668748.81 A 377746.72 377746.72 0 0 1 18890306.70 42343308.97 L 18994363.25 42343308.98 L 18997252.00 42365250.00 A 277967.15 277967.15 0 0 0 19193805.00 42561803.00 L 19215747.98 42564692.01 L 19215747.97 42668748.81  zM 19315747.97 42668748.83 L 19315747.98 42564692.01 L 19337691.00 42561803.00 A 277967.15 277967.15 0 0 0 19534244.00 42365250.00 L 19537132.74 42343309.02 L 19641189.28 42343309.03 A 377742.76 377742.76 0 0 1 19315747.97 42668748.83  zM 20137282.83 39449999.97 L 20033859.00 39449999.96 L 20033859.00 39438631.00 A 470157.75 470157.75 0 0 1 20438631.00 39033859.00 L 20450000.04 39033859.00 L 20450000.03 39137282.83 L 20404418.00 39143284.00 A 369308.83 369308.83 0 0 0 20143284.00 39404418.00 L 20137282.83 39449999.97  zM 20966141.00 39450000.04 L 20862717.17 39450000.03 L 20856716.00 39404418.00 A 369308.83 369308.83 0 0 0 20595582.00 39143284.00 L 20550000.03 39137282.83 L 20550000.04 39033859.00 L 20561369.00 39033859.00 A 470157.75 470157.75 0 0 1 20966141.00 39438631.00 L 20966141.00 39450000.04  zM 23949999.98 37914960.00 L 23945369.00 37914960.00 A 418550.66 418550.66 0 0 1 23585040.00 37554631.00 L 23585040.00 37549999.98 L 23688904.87 37549999.99 L 23693147.00 37582221.00 A 317671.90 317671.90 0 0 0 23917779.00 37806853.00 L 23949999.99 37811095.13 L 23949999.98 37914960.00  zM 24000000.00 36500000.77 m -418539.97 0 a 418539.97 418539.97 0 1 1 837079.95 0a 418539.97 418539.97 0 1 1 -837079.95 0M 23688904.87 37449999.99 L 23585040.00 37449999.98 L 23585040.00 37445369.00 A 418550.66 418550.66 0 0 1 23945369.00 37085040.00 L 23950000.02 37085040.00 L 23950000.01 37188904.87 L 23917779.00 37193147.00 A 317671.90 317671.90 0 0 0 23693147.00 37417779.00 L 23688904.87 37449999.99  zM 24000001.22 37499996.65 m -220780.35 0 a 220780.35 220780.35 0 1 1 441560.70 0a 220780.35 220780.35 0 1 1 -441560.70 0M 24414960.00 37450000.02 L 24311095.13 37450000.01 L 24306853.00 37417779.00 A 317671.90 317671.90 0 0 0 24082221.00 37193147.00 L 24050000.01 37188904.87 L 24050000.02 37085040.00 L 24054631.00 37085040.00 A 418550.66 418550.66 0 0 1 24414960.00 37445369.00 L 24414960.00 37450000.02  zM 24054631.00 37914960.00 L 24049999.98 37914960.00 L 24049999.99 37811095.13 L 24082221.00 37806853.00 A 317671.90 317671.90 0 0 0 24306853.00 37582221.00 L 24311095.13 37550000.01 L 24414960.00 37550000.02 L 24414960.00 37554631.00 A 418550.66 418550.66 0 0 1 24054631.00 37914960.00  zM 24000000.00 38500000.77 m -418539.97 0 a 418539.97 418539.97 0 1 1 837079.95 0a 418539.97 418539.97 0 1 1 -837079.95 0M 20449999.96 39966141.00 L 20438631.00 39966141.00 A 470157.75 470157.75 0 0 1 20033859.00 39561369.00 L 20033859.00 39549999.96 L 20137282.83 39549999.97 L 20143284.00 39595582.00 A 369308.83 369308.83 0 0 0 20404418.00 39856716.00 L 20449999.97 39862717.17 L 20449999.96 39966141.00  zM 20500001.69 39499995.47 m -248880.53 0 a 248880.53 248880.53 0 1 1 497761.06 0a 248880.53 248880.53 0 1 1 -497761.06 0M 20561369.00 39966141.00 L 20549999.96 39966141.00 L 20549999.97 39862717.17 L 20595582.00 39856716.00 A 369308.83 369308.83 0 0 0 20856716.00 39595582.00 L 20862717.17 39550000.03 L 20966141.00 39550000.04 L 20966141.00 39561369.00 A 470157.75 470157.75 0 0 1 20561369.00 39966141.00  zM 19641190.37 42243309.03 L 19537133.28 42243309.02 L 19534244.00 42221364.00 A 277967.15 277967.15 0 0 0 19337691.00 42024811.00 L 19315748.02 42021921.99 L 19315748.03 41917865.19 A 377746.72 377746.72 0 0 1 19641190.37 42243309.03  zM 20250000.00 42293310.38 m -378827.55 0 a 378827.55 378827.55 0 1 1 757655.10 0a 378827.55 378827.55 0 1 1 -757655.10 0M 24000000.00 39500000.77 m -418539.97 0 a 418539.97 418539.97 0 1 1 837079.95 0a 418539.97 418539.97 0 1 1 -837079.95 0M 21609842.00 42668897.00 L 20858662.00 42668897.00 L 20858662.00 41917717.00 L 21270592.00 41917717.00 L 21270592.00 39966141.00 L 21033859.00 39966141.00 L 21033859.00 39033859.00 L 21641709.00 39033859.00 L 22270592.00 38404976.00 L 22270592.00 37980331.00 L 22230957.00 37940696.00 A 339127.07 339127.07 0 1 1 22769043.00 37940696.00 L 22729408.00 37980331.00 L 22729408.00 38500000.00 L 22711946.00 38587790.00 L 22662216.00 38662216.00 L 21966141.00 39358291.00 L 21966141.00 39966141.00 L 21729408.00 39966141.00 L 21729408.00 42027559.00 L 21711945.00 42115350.00 L 21662216.00 42189775.00 L 21609842.00 42242149.00 L 21609842.00 42668897.00  zM 23250070.04 42450000.00 L 23150000.00 42450000.00 L 23150000.00 42393753.00 A 1354204.51 1354204.51 0 0 1 24393753.00 41150000.00 L 24450000.00 41150000.00 L 24450000.00 41250070.04 L 24303852.00 41261572.00 A 1253907.24 1253907.24 0 0 0 23261572.00 42303852.00 L 23250070.04 42450000.00  zM 24499998.53 42500003.48 m -628020.52 0 a 628020.52 628020.52 0 1 1 1256041.05 0a 628020.52 628020.52 0 1 1 -1256041.05 0"/>
<path id="N" d="M 17000002.99 38500005.10 m -317671.90 0 a 317671.90 317671.90 0 1 1 635343.80 0a 317671.90 317671.90 0 1 1 -635343.80 0M 17000001.22 38499996.65 m -220780.35 0 a 220780.35 220780.35 0 1 1 441560.70 0a 220780.35 220780.35 0 1 1 -441560.70 0"/>
<path id="N" d="M 24000002.99 30500005.10 m -317671.90 0 a 317671.90 317671.90 0 1 1 635343.80 0a 317671.90 317671.90 0 1 1 -635343.80 0M 24000001.22 30499996.65 m -220780.35 0 a 220780.35 220780.35 0 1 1 441560.70 0a 220780.35 220780.35 0 1 1 -441560.70 0"/>
<path id="N" d="M 17000002.99 31500005.10 m -317671.90 0 a 317671.90 317671.90 0 1 1 635343.80 0a 317671.90 317671.90 0 1 1 -635343.80 0M 17000001.22 31499996.65 m -220780.35 0 a 220780.35 220780.35 0 1 1 441560.70 0a 220780.35 220780.35 0 1 1 -441560.70 0"/>
<path id="N" d="M 17000002.99 35500005.10 m -317671.90 0 a 317671.90 317671.90 0 1 1 635343.80 0a 317671.90 317671.90 0 1 1 -635343.80 0M 17000001.22 35499996.65 m -220780.35 0 a 220780.35 220780.35 0 1 1 441560.70 0a 220780.35 220780.35 0 1 1 -441560.70 0"/>
<path id="N" d="M 24000002.99 36500005.10 m -317671.90 0 a 317671.90 317671.90 0 1 1 635343.80 0a 317671.90 317671.90 0 1 1 -635343.80 0M 24000001.22 36499996.65 m -220780.35 0 a 220780.35 220780.35 0 1 1 441560.70 0a 220780.35 220780.35 0 1 1 -441560.70 0"/>
<path id="N" d="M 24000002.99 39500005.10 m -317671.90 0 a 317671.90 317671.90 0 1 1 635343.80 0a 317671.90 317671.90 0 1 1 -635343.80 0M 24000001.22 39499996.65 m -220780.35 0 a 220780.35 220780.35 0 1 1 441560.70 0a 220780.35 220780.35 0 1 1 -441560.70 0"/>
<path id="N" d="M 18279530.21 18692917.15 m -367311.31 0 a 367311.31 367311.31 0 1 1 734622.63 0a 367311.31 367311.31 0 1 1 -734622.63 0M 18279524.50 18692923.68 m -240838.32 0 a 240838.32 240838.32 0 1 1 481676.63 0a 240838.32 240838.32 0 1 1 -481676.63 0"/>
<path id="N" d="M 24000002.99 31500005.10 m -317671.90 0 a 317671.90 317671.90 0 1 1 635343.80 0a 317671.90 317671.90 0 1 1 -635343.80 0M 24000001.22 31499996.65 m -220780.35 0 a 220780.35 220780.35 0 1 1 441560.70 0a 220780.35 220780.35 0 1 1 -441560.70 0"/>
<path id="N" d="M 24000002.99 34500005.10 m -317671.90 0 a 317671.90 317671.90 0 1 1 635343.80 0a 317671.90 317671.90 0 1 1 -635343.80 0M 24000001.22 34499996.65 m -220780.35 0 a 220780.35 220780.35 0 1 1 441560.70 0a 220780.35 220780.35 0 1 1 -441560.70 0"/>
<path id="N" d="M 17000002.99 33500005.10 m -317671.90 0 a 317671.90 317671.90 0 1 1 635343.80 0a 317671.90 317671.90 0 1 1 -635343.80 0M 17000001.22 33499996.65 m -220780.35 0 a 220780.35 220780.35 0 1 1 441560.70 0a 220780.35 220780.35 0 1 1 -441560.70 0"/>
<path id="N" d="M 24000002.99 28500005.10 m -317671.90 0 a 317671.90 317671.90 0 1 1 635343.80 0a 317671.90 317671.90 0 1 1 -635343.80 0M 24000001.22 28499996.65 m -220780.35 0 a 220780.35 220780.35 0 1 1 441560.70 0a 220780.35 220780.35 0 1 1 -441560.70 0"/>
<path id="N" d="M 24000002.99 26500005.10 m -317671.90 0 a 317671.90 317671.90 0 1 1 635343.80 0a 317671.90 317671.90 0 1 1 -635343.80 0M 24000001.22 26499996.65 m -220780.35 0 a 220780.35 220780.35 0 1 1 441560.70 0a 220780.35 220780.35 0 1 1 -441560.70 0"/>
<path id="N" d="M 20250001.07 42293307.01 m -277967.15 0 a 277967.15 277967.15 0 1 1 555934.30 0a 277967.15 277967.15 0 1 1 -555934.30 0M 20250000.44 42293305.65 m -180637.35 0 a 180637.35 180637.35 0 1 1 361274.69 0a 180637.35 180637.35 0 1 1 -361274.69 0"/>
<path id="N" d="M 17000002.99 28500005.10 m -317671.90 0 a 317671.90 317671.90 0 1 1 635343.80 0a 317671.90 317671.90 0 1 1 -635343.80 0M 17000001.22 28499996.65 m -220780.35 0 a 220780.35 220780.35 0 1 1 441560.70 0a 220780.35 220780.35 0 1 1 -441560.70 0"/>
<path id="N" d="M 17000002.99 30500005.10 m -317671.90 0 a 317671.90 317671.90 0 1 1 635343.80 0a 317671.90 317671.90 0 1 1 -635343.80 0M 17000001.22 30499996.65 m -220780.35 0 a 220780.35 220780.35 0 1 1 441560.70 0a 220780.35 220780.35 0 1 1 -441560.70 0"/>
<path id="N" d="M 17000002.99 25500005.10 m -317671.90 0 a 317671.90 317671.90 0 1 1 635343.80 0a 317671.90 317671.90 0 1 1 -635343.80 0M 17000001.22 25499996.65 m -220780.35 0 a 220780.35 220780.35 0 1 1 441560.70 0a 220780.35 220780.35 0 1 1 -441560.70 0"/>
<path id="N" d="M 24000002.99 21500005.10 m -317671.90 0 a 317671.90 317671.90 0 1 1 635343.80 0a 317671.90 317671.90 0 1 1 -635343.80 0M 24000001.22 21499996.65 m -220780.35 0 a 220780.35 220780.35 0 1 1 441560.70 0a 220780.35 220780.35 0 1 1 -441560.70 0"/>
<path id="N" d="M 17000002.99 36500005.10 m -317671.90 0 a 317671.90 317671.90 0 1 1 635343.80 0a 317671.90 317671.90 0 1 1 -635343.80 0M 17000001.22 36499996.65 m -220780.35 0 a 220780.35 220780.35 0 1 1 441560.70 0a 220780.35 220780.35 0 1 1 -441560.70 0"/>
<path id="N" d="M 24000002.99 24500005.10 m -317671.90 0 a 317671.90 317671.90 0 1 1 635343.80 0a 317671.90 317671.90 0 1 1 -635343.80 0M 24000001.22 24499996.65 m -220780.35 0 a 220780.35 220780.35 0 1 1 441560.70 0a 220780.35 220780.35 0 1 1 -441560.70 0"/>
<path id="N" d="M 24000002.99 25500005.10 m -317671.90 0 a 317671.90 317671.90 0 1 1 635343.80 0a 317671.90 317671.90 0 1 1 -635343.80 0M 24000001.22 25499996.65 m -220780.35 0 a 220780.35 220780.35 0 1 1 441560.70 0a 220780.35 220780.35 0 1 1 -441560.70 0"/>
<path id="N" d="M 24000002.99 29500005.10 m -317671.90 0 a 317671.90 317671.90 0 1 1 635343.80 0a 317671.90 317671.90 0 1 1 -635343.80 0M 24000001.22 29499996.65 m -220780.35 0 a 220780.35 220780.35 0 1 1 441560.70 0a 220780.35 220780.35 0 1 1 -441560.70 0"/>
<path id="N" d="M 17000002.99 20500005.10 m -317671.90 0 a 317671.90 317671.90 0 1 1 635343.80 0a 317671.90 317671.90 0 1 1 -635343.80 0M 17000001.22 20499996.65 m -220780.35 0 a 220780.35 220780.35 0 1 1 441560.70 0a 220780.35 220780.35 0 1 1 -441560.70 0"/>
<path id="N" d="M 17000002.99 21500005.10 m -317671.90 0 a 317671.90 317671.90 0 1 1 635343.80 0a 317671.90 317671.90 0 1 1 -635343.80 0M 17000001.22 21499996.65 m -220780.35 0 a 220780.35 220780.35 0 1 1 441560.70 0a 220780.35 220780.35 0 1 1 -441560.70 0"/>
<path id="N" d="M 24314960.00 20185040.00 L 23685040.00 20185040.00 L 23685040.00 20814960.00 L 24314960.00 20814960.00 L 24314960.00 20185040.00  zM 24000001.22 20499996.65 m -220780.35 0 a 220780.35 220780.35 0 1 1 441560.70 0a 220780.35 220780.35 0 1 1 -441560.70 0"/>
<path id="N" d="M 17314960.00 39185040.00 L 16685040.00 39185040.00 L 16685040.00 39814960.00 L 17314960.00 39814960.00 L 17314960.00 39185040.00  zM 17000001.22 39499996.65 m -220780.35 0 a 220780.35 220780.35 0 1 1 441560.70 0a 220780.35 220780.35 0 1 1 -441560.70 0"/>
<path id="N" d="M 15297265.00 31829652.00 L 15304399.90 31775455.06 L 15314944.00 31750000.00 L 15314944.00 31276900.01 L 16827336.13 29764508.75 L 16841161.00 29775117.00 A 317686.61 317686.61 0 1 0 16724883.00 29658839.00 L 16735491.25 29672663.87 L 15204078.00 31204078.00 L 15185056.00 31250000.00 L 15185056.00 31507405.20 L 15153876.00 31483480.00 A 307741.12 307741.12 0 1 0 15297265.00 31829652.00  zM 17000001.22 29499996.65 m -220780.35 0 a 220780.35 220780.35 0 1 1 441560.70 0a 220780.35 220780.35 0 1 1 -441560.70 0M 14999999.24 31749999.93 m -204721.07 0 a 204721.07 204721.07 0 1 1 409442.13 0a 204721.07 204721.07 0 1 1 -409442.13 0"/>
<path id="N" d="M 24000002.99 23500005.10 m -317671.90 0 a 317671.90 317671.90 0 1 1 635343.80 0a 317671.90 317671.90 0 1 1 -635343.80 0M 24000001.22 23499996.65 m -220780.35 0 a 220780.35 220780.35 0 1 1 441560.70 0a 220780.35 220780.35 0 1 1 -441560.70 0"/>
<path id="N" d="M 22037402.00 22484252.00 L 21505906.00 22484252.00 L 21505906.00 23015748.00 L 22037402.00 23015748.00 L 22037402.00 22484252.00  zM 21771653.05 22750002.89 m -170598.11 0 a 170598.11 170598.11 0 1 1 341196.22 0a 170598.11 170598.11 0 1 1 -341196.22 0"/>
<path id="N" d="M 19934562.83 25562024.83 L 18494094.00 24121556.00 L 18494094.00 23734252.00 L 18330305.00 23734252.00 L 18330305.00 22995410.47 L 18362366.00 22982130.00 A 268009.97 268009.97 0 1 0 18094326.00 22982130.00 L 18126387.00 22995410.47 L 18126387.00 23734252.00 L 17962598.00 23734252.00 L 17962598.00 24265748.00 L 18349902.00 24265748.00 L 19849771.51 25765617.51 L 19849236.00 25769685.00 A 296447.24 296447.24 0 1 0 19934562.83 25562024.83  zM 18228345.05 22750002.89 m -170598.11 0 a 170598.11 170598.11 0 1 1 341196.22 0a 170598.11 170598.11 0 1 1 -341196.22 0M 18228345.05 24000002.89 m -170598.11 0 a 170598.11 170598.11 0 1 1 341196.22 0a 170598.11 170598.11 0 1 1 -341196.22 0M 20145669.74 25769682.83 m -192680.17 0 a 192680.17 192680.17 0 1 1 385360.34 0a 192680.17 192680.17 0 1 1 -385360.34 0"/>
<path id="N" d="M 15297265.00 36829652.00 L 15304399.90 36775455.06 L 15314944.00 36750000.00 L 15314944.00 36276900.01 L 16827336.13 34764508.75 L 16841161.00 34775117.00 A 317686.61 317686.61 0 1 0 16724883.00 34658839.00 L 16735491.25 34672663.87 L 15204078.00 36204078.00 L 15185056.00 36250000.00 L 15185056.00 36507405.20 L 15153876.00 36483480.00 A 307741.12 307741.12 0 1 0 15297265.00 36829652.00  zM 17000001.22 34499996.65 m -220780.35 0 a 220780.35 220780.35 0 1 1 441560.70 0a 220780.35 220780.35 0 1 1 -441560.70 0M 14999999.24 36749999.93 m -204721.07 0 a 204721.07 204721.07 0 1 1 409442.13 0a 204721.07 204721.07 0 1 1 -409442.13 0"/>
<path id="N" d="M 24000002.99 35500005.10 m -317671.90 0 a 317671.90 317671.90 0 1 1 635343.80 0a 317671.90 317671.90 0 1 1 -635343.80 0M 24000001.22 35499996.65 m -220780.35 0 a 220780.35 220780.35 0 1 1 441560.70 0a 220780.35 220780.35 0 1 1 -441560.70 0"/>
<path id="N" d="M 22643701.00 18328741.00 L 21915355.00 18328741.00 L 21915355.00 19057087.00 L 22643701.00 19057087.00 L 22643701.00 18328741.00  zM 22279524.50 18692923.68 m -240838.32 0 a 240838.32 240838.32 0 1 1 481676.63 0a 240838.32 240838.32 0 1 1 -481676.63 0"/>
<path id="N" d="M 15314960.00 21185040.00 L 14685040.00 21185040.00 L 14685040.00 21814960.00 L 15314960.00 21814960.00 L 15314960.00 21185040.00  zM 15000001.22 21499996.65 m -220780.35 0 a 220780.35 220780.35 0 1 1 441560.70 0a 220780.35 220780.35 0 1 1 -441560.70 0"/>
<path id="N" d="M 23917779.00 33193147.00 L 23860899.22 33216707.22 L 23101959.00 32457767.00 L 23101959.00 22728346.00 L 23094198.00 22689328.00 L 23072096.00 22656250.00 L 22037402.00 21621556.00 L 22037402.00 21234252.00 L 21873613.00 21234252.00 L 21873613.00 20185040.00 L 21865852.00 20146022.00 L 21843750.00 20112944.00 L 20600486.53 18869680.53 L 20634327.00 18787982.00 A 367312.83 367312.83 0 1 0 20374596.00 19047713.00 L 20456294.53 19013872.53 L 21669695.00 20227273.00 L 21669695.00 21234252.00 L 21505906.00 21234252.00 L 21505906.00 21765748.00 L 21893210.00 21765748.00 L 22898041.00 22770579.00 L 22898041.00 32500000.00 L 22905802.00 32539018.00 L 22927904.00 32572096.00 L 23716707.22 33360899.22 L 23693147.00 33417779.00 A 317666.21 317666.21 0 1 0 23917779.00 33193147.00  zM 20279524.50 18692923.68 m -240838.32 0 a 240838.32 240838.32 0 1 1 481676.63 0a 240838.32 240838.32 0 1 1 -481676.63 0M 21771653.05 21500002.89 m -170598.11 0 a 170598.11 170598.11 0 1 1 341196.22 0a 170598.11 170598.11 0 1 1 -341196.22 0M 24000001.22 33499996.65 m -220780.35 0 a 220780.35 220780.35 0 1 1 441560.70 0a 220780.35 220780.35 0 1 1 -441560.70 0"/>
<path id="N" d="M 16693147.00 23417779.00 L 16690872.36 23435056.00 L 15309127.64 23435056.00 L 15306853.00 23417779.00 A 317671.90 317671.90 0 1 0 15306853.00 23582221.00 L 15309127.64 23564944.00 L 16690872.36 23564944.00 L 16693147.00 23582221.00 A 317671.90 317671.90 0 1 0 16693147.00 23417779.00  zM 15000001.22 23499996.65 m -220780.35 0 a 220780.35 220780.35 0 1 1 441560.70 0a 220780.35 220780.35 0 1 1 -441560.70 0M 17000001.22 23499996.65 m -220780.35 0 a 220780.35 220780.35 0 1 1 441560.70 0a 220780.35 220780.35 0 1 1 -441560.70 0"/>
</g>
</svg>
