**ABCDEFGHIJKLMNOPQRSTUVWXYZabcdefghijklmnopqrstuvwxyz**************************
**PARASOLID !"#$%&'()*+,-./:;<=>?@[\]^_`{|}~0123456789**************************
**PART1;
MC=AMD64;
MC_MODEL=Intel64 Family 6 Model 158 Stepping 10, GenuineIntel;
MC_ID=unknown;
OS=Windows_NT;
OS_RELEASE=unknown;
FRU=CAD Exchanger 3.10.0 (cadexchanger.com);
APPL=unknown;
SITE=unknown;
USER=unknown;
FORMAT=text;
GUISE=transmit;
KEY=BC33740TA_2N3904TF;
FILE=BC33740TA_2N3904TF.x_t;
DATE=Sat Jan 01 18:18:31 2022;
**PART2;
SCH=SCH_1200000_12103;
USFLD_SIZE=0;
**PART3;
**END_OF_HEADER*****************************************************************
T51 : TRANSMIT FILE created by modeller version 120000017 SCH_1200000_121030 74
 4 1 4 0 2 154 255 524 12 2 92 0 3 0 0 0 0 1000 1e-008 0 0 0 1 0 1 1 12 14 20 18
 9 19 17 70 3 0 2 0 0 4 1 20 0 4 4 1 T74 20 4 1 0 5 0 0 0 0 0 0 0 0 0 0 0 0 0 0
 0 0 0 0 0 81 1 5 7 6 13 0 0 42 0 8 80 1 6 0 7 8001 0 0 0 0 3 5 0 0 0 FFFFTFTFFF
FFFF2 79 15 7 SDL/TYSA_COLOUR83 3 8 0.1019607856869698 0.1019607856869698 0.1019
607856869698 19 9 1 0 2 11 0 10 V13 10 2 0 2 0 0 0 0 9 13 19 11 3 0 2 0 9 12 S13
 12 4 0 2 0 13 0 0 11 0 14 13 5 5 1e-008 40 0 15 12 14 +0 0 40 0 10 50 14 6 0 13
 41 0 0 +0.003520000699999999 -0.0008900007600000003 0.0086650007 0.984807753012
208 -0.1736481776669309 1.815255366453118e-016 -0.1736481776669309 -0.9848077530
12208 1.206041662501898e-016 15 15 8 0 16 13 0 17 16 0 15 24 36 17 21 19 0 29 +1
8 17 9 0 16 0 22 18 ?2 29 18 10 0 17 23 0 0.003520000700000001 -0.00089000076000
00003 0.0086650007 16 19 11 0 ?16 0 27 20 0 0 2 30 20 12 0 19 28 0 0 +0.00352000
0699999999 -0.0008900007600000003 0.0086650007 -1.627320333936967e-016 1.2246467
99147354e-016 1 17 21 0 131 136 132 22 16 19 0 36 -18 22 13 0 21 17 25 23 ?2 29
 23 14 0 22 26 18 0.003520000700000001 -0.0008900007600000009 0.0033350007 17 24
 0 15 30 16 25 29 27 0 35 -18 25 15 0 24 22 31 26 ?2 29 26 16 0 25 32 23 0.00325
0220419516046 -0.002420000760000001 0.008395220419516049 16 27 17 0 ?29 19 33 28
 0 0 2 30 28 18 0 27 34 20 0 +0.003367791192293967 -0.001753223773826168 0.00851
2791192293971 0.1710878697460361 0.9702875252478138 0.1710878697460358 17 29 0 4
4 45 57 17 24 27 0 50 +17 30 0 15 36 24 31 35 33 0 39 -18 31 19 0 30 25 46 32 ?2
 29 32 20 0 31 47 26 0.003250220419516047 -0.002420000760000001 0.00360478098048
3952 16 33 21 0 ?35 27 37 34 0 0 2 30 34 22 0 33 38 28 0 +0.003250220419516046 -
0.002420000760000001 0.0086650007 -1.627320333936967e-016 1.224646799147354e-016
 1 17 35 0 99 60 94 25 30 33 0 57 +17 36 0 15 16 30 22 39 37 0 87 +16 37 23 0 ?3
6 33 48 38 0 0 2 30 38 24 0 37 49 34 0 +0.003363985954601319 -0.0017748043491718
23 0.003491015445398682 0.1710878697460362 0.9702875252478138 -0.171087869746036
 17 39 0 86 91 87 31 36 37 0 94 -14 40 25 42 1e-008 61 13 44 12 41 +0 0 61 13 10
 50 41 26 0 40 62 14 0 +-0.001679999300000001 -0.000890000759999999 0.0086650007
 -4.253153699151548e-017 -0.1736481776669306 0.984807753012208 -2.41208332500379
5e-016 -0.984807753012208 -0.1736481776669306 81 1 42 27 6 40 0 0 63 5 43 83 3 4
3 0.1019607856869698 0.1019607856869698 0.1019607856869698 15 44 28 0 45 40 0 17
 45 0 44 51 29 46 50 48 0 56 +18 46 29 0 45 31 52 47 ?2 29 47 30 0 46 53 32 -0.0
01679999300000001 -0.000890000759999999 0.0086650007 16 48 31 0 ?45 37 54 49 0 0
 2 30 49 32 0 48 55 38 0 +-0.001679999300000001 -0.000890000759999999 0.00866500
07 -1 2.449293598294706e-016 0 17 50 0 149 135 135 17 45 48 0 132 -17 51 0 44 57
 45 52 56 54 0 78 -18 52 33 0 60 46 67 53 ?2 29 53 34 0 52 68 47 -0.001410219019
516051 -0.002420000759999999 0.008395220419516049 16 54 35 0 ?56 48 58 55 0 0 2
 30 55 36 0 54 59 49 0 +-0.001679999300000001 -0.000890000759999999 0.0086650007
 -0.1710878697460357 0.9702875252478139 0.1710878697460358 17 56 0 65 66 78 46 5
1 54 0 71 +17 57 0 44 29 51 25 60 58 0 0 -16 58 37 0 ?60 54 69 59 0 0 2 30 59 38
 0 58 70 55 0 +-0.001679999300000002 -0.002420000759999999 0.008395220419516049
 -1 2.449293598294706e-016 0 17 60 0 99 81 35 52 57 58 0 51 +14 61 39 63 1e-008
 82 40 65 12 62 +0 0 82 40 10 50 62 40 0 61 83 41 0 +-0.001679999300000001 -0.00
0890000759999999 0.0086650007 -0.984807753012208 -0.1736481776669304 -1.38993999
6537964e-016 -0.1736481776669304 0.984807753012208 -1.206041662501898e-016 81 1
 63 41 6 61 0 0 84 42 64 83 3 64 0.1019607856869698 0.1019607856869698 0.1019607
856869698 15 65 42 0 66 61 0 17 66 0 65 72 56 67 71 69 0 77 +18 67 43 0 66 52 73
 68 ?2 29 68 44 0 67 74 53 -0.001679999300000001 -0.0008900007599999996 0.003335
0007 16 69 45 0 ?66 58 75 70 0 0 2 30 70 46 0 69 76 59 0 +-0.001679999300000001
 -0.000890000759999999 0.0086650007 1.627320333936967e-016 -1.224646799147354e-0
16 -1 17 71 0 131 132 136 46 66 69 0 135 -17 72 0 65 78 66 73 77 75 0 0 -18 73 4
7 0 81 67 107 74 ?2 29 74 48 0 73 108 68 -0.00141021901951605 -0.00242000076 0.0
03604780980483952 16 75 49 0 ?77 69 79 76 0 0 2 30 76 50 0 75 80 70 0 +-0.001679
999300000001 -0.0008900007599999996 0.0033350007 -0.1710878697460357 0.970287525
2478139 -0.171087869746036 17 77 0 86 87 91 67 72 75 0 136 +17 78 0 65 56 72 52
 81 79 0 0 -16 79 51 0 ?81 75 88 80 0 0 2 30 80 52 0 79 89 76 0 +-0.001410219019
516051 -0.002420000759999999 0.0086650007 1.627320333936967e-016 -1.224646799147
354e-016 -1 17 81 0 99 94 60 73 78 79 0 91 +14 82 53 84 1e-008 95 61 86 12 83 +0
 0 95 61 10 50 83 54 0 82 96 62 0 +-0.001679999300000001 -0.0008900007599999996
 0.0033350007 -4.253153699151554e-017 -0.1736481776669308 -0.984807753012208 2.4
12083325003795e-016 0.984807753012208 -0.1736481776669308 81 1 84 55 6 82 0 0 97
 63 85 83 3 85 0.1019607856869698 0.1019607856869698 0.1019607856869698 15 86 56
 0 87 82 0 17 87 0 86 39 77 22 90 88 0 139 +16 88 57 0 ?87 79 92 89 0 0 2 30 89
 58 0 88 93 80 0 +-0.001679999300000001 -0.0008900007599999996 0.0033350007 1 -2
.449293598294706e-016 0 17 90 0 144 139 139 67 87 88 0 0 -17 91 0 86 77 39 73 94
 92 0 72 -16 92 59 0 ?94 88 109 93 0 0 2 30 93 60 0 92 110 89 0 +-0.001679999300
000001 -0.00242000076 0.003604780980483952 1 -2.449293598294706e-016 0 17 94 0 9
9 35 81 31 91 92 0 0 +14 95 61 97 1e-008 100 82 99 12 96 +0 0 100 82 10 50 96 62
 0 95 101 83 0 +0.0009200006999999997 -0.00242000076 0.0060000007 -2.44929359829
4706e-016 -1 1.224646799147353e-016 -2.999519565323715e-032 -1.224646799147353e-
016 -1 81 1 97 63 6 95 0 0 103 84 98 83 3 98 0.1019607856869698 0.10196078568696
98 0.1019607856869698 15 99 64 0 35 95 0 14 100 65 103 1e-008 140 95 105 12 101
 +0 0 140 95 10 51 101 66 0 100 141 96 102 +0.0009200007000000001 -0.00089000076
00000003 0.0033350007 2.999519565323715e-032 1.224646799147353e-016 1 0.00260000
0000000001 -1 2.449293598294706e-016 0 141 102 111 102 102 101 81 1 103 67 6 100
 0 0 142 97 104 83 3 104 0.1019607856869698 0.1019607856869698 0.101960785686969
8 15 105 68 0 106 100 131 17 106 0 105 106 106 107 119 109 110 119 +18 107 69 0
 106 73 0 108 7.883113820054832e-007 2 29 108 70 0 107 0 74 0.000920000700000000
7 0.001709999240000001 0.0050000007 16 109 71 0 7.883113820054832e-007 106 92 13
3 0 0 0 2 133 110 72 0 106 111 93 0 +111 0.0009200007000000011 0.00170999924 0.0
05000000700000001 0.0009200007000000011 0.00170999924 0.005000000700000001 0 0.0
06103980200648038 137 111 73 0 2 120 110 112 +101 113 0 0 141 112 110 112 112 11
1 134 113 0 0 0 0 0 0 +114 118 136 114 3 69 2 67 1 FTF1 115 116 117 45 138 115 4
.71238898038469 0.001665000000000001 4.700353139829477 0.001665000000000001 4.67
6381607298142 0.00166819946687449 4.640985754978097 0.001682356835247749 4.60641
1273782643 0.001705641891789285 4.572921854681636 0.001737790022265449 4.5408044
03388448 0.001778663397135481 4.510382033074827 0.001827777928542537 4.481940364
350222 0.001884397842525041 4.455792063181972 0.001947828209905828 4.43223998866
2058 0.002017452777607486 4.411273616738861 0.00209283877608655 4.39306057170940
1 0.002173052213047023 4.377732027169955 0.002257284150351159 4.365452540110764
 0.002344657228449839 4.356212040877233 0.002434363468453521 4.350033432111716 0
.002525885658575769 4.346937118587481 0.002618619518148287 4.346946937202377 0.0
02712085073896856 4.3501138545348 0.002804883664444932 4.356365484393832 0.00289
6426906894582 4.365649253480455 0.002986039361468086 4.377911185506529 0.0030730
70117114169 4.39310027231645 0.003156857204755574 4.411176936473257 0.0032367583
58692525 4.432075297059498 0.003312063557741293 4.455842367634485 0.003382314099
276511 4.48204632180605 0.003445946273922469 4.510399300322074 0.003502391921057
749 4.540710780420588 0.003551236374858781 4.57280135688301 0.003592086705361759
 4.606407246162306 0.003624297480034005 4.641084057342911 0.003647576678812853 4
.676452548923966 0.003661743213175562 4.712076594067859 0.003666587915513049 4.7
47714247618731 0.003661903003021673 4.78311578373212 0.003647881948516966 4.8178
40890716599 0.003624726477188953 4.851493554818226 0.003592632663184239 4.883659
821914444 0.003551810932448577 4.914111767388328 0.003502825087008216 4.94260405
6499429 0.003446196206580996 4.968897272401349 0.003382430546091073 4.9926831291
66782 0.003312133204437323 5.013675683723378 0.003236591285913536 5.031847401855
447 0.003156402173152968 5.047105049980451 0.003072326293633366 5.05935716774505
7 0.002985055847935978 5.068582736768541 0.002895040875469223 5.074754850712505
 0.002803270008441292 5.077846777786085 0.002710593481031506 5.077824209154853 0
.00261802846105378 5.074673847499535 0.002525311721261769 5.068453968217366 0.00
2433573062478189 5.059199897220857 0.002343707132066547 5.046985348108328 0.0022
5692874106621 5.031669966199604 0.002172932618294895 5.013452945458067 0.0020927
45102757392 4.99249055069896 0.002017330054539579 4.96901118957808 0.00194789899
3810376 4.942909557626066 0.001884583346884843 4.914485522621818 0.0018279668758
67156 4.884069549109723 0.001778813315526668 4.851983558964618 0.001737926838763
888 4.818487504617112 0.001705755557880455 4.783863410698583 0.00168241915371505
9 4.748414919306895 0.001668214969255437 4.724424788405729 0.001665000000000001
 4.71238898038469 0.001665000000000001 127 67 116 4 1 1 1 1 1 1 1 1 1 1 1 1 1 1
 1 1 1 1 1 1 1 1 1 1 1 1 1 1 1 1 1 1 1 1 1 1 1 1 1 1 1 1 1 1 1 1 1 1 1 1 1 1 1 1
 1 1 1 1 1 1 1 1 1 1 1 4 128 67 117 0 9.248454849466725e-005 0.00018496909698933
45 0.0002774536454840017 0.000369938193978669 0.0004624227424733363 0.0005549072
909680035 0.0006473918394626708 0.000739876387957338 0.0008323609364520052 0.000
9248454849466725 0.00101733003344134 0.001109814581936007 0.001202299130430674 0
.001294783678925342 0.001387268227420009 0.001479752775914676 0.0015722373244093
43 0.00166472187290401 0.001757206421398678 0.001849690969893345 0.0019421755183
88012 0.00203466006688268 0.002127144615377347 0.002219629163872014 0.0023121137
12366682 0.002404598260861349 0.002497082809356016 0.002589567357850683 0.002682
05190634535 0.002774536454840017 0.002867021003334685 0.002959505551829352 0.003
051990100324019 0.003144474648818687 0.003236959197313354 0.003329443745808021 0
.003421928294302688 0.003514412842797356 0.003606897391292023 0.0036993819397866
9 0.003791866488281357 0.003884351036776024 0.003976835585270692 0.0040693201337
65359 0.004161804682260026 0.004254289230754694 0.004346773779249361 0.004439258
327744028 0.004531742876238695 0.004624227424733363 0.00471671197322803 0.004809
196521722697 0.004901681070217365 0.004994165618712031 0.005086650167206699 0.00
5179134715701366 0.005271619264196033 0.005364103812690701 0.005456588361185368
 0.005549072909680035 0.005641557458174702 0.00573404200666937 0.005826526555164
037 0.005919011103658704 0.006011495652153372 0.006103980200648038 135 118 1 0 1
7 119 0 153 119 119 107 106 109 120 0 -133 120 74 0 119 121 111 0 +121 0.0009200
007000000006 0.001709999240000001 0.0050000007 0.0009200007000000006 0.001709999
240000001 0.0050000007 0.006103980200648038 0 137 121 75 0 2 134 120 122 -123 12
5 0 0 141 122 120 122 122 121 51 123 90 0 150 0 146 124 +-0.0016799993 0.0045384
26364746192 0.006000000699999999 1 -2.449293598294706e-016 0 0.003 2.99951956532
3715e-032 1.224646799147353e-016 1 141 124 121 124 124 123 134 125 0 0 0 0 0 0 +
126 130 136 126 3 69 2 67 1 FTF1 127 128 129 45 138 127 1.910633236249018 0.0026
00000000000002 1.910633170544948 0.002631295146606483 1.909497226306167 0.002693
61733941192 1.904492276304104 0.002785523165203175 1.896290065433984 0.002875073
842497775 1.88500357872437 0.002961507516314969 1.870705103127551 0.003044003534
163439 1.853610147006098 0.00312171842517977 1.8340076696096 0.00319394320734055
3 1.812169299046602 0.003259924034947808 1.788336136058034 0.003318957538344714
 1.762673761784584 0.00337118009184861 1.735504212071748 0.003416261557210682 1.
707103973974269 0.003453983382691402 1.677765782791012 0.003484067105569044 1.64
7740612363005 0.003506632738153915 1.617177695889821 0.003521664789325215 1.5862
54382092236 0.003529166794579756 1.555103726188464 0.003529139065016423 1.524155
677568494 0.003521545870812145 1.493574784126327 0.003506433330321023 1.46356570
4782286 0.003483836466701708 1.434331871059278 0.003453792083121394 1.4060859942
73002 0.003416340957908582 1.37903653089626 0.003371506188737974 1.3534196079776
33 0.003319377620738192 1.329375262807113 0.003259795789875954 1.30746721809651
 0.003193679332142068 1.287925237317552 0.003121678883343654 1.270923039532539 0
.003044244292218752 1.256632132271186 0.002961818353284455 1.24532404278394 0.00
287508179012808 1.237123897001013 0.002785264876348546 1.232115752349137 0.00269
3433451743834 1.23039555491901 0.002600812382452834 1.232059282171563 0.00250815
4863051731 1.237016230411176 0.002416234746590048 1.245173096869154 0.0023262883
68397848 1.256440770269056 0.002239425199951827 1.270722444196972 0.002156799685
861596 1.287774393663996 0.002079002626128399 1.307380851555298 0.00200664546627
5302 1.329334739849316 0.001940298187051524 1.353398339670035 0.0018806780179197
32 1.379113033544223 0.001828390852043649 1.406273158546291 0.001783414713459989
 1.434619654386263 0.001745871896962713 1.463922888485319 0.001715855261890716 1
.494050316445482 0.001693326598336523 1.524696307958184 0.001678310053706764 1.5
55600535661241 0.001670819623350887 1.586451438582921 0.00167087438677302 1.6173
6964962641 0.001678507415742589 1.648005896420996 0.001693640870259059 1.6780846
44202257 0.001716240081265009 1.707223625998257 0.001746165459463878 1.735545403
965645 0.00178385683896449 1.762706617857896 0.00182894915646132 1.7883783922768
45 0.001881161599837272 1.812145004489743 0.001940012533496686 1.833943951297999
 0.002005875464944566 1.853544937568078 0.002078054192231056 1.870652925317585 0
.002155750893614899 1.884955573598598 0.002238164127977034 1.896250121160546 0.0
02324614331033394 1.904470337423937 0.002414292693921414 1.909491763977849 0.002
506334487086981 1.910633170426127 0.002568704853393521 1.910633236249018 0.00260
0000000000002 127 67 128 4 1 1 1 1 1 1 1 1 1 1 1 1 1 1 1 1 1 1 1 1 1 1 1 1 1 1 1
 1 1 1 1 1 1 1 1 1 1 1 1 1 1 1 1 1 1 1 1 1 1 1 1 1 1 1 1 1 1 1 1 1 1 1 1 1 1 4 1
28 67 129 0 9.248454849466725e-005 0.0001849690969893345 0.0002774536454840017 0
.000369938193978669 0.0004624227424733363 0.0005549072909680035 0.00064739183946
26708 0.000739876387957338 0.0008323609364520052 0.0009248454849466725 0.0010173
3003344134 0.001109814581936007 0.001202299130430674 0.001294783678925342 0.0013
87268227420009 0.001479752775914676 0.001572237324409343 0.00166472187290401 0.0
01757206421398678 0.001849690969893345 0.001942175518388012 0.00203466006688268
 0.002127144615377347 0.002219629163872014 0.002312113712366682 0.00240459826086
1349 0.002497082809356016 0.002589567357850683 0.00268205190634535 0.00277453645
4840017 0.002867021003334685 0.002959505551829352 0.003051990100324019 0.0031444
74648818687 0.003236959197313354 0.003329443745808021 0.003421928294302688 0.003
514412842797356 0.003606897391292023 0.00369938193978669 0.003791866488281357 0.
003884351036776024 0.003976835585270692 0.004069320133765359 0.00416180468226002
6 0.004254289230754694 0.004346773779249361 0.004439258327744028 0.0045317428762
38695 0.004624227424733363 0.00471671197322803 0.004809196521722697 0.0049016810
70217365 0.004994165618712031 0.005086650167206699 0.005179134715701366 0.005271
619264196033 0.005364103812690701 0.005456588361185368 0.005549072909680035 0.00
5641557458174702 0.00573404200666937 0.005826526555164037 0.005919011103658704 0
.006011495652153372 0.006103980200648038 135 130 1 0 15 131 76 0 132 100 0 17 13
2 0 131 21 71 17 135 133 0 0 +16 133 77 0 ?132 109 137 134 0 0 2 31 134 78 0 133
 138 121 0 +0.0009200007000000001 -0.0008900007599999996 0.0086650007 -2.9995195
65323715e-032 -1.224646799147353e-016 -1 1 -2.449293598294706e-016 0 0.002600000
000000001 17 135 0 149 50 50 46 132 133 0 0 -17 136 0 131 71 21 67 139 137 0 90
 -16 137 79 0 ?139 133 0 138 0 0 2 31 138 80 0 137 0 134 0 +0.000920000700000000
1 -0.0008900007600000003 0.0033350007 -2.999519565323715e-032 -1.224646799147353
e-016 -1 1 -2.449293598294706e-016 0 0.002600000000000001 17 139 0 144 90 90 22
 136 137 0 0 +14 140 81 142 1e-008 145 100 144 12 141 +0 0 145 100 10 50 141 82
 0 140 146 101 0 +0.0009200007000000001 -0.0008900007600000003 0.0033350007 -2.9
99519565323715e-032 -1.224646799147353e-016 -1 1 -2.449293598294706e-016 0 81 1
 142 83 6 140 0 0 147 103 143 83 3 143 0.1019607856869698 0.1019607856869698 0.1
019607856869698 15 144 84 0 139 140 0 14 145 85 147 1e-008 150 140 149 12 146 -0
 0 150 140 10 50 146 86 0 145 123 141 0 +0.0009200007000000001 -0.00089000075999
99996 0.0086650007 -2.999519565323715e-032 -1.224646799147353e-016 -1 1 -2.44929
3598294706e-016 0 81 1 147 87 6 145 0 0 151 142 148 83 3 148 0.1019607856869698
 0.1019607856869698 0.1019607856869698 15 149 88 0 135 145 0 14 150 89 151 1e-00
8 0 145 153 12 123 -0 0 0 145 10 81 1 151 91 6 150 0 0 0 147 152 83 3 152 0.1019
607856869698 0.1019607856869698 0.1019607856869698 15 153 92 0 119 150 0 12 154
 68 0 155 0 0 0 0 1000 1e-008 0 0 0 1 0 1 1 162 164 170 168 159 169 167 70 155 0
 154 0 0 4 1 20 0 156 156 1 T74 20 156 1 0 157 0 0 0 0 0 0 0 0 0 0 0 0 0 0 0 0 0
 0 0 81 1 157 7 6 163 0 0 192 0 158 83 3 158 1 1 1 19 159 1 0 154 161 0 160 V13
 160 2 0 154 0 0 0 0 159 163 19 161 3 0 154 0 159 162 S13 162 4 0 154 0 163 0 0
 161 0 14 163 5 157 1e-008 190 0 165 162 164 +0 0 190 0 160 50 164 6 0 163 191 0
 0 +0.0012000007 -0.0003700007600000024 -0.0131049993 1 -2.449293598294706e-016
 0 2.999519565323715e-032 1.224646799147353e-016 1 15 165 8 0 166 163 0 17 166 0
 165 174 186 167 171 169 0 179 -18 167 9 0 166 0 172 168 ?154 29 168 10 0 167 17
3 0 0.0012000007 -0.0008900007600000024 -0.0131049993 16 169 11 0 ?171 0 177 170
 0 0 154 30 170 12 0 169 178 0 0 +0.0012000007 -0.0008900007600000024 -0.0131049
993 2.999519565323715e-032 1.224646799147353e-016 1 17 171 0 254 240 200 172 166
 169 0 186 +18 172 13 0 171 167 175 173 ?154 29 173 14 0 172 176 168 0.001200000
7 -0.0008900007600000004 0.0033350007 17 174 0 165 180 166 175 179 177 0 185 -18
 175 15 0 207 172 181 176 ?154 29 176 16 0 175 182 173 0.0012000007 -0.000370000
7600000024 -0.0131049993 16 177 17 0 ?179 169 183 178 0 0 154 30 178 18 0 177 18
4 170 0 +0.0012000007 -0.0003700007600000024 -0.0131049993 -2.449293598294706e-0
16 -1 1.224646799147353e-016 17 179 0 194 195 207 167 174 177 0 200 +17 180 0 16
5 186 174 181 185 183 0 244 +18 181 19 0 189 175 196 182 ?154 29 182 20 0 181 19
7 176 0.0012000007 -0.0003700007600000004 0.0033350007 16 183 21 0 ?180 177 187
 184 0 0 154 30 184 22 0 183 188 178 0 +0.0012000007 -0.0003700007600000024 -0.0
131049993 2.999519565323715e-032 1.224646799147353e-016 1 17 185 0 249 210 244 1
75 180 183 0 0 -17 186 0 165 166 180 172 189 187 0 237 +16 187 23 0 ?186 183 198
 188 0 0 154 30 188 24 0 187 199 184 0 +0.0012000007 -0.0003700007600000004 0.00
33350007 -2.449293598294706e-016 -1 1.224646799147353e-016 17 189 0 236 241 237
 181 186 187 0 180 -14 190 25 192 1e-008 211 163 194 162 191 +0 0 211 163 160 50
 191 26 0 190 212 164 0 +0.0006400007 -0.0003700007600000022 -0.0131049993 -2.99
9519565323715e-032 -1.224646799147353e-016 -1 1 -2.449293598294706e-016 0 81 1 1
92 27 6 190 0 0 213 157 193 83 3 193 1 1 1 15 194 28 0 195 190 0 17 195 0 194 20
1 179 196 200 198 0 206 -18 196 29 0 221 181 202 197 ?154 29 197 30 0 196 203 18
2 0.0006400006999999999 -0.0008900007600000021 -0.0131049993 16 198 31 0 ?200 18
7 204 199 0 0 154 30 199 32 0 198 205 188 0 +0.0006400006999999999 -0.0008900007
600000021 -0.0131049993 1 -2.449293598294706e-016 0 17 200 0 254 171 221 167 195
 198 0 0 +17 201 0 194 207 195 202 206 204 0 0 -18 202 33 0 228 196 217 203 ?154
 29 203 34 0 202 218 197 0.0006400007 -0.0003700007600000022 -0.0131049993 16 20
4 35 0 ?206 198 208 205 0 0 154 30 205 36 0 204 209 199 0 +0.0006400007 -0.00037
00007600000022 -0.0131049993 -2.449293598294706e-016 -1 1.224646799147353e-016 1
7 206 0 215 216 228 196 201 204 0 0 +17 207 0 194 179 201 175 210 208 0 174 +16
 208 37 0 ?207 204 219 209 0 0 154 30 209 38 0 208 220 205 0 +0.0006400007 -0.00
03700007600000022 -0.0131049993 1 -2.449293598294706e-016 0 17 210 0 249 231 185
 202 207 208 0 201 -14 211 39 213 1e-008 232 190 215 162 212 +0 0 232 190 160 50
 212 40 0 211 233 191 0 +0.0006400007 -0.0003700007600000022 -0.0131049993 -1 2.
449293598294706e-016 0 -2.999519565323715e-032 -1.224646799147353e-016 -1 81 1 2
13 41 6 211 0 0 234 192 214 83 3 214 1 1 1 15 215 42 0 216 211 0 17 216 0 215 22
2 206 217 221 219 0 240 -18 217 43 0 216 202 223 218 ?154 29 218 44 0 217 224 20
3 0.0006400006999999999 -0.0008900007600000002 0.003335000699999999 16 219 45 0
 ?221 208 225 220 0 0 154 30 220 46 0 219 226 209 0 +0.0006400006999999999 -0.00
08900007600000021 -0.0131049993 -2.999519565323715e-032 -1.224646799147353e-016
 -1 17 221 0 254 200 240 196 216 219 0 195 +17 222 0 215 228 216 223 227 225 0 2
41 -18 223 47 0 231 217 0 224 ?154 29 224 48 0 223 0 218 0.0006400007 -0.0003700
007600000002 0.003335000699999999 16 225 49 0 ?227 219 229 226 0 0 154 30 226 50
 0 225 230 220 0 +0.0006400007 -0.0003700007600000002 0.003335000699999999 -2.44
9293598294706e-016 -1 1.224646799147353e-016 17 227 0 236 237 241 217 222 225 0
 0 +17 228 0 215 206 222 202 231 229 0 210 +16 229 51 0 ?228 225 238 230 0 0 154
 30 230 52 0 229 239 226 0 +0.0006400007 -0.0003700007600000022 -0.0131049993 -2
.999519565323715e-032 -1.224646799147353e-016 -1 17 231 0 249 244 210 223 228 22
9 0 222 -14 232 53 234 1e-008 245 211 236 162 233 +0 0 245 211 160 50 233 54 0 2
32 246 212 0 +0.0006400007 -0.0003700007600000002 0.003335000699999999 -1.548860
246407863e-015 1.224646799147357e-016 1 -1 2.449293598294704e-016 -1.54886024640
7863e-015 81 1 234 55 6 232 0 0 247 213 235 83 3 235 1 1 1 15 236 56 0 237 232 0
 17 237 0 236 189 227 172 240 238 0 0 -16 238 57 0 ?240 229 242 239 0 0 154 30 2
39 58 0 238 243 230 0 +0.0006400006999999999 -0.0008900007600000002 0.0033350006
99999999 -1 2.449293598294704e-016 -1.548860246407863e-015 17 240 0 254 221 171
 217 237 238 0 227 +17 241 0 236 227 189 223 244 242 0 0 +16 242 59 0 ?241 238 0
 243 0 0 154 30 243 60 0 242 0 239 0 +0.0006400007 -0.0003700007600000002 0.0033
35000699999999 -1 2.449293598294704e-016 -1.548860246407863e-015 17 244 0 249 18
5 231 181 241 242 0 0 -14 245 61 247 1e-008 250 232 249 162 246 +0 0 250 232 160
 50 246 62 0 245 251 233 0 +0.0009200007000000002 -0.0003700007599999999 0.00600
00007 2.449293598294706e-016 1 -1.224646799147353e-016 2.999519565323715e-032 1.
224646799147353e-016 1 81 1 247 63 6 245 0 0 252 234 248 83 3 248 1 1 1 15 249 6
4 0 185 245 0 14 250 65 252 1e-008 0 245 254 162 251 -0 0 0 245 160 50 251 66 0
 250 0 246 0 +0.0009200007000000001 -0.00089000076 0.0060000007 2.44929359829470
6e-016 1 -1.224646799147353e-016 2.999519565323715e-032 1.224646799147353e-016 1
 81 1 252 67 6 250 0 0 0 247 253 83 3 253 1 1 1 15 254 68 0 171 250 0 12 255 180
 0 256 0 0 0 0 1000 1e-008 0 0 0 1 0 1 1 263 265 271 269 260 270 268 70 256 0 25
5 0 0 4 1 20 0 257 257 1 T74 20 257 1 0 258 0 0 0 0 0 0 0 0 0 0 0 0 0 0 0 0 0 0
 0 81 1 258 7 6 264 0 0 293 0 259 83 3 259 1 1 1 19 260 1 0 255 262 0 261 V13 26
1 2 0 255 0 0 0 0 260 264 19 262 3 0 255 0 260 263 S13 263 4 0 255 0 264 0 0 262
 0 14 264 5 258 1e-008 291 0 266 263 265 +0 0 291 0 261 50 265 6 0 264 292 0 0 +
-0.0006599993000000005 -0.0003700007599999999 0.0033350007 2.999519565323715e-03
2 1.224646799147353e-016 1 -1 2.449293598294706e-016 0 15 266 8 0 267 264 0 17 2
67 0 266 275 287 268 272 270 0 280 -18 268 9 0 267 0 273 269 ?255 29 269 10 0 26
8 274 0 -9.999930000000024e-005 -0.0008900007600000001 0.0033350007 16 270 11 0
 ?272 0 278 271 0 0 255 30 271 12 0 270 279 0 0 +-0.0006599993000000007 -0.00089
00007599999998 0.0033350007 -1 2.449293598294706e-016 0 17 272 0 523 509 301 273
 267 270 0 287 +18 273 13 0 272 268 276 274 ?255 29 274 14 0 273 277 269 -0.0006
599993000000007 -0.0008900007599999998 0.0033350007 17 275 0 266 281 267 276 280
 278 0 308 -18 276 15 0 275 273 282 277 ?255 29 277 16 0 276 283 274 -9.99993000
0000001e-005 -0.0003700007600000001 0.0033350007 16 278 17 0 ?280 270 284 279 0
 0 255 30 279 18 0 278 285 271 0 +-9.999930000000001e-005 -0.0003700007600000001
 0.0033350007 -2.449293598294706e-016 -1 1.224646799147353e-016 17 280 0 295 296
 308 268 275 278 0 301 +17 281 0 266 287 275 282 286 284 0 290 +18 282 19 0 281
 276 297 283 ?255 29 283 20 0 282 298 277 -0.0006599993000000005 -0.000370000759
9999999 0.0033350007 16 284 21 0 ?281 278 288 285 0 0 255 30 285 22 0 284 289 27
9 0 +-0.0006599993000000005 -0.0003700007599999999 0.0033350007 -1 2.44929359829
4706e-016 0 17 286 0 518 311 513 276 281 284 0 0 -17 287 0 266 267 281 273 290 2
88 0 506 +16 288 23 0 ?287 284 299 289 0 0 255 30 289 24 0 288 300 285 0 +-0.000
6599993000000005 -0.0003700007599999999 0.0033350007 -2.449293598294706e-016 -1
 1.224646799147353e-016 17 290 0 505 510 506 282 287 288 0 513 -14 291 25 293 1e
-008 312 264 295 263 292 +0 0 312 264 261 50 292 26 0 291 313 265 0 +-9.99993000
0000001e-005 -0.0003700007600000001 0.0033350007 1 -2.449293598294706e-016 1.398
393819230489e-016 -1.398393819230489e-016 1.224646799147354e-016 1 81 1 293 27 6
 291 0 0 314 258 294 83 3 294 1 1 1 15 295 28 0 296 291 0 17 296 0 295 302 280 2
97 301 299 0 307 -18 297 29 0 296 282 303 298 ?255 29 298 30 0 297 304 283 -9.99
9930000000001e-005 -0.0008900007600000002 0.001784361448630709 16 299 31 0 ?301
 288 305 300 0 0 255 30 300 32 0 299 306 289 0 +-9.999930000000024e-005 -0.00089
00007600000001 0.0033350007 -1.398393819230489e-016 1.224646799147354e-016 1 17
 301 0 523 272 322 268 296 299 0 0 +17 302 0 295 308 296 303 307 305 0 0 -18 303
 33 0 329 297 318 304 ?255 29 304 34 0 303 319 298 -9.999929999999979e-005 -0.00
03700007600000003 0.001784361448630709 16 305 35 0 ?307 299 309 306 0 0 255 30 3
06 36 0 305 310 300 0 +-9.999929999999979e-005 -0.0003700007600000003 0.00178436
1448630709 -2.449293598294706e-016 -1 1.224646799147353e-016 17 307 0 316 317 32
9 297 302 305 0 322 +17 308 0 295 280 302 276 311 309 0 286 +16 309 37 0 ?308 30
5 320 310 0 0 255 30 310 38 0 309 321 306 0 +-9.999930000000001e-005 -0.00037000
07600000001 0.0033350007 -1.398393819230489e-016 1.224646799147354e-016 1 17 311
 0 518 332 286 303 308 309 0 302 -14 312 39 314 1e-008 333 291 316 263 313 +0 0
 333 291 261 51 313 40 0 312 334 292 0 +-0.0008499993 -0.0003700007600000001 0.0
01784361448630709 -2.449293598294706e-016 -1 1.224646799147353e-016 0.0007499999
999999998 -2.999519565323715e-032 -1.224646799147353e-016 -1 81 1 314 41 6 312 0
 0 335 293 315 83 3 315 1 1 1 15 316 42 0 317 312 0 17 317 0 316 323 307 318 322
 320 0 328 -18 318 43 0 343 303 324 319 ?255 29 319 44 0 318 325 304 -0.00031966
92141100902 -0.0008900007600000003 0.0012540313627408 16 320 45 0 ?322 309 326 3
21 0 0 255 31 321 46 0 320 327 310 0 +-0.0008499993000000003 -0.0008900007600000
001 0.001784361448630709 -2.449293598294706e-016 -1 1.224646799147353e-016 2.999
519565323715e-032 1.224646799147353e-016 1 0.0007500000000000002 17 322 0 523 30
1 343 297 317 320 0 0 +17 323 0 316 329 317 324 328 326 0 0 -18 324 47 0 332 318
 339 325 ?255 29 325 48 0 324 340 319 -0.00031966921411009 -0.000370000760000000
2 0.0012540313627408 16 326 49 0 ?328 320 330 327 0 0 255 30 327 50 0 326 331 32
1 0 +-0.00031966921411009 -0.0003700007600000002 0.0012540313627408 -2.449293598
294706e-016 -1 1.224646799147353e-016 17 328 0 337 338 350 318 323 326 0 0 +17 3
29 0 316 307 323 303 332 330 0 311 +16 330 51 0 ?329 326 341 331 0 0 255 31 331
 52 0 330 342 327 0 +-0.0008499993 -0.0003700007600000001 0.001784361448630709 -
2.449293598294706e-016 -1 1.224646799147353e-016 2.999519565323715e-032 1.224646
799147353e-016 1 0.0007500000000000002 17 332 0 518 353 311 324 329 330 0 350 -1
4 333 53 335 1e-008 354 312 337 263 334 +0 0 354 312 261 50 334 54 0 333 355 313
 0 +-0.00031966921411009 -0.0003700007600000002 0.0012540313627408 0.70710678118
65467 -2.597868168706479e-016 -0.7071067811865486 0.7071067811865486 -8.65956056
235497e-017 0.7071067811865467 81 1 335 55 6 333 0 0 356 314 336 83 3 336 1 1 1
 15 337 56 0 338 333 0 17 338 0 337 344 328 339 343 341 0 349 -18 339 57 0 338 3
24 345 340 ?255 29 340 58 0 339 346 325 -0.001544349588425446 -0.000890000760000
0001 2.935098842544548e-005 16 341 59 0 ?343 330 347 342 0 0 255 30 342 60 0 341
 348 331 0 +-0.0003196692141100902 -0.0008900007600000003 0.0012540313627408 0.7
071067811865485 -8.659560562354966e-017 0.7071067811865466 17 343 0 523 322 364
 318 338 341 0 317 +17 344 0 337 350 338 345 349 347 0 371 -18 345 61 0 344 339
 360 346 ?255 29 346 62 0 345 361 340 -0.001544349588425446 -0.00037000076000000
02 2.935098842544548e-005 16 347 63 0 ?349 341 351 348 0 0 255 30 348 64 0 347 3
52 342 0 +-0.001544349588425446 -0.0003700007600000002 2.935098842544548e-005 -2
.449293598294706e-016 -1 1.224646799147353e-016 17 349 0 358 359 371 339 344 347
 0 364 +17 350 0 337 328 344 324 353 351 0 323 +16 351 65 0 ?350 347 362 352 0 0
 255 30 352 66 0 351 363 348 0 +-0.00031966921411009 -0.0003700007600000002 0.00
12540313627408 0.7071067811865485 -8.659560562354966e-017 0.7071067811865466 17
 353 0 518 374 332 345 350 351 0 0 -14 354 67 356 1e-008 375 333 358 263 355 -0
 0 375 333 261 51 355 68 0 354 376 334 0 +-0.001409999300000003 -0.0003700007600
000002 -0.0001049993000000002 -2.449293598294706e-016 -1 1.224646799147353e-016
 0.0001900000000000001 -2.999519565323715e-032 -1.224646799147353e-016 -1 81 1 3
56 69 6 354 0 0 377 335 357 83 3 357 1 1 1 15 358 70 0 359 354 0 17 359 0 358 36
5 349 360 364 362 0 385 -18 360 71 0 370 345 366 361 ?255 29 361 72 0 360 367 34
6 -0.001599999300000002 -0.0008900007600000001 -0.0001049993000000002 16 362 73
 0 ?364 351 368 363 0 0 255 31 363 74 0 362 369 352 0 +-0.001409999300000003 -0.
0008900007600000002 -0.0001049993000000002 2.449293598294706e-016 1 -1.224646799
147353e-016 -2.999519565323715e-032 -1.224646799147353e-016 -1 0.000190000000000
0001 17 364 0 523 343 385 339 359 362 0 0 +17 365 0 358 371 359 366 370 368 0 0
 -18 366 75 0 392 360 381 367 ?255 29 367 76 0 366 382 361 -0.001599999300000002
 -0.0003700007600000001 -0.0001049993000000002 16 368 77 0 ?370 362 372 369 0 0
 255 30 369 78 0 368 373 363 0 +-0.001599999300000002 -0.0003700007600000001 -0.
0001049993000000002 -2.449293598294706e-016 -1 1.224646799147353e-016 17 370 0 3
79 380 392 360 365 368 0 359 +17 371 0 358 349 365 345 374 372 0 353 +16 372 79
 0 ?371 368 383 373 0 0 255 31 373 80 0 372 384 369 0 +-0.001409999300000003 -0.
0003700007600000002 -0.0001049993000000002 2.449293598294706e-016 1 -1.224646799
147353e-016 -2.999519565323715e-032 -1.224646799147353e-016 -1 0.000190000000000
0001 17 374 0 518 395 353 366 371 372 0 365 -14 375 81 377 1e-008 396 354 379 26
3 376 +0 0 396 354 261 50 376 82 0 375 397 355 0 +-0.001599999300000002 -0.00037
00007600000001 -0.0001049993000000002 1 -2.449293598294706e-016 1.33440267382831
4e-016 -1.334402673828314e-016 1.224646799147354e-016 1 81 1 377 83 6 375 0 0 39
8 356 378 83 3 378 1 1 1 15 379 84 0 380 375 0 17 380 0 379 386 370 381 385 383
 0 391 -18 381 85 0 406 366 387 382 ?255 29 382 86 0 381 388 367 -0.0015999993 -
0.0008900007600000017 -0.01310499929999999 16 383 87 0 ?385 372 389 384 0 0 255
 30 384 88 0 383 390 373 0 +-0.001599999300000002 -0.0008900007600000001 -0.0001
049993000000002 -1.334402673828314e-016 1.224646799147354e-016 1 17 385 0 523 36
4 406 360 380 383 0 0 +17 386 0 379 392 380 387 391 389 0 0 -18 387 89 0 395 381
 402 388 ?255 29 388 90 0 387 403 382 -0.0015999993 -0.0003700007600000016 -0.01
310499929999999 16 389 91 0 ?391 383 393 390 0 0 255 30 390 92 0 389 394 384 0 +
-0.0015999993 -0.0003700007600000016 -0.01310499929999999 -2.449293598294706e-01
6 -1 1.224646799147353e-016 17 391 0 400 401 413 381 386 389 0 0 +17 392 0 379 3
70 386 366 395 393 0 374 +16 393 93 0 ?392 389 404 394 0 0 255 30 394 94 0 393 4
05 390 0 +-0.001599999300000002 -0.0003700007600000001 -0.0001049993000000002 -1
.334402673828314e-016 1.224646799147354e-016 1 17 395 0 518 416 374 387 392 393
 0 413 -14 396 95 398 1e-008 417 375 400 263 397 +0 0 417 375 261 50 397 96 0 39
6 418 376 0 +-0.002159999300000001 -0.0003700007600000015 -0.01310499929999999 -
2.999519565323715e-032 -1.224646799147353e-016 -1 1 -2.449293598294706e-016 0 81
 1 398 97 6 396 0 0 419 377 399 83 3 399 1 1 1 15 400 98 0 401 396 0 17 401 0 40
0 407 391 402 406 404 0 0 -18 402 99 0 427 387 408 403 ?255 29 403 100 0 402 409
 388 -0.002159999300000001 -0.0008900007600000015 -0.01310499929999999 16 404 10
1 0 ?406 393 410 405 0 0 255 30 405 102 0 404 411 394 0 +-0.002159999300000001 -
0.0008900007600000015 -0.01310499929999999 1 -2.449293598294706e-016 0 17 406 0
 523 385 427 381 401 404 0 380 +17 407 0 400 413 401 408 412 410 0 416 -18 408 1
03 0 434 402 423 409 ?255 29 409 104 0 408 424 403 -0.002159999300000001 -0.0003
700007600000015 -0.01310499929999999 16 410 105 0 ?412 404 414 411 0 0 255 30 41
1 106 0 410 415 405 0 +-0.002159999300000001 -0.0003700007600000015 -0.013104999
29999999 -2.449293598294706e-016 -1 1.224646799147353e-016 17 412 0 421 422 434
 402 407 410 0 401 +17 413 0 400 391 407 387 416 414 0 386 +16 414 107 0 ?413 41
0 425 415 0 0 255 30 415 108 0 414 426 411 0 +-0.002159999300000001 -0.000370000
7600000015 -0.01310499929999999 1 -2.449293598294706e-016 0 17 416 0 518 437 395
 408 413 414 0 0 -14 417 109 419 1e-008 438 396 421 263 418 +0 0 438 396 261 50
 418 110 0 417 439 397 0 +-0.002159999300000003 -0.0003700007599999999 -0.000104
9993000000002 -1 2.449293598294706e-016 -1.334402673828314e-016 1.33440267382831
4e-016 -1.224646799147354e-016 -1 81 1 419 111 6 417 0 0 440 398 420 83 3 420 1
 1 1 15 421 112 0 422 417 0 17 422 0 421 428 412 423 427 425 0 433 -18 423 113 0
 422 408 429 424 ?255 29 424 114 0 423 430 409 -0.002159999300000003 -0.00089000
076 -0.0001049993000000002 16 425 115 0 ?427 414 431 426 0 0 255 30 426 116 0 42
5 432 415 0 +-0.002159999300000003 -0.00089000076 -0.0001049993000000002 1.33440
2673828314e-016 -1.224646799147354e-016 -1 17 427 0 523 406 448 402 422 425 0 41
2 +17 428 0 421 434 422 429 433 431 0 437 -18 429 117 0 455 423 444 430 ?255 29
 430 118 0 429 445 424 -0.002159999300000003 -0.0003700007599999999 -0.000104999
3000000002 16 431 119 0 ?433 425 435 432 0 0 255 30 432 120 0 431 436 426 0 +-0.
002159999300000003 -0.0003700007599999999 -0.0001049993000000002 -2.449293598294
706e-016 -1 1.224646799147353e-016 17 433 0 442 443 455 423 428 431 0 448 +17 43
4 0 421 412 428 408 437 435 0 407 +16 435 121 0 ?434 431 446 436 0 0 255 30 436
 122 0 435 447 432 0 +-0.002159999300000003 -0.0003700007599999999 -0.0001049993
000000002 1.334402673828314e-016 -1.224646799147354e-016 -1 17 437 0 518 458 416
 429 434 435 0 0 -14 438 123 440 1e-008 459 417 442 263 439 +0 0 459 417 261 51
 439 124 0 438 460 418 0 +-0.001409999300000003 -0.0003700007600000002 -0.000104
9993000000002 -2.449293598294706e-016 -1 1.224646799147353e-016 0.00075000000000
00007 -2.999519565323715e-032 -1.224646799147353e-016 -1 81 1 440 125 6 438 0 0
 461 419 441 83 3 441 1 1 1 15 442 126 0 443 438 0 17 443 0 442 449 433 444 448
 446 0 454 -18 444 127 0 469 429 450 445 ?255 29 445 128 0 444 451 430 -0.001940
329385889913 -0.00089000076 0.000425330785889912 16 446 129 0 ?448 435 452 447 0
 0 255 31 447 130 0 446 453 436 0 +-0.001409999300000003 -0.0008900007600000002
 -0.0001049993000000002 -2.449293598294706e-016 -1 1.224646799147353e-016 -2.999
519565323715e-032 -1.224646799147353e-016 -1 0.0007500000000000007 17 448 0 523
 427 469 423 443 446 0 0 +17 449 0 442 455 443 450 454 452 0 476 -18 450 131 0 4
58 444 465 451 ?255 29 451 132 0 450 466 445 -0.001940329385889913 -0.0003700007
599999999 0.000425330785889912 16 452 133 0 ?454 446 456 453 0 0 255 30 453 134
 0 452 457 447 0 +-0.001940329385889913 -0.0003700007599999999 0.000425330785889
912 -2.449293598294706e-016 -1 1.224646799147353e-016 17 454 0 463 464 476 444 4
49 452 0 0 +17 455 0 442 433 449 429 458 456 0 428 +16 456 135 0 ?455 452 467 45
7 0 0 255 31 457 136 0 456 468 453 0 +-0.001409999300000003 -0.00037000076000000
02 -0.0001049993000000002 -2.449293598294706e-016 -1 1.224646799147353e-016 -2.9
99519565323715e-032 -1.224646799147353e-016 -1 0.0007500000000000007 17 458 0 51
8 479 437 450 455 456 0 449 -14 459 137 461 1e-008 480 438 463 263 460 +0 0 480
 438 261 50 460 138 0 459 481 439 0 +-0.0007156490115745563 -0.00037000076000000
01 0.001650011160205265 -0.7071067811865467 2.597868168706479e-016 0.70710678118
65486 -0.7071067811865486 8.65956056235497e-017 -0.7071067811865467 81 1 461 139
 6 459 0 0 482 440 462 83 3 462 1 1 1 15 463 140 0 464 459 0 17 464 0 463 470 45
4 465 469 467 0 490 -18 465 141 0 464 450 471 466 ?255 29 466 142 0 465 472 451
 -0.0007156490115745565 -0.0008900007600000001 0.001650011160205265 16 467 143 0
 ?469 456 473 468 0 0 255 30 468 144 0 467 474 457 0 +-0.0007156490115745565 -0.
0008900007600000001 0.001650011160205265 -0.7071067811865485 8.659560562354966e-
017 -0.7071067811865466 17 469 0 523 448 490 444 464 467 0 443 +17 470 0 463 476
 464 471 475 473 0 479 -18 471 145 0 497 465 486 472 ?255 29 472 146 0 471 487 4
66 -0.0007156490115745563 -0.0003700007600000001 0.001650011160205265 16 473 147
 0 ?475 467 477 474 0 0 255 30 474 148 0 473 478 468 0 +-0.0007156490115745563 -
0.0003700007600000001 0.001650011160205265 -2.449293598294706e-016 -1 1.22464679
9147353e-016 17 475 0 484 485 497 465 470 473 0 0 +17 476 0 463 454 470 450 479
 477 0 0 +16 477 149 0 ?476 473 488 478 0 0 255 30 478 150 0 477 489 474 0 +-0.0
007156490115745563 -0.0003700007600000001 0.001650011160205265 -0.70710678118654
85 8.659560562354966e-017 -0.7071067811865466 17 479 0 518 500 458 471 476 477 0
 0 -14 480 151 482 1e-008 501 459 484 263 481 -0 0 501 459 261 51 481 152 0 480
 502 460 0 +-0.0008499993 -0.0003700007600000001 0.001784361448630709 -2.4492935
98294706e-016 -1 1.224646799147353e-016 0.0001900000000000001 -2.999519565323715
e-032 -1.224646799147353e-016 -1 81 1 482 153 6 480 0 0 503 461 483 83 3 483 1 1
 1 15 484 154 0 485 480 0 17 485 0 484 491 475 486 490 488 0 509 -18 486 155 0 4
96 471 492 487 ?255 29 487 156 0 486 493 472 -0.0006599993000000003 -0.000890000
7600000001 0.001784361448630709 16 488 157 0 ?490 477 494 489 0 0 255 31 489 158
 0 488 495 478 0 +-0.0008499993000000003 -0.0008900007600000001 0.00178436144863
0709 2.449293598294706e-016 1 -1.224646799147353e-016 2.999519565323715e-032 1.2
24646799147353e-016 1 0.0001900000000000001 17 490 0 523 469 509 465 485 488 0 4
75 +17 491 0 484 497 485 492 496 494 0 510 -18 492 159 0 500 486 0 493 ?255 29 4
93 160 0 492 0 487 -0.0006599993000000001 -0.0003700007600000002 0.0017843614486
30709 16 494 161 0 ?496 488 498 495 0 0 255 30 495 162 0 494 499 489 0 +-0.00065
99993000000001 -0.0003700007600000002 0.001784361448630709 -2.449293598294706e-0
16 -1 1.224646799147353e-016 17 496 0 505 506 510 486 491 494 0 485 +17 497 0 48
4 475 491 471 500 498 0 470 +16 498 163 0 ?497 494 507 499 0 0 255 31 499 164 0
 498 508 495 0 +-0.0008499993 -0.0003700007600000001 0.001784361448630709 2.4492
93598294706e-016 1 -1.224646799147353e-016 2.999519565323715e-032 1.224646799147
353e-016 1 0.0001900000000000001 17 500 0 518 513 479 492 497 498 0 491 -14 501
 165 503 1e-008 514 480 505 263 502 +0 0 514 480 261 50 502 166 0 501 515 481 0
 +-0.0006599993000000005 -0.0003700007599999999 0.0033350007 -1 2.44929359829470
6e-016 -2.796787638460979e-016 2.796787638460978e-016 -1.224646799147354e-016 -1
 81 1 503 167 6 501 0 0 516 482 504 83 3 504 1 1 1 15 505 168 0 506 501 0 17 506
 0 505 290 496 273 509 507 0 0 -16 507 169 0 ?509 498 511 508 0 0 255 30 508 170
 0 507 512 499 0 +-0.0006599993000000007 -0.0008900007599999998 0.0033350007 2.7
96787638460978e-016 -1.224646799147354e-016 -1 17 509 0 523 490 272 486 506 507
 0 0 +17 510 0 505 496 290 492 513 511 0 0 +16 511 171 0 ?510 507 0 512 0 0 255
 30 512 172 0 511 0 508 0 +-0.0006599993000000005 -0.0003700007599999999 0.00333
50007 2.796787638460978e-016 -1.224646799147354e-016 -1 17 513 0 518 286 500 282
 510 511 0 0 -14 514 173 516 1e-008 519 501 518 263 515 +0 0 519 501 261 50 515
 174 0 514 520 502 0 +-0.0008499993 -0.0003700007600000001 0.001784361448630709
 2.449293598294706e-016 1 -1.224646799147353e-016 2.999519565323715e-032 1.22464
6799147353e-016 1 81 1 516 175 6 514 0 0 521 503 517 83 3 517 1 1 1 15 518 176 0
 286 514 0 14 519 177 521 1e-008 0 514 523 263 520 -0 0 0 514 261 50 520 178 0 5
19 0 515 0 +-0.0008499993000000003 -0.0008900007600000001 0.001784361448630709 2
.449293598294706e-016 1 -1.224646799147353e-016 2.999519565323715e-032 1.2246467
99147353e-016 1 81 1 521 179 6 519 0 0 0 516 522 83 3 522 1 1 1 15 523 180 0 272
 519 0 12 524 180 0 525 0 0 0 0 1000 1e-008 0 0 0 1 0 1 1 532 534 540 538 529 53
9 537 70 525 0 524 0 0 4 1 20 0 526 526 1 T74 20 526 1 0 527 0 0 0 0 0 0 0 0 0 0
 0 0 0 0 0 0 0 0 0 81 1 527 7 6 533 0 0 562 0 528 83 3 528 1 1 1 19 529 1 0 524
 531 0 530 V13 530 2 0 524 0 0 0 0 529 533 19 531 3 0 524 0 529 532 S13 532 4 0
 524 0 533 0 0 531 0 14 533 5 527 1e-008 560 0 535 532 534 +0 0 560 0 530 50 534
 6 0 533 561 0 0 +0.002500000700000019 -0.0003700007600000006 0.0033350007 1 -2.
449293598294698e-016 6.712290332306345e-015 -6.712290332306345e-015 1.2246467991
4737e-016 1 15 535 8 0 536 533 0 17 536 0 535 544 556 537 541 539 0 549 -18 537
 9 0 536 0 542 538 ?524 29 538 10 0 537 543 0 0.00250000070000003 -0.00089000076
00000008 0.001784361448630709 16 539 11 0 ?541 0 547 540 0 0 524 30 540 12 0 539
 548 0 0 +0.002500000700000019 -0.0008900007600000006 0.0033350007 -6.7122903323
06345e-015 1.22464679914737e-016 1 17 541 0 792 778 570 542 536 539 0 556 +18 54
2 13 0 541 537 545 543 ?524 29 543 14 0 542 546 538 0.002500000700000019 -0.0008
900007600000006 0.0033350007 17 544 0 535 550 536 545 549 547 0 555 -18 545 15 0
 544 542 551 546 ?524 29 546 16 0 545 552 543 0.00250000070000003 -0.00037000076
00000008 0.001784361448630709 16 547 17 0 ?549 539 553 548 0 0 524 30 548 18 0 5
47 554 540 0 +0.00250000070000003 -0.0003700007600000008 0.001784361448630709 -2
.449293598294706e-016 -1 1.224646799147353e-016 17 549 0 564 565 577 537 544 547
 0 570 +17 550 0 535 556 544 551 555 553 0 559 +18 551 19 0 550 545 566 552 ?524
 29 552 20 0 551 567 546 0.002500000700000019 -0.0003700007600000006 0.003335000
7 16 553 21 0 ?550 547 557 554 0 0 524 30 554 22 0 553 558 548 0 +0.002500000700
000019 -0.0003700007600000006 0.0033350007 -6.712290332306345e-015 1.22464679914
737e-016 1 17 555 0 787 580 782 545 550 553 0 577 -17 556 0 535 536 550 542 559
 557 0 775 +16 557 23 0 ?556 553 568 558 0 0 524 30 558 24 0 557 569 554 0 +0.00
2500000700000019 -0.0003700007600000006 0.0033350007 -2.449293598294706e-016 -1
 1.224646799147353e-016 17 559 0 774 779 775 551 556 557 0 782 -14 560 25 562 1e
-008 581 533 564 532 561 -0 0 581 533 530 51 561 26 0 560 582 534 0 +0.002690000
70000003 -0.0003700007600000009 0.001784361448630709 -2.449293598294706e-016 -1
 1.224646799147353e-016 0.0001900000000000001 -2.999519565323715e-032 -1.2246467
99147353e-016 -1 81 1 562 27 6 560 0 0 583 527 563 83 3 563 1 1 1 15 564 28 0 56
5 560 0 17 565 0 564 571 549 566 570 568 0 576 -18 566 29 0 565 551 572 567 ?524
 29 567 30 0 566 573 552 0.002555650411574587 -0.0008900007600000008 0.001650011
160205265 16 568 31 0 ?570 557 574 569 0 0 524 31 569 32 0 568 575 558 0 +0.0026
9000070000003 -0.0008900007600000009 0.001784361448630709 2.449293598294706e-016
 1 -1.224646799147353e-016 -2.999519565323715e-032 -1.224646799147353e-016 -1 0.
0001900000000000001 17 570 0 792 541 591 537 565 568 0 0 +17 571 0 564 577 565 5
72 576 574 0 0 -18 572 33 0 598 566 587 573 ?524 29 573 34 0 572 588 567 0.00255
5650411574587 -0.0003700007600000009 0.001650011160205265 16 574 35 0 ?576 568 5
78 575 0 0 524 30 575 36 0 574 579 569 0 +0.002555650411574587 -0.00037000076000
00009 0.001650011160205265 -2.449293598294706e-016 -1 1.224646799147353e-016 17
 576 0 585 586 598 566 571 574 0 591 +17 577 0 564 549 571 545 580 578 0 0 +16 5
78 37 0 ?577 574 589 579 0 0 524 31 579 38 0 578 590 575 0 +0.00269000070000003
 -0.0003700007600000009 0.001784361448630709 2.449293598294706e-016 1 -1.2246467
99147353e-016 -2.999519565323715e-032 -1.224646799147353e-016 -1 0.0001900000000
000001 17 580 0 787 601 555 572 577 578 0 571 -14 581 39 583 1e-008 602 560 585
 532 582 +0 0 602 560 530 50 582 40 0 581 603 561 0 +0.002555650411574587 -0.000
3700007600000009 0.001650011160205265 0.707106781186544 -8.659560562354803e-017
 0.707106781186551 -0.707106781186551 2.597868168706484e-016 0.707106781186544 8
1 1 583 41 6 581 0 0 604 562 584 83 3 584 1 1 1 15 585 42 0 586 581 0 17 586 0 5
85 592 576 587 591 589 0 597 -18 587 43 0 612 572 593 588 ?524 29 588 44 0 587 5
94 573 0.003780330785889953 -0.0008900007600000013 0.0004253307858899129 16 589
 45 0 ?591 578 595 590 0 0 524 30 590 46 0 589 596 579 0 +0.002555650411574587 -
0.0008900007600000008 0.001650011160205265 -0.707106781186551 2.597868168706484e
-016 0.707106781186544 17 591 0 792 570 612 566 586 589 0 0 +17 592 0 585 598 58
6 593 597 595 0 619 -18 593 47 0 601 587 608 594 ?524 29 594 48 0 593 609 588 0.
003780330785889953 -0.0003700007600000012 0.0004253307858899129 16 595 49 0 ?597
 589 599 596 0 0 524 30 596 50 0 595 600 590 0 +0.003780330785889953 -0.00037000
07600000012 0.0004253307858899129 -2.449293598294706e-016 -1 1.224646799147353e-
016 17 597 0 606 607 619 587 592 595 0 0 +17 598 0 585 576 592 572 601 599 0 580
 +16 599 51 0 ?598 595 610 600 0 0 524 30 600 52 0 599 611 596 0 +0.002555650411
574587 -0.0003700007600000009 0.001650011160205265 -0.707106781186551 2.59786816
8706484e-016 0.707106781186544 17 601 0 787 622 580 593 598 599 0 592 -14 602 53
 604 1e-008 623 581 606 532 603 +0 0 623 581 530 51 603 54 0 602 624 582 0 +0.00
3250000700000045 -0.0003700007600000013 -0.0001049993000000002 -2.44929359829470
6e-016 -1 1.224646799147353e-016 0.000749999999999999 -2.999519565323715e-032 -1
.224646799147353e-016 -1 81 1 604 55 6 602 0 0 625 583 605 83 3 605 1 1 1 15 606
 56 0 607 602 0 17 607 0 606 613 597 608 612 610 0 633 -18 608 57 0 607 593 614
 609 ?524 29 609 58 0 608 615 594 0.004000000700000046 -0.0008900007600000015 -0
.0001049993000000002 16 610 59 0 ?612 599 616 611 0 0 524 31 611 60 0 610 617 60
0 0 +0.003250000700000045 -0.0008900007600000013 -0.0001049993000000002 -2.44929
3598294706e-016 -1 1.224646799147353e-016 2.999519565323715e-032 1.2246467991473
53e-016 1 0.000749999999999999 17 612 0 792 591 633 587 607 610 0 586 +17 613 0
 606 619 607 614 618 616 0 0 -18 614 61 0 622 608 629 615 ?524 29 615 62 0 614 6
30 609 0.004000000700000046 -0.0003700007600000015 -0.0001049993000000002 16 616
 63 0 ?618 610 620 617 0 0 524 30 617 64 0 616 621 611 0 +0.004000000700000046 -
0.0003700007600000015 -0.0001049993000000002 -2.449293598294706e-016 -1 1.224646
799147353e-016 17 618 0 627 628 640 608 613 616 0 0 +17 619 0 606 597 613 593 62
2 620 0 0 +16 620 65 0 ?619 616 631 621 0 0 524 31 621 66 0 620 632 617 0 +0.003
250000700000045 -0.0003700007600000013 -0.0001049993000000002 -2.449293598294706
e-016 -1 1.224646799147353e-016 2.999519565323715e-032 1.224646799147353e-016 1
 0.000749999999999999 17 622 0 787 643 601 614 619 620 0 640 -14 623 67 625 1e-0
08 644 602 627 532 624 +0 0 644 602 530 50 624 68 0 623 645 603 0 +0.00400000070
0000046 -0.0003700007600000015 -0.0001049993000000002 1 -2.449293598294698e-016
 6.872173770215817e-015 -6.872173770215817e-015 1.22464679914737e-016 1 81 1 625
 69 6 623 0 0 646 604 626 83 3 626 1 1 1 15 627 70 0 628 623 0 17 628 0 627 634
 618 629 633 631 0 654 -18 629 71 0 628 614 635 630 ?524 29 630 72 0 629 636 615
 0.004000000700000134 -0.0008900007600000031 -0.01310499929999999 16 631 73 0 ?6
33 620 637 632 0 0 524 30 632 74 0 631 638 621 0 +0.004000000700000046 -0.000890
0007600000015 -0.0001049993000000002 -6.872173770215817e-015 1.22464679914737e-0
16 1 17 633 0 792 612 654 608 628 631 0 618 +17 634 0 627 640 628 635 639 637 0
 0 -18 635 75 0 661 629 650 636 ?524 29 636 76 0 635 651 630 0.00400000070000013
4 -0.000370000760000003 -0.01310499929999999 16 637 77 0 ?639 631 641 638 0 0 52
4 30 638 78 0 637 642 632 0 +0.004000000700000134 -0.000370000760000003 -0.01310
499929999999 -2.449293598294706e-016 -1 1.224646799147353e-016 17 639 0 648 649
 661 629 634 637 0 0 +17 640 0 627 618 634 614 643 641 0 613 +16 641 79 0 ?640 6
37 652 642 0 0 524 30 642 80 0 641 653 638 0 +0.004000000700000046 -0.0003700007
600000015 -0.0001049993000000002 -6.872173770215817e-015 1.22464679914737e-016 1
 17 643 0 787 664 622 635 640 641 0 634 -14 644 81 646 1e-008 665 623 648 532 64
5 +0 0 665 623 530 50 645 82 0 644 666 624 0 +0.004000000700000134 -0.0003700007
60000003 -0.01310499929999999 -2.999519565323715e-032 -1.224646799147353e-016 -1
 1 -2.449293598294706e-016 0 81 1 646 83 6 644 0 0 667 625 647 83 3 647 1 1 1 15
 648 84 0 649 644 0 17 649 0 648 655 639 650 654 652 0 660 -18 650 85 0 675 635
 656 651 ?524 29 651 86 0 650 657 636 0.003440000700000134 -0.000890000760000003
 -0.01310499929999999 16 652 87 0 ?654 641 658 653 0 0 524 30 653 88 0 652 659 6
42 0 +0.004000000700000134 -0.0008900007600000031 -0.01310499929999999 1 -2.4492
93598294706e-016 0 17 654 0 792 633 675 629 649 652 0 639 +17 655 0 648 661 649
 656 660 658 0 0 -18 656 89 0 664 650 671 657 ?524 29 657 90 0 656 672 651 0.003
440000700000134 -0.0003700007600000029 -0.01310499929999999 16 658 91 0 ?660 652
 662 659 0 0 524 30 659 92 0 658 663 653 0 +0.003440000700000134 -0.000370000760
0000029 -0.01310499929999999 -2.449293598294706e-016 -1 1.224646799147353e-016 1
7 660 0 669 670 682 650 655 658 0 0 +17 661 0 648 639 655 635 664 662 0 643 +16
 662 93 0 ?661 658 673 663 0 0 524 30 663 94 0 662 674 659 0 +0.0040000007000001
34 -0.000370000760000003 -0.01310499929999999 1 -2.449293598294706e-016 0 17 664
 0 787 685 643 656 661 662 0 682 -14 665 95 667 1e-008 686 644 669 532 666 +0 0
 686 644 530 50 666 96 0 665 687 645 0 +0.003440000700000045 -0.0003700007600000
014 -0.0001049993000000002 -1 2.449293598294698e-016 -6.872173770215817e-015 6.8
72173770215817e-015 -1.22464679914737e-016 -1 81 1 667 97 6 665 0 0 688 646 668
 83 3 668 1 1 1 15 669 98 0 670 665 0 17 670 0 669 676 660 671 675 673 0 681 -18
 671 99 0 670 656 677 672 ?524 29 672 100 0 671 678 657 0.003440000700000045 -0.
0008900007600000013 -0.0001049993000000002 16 673 101 0 ?675 662 679 674 0 0 524
 30 674 102 0 673 680 663 0 +0.003440000700000045 -0.0008900007600000013 -0.0001
049993000000002 6.872173770215817e-015 -1.22464679914737e-016 -1 17 675 0 792 65
4 696 650 670 673 0 649 +17 676 0 669 682 670 677 681 679 0 685 -18 677 103 0 67
6 671 692 678 ?524 29 678 104 0 677 693 672 0.003440000700000045 -0.000370000760
0000014 -0.0001049993000000002 16 679 105 0 ?681 673 683 680 0 0 524 30 680 106
 0 679 684 674 0 +0.003440000700000045 -0.0003700007600000014 -0.000104999300000
0002 -2.449293598294706e-016 -1 1.224646799147353e-016 17 681 0 690 691 703 671
 676 679 0 696 +17 682 0 669 660 676 656 685 683 0 655 +16 683 107 0 ?682 679 69
4 684 0 0 524 30 684 108 0 683 695 680 0 +0.003440000700000045 -0.00037000076000
00014 -0.0001049993000000002 6.872173770215817e-015 -1.22464679914737e-016 -1 17
 685 0 787 706 664 677 682 683 0 703 -14 686 109 688 1e-008 707 665 690 532 687
 -0 0 707 665 530 51 687 110 0 686 708 666 0 +0.003250000700000045 -0.0003700007
600000013 -0.0001049993000000002 -2.449293598294706e-016 -1 1.224646799147353e-0
16 0.0001899999999999992 -2.999519565323715e-032 -1.224646799147353e-016 -1 81 1
 688 111 6 686 0 0 709 667 689 83 3 689 1 1 1 15 690 112 0 691 686 0 17 691 0 69
0 697 681 692 696 694 0 717 -18 692 113 0 691 677 698 693 ?524 29 693 114 0 692
 699 678 0.003384350988425488 -0.0008900007600000013 2.935098842544548e-005 16 6
94 115 0 ?696 683 700 695 0 0 524 31 695 116 0 694 701 684 0 +0.0032500007000000
45 -0.0008900007600000013 -0.0001049993000000002 2.449293598294706e-016 1 -1.224
646799147353e-016 2.999519565323715e-032 1.224646799147353e-016 1 0.000189999999
9999992 17 696 0 792 675 717 671 691 694 0 0 +17 697 0 690 703 691 698 702 700 0
 0 -18 698 117 0 724 692 713 699 ?524 29 699 118 0 698 714 693 0.003384350988425
488 -0.0003700007600000012 2.935098842544548e-005 16 700 119 0 ?702 694 704 701
 0 0 524 30 701 120 0 700 705 695 0 +0.003384350988425488 -0.0003700007600000012
 2.935098842544548e-005 -2.449293598294706e-016 -1 1.224646799147353e-016 17 702
 0 711 712 724 692 697 700 0 0 +17 703 0 690 681 697 677 706 704 0 0 +16 704 121
 0 ?703 700 715 705 0 0 524 31 705 122 0 704 716 701 0 +0.003250000700000045 -0.
0003700007600000013 -0.0001049993000000002 2.449293598294706e-016 1 -1.224646799
147353e-016 2.999519565323715e-032 1.224646799147353e-016 1 0.000189999999999999
2 17 706 0 787 727 685 698 703 704 0 697 -14 707 123 709 1e-008 728 686 711 532
 708 +0 0 728 686 530 50 708 124 0 707 729 687 0 +0.002159670614110124 -0.000370
0007600000008 0.0012540313627408 -0.7071067811865442 8.659560562354812e-017 -0.7
071067811865509 0.7071067811865509 -2.597868168706485e-016 -0.7071067811865442 8
1 1 709 125 6 707 0 0 730 688 710 83 3 710 1 1 1 15 711 126 0 712 707 0 17 712 0
 711 718 702 713 717 715 0 723 -18 713 127 0 738 698 719 714 ?524 29 714 128 0 7
13 720 699 0.002159670614110122 -0.0008900007600000008 0.001254031362740799 16 7
15 129 0 ?717 704 721 716 0 0 524 30 716 130 0 715 722 705 0 +0.0021596706141101
24 -0.0008900007600000008 0.0012540313627408 0.7071067811865509 -2.5978681687064
84e-016 -0.7071067811865442 17 717 0 792 696 738 692 712 715 0 702 +17 718 0 711
 724 712 719 723 721 0 0 -18 719 131 0 727 713 734 720 ?524 29 720 132 0 719 735
 714 0.002159670614110122 -0.0003700007600000008 0.001254031362740799 16 721 133
 0 ?723 715 725 722 0 0 524 30 722 134 0 721 726 716 0 +0.002159670614110122 -0.
0003700007600000008 0.001254031362740799 -2.449293598294706e-016 -1 1.2246467991
47353e-016 17 723 0 732 733 745 713 718 721 0 0 +17 724 0 711 702 718 698 727 72
5 0 706 +16 725 135 0 ?724 721 736 726 0 0 524 30 726 136 0 725 737 722 0 +0.002
159670614110124 -0.0003700007600000008 0.0012540313627408 0.7071067811865509 -2.
597868168706484e-016 -0.7071067811865442 17 727 0 787 748 706 719 724 725 0 745
 -14 728 137 730 1e-008 749 707 732 532 729 +0 0 749 707 530 51 729 138 0 728 75
0 708 0 +0.00269000070000003 -0.0003700007600000009 0.001784361448630709 -2.4492
93598294706e-016 -1 1.224646799147353e-016 0.000749999999999999 -2.9995195653237
15e-032 -1.224646799147353e-016 -1 81 1 730 139 6 728 0 0 751 709 731 83 3 731 1
 1 1 15 732 140 0 733 728 0 17 733 0 732 739 723 734 738 736 0 744 -18 734 141 0
 733 719 740 735 ?524 29 735 142 0 734 741 720 0.001940000700000029 -0.000890000
7600000007 0.001784361448630709 16 736 143 0 ?738 725 742 737 0 0 524 31 737 144
 0 736 743 726 0 +0.00269000070000003 -0.0008900007600000009 0.00178436144863070
9 -2.449293598294706e-016 -1 1.224646799147353e-016 -2.999519565323715e-032 -1.2
24646799147353e-016 -1 0.000749999999999999 17 738 0 792 717 759 713 733 736 0 7
12 +17 739 0 732 745 733 740 744 742 0 748 -18 740 145 0 739 734 755 741 ?524 29
 741 146 0 740 756 735 0.00194000070000003 -0.0003700007600000007 0.001784361448
630709 16 742 147 0 ?744 736 746 743 0 0 524 30 743 148 0 742 747 737 0 +0.00194
000070000003 -0.0003700007600000007 0.001784361448630709 -2.449293598294706e-016
 -1 1.224646799147353e-016 17 744 0 753 754 766 734 739 742 0 759 +17 745 0 732
 723 739 719 748 746 0 718 +16 746 149 0 ?745 742 757 747 0 0 524 31 747 150 0 7
46 758 743 0 +0.00269000070000003 -0.0003700007600000009 0.001784361448630709 -2
.449293598294706e-016 -1 1.224646799147353e-016 -2.999519565323715e-032 -1.22464
6799147353e-016 -1 0.000749999999999999 17 748 0 787 769 727 740 745 746 0 766 -
14 749 151 751 1e-008 770 728 753 532 750 +0 0 770 728 530 50 750 152 0 749 771
 729 0 +0.001940000700000019 -0.0003700007600000005 0.0033350007 -1 2.4492935982
94698e-016 -6.852129714229398e-015 6.852129714229398e-015 -1.22464679914737e-016
 -1 81 1 751 153 6 749 0 0 772 730 752 83 3 752 1 1 1 15 753 154 0 754 749 0 17
 754 0 753 760 744 755 759 757 0 765 -18 755 155 0 754 740 761 756 ?524 29 756 1
56 0 755 762 741 0.001940000700000019 -0.0008900007600000005 0.0033350007 16 757
 157 0 ?759 746 763 758 0 0 524 30 758 158 0 757 764 747 0 +0.001940000700000019
 -0.0008900007600000005 0.0033350007 6.852129714229398e-015 -1.22464679914737e-0
16 -1 17 759 0 792 738 778 734 754 757 0 0 +17 760 0 753 766 754 761 765 763 0 7
69 -18 761 159 0 760 755 0 762 ?524 29 762 160 0 761 0 756 0.001940000700000019
 -0.0003700007600000005 0.0033350007 16 763 161 0 ?765 757 767 764 0 0 524 30 76
4 162 0 763 768 758 0 +0.001940000700000019 -0.0003700007600000005 0.0033350007
 -2.449293598294706e-016 -1 1.224646799147353e-016 17 765 0 774 775 779 755 760
 763 0 778 +17 766 0 753 744 760 740 769 767 0 0 +16 767 163 0 ?766 763 776 768
 0 0 524 30 768 164 0 767 777 764 0 +0.001940000700000019 -0.0003700007600000005
 0.0033350007 6.852129714229398e-015 -1.22464679914737e-016 -1 17 769 0 787 782
 748 761 766 767 0 779 -14 770 165 772 1e-008 783 749 774 532 771 +0 0 783 749 5
30 50 771 166 0 770 784 750 0 +0.002500000700000019 -0.0003700007600000006 0.003
3350007 2.999519565323715e-032 1.224646799147353e-016 1 -1 2.449293598294706e-01
6 0 81 1 772 167 6 770 0 0 785 751 773 83 3 773 1 1 1 15 774 168 0 775 770 0 17
 775 0 774 559 765 542 778 776 0 0 -16 776 169 0 ?778 767 780 777 0 0 524 30 777
 170 0 776 781 768 0 +0.002500000700000019 -0.0008900007600000006 0.0033350007 -
1 2.449293598294706e-016 0 17 778 0 792 759 541 755 775 776 0 0 +17 779 0 774 76
5 559 761 782 780 0 0 +16 780 171 0 ?779 776 0 781 0 0 524 30 781 172 0 780 0 77
7 0 +0.002500000700000019 -0.0003700007600000006 0.0033350007 -1 2.4492935982947
06e-016 0 17 782 0 787 555 769 551 779 780 0 0 -14 783 173 785 1e-008 788 770 78
7 532 784 -0 0 788 770 530 50 784 174 0 783 789 771 0 +0.00269000070000003 -0.00
03700007600000009 0.001784361448630709 -2.449293598294706e-016 -1 1.224646799147
353e-016 -2.999519565323715e-032 -1.224646799147353e-016 -1 81 1 785 175 6 783 0
 0 790 772 786 83 3 786 1 1 1 15 787 176 0 555 783 0 14 788 177 790 1e-008 0 783
 792 532 789 +0 0 0 783 530 50 789 178 0 788 0 784 0 +0.00269000070000003 -0.000
8900007600000009 0.001784361448630709 -2.449293598294706e-016 -1 1.2246467991473
53e-016 -2.999519565323715e-032 -1.224646799147353e-016 -1 81 1 790 179 6 788 0
 0 0 785 791 83 3 791 1 1 1 15 792 180 0 541 788 0 1 0 
