**ABCDEFGHIJKLMNOPQRSTUVWXYZabcdefghijklmnopqrstuvwxyz**************************
**PARASOLID !"#$%&'()*+,-./:;<=>?@[\]^_`{|}~0123456789**************************
**PART1;
MC=AMD64;
MC_MODEL=Intel64 Family 6 Model 158 Stepping 10, GenuineIntel;
MC_ID=unknown;
OS=Windows_NT;
OS_RELEASE=unknown;
FRU=CAD Exchanger 3.10.0 (cadexchanger.com);
APPL=unknown;
SITE=unknown;
USER=unknown;
FORMAT=text;
GUISE=transmit;
KEY=RESA60-630X240_CMP-009-00047-4;
FILE=RESA60-630X240_CMP-009-00047-4.x_t;
DATE=Sat Jan 01 18:18:31 2022;
**PART2;
SCH=SCH_1200000_12103;
USFLD_SIZE=0;
**PART3;
**END_OF_HEADER*****************************************************************
T51 : TRANSMIT FILE created by modeller version 120000017 SCH_1200000_121030 74
 7 1 7 0 2 24 62 100 138 176 196 12 2 14 0 3 0 0 0 0 1000 1e-008 0 0 0 1 0 1 1 1
2 14 20 18 9 19 17 70 3 0 2 0 0 4 1 20 0 4 4 1 T74 20 4 1 0 5 0 0 0 0 0 0 0 0 0
 0 0 0 0 0 0 0 0 0 0 81 1 5 7 6 13 0 0 0 0 8 80 1 6 0 7 8001 0 0 0 0 3 5 0 0 0 F
FFFTFTFFFFFFF2 79 15 7 SDL/TYSA_COLOUR83 3 8 1 1 0.800000011920929 19 9 1 0 2 11
 0 10 V13 10 2 0 2 0 0 0 0 9 13 19 11 3 0 2 0 9 12 S13 12 4 0 2 0 13 0 0 11 0 14
 13 5 5 1e-008 0 0 15 12 14 +0 0 0 0 10 53 14 6 0 13 0 0 0 +0.00449995544 2.286e
-008 0.00120000014 0.00027500072 0 0 1 -1 1.224646799147353e-016 0 15 15 8 0 16
 13 0 17 16 0 15 21 21 17 21 19 0 0 -18 17 9 0 16 0 22 18 ?2 29 18 10 0 17 23 0
 0.00449995544 2.286e-008 0.00092499942 16 19 11 0 ?21 0 0 20 0 0 2 31 20 12 0 1
9 0 0 0 +0.00449995544 2.286e-008 0.00120000014 1.224646799147353e-016 1 -0 -1 1
.224646799147353e-016 0 0.00027500072 17 21 0 15 16 16 22 16 19 0 0 +18 22 13 0
 21 17 0 23 ?2 29 23 14 0 22 0 18 0.00449995544 2.286e-008 0.00147500086 12 24 2
6 0 25 0 0 0 0 1000 1e-008 0 0 0 1 0 1 1 32 34 40 38 29 39 37 70 25 0 24 0 0 4 1
 20 0 26 26 1 T74 20 26 1 0 27 0 0 0 0 0 0 0 0 0 0 0 0 0 0 0 0 0 0 0 81 1 27 7 6
 33 0 0 54 0 28 83 3 28 1 1 0.800000011920929 19 29 1 0 24 31 0 30 V13 30 2 0 24
 0 0 0 0 29 33 19 31 3 0 24 0 29 32 S13 32 4 0 24 0 33 0 0 31 0 14 33 5 27 1e-00
8 52 0 35 32 34 +0 0 52 0 30 51 34 6 0 33 53 0 0 +0.004500148480000001 1.6256e-0
07 0.00120000014 1 -1.224646799147353e-016 -6.123233995736766e-017 0.00027500072
 -6.123233995736766e-017 7.498798913309288e-033 -1 15 35 8 0 36 33 0 17 36 0 35
 42 47 37 41 39 0 41 +18 37 9 0 36 0 43 38 ?24 29 38 10 0 37 44 0 0.00450014848
 1.6256e-007 0.00092499942 16 39 11 0 ?36 0 45 40 0 0 24 31 40 12 0 39 46 0 0 +0
.004500148480000001 1.6256e-007 0.00120000014 -1 1.224646799147353e-016 6.123233
995736766e-017 -6.123233995736766e-017 7.498798913309288e-033 -1 0.00027500072 1
7 41 0 56 41 41 37 36 39 0 47 -17 42 0 35 48 36 43 47 45 0 51 +18 43 13 0 42 37
 0 44 ?24 29 44 14 0 43 0 38 0.00315014864 1.625600000001653e-007 0.00092499942
 16 45 15 0 ?42 39 49 46 0 0 24 30 46 16 0 45 50 40 0 +0.00450014848 1.6256e-007
 0.00092499942 -1 1.224646799147353e-016 6.123233995736766e-017 17 47 0 35 36 48
 37 42 45 0 0 -17 48 0 35 47 42 43 51 49 0 0 -16 49 17 0 ?51 45 0 50 0 0 24 31 5
0 18 0 49 0 46 0 +0.00315014864 1.625600000001653e-007 0.00120000014 -1 1.224646
799147353e-016 6.123233995736766e-017 -6.123233995736766e-017 7.498798913309288e
-033 -1 0.00027500072 17 51 0 61 51 51 43 48 49 0 48 +14 52 19 54 1e-008 57 33 5
6 32 53 +0 0 57 33 30 50 53 20 0 52 58 34 0 +0.004500148480000001 1.6256e-007 0.
0009249994200000001 1 -1.224646799147353e-016 -6.123233995736766e-017 6.12323399
5736766e-017 -7.498798913309288e-033 1 81 1 54 21 6 52 0 0 59 27 55 83 3 55 1 1
 0.800000011920929 15 56 22 0 41 52 0 14 57 23 59 1e-008 0 52 61 32 58 -0 0 0 52
 30 50 58 24 0 57 0 53 0 +0.00315014864 1.625600000001653e-007 0.000924999420000
0001 1 -1.224646799147353e-016 -6.123233995736766e-017 6.123233995736766e-017 -7
.498798913309288e-033 1 81 1 59 25 6 57 0 0 0 54 60 83 3 60 1 1 0.80000001192092
9 15 61 26 0 51 57 0 12 62 26 0 63 0 0 0 0 1000 1e-008 0 0 0 1 0 1 1 70 72 78 76
 67 77 75 70 63 0 62 0 0 4 1 20 0 64 64 1 T74 20 64 1 0 65 0 0 0 0 0 0 0 0 0 0 0
 0 0 0 0 0 0 0 0 81 1 65 7 6 71 0 0 92 0 66 83 3 66 1 1 0.800000011920929 19 67
 1 0 62 69 0 68 V13 68 2 0 62 0 0 0 0 67 71 19 69 3 0 62 0 67 70 S13 70 4 0 62 0
 71 0 0 69 0 14 71 5 65 1e-008 90 0 73 70 72 +0 0 90 0 68 51 72 6 0 71 91 0 0 +0
.004500148480000001 1.6256e-007 -0.00200000108 0 0 -1 0.00027500072 -1 1.2246467
99147353e-016 0 15 73 8 0 74 71 0 17 74 0 73 80 85 75 79 77 0 79 +18 75 9 0 74 0
 81 76 ?62 29 76 10 0 75 82 0 0.004225147760000001 1.625600000000337e-007 -0.002
00000108 16 77 11 0 ?74 0 83 78 0 0 62 31 78 12 0 77 84 0 0 +0.00450014848000000
1 1.6256e-007 -0.00200000108 0 0 1 -1 1.224646799147353e-016 0 0.00027500072 17
 79 0 94 79 79 75 74 77 0 85 -17 80 0 73 86 74 81 85 83 0 89 +18 81 13 0 80 75 0
 82 ?62 29 82 14 0 81 0 76 0.004225147760000001 1.625600000000337e-007 0.0012000
0014 16 83 15 0 ?80 77 87 84 0 0 62 30 84 16 0 83 88 78 0 +0.004225147760000001
 1.625600000000337e-007 -0.00200000108 0 0 1 17 85 0 73 74 86 75 80 83 0 0 -17 8
6 0 73 85 80 81 89 87 0 0 -16 87 17 0 ?89 83 0 88 0 0 62 31 88 18 0 87 0 84 0 +0
.004500148480000001 1.6256e-007 0.00120000014 0 0 1 -1 1.224646799147353e-016 0
 0.00027500072 17 89 0 99 89 89 81 86 87 0 86 +14 90 19 92 1e-008 95 71 94 70 91
 +0 0 95 71 68 50 91 20 0 90 96 72 0 +0.004225147760000001 1.625600000000337e-00
7 -0.00200000108 0 -0 -1 1 -1.224646799147353e-016 0 81 1 92 21 6 90 0 0 97 65 9
3 83 3 93 1 1 0.800000011920929 15 94 22 0 79 90 0 14 95 23 97 1e-008 0 90 99 70
 96 -0 0 0 90 68 50 96 24 0 95 0 91 0 +0.004225147760000001 1.625600000000337e-0
07 0.00120000014 0 -0 -1 1 -1.224646799147353e-016 0 81 1 97 25 6 95 0 0 0 92 98
 83 3 98 1 1 0.800000011920929 15 99 26 0 89 95 0 12 100 26 0 101 0 0 0 0 1000 1
e-008 0 0 0 1 0 1 1 108 110 116 114 105 115 113 70 101 0 100 0 0 4 1 20 0 102 10
2 1 T74 20 102 1 0 103 0 0 0 0 0 0 0 0 0 0 0 0 0 0 0 0 0 0 0 81 1 103 7 6 109 0
 0 130 0 104 83 3 104 1 1 0.800000011920929 19 105 1 0 100 107 0 106 V13 106 2 0
 100 0 0 0 0 105 109 19 107 3 0 100 0 105 108 S13 108 4 0 100 0 109 0 0 107 0 14
 109 5 103 1e-008 128 0 111 108 110 +0 0 128 0 106 51 110 6 0 109 129 0 0 +-0.00
4500148480000001 -1.6256e-007 -0.00200000108 -0 0 -1 0.00027500072 1 -2.44929359
8294706e-016 0 15 111 8 0 112 109 0 17 112 0 111 118 123 113 117 115 0 117 +18 1
13 9 0 112 0 119 114 ?100 29 114 10 0 113 120 0 -0.004225147760000001 -1.6256000
00000673e-007 -0.00200000108 16 115 11 0 ?112 0 121 116 0 0 100 31 116 12 0 115
 122 0 0 +-0.004500148480000001 -1.6256e-007 -0.00200000108 -0 0 1 1 -2.44929359
8294706e-016 0 0.00027500072 17 117 0 132 117 117 113 112 115 0 123 -17 118 0 11
1 124 112 119 123 121 0 124 +18 119 13 0 127 113 0 120 ?100 29 120 14 0 119 0 11
4 -0.004225147760000001 -1.625600000000673e-007 0.00120000014 16 121 15 0 ?118 1
15 125 122 0 0 100 30 122 16 0 121 126 116 0 +-0.004225147760000001 -1.625600000
000673e-007 -0.00200000108 0 0 1 17 123 0 111 112 124 113 118 121 0 0 -17 124 0
 111 123 118 119 127 125 0 0 -16 125 17 0 ?127 121 0 126 0 0 100 31 126 18 0 125
 0 122 0 +-0.004500148480000001 -1.6256e-007 0.00120000014 -0 0 1 1 -2.449293598
294706e-016 0 0.00027500072 17 127 0 137 127 127 119 124 125 0 118 +14 128 19 13
0 1e-008 133 109 132 108 129 +0 0 133 109 106 50 129 20 0 128 134 110 0 +-0.0042
25147760000001 -1.625600000000674e-007 -0.00200000108 0 0 -1 -1 2.44929359829470
6e-016 0 81 1 130 21 6 128 0 0 135 103 131 83 3 131 1 1 0.800000011920929 15 132
 22 0 117 128 0 14 133 23 135 1e-008 0 128 137 108 134 -0 0 0 128 106 50 134 24
 0 133 0 129 0 +-0.004225147760000001 -1.625600000000674e-007 0.00120000014 0 0
 -1 -1 2.449293598294706e-016 0 81 1 135 25 6 133 0 0 0 130 136 83 3 136 1 1 0.8
00000011920929 15 137 26 0 127 133 0 12 138 26 0 139 0 0 0 0 1000 1e-008 0 0 0 1
 0 1 1 146 148 154 152 143 153 151 70 139 0 138 0 0 4 1 20 0 140 140 1 T74 20 14
0 1 0 141 0 0 0 0 0 0 0 0 0 0 0 0 0 0 0 0 0 0 0 81 1 141 7 6 147 0 0 168 0 142 8
3 3 142 1 1 0.800000011920929 19 143 1 0 138 145 0 144 V13 144 2 0 138 0 0 0 0 1
43 147 19 145 3 0 138 0 143 146 S13 146 4 0 138 0 147 0 0 145 0 14 147 5 141 1e-
008 166 0 149 146 148 +0 0 166 0 144 51 148 6 0 147 167 0 0 +-0.0045001484800000
01 -1.6256e-007 0.00120000014 -1 2.449293598294706e-016 -6.123233995736766e-017
 0.00027500072 6.123233995736766e-017 -1.499759782661858e-032 -1 15 149 8 0 150
 147 0 17 150 0 149 156 161 151 155 153 0 155 +18 151 9 0 161 0 157 152 ?138 29
 152 10 0 151 158 0 -0.00450014848 -1.6256e-007 0.00092499942 16 153 11 0 ?150 0
 159 154 0 0 138 31 154 12 0 153 160 0 0 +-0.004500148480000001 -1.6256e-007 0.0
0120000014 1 -2.449293598294706e-016 6.123233995736766e-017 6.123233995736766e-0
17 -1.499759782661858e-032 -1 0.00027500072 17 155 0 170 155 155 151 150 153 0 0
 -17 156 0 149 162 150 157 161 159 0 165 +18 157 13 0 156 151 0 158 ?138 29 158
 14 0 157 0 152 -0.00315014864 -1.625600000003307e-007 0.00092499942 16 159 15 0
 ?156 153 163 160 0 0 138 30 160 16 0 159 164 154 0 +-0.00450014848 -1.6256e-007
 0.00092499942 1 -2.449293598294706e-016 6.123233995736766e-017 17 161 0 149 150
 162 151 156 159 0 150 -17 162 0 149 161 156 157 165 163 0 0 -16 163 17 0 ?165 1
59 0 164 0 0 138 31 164 18 0 163 0 160 0 +-0.00315014864 -1.625600000003307e-007
 0.00120000014 1 -2.449293598294706e-016 6.123233995736766e-017 6.12323399573676
6e-017 -1.499759782661858e-032 -1 0.00027500072 17 165 0 175 165 165 157 162 163
 0 162 +14 166 19 168 1e-008 171 147 170 146 167 +0 0 171 147 144 50 167 20 0 16
6 172 148 0 +-0.004500148480000001 -1.6256e-007 0.0009249994200000001 -1 2.44929
3598294706e-016 -6.123233995736766e-017 -6.123233995736766e-017 1.49975978266185
8e-032 1 81 1 168 21 6 166 0 0 173 141 169 83 3 169 1 1 0.800000011920929 15 170
 22 0 155 166 0 14 171 23 173 1e-008 0 166 175 146 172 -0 0 0 166 144 50 172 24
 0 171 0 167 0 +-0.00315014864 -1.625600000003307e-007 0.0009249994200000001 -1
 2.449293598294706e-016 -6.123233995736766e-017 -6.123233995736766e-017 1.499759
782661858e-032 1 81 1 173 25 6 171 0 0 0 168 174 83 3 174 1 1 0.800000011920929
 15 175 26 0 165 171 0 12 176 14 0 177 0 0 0 0 1000 1e-008 0 0 0 1 0 1 1 184 186
 192 190 181 191 189 70 177 0 176 0 0 4 1 20 0 178 178 1 T74 20 178 1 0 179 0 0
 0 0 0 0 0 0 0 0 0 0 0 0 0 0 0 0 0 81 1 179 7 6 185 0 0 0 0 180 83 3 180 1 1 0.8
00000011920929 19 181 1 0 176 183 0 182 V13 182 2 0 176 0 0 0 0 181 185 19 183 3
 0 176 0 181 184 S13 184 4 0 176 0 185 0 0 183 0 14 185 5 179 1e-008 0 0 187 184
 186 +0 0 0 0 182 53 186 6 0 185 0 0 0 +-0.00449995544 -2.286e-008 0.00120000014
 0.00027500072 0 0 1 1 -2.449293598294706e-016 0 15 187 8 0 188 185 0 17 188 0 1
87 193 193 189 193 191 0 0 -18 189 9 0 188 0 194 190 ?176 29 190 10 0 189 195 0
 -0.00449995544 -2.286e-008 0.00092499942 16 191 11 0 ?193 0 0 192 0 0 176 31 19
2 12 0 191 0 0 0 +-0.00449995544 -2.286e-008 0.00120000014 -2.449293598294706e-0
16 -1 0 1 -2.449293598294706e-016 0 0.00027500072 17 193 0 187 188 188 194 188 1
91 0 0 +18 194 13 0 193 189 0 195 ?176 29 195 14 0 194 0 190 -0.00449995544 -2.2
86e-008 0.00147500086 12 196 26 0 197 0 0 0 0 1000 1e-008 0 0 0 1 0 1 1 204 206
 212 210 201 211 209 70 197 0 196 0 0 4 1 20 0 198 198 1 T74 20 198 1 0 199 0 0
 0 0 0 0 0 0 0 0 0 0 0 0 0 0 0 0 0 81 1 199 7 6 205 0 0 226 0 200 83 3 200 0.250
980406999588 0.250980406999588 0.250980406999588 19 201 1 0 196 203 0 202 V13 20
2 2 0 196 0 0 0 0 201 205 19 203 3 0 196 0 201 204 S13 204 4 0 196 0 205 0 0 203
 0 14 205 5 199 1e-008 224 0 207 204 206 +0 0 224 0 202 51 206 6 0 205 225 0 0 +
-0.00314989464 -6.350000000000001e-008 0.00120000014 -1 6.123233995736766e-017 -
6.123233995736766e-017 0.00120000014 6.123233995736766e-017 1 0 15 207 8 0 208 2
05 0 17 208 0 207 214 219 209 213 211 0 213 +18 209 9 0 208 0 215 210 ?196 29 21
0 10 0 209 216 0 -0.00314989464 0.00119993664 0.00120000014 16 211 11 0 ?208 0 2
17 212 0 0 196 31 212 12 0 211 218 0 0 +-0.00314989464 -6.350000000000001e-008 0
.00120000014 1 -6.123233995736766e-017 6.123233995736766e-017 6.123233995736766e
-017 1 0 0.00120000014 17 213 0 228 213 213 209 208 211 0 219 -17 214 0 207 220
 208 215 219 217 0 223 +18 215 13 0 214 209 0 216 ?196 29 216 14 0 215 0 210 0.0
0315010546 0.00119993664 0.00120000014 16 217 15 0 ?214 211 221 218 0 0 196 30 2
18 16 0 217 222 212 0 +-0.00314989464 0.00119993664 0.00120000014 1 -6.123233995
736766e-017 6.123233995736766e-017 17 219 0 207 208 220 209 214 217 0 0 -17 220
 0 207 219 214 215 223 221 0 0 -16 221 17 0 ?223 217 0 222 0 0 196 31 222 18 0 2
21 0 218 0 +0.00315010546 -6.350000000038576e-008 0.00120000014 1 -6.12323399573
6766e-017 6.123233995736766e-017 6.123233995736766e-017 1 0 0.00120000014 17 223
 0 233 223 223 215 220 221 0 220 +14 224 19 226 1e-008 229 205 228 204 225 +0 0
 229 205 202 50 225 20 0 224 230 206 0 +-0.00314989464 0.00119993664 0.001200000
14 -1 6.123233995736766e-017 -6.123233995736766e-017 -6.123233995736766e-017 -1
 0 81 1 226 21 6 224 0 0 231 199 227 83 3 227 0.250980406999588 0.25098040699958
8 0.250980406999588 15 228 22 0 213 224 0 14 229 23 231 1e-008 0 224 233 204 230
 -0 0 0 224 202 50 230 24 0 229 0 225 0 +0.00315010546 0.00119993664 0.001200000
14 -1 6.123233995736766e-017 -6.123233995736766e-017 -6.123233995736766e-017 -1
 0 81 1 231 25 6 229 0 0 0 226 232 83 3 232 0.250980406999588 0.250980406999588
 0.250980406999588 15 233 26 0 223 229 0 1 0 
