G04*
G04 #@! TF.GenerationSoftware,Altium Limited,Altium Designer,21.9.1 (22)*
G04*
G04 Layer_Physical_Order=1*
G04 Layer_Color=255*
%FSLAX25Y25*%
%MOIN*%
G70*
G04*
G04 #@! TF.SameCoordinates,84066233-43AA-439E-81B8-E0E343A60AEF*
G04*
G04*
G04 #@! TF.FilePolarity,Positive*
G04*
G01*
G75*
%ADD20R,0.07284X0.07284*%
%ADD21C,0.07284*%
%ADD22C,0.07874*%
%ADD29R,0.04724X0.04724*%
%ADD30C,0.04724*%
%ADD38C,0.02000*%
%ADD39C,0.01200*%
%ADD40C,0.05000*%
%ADD41C,0.02500*%
%ADD42C,0.06496*%
%ADD43R,0.06496X0.06496*%
%ADD44R,0.60000X0.45000*%
%ADD45C,0.25000*%
%ADD46C,0.06299*%
%ADD47R,0.06299X0.06299*%
%ADD48R,0.06102X0.06102*%
%ADD49C,0.06102*%
%ADD50C,0.05315*%
%ADD51R,0.05315X0.05315*%
%ADD52R,0.05315X0.05315*%
%ADD53C,0.05150*%
%ADD54C,0.05512*%
%ADD55R,0.05512X0.05512*%
%ADD56R,0.07323X0.07323*%
%ADD57C,0.07323*%
%ADD58C,0.10925*%
G36*
X336706Y116561D02*
X336206Y116482D01*
X336011Y117082D01*
X335046Y118975D01*
X333797Y120695D01*
X332295Y122197D01*
X330575Y123446D01*
X328682Y124411D01*
X326661Y125068D01*
X324563Y125400D01*
X324000D01*
Y111900D01*
Y98400D01*
X324563D01*
X326661Y98732D01*
X328682Y99389D01*
X330575Y100354D01*
X332295Y101603D01*
X333797Y103105D01*
X335046Y104824D01*
X336011Y106718D01*
X336206Y107318D01*
X336706Y107239D01*
Y26061D01*
X336206Y25982D01*
X336011Y26582D01*
X335046Y28475D01*
X333797Y30195D01*
X332295Y31697D01*
X330575Y32946D01*
X328682Y33911D01*
X326661Y34568D01*
X324563Y34900D01*
X324000D01*
Y21400D01*
Y7900D01*
X324563D01*
X326661Y8232D01*
X328682Y8889D01*
X330575Y9854D01*
X332295Y11103D01*
X333797Y12605D01*
X335046Y14324D01*
X336011Y16218D01*
X336206Y16818D01*
X336706Y16739D01*
Y4294D01*
X42294D01*
Y127706D01*
X172008D01*
X172057Y127206D01*
X171622Y127120D01*
X170878Y126622D01*
X165749Y121493D01*
X165533Y121551D01*
X164467D01*
X163436Y121275D01*
X162513Y120742D01*
X161758Y119987D01*
X161225Y119064D01*
X160949Y118033D01*
Y116967D01*
X161225Y115936D01*
X161758Y115013D01*
X162513Y114258D01*
X163436Y113725D01*
X164467Y113449D01*
X165533D01*
X166564Y113725D01*
X167488Y114258D01*
X168242Y115013D01*
X168775Y115936D01*
X169051Y116967D01*
Y118033D01*
X168993Y118249D01*
X170487Y119743D01*
X170949Y119551D01*
Y118000D01*
X174500D01*
Y121551D01*
X172949D01*
X172757Y122013D01*
X173450Y122706D01*
X203808D01*
X204000Y122244D01*
X203249Y121493D01*
X203033Y121551D01*
X201967D01*
X200936Y121275D01*
X200012Y120742D01*
X199258Y119987D01*
X198725Y119064D01*
X198449Y118033D01*
Y116967D01*
X198725Y115936D01*
X199258Y115013D01*
X200012Y114258D01*
X200936Y113725D01*
X201967Y113449D01*
X203033D01*
X204064Y113725D01*
X204988Y114258D01*
X205742Y115013D01*
X206275Y115936D01*
X206551Y116967D01*
Y118033D01*
X206493Y118249D01*
X207987Y119743D01*
X208449Y119551D01*
Y118000D01*
X212000D01*
Y121551D01*
X210449D01*
X210257Y122013D01*
X210950Y122706D01*
X240334D01*
X240525Y122244D01*
X239832Y121551D01*
X239467D01*
X238436Y121275D01*
X237512Y120742D01*
X236758Y119987D01*
X236225Y119064D01*
X235949Y118033D01*
Y116967D01*
X236225Y115936D01*
X236758Y115013D01*
X237512Y114258D01*
X238436Y113725D01*
X239467Y113449D01*
X240533D01*
X241564Y113725D01*
X242488Y114258D01*
X243242Y115013D01*
X243775Y115936D01*
X244051Y116967D01*
Y118033D01*
X243787Y119018D01*
X245449Y120679D01*
X245949Y120472D01*
Y118000D01*
X249500D01*
Y121551D01*
X246913D01*
X246722Y122013D01*
X247415Y122706D01*
X302585D01*
X305206Y120085D01*
Y90000D01*
X305381Y89122D01*
X305878Y88378D01*
X315206Y79050D01*
Y60950D01*
X305333Y51078D01*
X291378D01*
X290746Y51710D01*
X289912Y52192D01*
X288982Y52441D01*
X288087D01*
X284701Y55827D01*
X283957Y56324D01*
X283079Y56499D01*
X259762D01*
X259195Y57065D01*
X258380Y57536D01*
X257471Y57780D01*
X256529D01*
X255620Y57536D01*
X254805Y57065D01*
X254139Y56400D01*
X253669Y55585D01*
X253425Y54675D01*
Y54591D01*
X241128Y42294D01*
X155450D01*
X142492Y55253D01*
X142661Y55886D01*
Y57114D01*
X142344Y58299D01*
X141730Y59362D01*
X140862Y60230D01*
X139799Y60844D01*
X138614Y61161D01*
X137386D01*
X136201Y60844D01*
X135138Y60230D01*
X134270Y59362D01*
X133942Y58794D01*
X123793D01*
X119362Y63225D01*
Y63785D01*
X119133Y64640D01*
X118690Y65407D01*
X118064Y66033D01*
X117298Y66476D01*
X116443Y66705D01*
X115557D01*
X114702Y66476D01*
X113936Y66033D01*
X113310Y65407D01*
X112867Y64640D01*
X112638Y63785D01*
Y62900D01*
X112867Y62045D01*
X113310Y61278D01*
X113936Y60652D01*
X114702Y60210D01*
X115557Y59980D01*
X116118D01*
X121220Y54878D01*
X121965Y54381D01*
X122843Y54206D01*
X133942D01*
X134270Y53638D01*
X135138Y52770D01*
X136201Y52156D01*
X137386Y51839D01*
X138614D01*
X139247Y52008D01*
X152878Y38378D01*
X153622Y37881D01*
X154500Y37706D01*
X242078D01*
X242956Y37881D01*
X243701Y38378D01*
X256074Y50752D01*
X256529Y50630D01*
X257471D01*
X258380Y50874D01*
X259195Y51344D01*
X259762Y51911D01*
X282129D01*
X284842Y49197D01*
Y48302D01*
X285092Y47372D01*
X285573Y46538D01*
X286206Y45905D01*
Y35683D01*
X285398Y35467D01*
X284452Y34920D01*
X283680Y34148D01*
X283133Y33202D01*
X282850Y32146D01*
Y31054D01*
X283133Y29998D01*
X283680Y29052D01*
X284452Y28280D01*
X285398Y27733D01*
X286454Y27450D01*
X287546D01*
X288602Y27733D01*
X289548Y28280D01*
X290320Y29052D01*
X290867Y29998D01*
X291150Y31054D01*
Y32146D01*
X290867Y33202D01*
X290676Y33533D01*
X290794Y34128D01*
Y45905D01*
X291378Y46489D01*
X306283D01*
X307161Y46664D01*
X307906Y47161D01*
X319122Y58378D01*
X319619Y59122D01*
X319794Y60000D01*
Y80000D01*
X319619Y80878D01*
X319122Y81622D01*
X309794Y90950D01*
Y108941D01*
X310294Y108981D01*
X310332Y108739D01*
X310989Y106718D01*
X311954Y104824D01*
X313203Y103105D01*
X314705Y101603D01*
X316424Y100354D01*
X318318Y99389D01*
X320339Y98732D01*
X322438Y98400D01*
X323000D01*
Y111900D01*
Y125400D01*
X322438D01*
X320339Y125068D01*
X318318Y124411D01*
X316424Y123446D01*
X314705Y122197D01*
X313203Y120695D01*
X311954Y118975D01*
X310989Y117082D01*
X310332Y115061D01*
X310294Y114819D01*
X309794Y114858D01*
Y121036D01*
X309619Y121913D01*
X309122Y122658D01*
X305158Y126622D01*
X304413Y127120D01*
X303979Y127206D01*
X304028Y127706D01*
X336706D01*
Y116561D01*
D02*
G37*
%LPC*%
G36*
X179051Y121551D02*
X175500D01*
Y118000D01*
X179051D01*
Y121551D01*
D02*
G37*
G36*
X287546Y121650D02*
X287500D01*
Y118000D01*
X291150D01*
Y118046D01*
X290867Y119102D01*
X290320Y120048D01*
X289548Y120820D01*
X288602Y121367D01*
X287546Y121650D01*
D02*
G37*
G36*
X216551Y121551D02*
X213000D01*
Y118000D01*
X216551D01*
Y121551D01*
D02*
G37*
G36*
X254051D02*
X250500D01*
Y118000D01*
X254051D01*
Y121551D01*
D02*
G37*
G36*
X118046Y121650D02*
X118000D01*
Y118000D01*
X121650D01*
Y118046D01*
X121367Y119102D01*
X120820Y120048D01*
X120048Y120820D01*
X119102Y121367D01*
X118046Y121650D01*
D02*
G37*
G36*
X117000D02*
X116954D01*
X115898Y121367D01*
X114952Y120820D01*
X114180Y120048D01*
X113633Y119102D01*
X113350Y118046D01*
Y118000D01*
X117000D01*
Y121650D01*
D02*
G37*
G36*
X286500D02*
X286454D01*
X285398Y121367D01*
X284452Y120820D01*
X283680Y120048D01*
X283133Y119102D01*
X282850Y118046D01*
Y117610D01*
X282388Y117419D01*
X281954Y117854D01*
X281424Y118207D01*
X281089Y118274D01*
X280867Y119102D01*
X280321Y120048D01*
X279548Y120820D01*
X278602Y121367D01*
X277546Y121650D01*
X276454D01*
X275398Y121367D01*
X274452Y120820D01*
X273679Y120048D01*
X273133Y119102D01*
X272850Y118046D01*
Y116954D01*
X273133Y115898D01*
X273679Y114952D01*
X274452Y114180D01*
X275398Y113633D01*
X276454Y113350D01*
X277546D01*
X278602Y113633D01*
X279548Y114180D01*
X280281Y114912D01*
X289423Y105770D01*
X289116Y105370D01*
X288602Y105667D01*
X287546Y105950D01*
X286454D01*
X285431Y105676D01*
X279954Y111153D01*
X279424Y111507D01*
X278800Y111631D01*
X275176D01*
X270876Y115931D01*
X271150Y116954D01*
Y118046D01*
X270867Y119102D01*
X270321Y120048D01*
X269548Y120820D01*
X268602Y121367D01*
X267546Y121650D01*
X266454D01*
X265398Y121367D01*
X264452Y120820D01*
X263680Y120048D01*
X263133Y119102D01*
X262850Y118046D01*
Y116954D01*
X263133Y115898D01*
X263680Y114952D01*
X264452Y114180D01*
X265398Y113633D01*
X266454Y113350D01*
X267546D01*
X268569Y113624D01*
X273346Y108846D01*
X273876Y108493D01*
X274500Y108369D01*
X278124D01*
X283124Y103369D01*
X282850Y102346D01*
Y101254D01*
X283133Y100198D01*
X283680Y99252D01*
X284452Y98479D01*
X285398Y97933D01*
X286454Y97650D01*
X287546D01*
X288602Y97933D01*
X289548Y98479D01*
X290320Y99252D01*
X290867Y100198D01*
X291150Y101254D01*
Y102346D01*
X290867Y103402D01*
X290570Y103916D01*
X290970Y104223D01*
X291997Y103196D01*
X292526Y102842D01*
X292850Y102778D01*
Y97650D01*
X301150D01*
Y105950D01*
X294608D01*
X294450Y105981D01*
X293826D01*
X286919Y112889D01*
X287110Y113350D01*
X287546D01*
X288602Y113633D01*
X289548Y114180D01*
X290320Y114952D01*
X290867Y115898D01*
X291150Y116954D01*
Y117000D01*
X287000D01*
Y117500D01*
X286500D01*
Y121650D01*
D02*
G37*
G36*
X254051Y117000D02*
X250500D01*
Y113449D01*
X254051D01*
Y117000D01*
D02*
G37*
G36*
X249500D02*
X245949D01*
Y113449D01*
X249500D01*
Y117000D01*
D02*
G37*
G36*
X216551D02*
X213000D01*
Y113449D01*
X216551D01*
Y117000D01*
D02*
G37*
G36*
X212000D02*
X208449D01*
Y113449D01*
X212000D01*
Y117000D01*
D02*
G37*
G36*
X179051D02*
X175500D01*
Y113449D01*
X179051D01*
Y117000D01*
D02*
G37*
G36*
X174500D02*
X170949D01*
Y113449D01*
X174500D01*
Y117000D01*
D02*
G37*
G36*
X301150Y121650D02*
X292850D01*
Y113350D01*
X301150D01*
Y121650D01*
D02*
G37*
G36*
X121650Y117000D02*
X118000D01*
Y113350D01*
X118046D01*
X119102Y113633D01*
X120048Y114180D01*
X120820Y114952D01*
X121367Y115898D01*
X121650Y116954D01*
Y117000D01*
D02*
G37*
G36*
X117000D02*
X113350D01*
Y116954D01*
X113633Y115898D01*
X114180Y114952D01*
X114952Y114180D01*
X115898Y113633D01*
X116954Y113350D01*
X117000D01*
Y117000D01*
D02*
G37*
G36*
X111650Y121650D02*
X103350D01*
Y113350D01*
X111650D01*
Y121650D01*
D02*
G37*
G36*
X84363Y125400D02*
X83800D01*
Y112400D01*
X96800D01*
Y112962D01*
X96468Y115061D01*
X95811Y117082D01*
X94846Y118975D01*
X93597Y120695D01*
X92095Y122197D01*
X90376Y123446D01*
X88482Y124411D01*
X86461Y125068D01*
X84363Y125400D01*
D02*
G37*
G36*
X82800D02*
X82237D01*
X80139Y125068D01*
X78118Y124411D01*
X76224Y123446D01*
X74505Y122197D01*
X73003Y120695D01*
X71754Y118975D01*
X70789Y117082D01*
X70132Y115061D01*
X69800Y112962D01*
Y112400D01*
X82800D01*
Y125400D01*
D02*
G37*
G36*
X277546Y105950D02*
X277500D01*
Y102300D01*
X281150D01*
Y102346D01*
X280867Y103402D01*
X280321Y104348D01*
X279548Y105121D01*
X278602Y105667D01*
X277546Y105950D01*
D02*
G37*
G36*
X177546D02*
X177500D01*
Y102300D01*
X181150D01*
Y102346D01*
X180867Y103402D01*
X180321Y104348D01*
X179548Y105121D01*
X178602Y105667D01*
X177546Y105950D01*
D02*
G37*
G36*
X127546D02*
X127500D01*
Y102300D01*
X131150D01*
Y102346D01*
X130867Y103402D01*
X130321Y104348D01*
X129548Y105121D01*
X128602Y105667D01*
X127546Y105950D01*
D02*
G37*
G36*
X227546D02*
X227500D01*
Y102300D01*
X231150D01*
Y102346D01*
X230867Y103402D01*
X230321Y104348D01*
X229548Y105121D01*
X228602Y105667D01*
X227546Y105950D01*
D02*
G37*
G36*
X126500D02*
X126454D01*
X125398Y105667D01*
X124452Y105121D01*
X123679Y104348D01*
X123133Y103402D01*
X122850Y102346D01*
Y102300D01*
X126500D01*
Y105950D01*
D02*
G37*
G36*
X276500D02*
X276454D01*
X275398Y105667D01*
X274452Y105121D01*
X273679Y104348D01*
X273133Y103402D01*
X272850Y102346D01*
Y102300D01*
X276500D01*
Y105950D01*
D02*
G37*
G36*
X176500D02*
X176454D01*
X175398Y105667D01*
X174452Y105121D01*
X173679Y104348D01*
X173133Y103402D01*
X172850Y102346D01*
Y102300D01*
X176500D01*
Y105950D01*
D02*
G37*
G36*
X226500D02*
X226454D01*
X225398Y105667D01*
X224452Y105121D01*
X223679Y104348D01*
X223133Y103402D01*
X222850Y102346D01*
Y102300D01*
X226500D01*
Y105950D01*
D02*
G37*
G36*
X96800Y111400D02*
X83800D01*
Y98400D01*
X84363D01*
X86461Y98732D01*
X88482Y99389D01*
X90376Y100354D01*
X92095Y101603D01*
X93597Y103105D01*
X94846Y104824D01*
X95811Y106718D01*
X96468Y108739D01*
X96800Y110837D01*
Y111400D01*
D02*
G37*
G36*
X82800D02*
X69800D01*
Y110837D01*
X70132Y108739D01*
X70789Y106718D01*
X71754Y104824D01*
X73003Y103105D01*
X74505Y101603D01*
X76224Y100354D01*
X78118Y99389D01*
X80139Y98732D01*
X82237Y98400D01*
X82800D01*
Y111400D01*
D02*
G37*
G36*
X281150Y101300D02*
X277500D01*
Y97650D01*
X277546D01*
X278602Y97933D01*
X279548Y98479D01*
X280321Y99252D01*
X280867Y100198D01*
X281150Y101254D01*
Y101300D01*
D02*
G37*
G36*
X276500D02*
X272850D01*
Y101254D01*
X273133Y100198D01*
X273679Y99252D01*
X274452Y98479D01*
X275398Y97933D01*
X276454Y97650D01*
X276500D01*
Y101300D01*
D02*
G37*
G36*
X267546Y105950D02*
X266454D01*
X265398Y105667D01*
X264452Y105121D01*
X263680Y104348D01*
X263133Y103402D01*
X262850Y102346D01*
Y101254D01*
X263133Y100198D01*
X263680Y99252D01*
X264452Y98479D01*
X265398Y97933D01*
X266454Y97650D01*
X267546D01*
X268602Y97933D01*
X269548Y98479D01*
X270321Y99252D01*
X270867Y100198D01*
X271150Y101254D01*
Y102346D01*
X270867Y103402D01*
X270321Y104348D01*
X269548Y105121D01*
X268602Y105667D01*
X267546Y105950D01*
D02*
G37*
G36*
X257546D02*
X256454D01*
X255398Y105667D01*
X254452Y105121D01*
X253679Y104348D01*
X253133Y103402D01*
X252850Y102346D01*
Y101254D01*
X253133Y100198D01*
X253679Y99252D01*
X254452Y98479D01*
X255398Y97933D01*
X256454Y97650D01*
X257546D01*
X258602Y97933D01*
X259548Y98479D01*
X260320Y99252D01*
X260867Y100198D01*
X261150Y101254D01*
Y102346D01*
X260867Y103402D01*
X260320Y104348D01*
X259548Y105121D01*
X258602Y105667D01*
X257546Y105950D01*
D02*
G37*
G36*
X230533Y121551D02*
X229467D01*
X228436Y121275D01*
X227513Y120742D01*
X226758Y119987D01*
X226225Y119064D01*
X225949Y118033D01*
Y116967D01*
X226225Y115936D01*
X226758Y115013D01*
X227513Y114258D01*
X228436Y113725D01*
X229467Y113449D01*
X230533D01*
X231564Y113725D01*
X231915Y113928D01*
X242987Y102856D01*
X242850Y102346D01*
Y101254D01*
X243133Y100198D01*
X243679Y99252D01*
X244452Y98479D01*
X245398Y97933D01*
X246454Y97650D01*
X247546D01*
X248602Y97933D01*
X249548Y98479D01*
X250321Y99252D01*
X250867Y100198D01*
X251150Y101254D01*
Y102346D01*
X250867Y103402D01*
X250321Y104348D01*
X249548Y105121D01*
X248602Y105667D01*
X247546Y105950D01*
X246454D01*
X245398Y105667D01*
X245013Y105444D01*
X233933Y116524D01*
X234051Y116967D01*
Y118033D01*
X233775Y119064D01*
X233242Y119987D01*
X232488Y120742D01*
X231564Y121275D01*
X230533Y121551D01*
D02*
G37*
G36*
X237546Y105950D02*
X236454D01*
X235398Y105667D01*
X234452Y105121D01*
X233680Y104348D01*
X233133Y103402D01*
X232850Y102346D01*
Y101254D01*
X233133Y100198D01*
X233680Y99252D01*
X234452Y98479D01*
X235398Y97933D01*
X236454Y97650D01*
X237546D01*
X238602Y97933D01*
X239548Y98479D01*
X240320Y99252D01*
X240867Y100198D01*
X241150Y101254D01*
Y102346D01*
X240867Y103402D01*
X240320Y104348D01*
X239548Y105121D01*
X238602Y105667D01*
X237546Y105950D01*
D02*
G37*
G36*
X231150Y101300D02*
X227500D01*
Y97650D01*
X227546D01*
X228602Y97933D01*
X229548Y98479D01*
X230321Y99252D01*
X230867Y100198D01*
X231150Y101254D01*
Y101300D01*
D02*
G37*
G36*
X226500D02*
X222850D01*
Y101254D01*
X223133Y100198D01*
X223679Y99252D01*
X224452Y98479D01*
X225398Y97933D01*
X226454Y97650D01*
X226500D01*
Y101300D01*
D02*
G37*
G36*
X217546Y105950D02*
X216454D01*
X215398Y105667D01*
X214452Y105121D01*
X213680Y104348D01*
X213133Y103402D01*
X212850Y102346D01*
Y101254D01*
X213133Y100198D01*
X213680Y99252D01*
X214452Y98479D01*
X215398Y97933D01*
X216454Y97650D01*
X217546D01*
X218602Y97933D01*
X219548Y98479D01*
X220321Y99252D01*
X220867Y100198D01*
X221150Y101254D01*
Y102346D01*
X220867Y103402D01*
X220321Y104348D01*
X219548Y105121D01*
X218602Y105667D01*
X217546Y105950D01*
D02*
G37*
G36*
X207546D02*
X206454D01*
X205398Y105667D01*
X204452Y105121D01*
X203679Y104348D01*
X203133Y103402D01*
X202850Y102346D01*
Y101254D01*
X203133Y100198D01*
X203679Y99252D01*
X204452Y98479D01*
X205398Y97933D01*
X206454Y97650D01*
X207546D01*
X208602Y97933D01*
X209548Y98479D01*
X210320Y99252D01*
X210867Y100198D01*
X211150Y101254D01*
Y102346D01*
X210867Y103402D01*
X210320Y104348D01*
X209548Y105121D01*
X208602Y105667D01*
X207546Y105950D01*
D02*
G37*
G36*
X193033Y121551D02*
X191967D01*
X190936Y121275D01*
X190013Y120742D01*
X189258Y119987D01*
X188725Y119064D01*
X188449Y118033D01*
Y116967D01*
X188725Y115936D01*
X189258Y115013D01*
X190013Y114258D01*
X190869Y113764D01*
Y106300D01*
X190993Y105676D01*
X191347Y105147D01*
X193124Y103369D01*
X192850Y102346D01*
Y101254D01*
X193133Y100198D01*
X193679Y99252D01*
X194452Y98479D01*
X195398Y97933D01*
X196454Y97650D01*
X197546D01*
X198602Y97933D01*
X199548Y98479D01*
X200321Y99252D01*
X200867Y100198D01*
X201150Y101254D01*
Y102346D01*
X200867Y103402D01*
X200321Y104348D01*
X199548Y105121D01*
X198602Y105667D01*
X197546Y105950D01*
X196454D01*
X195431Y105676D01*
X194131Y106976D01*
Y113764D01*
X194987Y114258D01*
X195742Y115013D01*
X196275Y115936D01*
X196551Y116967D01*
Y118033D01*
X196275Y119064D01*
X195742Y119987D01*
X194987Y120742D01*
X194064Y121275D01*
X193033Y121551D01*
D02*
G37*
G36*
X187546Y105950D02*
X186454D01*
X185398Y105667D01*
X184452Y105121D01*
X183679Y104348D01*
X183133Y103402D01*
X182850Y102346D01*
Y101254D01*
X183133Y100198D01*
X183679Y99252D01*
X184452Y98479D01*
X185398Y97933D01*
X186454Y97650D01*
X187546D01*
X188602Y97933D01*
X189548Y98479D01*
X190321Y99252D01*
X190867Y100198D01*
X191150Y101254D01*
Y102346D01*
X190867Y103402D01*
X190321Y104348D01*
X189548Y105121D01*
X188602Y105667D01*
X187546Y105950D01*
D02*
G37*
G36*
X181150Y101300D02*
X177500D01*
Y97650D01*
X177546D01*
X178602Y97933D01*
X179548Y98479D01*
X180321Y99252D01*
X180867Y100198D01*
X181150Y101254D01*
Y101300D01*
D02*
G37*
G36*
X176500D02*
X172850D01*
Y101254D01*
X173133Y100198D01*
X173679Y99252D01*
X174452Y98479D01*
X175398Y97933D01*
X176454Y97650D01*
X176500D01*
Y101300D01*
D02*
G37*
G36*
X155533Y121551D02*
X154467D01*
X153436Y121275D01*
X152513Y120742D01*
X151758Y119987D01*
X151225Y119064D01*
X150949Y118033D01*
Y116967D01*
X151225Y115936D01*
X151758Y115013D01*
X152513Y114258D01*
X153436Y113725D01*
X154307Y113492D01*
Y112862D01*
X154431Y112238D01*
X154785Y111708D01*
X163124Y103369D01*
X162850Y102346D01*
Y101254D01*
X163133Y100198D01*
X163680Y99252D01*
X164452Y98479D01*
X165398Y97933D01*
X166454Y97650D01*
X167546D01*
X168602Y97933D01*
X169548Y98479D01*
X170320Y99252D01*
X170867Y100198D01*
X171150Y101254D01*
Y102346D01*
X170867Y103402D01*
X170320Y104348D01*
X169548Y105121D01*
X168602Y105667D01*
X167546Y105950D01*
X166454D01*
X165431Y105676D01*
X157569Y113538D01*
Y114340D01*
X158242Y115013D01*
X158775Y115936D01*
X159051Y116967D01*
Y118033D01*
X158775Y119064D01*
X158242Y119987D01*
X157487Y120742D01*
X156564Y121275D01*
X155533Y121551D01*
D02*
G37*
G36*
X157546Y105950D02*
X156454D01*
X155398Y105667D01*
X154452Y105121D01*
X153680Y104348D01*
X153133Y103402D01*
X152850Y102346D01*
Y101254D01*
X153133Y100198D01*
X153680Y99252D01*
X154452Y98479D01*
X155398Y97933D01*
X156454Y97650D01*
X157546D01*
X158602Y97933D01*
X159548Y98479D01*
X160320Y99252D01*
X160867Y100198D01*
X161150Y101254D01*
Y102346D01*
X160867Y103402D01*
X160320Y104348D01*
X159548Y105121D01*
X158602Y105667D01*
X157546Y105950D01*
D02*
G37*
G36*
X138046Y121650D02*
X136954D01*
X135898Y121367D01*
X134952Y120820D01*
X134179Y120048D01*
X133633Y119102D01*
X133350Y118046D01*
Y116954D01*
X133633Y115898D01*
X134179Y114952D01*
X134952Y114180D01*
X135869Y113650D01*
Y111300D01*
X135993Y110676D01*
X136346Y110146D01*
X143124Y103369D01*
X142850Y102346D01*
Y101254D01*
X143133Y100198D01*
X143679Y99252D01*
X144452Y98479D01*
X145398Y97933D01*
X146454Y97650D01*
X147546D01*
X148602Y97933D01*
X149548Y98479D01*
X150320Y99252D01*
X150867Y100198D01*
X151150Y101254D01*
Y102346D01*
X150867Y103402D01*
X150320Y104348D01*
X149548Y105121D01*
X148602Y105667D01*
X147546Y105950D01*
X146454D01*
X145431Y105676D01*
X139131Y111976D01*
Y113650D01*
X140048Y114180D01*
X140821Y114952D01*
X141367Y115898D01*
X141650Y116954D01*
Y118046D01*
X141367Y119102D01*
X140821Y120048D01*
X140048Y120820D01*
X139102Y121367D01*
X138046Y121650D01*
D02*
G37*
G36*
X128046D02*
X126954D01*
X125898Y121367D01*
X124952Y120820D01*
X124179Y120048D01*
X123633Y119102D01*
X123350Y118046D01*
Y116954D01*
X123633Y115898D01*
X124179Y114952D01*
X124952Y114180D01*
X125869Y113650D01*
Y111300D01*
X125993Y110676D01*
X126347Y110146D01*
X133124Y103369D01*
X132850Y102346D01*
Y101254D01*
X133133Y100198D01*
X133679Y99252D01*
X134452Y98479D01*
X135398Y97933D01*
X136454Y97650D01*
X137546D01*
X138602Y97933D01*
X139548Y98479D01*
X140321Y99252D01*
X140867Y100198D01*
X141150Y101254D01*
Y102346D01*
X140867Y103402D01*
X140321Y104348D01*
X139548Y105121D01*
X138602Y105667D01*
X137546Y105950D01*
X136454D01*
X135431Y105676D01*
X129131Y111976D01*
Y113650D01*
X130048Y114180D01*
X130821Y114952D01*
X131367Y115898D01*
X131650Y116954D01*
Y118046D01*
X131367Y119102D01*
X130821Y120048D01*
X130048Y120820D01*
X129102Y121367D01*
X128046Y121650D01*
D02*
G37*
G36*
X131150Y101300D02*
X127500D01*
Y97650D01*
X127546D01*
X128602Y97933D01*
X129548Y98479D01*
X130321Y99252D01*
X130867Y100198D01*
X131150Y101254D01*
Y101300D01*
D02*
G37*
G36*
X126500D02*
X122850D01*
Y101254D01*
X123133Y100198D01*
X123679Y99252D01*
X124452Y98479D01*
X125398Y97933D01*
X126454Y97650D01*
X126500D01*
Y101300D01*
D02*
G37*
G36*
X117546Y105950D02*
X116454D01*
X115398Y105667D01*
X114452Y105121D01*
X113680Y104348D01*
X113133Y103402D01*
X112850Y102346D01*
Y101254D01*
X113133Y100198D01*
X113680Y99252D01*
X114452Y98479D01*
X115398Y97933D01*
X116454Y97650D01*
X117546D01*
X118602Y97933D01*
X119548Y98479D01*
X120320Y99252D01*
X120867Y100198D01*
X121150Y101254D01*
Y102346D01*
X120867Y103402D01*
X120320Y104348D01*
X119548Y105121D01*
X118602Y105667D01*
X117546Y105950D01*
D02*
G37*
G36*
X107546D02*
X106454D01*
X105398Y105667D01*
X104452Y105121D01*
X103680Y104348D01*
X103133Y103402D01*
X102850Y102346D01*
Y101254D01*
X103133Y100198D01*
X103680Y99252D01*
X104452Y98479D01*
X105398Y97933D01*
X106454Y97650D01*
X107546D01*
X108602Y97933D01*
X109548Y98479D01*
X110320Y99252D01*
X110867Y100198D01*
X111150Y101254D01*
Y102346D01*
X110867Y103402D01*
X110320Y104348D01*
X109548Y105121D01*
X108602Y105667D01*
X107546Y105950D01*
D02*
G37*
G36*
X72559Y95248D02*
X72500D01*
Y91500D01*
X76248D01*
Y91559D01*
X75959Y92640D01*
X75399Y93608D01*
X74608Y94399D01*
X73640Y94959D01*
X72559Y95248D01*
D02*
G37*
G36*
X71500D02*
X71441D01*
X70360Y94959D01*
X69392Y94399D01*
X68601Y93608D01*
X68041Y92640D01*
X67752Y91559D01*
Y91500D01*
X71500D01*
Y95248D01*
D02*
G37*
G36*
X76248Y90500D02*
X72500D01*
Y86752D01*
X72559D01*
X73640Y87041D01*
X74608Y87601D01*
X75399Y88392D01*
X75959Y89360D01*
X76248Y90441D01*
Y90500D01*
D02*
G37*
G36*
X71500D02*
X67752D01*
Y90441D01*
X68041Y89360D01*
X68601Y88392D01*
X69392Y87601D01*
X70360Y87041D01*
X71441Y86752D01*
X71500D01*
Y90500D01*
D02*
G37*
G36*
X288982Y87874D02*
X288018D01*
X287088Y87625D01*
X286254Y87143D01*
X285573Y86462D01*
X285092Y85628D01*
X284842Y84698D01*
Y84022D01*
X282909Y82089D01*
X259762D01*
X259195Y82656D01*
X258380Y83126D01*
X257471Y83370D01*
X256529D01*
X255620Y83126D01*
X254805Y82656D01*
X254139Y81990D01*
X253669Y81175D01*
X253425Y80266D01*
Y79325D01*
X253669Y78416D01*
X254139Y77600D01*
X254805Y76935D01*
X255620Y76464D01*
X256529Y76221D01*
X257471D01*
X258380Y76464D01*
X259195Y76935D01*
X259762Y77501D01*
X283860D01*
X284738Y77676D01*
X285482Y78173D01*
X287900Y80591D01*
X288018Y80559D01*
X288982D01*
X289912Y80808D01*
X290746Y81290D01*
X291378Y81923D01*
X302333D01*
X307706Y76550D01*
Y66710D01*
X301015Y60020D01*
X296748D01*
Y52508D01*
X304260D01*
Y56775D01*
X311622Y64138D01*
X312120Y64882D01*
X312294Y65760D01*
Y77500D01*
X312120Y78378D01*
X311622Y79122D01*
X304906Y85839D01*
X304161Y86336D01*
X303284Y86511D01*
X291378D01*
X290746Y87143D01*
X289912Y87625D01*
X288982Y87874D01*
D02*
G37*
G36*
X96136Y91470D02*
X94863D01*
X93615Y91222D01*
X92439Y90735D01*
X91380Y90028D01*
X90480Y89127D01*
X89773Y88069D01*
X89286Y86893D01*
X89037Y85644D01*
Y84371D01*
X89176Y83676D01*
X80345Y74845D01*
X76248D01*
Y75563D01*
X67752D01*
Y67067D01*
X76248D01*
Y67785D01*
X81807D01*
X82721Y67905D01*
X83572Y68258D01*
X84303Y68819D01*
X94168Y78684D01*
X94863Y78545D01*
X96136D01*
X97385Y78794D01*
X98561Y79281D01*
X99620Y79988D01*
X100520Y80888D01*
X101227Y81947D01*
X101714Y83123D01*
X101963Y84371D01*
Y85644D01*
X101714Y86893D01*
X101227Y88069D01*
X100520Y89127D01*
X99620Y90028D01*
X98561Y90735D01*
X97385Y91222D01*
X96136Y91470D01*
D02*
G37*
G36*
X301004Y80491D02*
Y77236D01*
X304258D01*
X304004Y78186D01*
X303509Y79042D01*
X302810Y79742D01*
X301954Y80236D01*
X301004Y80491D01*
D02*
G37*
G36*
X300004D02*
X299054Y80236D01*
X298198Y79742D01*
X297498Y79042D01*
X297004Y78186D01*
X296749Y77236D01*
X300004D01*
Y80491D01*
D02*
G37*
G36*
X72559Y85405D02*
X71441D01*
X70360Y85116D01*
X69392Y84557D01*
X68601Y83766D01*
X68041Y82797D01*
X67752Y81717D01*
Y80598D01*
X68041Y79518D01*
X68601Y78549D01*
X69392Y77758D01*
X70360Y77199D01*
X71441Y76910D01*
X72559D01*
X73640Y77199D01*
X74608Y77758D01*
X75399Y78549D01*
X75959Y79518D01*
X76248Y80598D01*
Y81717D01*
X75959Y82797D01*
X75399Y83766D01*
X74608Y84557D01*
X73640Y85116D01*
X72559Y85405D01*
D02*
G37*
G36*
X304258Y76236D02*
X301004D01*
Y72982D01*
X301954Y73236D01*
X302810Y73731D01*
X303509Y74430D01*
X304004Y75287D01*
X304258Y76236D01*
D02*
G37*
G36*
X300004D02*
X296749D01*
X297004Y75287D01*
X297498Y74430D01*
X298198Y73731D01*
X299054Y73236D01*
X300004Y72982D01*
Y76236D01*
D02*
G37*
G36*
X116443Y94205D02*
X115557D01*
X114702Y93976D01*
X113936Y93533D01*
X113310Y92907D01*
X112867Y92140D01*
X112638Y91285D01*
Y90400D01*
X112867Y89545D01*
X113310Y88778D01*
X113706Y88382D01*
Y84373D01*
X100238Y70905D01*
X99620Y71524D01*
X98561Y72231D01*
X97385Y72718D01*
X96136Y72966D01*
X94863D01*
X93615Y72718D01*
X92439Y72231D01*
X91380Y71524D01*
X90480Y70624D01*
X89773Y69565D01*
X89286Y68389D01*
X89037Y67140D01*
Y65867D01*
X89286Y64619D01*
X89773Y63443D01*
X90480Y62384D01*
X91380Y61484D01*
X92439Y60777D01*
X93615Y60290D01*
X94863Y60041D01*
X96136D01*
X97385Y60290D01*
X98561Y60777D01*
X99620Y61484D01*
X100520Y62384D01*
X101227Y63443D01*
X101714Y64619D01*
X101963Y65867D01*
Y66258D01*
X102316Y66494D01*
X116289Y80467D01*
X121878Y74878D01*
X122622Y74381D01*
X123500Y74206D01*
X133339D01*
Y71839D01*
X142661D01*
Y81161D01*
X133339D01*
Y78794D01*
X124450D01*
X118294Y84950D01*
Y88382D01*
X118690Y88778D01*
X119133Y89545D01*
X119362Y90400D01*
Y91285D01*
X119133Y92140D01*
X118690Y92907D01*
X118064Y93533D01*
X117298Y93976D01*
X116443Y94205D01*
D02*
G37*
G36*
X119362Y74520D02*
X116500D01*
Y71658D01*
X119362D01*
Y74520D01*
D02*
G37*
G36*
X115500D02*
X112638D01*
Y71658D01*
X115500D01*
Y74520D01*
D02*
G37*
G36*
X119362Y70657D02*
X116500D01*
Y67795D01*
X119362D01*
Y70657D01*
D02*
G37*
G36*
X115500D02*
X112638D01*
Y67795D01*
X115500D01*
Y70657D01*
D02*
G37*
G36*
X138614Y71161D02*
X138500D01*
Y67000D01*
X142661D01*
Y67114D01*
X142344Y68299D01*
X141730Y69362D01*
X140862Y70230D01*
X139799Y70844D01*
X138614Y71161D01*
D02*
G37*
G36*
X137500D02*
X137386D01*
X136201Y70844D01*
X135138Y70230D01*
X134270Y69362D01*
X133656Y68299D01*
X133339Y67114D01*
Y67000D01*
X137500D01*
Y71161D01*
D02*
G37*
G36*
X233000Y96631D02*
X136284D01*
X135659Y96507D01*
X135130Y96153D01*
X127167Y88190D01*
X126481Y88374D01*
X125519D01*
X124588Y88125D01*
X123754Y87643D01*
X123073Y86962D01*
X122592Y86128D01*
X122343Y85198D01*
Y84235D01*
X122592Y83305D01*
X123073Y82471D01*
X123754Y81790D01*
X124588Y81308D01*
X125519Y81059D01*
X126481D01*
X127412Y81308D01*
X128246Y81790D01*
X128927Y82471D01*
X129408Y83305D01*
X129657Y84235D01*
Y85198D01*
X129474Y85883D01*
X136959Y93369D01*
X232324D01*
X260347Y65346D01*
X260876Y64993D01*
X261500Y64869D01*
X297109D01*
X297498Y64194D01*
X298198Y63494D01*
X299054Y63000D01*
X300009Y62744D01*
X300998D01*
X301954Y63000D01*
X302810Y63494D01*
X303509Y64194D01*
X304004Y65050D01*
X304260Y66005D01*
Y66995D01*
X304004Y67950D01*
X303509Y68806D01*
X302810Y69506D01*
X301954Y70000D01*
X300998Y70256D01*
X300009D01*
X299054Y70000D01*
X298198Y69506D01*
X297498Y68806D01*
X297109Y68131D01*
X262176D01*
X234154Y96153D01*
X233624Y96507D01*
X233000Y96631D01*
D02*
G37*
G36*
X142661Y66000D02*
X138500D01*
Y61839D01*
X138614D01*
X139799Y62156D01*
X140862Y62770D01*
X141730Y63638D01*
X142344Y64701D01*
X142661Y65886D01*
Y66000D01*
D02*
G37*
G36*
X137500D02*
X133339D01*
Y65886D01*
X133656Y64701D01*
X134270Y63638D01*
X135138Y62770D01*
X136201Y62156D01*
X137386Y61839D01*
X137500D01*
Y66000D01*
D02*
G37*
G36*
X217000Y70230D02*
X203700D01*
X202786Y70110D01*
X201935Y69757D01*
X201204Y69196D01*
X195504Y63496D01*
X194943Y62765D01*
X194590Y61914D01*
X194470Y61000D01*
X194590Y60086D01*
X194943Y59235D01*
X195504Y58504D01*
X196235Y57943D01*
X197086Y57590D01*
X198000Y57470D01*
X198914Y57590D01*
X199765Y57943D01*
X200496Y58504D01*
X205162Y63170D01*
X210524D01*
X210715Y62708D01*
X201504Y53496D01*
X200943Y52765D01*
X200590Y51914D01*
X200470Y51000D01*
X200590Y50086D01*
X200943Y49235D01*
X201504Y48504D01*
X202235Y47943D01*
X203086Y47590D01*
X204000Y47470D01*
X204914Y47590D01*
X205765Y47943D01*
X206496Y48504D01*
X219496Y61504D01*
X220057Y62235D01*
X220410Y63086D01*
X220530Y64000D01*
Y66700D01*
X220410Y67614D01*
X220057Y68465D01*
X219496Y69196D01*
X218765Y69757D01*
X217914Y70110D01*
X217000Y70230D01*
D02*
G37*
G36*
X48721Y55732D02*
X47421D01*
X46165Y55396D01*
X45039Y54746D01*
X44120Y53827D01*
X43470Y52701D01*
X43134Y51445D01*
Y50145D01*
X43470Y48890D01*
X44120Y47764D01*
X45039Y46845D01*
X46165Y46195D01*
X47421Y45858D01*
X48721D01*
X49977Y46195D01*
X51102Y46845D01*
X52021Y47764D01*
X52671Y48890D01*
X53008Y50145D01*
Y51445D01*
X52671Y52701D01*
X52021Y53827D01*
X51102Y54746D01*
X49977Y55396D01*
X48721Y55732D01*
D02*
G37*
G36*
X119362Y47020D02*
X116500D01*
Y44157D01*
X119362D01*
Y47020D01*
D02*
G37*
G36*
X115500D02*
X112638D01*
Y44157D01*
X115500D01*
Y47020D01*
D02*
G37*
G36*
X96136Y54463D02*
X94863D01*
X93615Y54214D01*
X92439Y53727D01*
X91380Y53020D01*
X90480Y52120D01*
X89773Y51061D01*
X89286Y49885D01*
X89037Y48636D01*
Y47363D01*
X89286Y46115D01*
X89773Y44939D01*
X90480Y43880D01*
X91380Y42980D01*
X92439Y42273D01*
X93615Y41786D01*
X94863Y41537D01*
X96136D01*
X97385Y41786D01*
X98561Y42273D01*
X99620Y42980D01*
X100520Y43880D01*
X101227Y44939D01*
X101714Y46115D01*
X101963Y47363D01*
Y48636D01*
X101714Y49885D01*
X101227Y51061D01*
X100520Y52120D01*
X99620Y53020D01*
X98561Y53727D01*
X97385Y54214D01*
X96136Y54463D01*
D02*
G37*
G36*
X119362Y43158D02*
X116500D01*
Y40295D01*
X119362D01*
Y43158D01*
D02*
G37*
G36*
X115500D02*
X112638D01*
Y40295D01*
X115500D01*
Y43158D01*
D02*
G37*
G36*
X65611Y42642D02*
X64389D01*
X63208Y42325D01*
X62150Y41714D01*
X61286Y40850D01*
X60675Y39792D01*
X60358Y38611D01*
Y37389D01*
X60675Y36208D01*
X61286Y35150D01*
X62150Y34286D01*
X63208Y33675D01*
X64389Y33358D01*
X65611D01*
X66792Y33675D01*
X67850Y34286D01*
X68714Y35150D01*
X69325Y36208D01*
X69642Y37389D01*
Y38611D01*
X69325Y39792D01*
X68714Y40850D01*
X67850Y41714D01*
X66792Y42325D01*
X65611Y42642D01*
D02*
G37*
G36*
X277546Y35750D02*
X277500D01*
Y32100D01*
X281150D01*
Y32146D01*
X280867Y33202D01*
X280321Y34148D01*
X279548Y34920D01*
X278602Y35467D01*
X277546Y35750D01*
D02*
G37*
G36*
X276500D02*
X276454D01*
X275398Y35467D01*
X274452Y34920D01*
X273679Y34148D01*
X273133Y33202D01*
X272850Y32146D01*
Y32100D01*
X276500D01*
Y35750D01*
D02*
G37*
G36*
X227546D02*
X227500D01*
Y32100D01*
X231150D01*
Y32146D01*
X230867Y33202D01*
X230321Y34148D01*
X229548Y34920D01*
X228602Y35467D01*
X227546Y35750D01*
D02*
G37*
G36*
X226500D02*
X226454D01*
X225398Y35467D01*
X224452Y34920D01*
X223679Y34148D01*
X223133Y33202D01*
X222850Y32146D01*
Y32100D01*
X226500D01*
Y35750D01*
D02*
G37*
G36*
X177546D02*
X177500D01*
Y32100D01*
X181150D01*
Y32146D01*
X180867Y33202D01*
X180321Y34148D01*
X179548Y34920D01*
X178602Y35467D01*
X177546Y35750D01*
D02*
G37*
G36*
X176500D02*
X176454D01*
X175398Y35467D01*
X174452Y34920D01*
X173679Y34148D01*
X173133Y33202D01*
X172850Y32146D01*
Y32100D01*
X176500D01*
Y35750D01*
D02*
G37*
G36*
X127546D02*
X127500D01*
Y32100D01*
X131150D01*
Y32146D01*
X130867Y33202D01*
X130321Y34148D01*
X129548Y34920D01*
X128602Y35467D01*
X127546Y35750D01*
D02*
G37*
G36*
X126500D02*
X126454D01*
X125398Y35467D01*
X124452Y34920D01*
X123679Y34148D01*
X123133Y33202D01*
X122850Y32146D01*
Y32100D01*
X126500D01*
Y35750D01*
D02*
G37*
G36*
X297546D02*
X296454D01*
X295398Y35467D01*
X294452Y34920D01*
X293679Y34148D01*
X293133Y33202D01*
X292850Y32146D01*
Y31054D01*
X293133Y29998D01*
X293679Y29052D01*
X294452Y28280D01*
X295398Y27733D01*
X296454Y27450D01*
X297546D01*
X298602Y27733D01*
X299548Y28280D01*
X300321Y29052D01*
X300867Y29998D01*
X301150Y31054D01*
Y32146D01*
X300867Y33202D01*
X300321Y34148D01*
X299548Y34920D01*
X298602Y35467D01*
X297546Y35750D01*
D02*
G37*
G36*
X281150Y31100D02*
X277500D01*
Y27450D01*
X277546D01*
X278602Y27733D01*
X279548Y28280D01*
X280321Y29052D01*
X280867Y29998D01*
X281150Y31054D01*
Y31100D01*
D02*
G37*
G36*
X276500D02*
X272850D01*
Y31054D01*
X273133Y29998D01*
X273679Y29052D01*
X274452Y28280D01*
X275398Y27733D01*
X276454Y27450D01*
X276500D01*
Y31100D01*
D02*
G37*
G36*
X267546Y35750D02*
X266454D01*
X265398Y35467D01*
X264452Y34920D01*
X263680Y34148D01*
X263133Y33202D01*
X262850Y32146D01*
Y31054D01*
X263133Y29998D01*
X263680Y29052D01*
X264452Y28280D01*
X265398Y27733D01*
X266454Y27450D01*
X267546D01*
X268602Y27733D01*
X269548Y28280D01*
X270321Y29052D01*
X270867Y29998D01*
X271150Y31054D01*
Y32146D01*
X270867Y33202D01*
X270321Y34148D01*
X269548Y34920D01*
X268602Y35467D01*
X267546Y35750D01*
D02*
G37*
G36*
X247546D02*
X246454D01*
X245398Y35467D01*
X244452Y34920D01*
X243679Y34148D01*
X243133Y33202D01*
X242850Y32146D01*
Y31054D01*
X243133Y29998D01*
X243679Y29052D01*
X244452Y28280D01*
X245398Y27733D01*
X246454Y27450D01*
X247546D01*
X248602Y27733D01*
X249548Y28280D01*
X250321Y29052D01*
X250867Y29998D01*
X251150Y31054D01*
Y32146D01*
X250867Y33202D01*
X250321Y34148D01*
X249548Y34920D01*
X248602Y35467D01*
X247546Y35750D01*
D02*
G37*
G36*
X231150Y31100D02*
X227500D01*
Y27450D01*
X227546D01*
X228602Y27733D01*
X229548Y28280D01*
X230321Y29052D01*
X230867Y29998D01*
X231150Y31054D01*
Y31100D01*
D02*
G37*
G36*
X226500D02*
X222850D01*
Y31054D01*
X223133Y29998D01*
X223679Y29052D01*
X224452Y28280D01*
X225398Y27733D01*
X226454Y27450D01*
X226500D01*
Y31100D01*
D02*
G37*
G36*
X217546Y35750D02*
X216454D01*
X215398Y35467D01*
X214452Y34920D01*
X213680Y34148D01*
X213133Y33202D01*
X212850Y32146D01*
Y31054D01*
X213133Y29998D01*
X213680Y29052D01*
X214452Y28280D01*
X215398Y27733D01*
X216454Y27450D01*
X217546D01*
X218602Y27733D01*
X219548Y28280D01*
X220321Y29052D01*
X220867Y29998D01*
X221150Y31054D01*
Y32146D01*
X220867Y33202D01*
X220321Y34148D01*
X219548Y34920D01*
X218602Y35467D01*
X217546Y35750D01*
D02*
G37*
G36*
X207546D02*
X206454D01*
X205398Y35467D01*
X204452Y34920D01*
X203679Y34148D01*
X203133Y33202D01*
X202850Y32146D01*
Y31054D01*
X203133Y29998D01*
X203679Y29052D01*
X204452Y28280D01*
X205398Y27733D01*
X206454Y27450D01*
X207546D01*
X208602Y27733D01*
X209548Y28280D01*
X210320Y29052D01*
X210867Y29998D01*
X211150Y31054D01*
Y32146D01*
X210867Y33202D01*
X210320Y34148D01*
X209548Y34920D01*
X208602Y35467D01*
X207546Y35750D01*
D02*
G37*
G36*
X197546D02*
X196454D01*
X195398Y35467D01*
X194452Y34920D01*
X193679Y34148D01*
X193133Y33202D01*
X192850Y32146D01*
Y31054D01*
X193133Y29998D01*
X193679Y29052D01*
X194452Y28280D01*
X195398Y27733D01*
X196454Y27450D01*
X197546D01*
X198602Y27733D01*
X199548Y28280D01*
X200321Y29052D01*
X200867Y29998D01*
X201150Y31054D01*
Y32146D01*
X200867Y33202D01*
X200321Y34148D01*
X199548Y34920D01*
X198602Y35467D01*
X197546Y35750D01*
D02*
G37*
G36*
X187546D02*
X186454D01*
X185398Y35467D01*
X184452Y34920D01*
X183679Y34148D01*
X183133Y33202D01*
X182850Y32146D01*
Y31054D01*
X183133Y29998D01*
X183679Y29052D01*
X184452Y28280D01*
X185398Y27733D01*
X186454Y27450D01*
X187546D01*
X188602Y27733D01*
X189548Y28280D01*
X190321Y29052D01*
X190867Y29998D01*
X191150Y31054D01*
Y32146D01*
X190867Y33202D01*
X190321Y34148D01*
X189548Y34920D01*
X188602Y35467D01*
X187546Y35750D01*
D02*
G37*
G36*
X181150Y31100D02*
X177500D01*
Y27450D01*
X177546D01*
X178602Y27733D01*
X179548Y28280D01*
X180321Y29052D01*
X180867Y29998D01*
X181150Y31054D01*
Y31100D01*
D02*
G37*
G36*
X176500D02*
X172850D01*
Y31054D01*
X173133Y29998D01*
X173679Y29052D01*
X174452Y28280D01*
X175398Y27733D01*
X176454Y27450D01*
X176500D01*
Y31100D01*
D02*
G37*
G36*
X167546Y35750D02*
X166454D01*
X165398Y35467D01*
X164452Y34920D01*
X163680Y34148D01*
X163133Y33202D01*
X162850Y32146D01*
Y31054D01*
X163133Y29998D01*
X163680Y29052D01*
X164452Y28280D01*
X165398Y27733D01*
X166454Y27450D01*
X167546D01*
X168602Y27733D01*
X169548Y28280D01*
X170320Y29052D01*
X170867Y29998D01*
X171150Y31054D01*
Y32146D01*
X170867Y33202D01*
X170320Y34148D01*
X169548Y34920D01*
X168602Y35467D01*
X167546Y35750D01*
D02*
G37*
G36*
X157546D02*
X156454D01*
X155398Y35467D01*
X154452Y34920D01*
X153680Y34148D01*
X153133Y33202D01*
X152850Y32146D01*
Y31054D01*
X153133Y29998D01*
X153680Y29052D01*
X154452Y28280D01*
X155398Y27733D01*
X156454Y27450D01*
X157546D01*
X158602Y27733D01*
X159548Y28280D01*
X160320Y29052D01*
X160867Y29998D01*
X161150Y31054D01*
Y32146D01*
X160867Y33202D01*
X160320Y34148D01*
X159548Y34920D01*
X158602Y35467D01*
X157546Y35750D01*
D02*
G37*
G36*
X147546D02*
X146454D01*
X145398Y35467D01*
X144452Y34920D01*
X143679Y34148D01*
X143133Y33202D01*
X142850Y32146D01*
Y31054D01*
X143133Y29998D01*
X143679Y29052D01*
X144452Y28280D01*
X145398Y27733D01*
X146454Y27450D01*
X147546D01*
X148602Y27733D01*
X149548Y28280D01*
X150320Y29052D01*
X150867Y29998D01*
X151150Y31054D01*
Y32146D01*
X150867Y33202D01*
X150320Y34148D01*
X149548Y34920D01*
X148602Y35467D01*
X147546Y35750D01*
D02*
G37*
G36*
X129657Y52941D02*
X122343D01*
Y45626D01*
X124369D01*
Y42600D01*
X124493Y41976D01*
X124846Y41447D01*
X133124Y33169D01*
X132850Y32146D01*
Y31054D01*
X133133Y29998D01*
X133679Y29052D01*
X134452Y28280D01*
X135398Y27733D01*
X136454Y27450D01*
X137546D01*
X138602Y27733D01*
X139548Y28280D01*
X140321Y29052D01*
X140867Y29998D01*
X141150Y31054D01*
Y32146D01*
X140867Y33202D01*
X140321Y34148D01*
X139548Y34920D01*
X138602Y35467D01*
X137546Y35750D01*
X136454D01*
X135431Y35476D01*
X127631Y43276D01*
Y45626D01*
X129657D01*
Y52941D01*
D02*
G37*
G36*
X131150Y31100D02*
X127500D01*
Y27450D01*
X127546D01*
X128602Y27733D01*
X129548Y28280D01*
X130321Y29052D01*
X130867Y29998D01*
X131150Y31054D01*
Y31100D01*
D02*
G37*
G36*
X126500D02*
X122850D01*
Y31054D01*
X123133Y29998D01*
X123679Y29052D01*
X124452Y28280D01*
X125398Y27733D01*
X126454Y27450D01*
X126500D01*
Y31100D01*
D02*
G37*
G36*
X117546Y35750D02*
X116454D01*
X115398Y35467D01*
X114452Y34920D01*
X113680Y34148D01*
X113133Y33202D01*
X112850Y32146D01*
Y31054D01*
X113133Y29998D01*
X113680Y29052D01*
X114452Y28280D01*
X115398Y27733D01*
X116454Y27450D01*
X117546D01*
X118602Y27733D01*
X119548Y28280D01*
X120320Y29052D01*
X120867Y29998D01*
X121150Y31054D01*
Y32146D01*
X120867Y33202D01*
X120320Y34148D01*
X119548Y34920D01*
X118602Y35467D01*
X117546Y35750D01*
D02*
G37*
G36*
X323000Y34900D02*
X322438D01*
X320339Y34568D01*
X318318Y33911D01*
X316424Y32946D01*
X314705Y31697D01*
X313203Y30195D01*
X311954Y28475D01*
X310989Y26582D01*
X310332Y24561D01*
X310000Y22463D01*
Y21900D01*
X323000D01*
Y34900D01*
D02*
G37*
G36*
X84363D02*
X83800D01*
Y21900D01*
X96800D01*
Y22463D01*
X96468Y24561D01*
X95811Y26582D01*
X94846Y28475D01*
X93597Y30195D01*
X92095Y31697D01*
X90376Y32946D01*
X88482Y33911D01*
X86461Y34568D01*
X84363Y34900D01*
D02*
G37*
G36*
X82800D02*
X82237D01*
X80139Y34568D01*
X78118Y33911D01*
X76224Y32946D01*
X74505Y31697D01*
X73003Y30195D01*
X71754Y28475D01*
X70789Y26582D01*
X70132Y24561D01*
X69800Y22463D01*
Y21900D01*
X82800D01*
Y34900D01*
D02*
G37*
G36*
X48721Y30142D02*
X47421D01*
X46165Y29805D01*
X45039Y29155D01*
X44120Y28236D01*
X43470Y27110D01*
X43134Y25855D01*
Y24555D01*
X43470Y23299D01*
X44120Y22173D01*
X45039Y21254D01*
X46165Y20604D01*
X47421Y20268D01*
X48721D01*
X49977Y20604D01*
X51102Y21254D01*
X52021Y22173D01*
X52671Y23299D01*
X53008Y24555D01*
Y25855D01*
X52671Y27110D01*
X52021Y28236D01*
X51102Y29155D01*
X49977Y29805D01*
X48721Y30142D01*
D02*
G37*
G36*
X273217Y20652D02*
Y17500D01*
X276369D01*
X276125Y18412D01*
X275643Y19246D01*
X274962Y19927D01*
X274128Y20408D01*
X273217Y20652D01*
D02*
G37*
G36*
X272217D02*
X271305Y20408D01*
X270471Y19927D01*
X269790Y19246D01*
X269308Y18412D01*
X269064Y17500D01*
X272217D01*
Y20652D01*
D02*
G37*
G36*
X276369Y16500D02*
X273217D01*
Y13348D01*
X274128Y13592D01*
X274962Y14073D01*
X275643Y14754D01*
X276125Y15588D01*
X276369Y16500D01*
D02*
G37*
G36*
X272217D02*
X269064D01*
X269308Y15588D01*
X269790Y14754D01*
X270471Y14073D01*
X271305Y13592D01*
X272217Y13348D01*
Y16500D01*
D02*
G37*
G36*
X69642Y62642D02*
X60358D01*
Y53358D01*
X63369D01*
Y53000D01*
X63493Y52376D01*
X63846Y51846D01*
X77846Y37846D01*
X78376Y37493D01*
X79000Y37369D01*
X87824D01*
X109346Y15846D01*
X109876Y15493D01*
X110500Y15369D01*
X233626D01*
Y13342D01*
X240941D01*
Y20658D01*
X238631D01*
Y27750D01*
X239548Y28280D01*
X240320Y29052D01*
X240867Y29998D01*
X241150Y31054D01*
Y32146D01*
X240867Y33202D01*
X240320Y34148D01*
X239548Y34920D01*
X238602Y35467D01*
X237546Y35750D01*
X236454D01*
X235398Y35467D01*
X234452Y34920D01*
X233680Y34148D01*
X233133Y33202D01*
X232850Y32146D01*
Y31054D01*
X233133Y29998D01*
X233680Y29052D01*
X234452Y28280D01*
X235369Y27750D01*
Y20658D01*
X233626D01*
Y18631D01*
X111176D01*
X102857Y26950D01*
X103064Y27450D01*
X103262Y27450D01*
X111150D01*
Y35750D01*
X102850D01*
Y27890D01*
X102850Y27664D01*
X102350Y27457D01*
X89653Y40154D01*
X89124Y40507D01*
X88500Y40631D01*
X79676D01*
X67411Y52896D01*
X67602Y53358D01*
X69642D01*
Y62642D01*
D02*
G37*
G36*
X257546Y35750D02*
X256454D01*
X255398Y35467D01*
X254452Y34920D01*
X253679Y34148D01*
X253133Y33202D01*
X252850Y32146D01*
Y31054D01*
X253133Y29998D01*
X253679Y29052D01*
X254452Y28280D01*
X254961Y27986D01*
Y25345D01*
X238555Y8939D01*
X89652D01*
X89535Y9425D01*
X90376Y9854D01*
X92095Y11103D01*
X93597Y12605D01*
X94846Y14324D01*
X95811Y16218D01*
X96468Y18239D01*
X96800Y20337D01*
Y20900D01*
X69800D01*
Y20337D01*
X69949Y19395D01*
X69459Y19291D01*
X69325Y19792D01*
X68714Y20850D01*
X67850Y21714D01*
X66792Y22325D01*
X65611Y22642D01*
X64389D01*
X63208Y22325D01*
X62150Y21714D01*
X61286Y20850D01*
X60675Y19792D01*
X60358Y18611D01*
Y17389D01*
X60675Y16208D01*
X61286Y15150D01*
X62150Y14286D01*
X63208Y13675D01*
X63657Y13554D01*
Y13304D01*
X63813Y12523D01*
X64254Y11862D01*
X70658Y5458D01*
X71320Y5016D01*
X72100Y4861D01*
X239400D01*
X240180Y5016D01*
X240842Y5458D01*
X258442Y23058D01*
X258884Y23720D01*
X259039Y24500D01*
Y27986D01*
X259548Y28280D01*
X260320Y29052D01*
X260867Y29998D01*
X261150Y31054D01*
Y32146D01*
X260867Y33202D01*
X260320Y34148D01*
X259548Y34920D01*
X258602Y35467D01*
X257546Y35750D01*
D02*
G37*
G36*
X323000Y20900D02*
X310000D01*
Y20337D01*
X310332Y18239D01*
X310989Y16218D01*
X311954Y14324D01*
X313203Y12605D01*
X314705Y11103D01*
X316424Y9854D01*
X318318Y8889D01*
X320339Y8232D01*
X322438Y7900D01*
X323000D01*
Y20900D01*
D02*
G37*
%LPD*%
G36*
X70789Y16218D02*
X71754Y14324D01*
X73003Y12605D01*
X74505Y11103D01*
X76224Y9854D01*
X77065Y9425D01*
X76948Y8939D01*
X72945D01*
X68056Y13827D01*
X67850Y14286D01*
X68714Y15150D01*
X69325Y16208D01*
X69642Y17389D01*
Y18155D01*
X70132Y18239D01*
X70789Y16218D01*
D02*
G37*
D20*
X65000Y58000D02*
D03*
D21*
Y38000D02*
D03*
Y18000D02*
D03*
D22*
X48071Y50795D02*
D03*
Y25205D02*
D03*
D29*
X116000Y71157D02*
D03*
Y43657D02*
D03*
D30*
Y90842D02*
D03*
Y63342D02*
D03*
D38*
X72100Y6900D02*
X239400D01*
X65696Y13304D02*
X72100Y6900D01*
X65696Y13304D02*
Y17304D01*
X65000Y18000D02*
X65696Y17304D01*
X257000Y24500D02*
Y31600D01*
X239400Y6900D02*
X257000Y24500D01*
D39*
X65000Y53000D02*
X79000Y39000D01*
X65000Y53000D02*
Y58000D01*
X79000Y39000D02*
X88500D01*
X280800Y116700D02*
X293150Y104350D01*
X137500Y111300D02*
Y117500D01*
X277000D02*
X277800Y116700D01*
X233000Y95000D02*
X261500Y66500D01*
X274500Y110000D02*
X278800D01*
X237000Y17284D02*
Y31600D01*
X230650Y117500D02*
X246350Y101800D01*
X126000Y42600D02*
Y49283D01*
X155938Y112862D02*
X167000Y101800D01*
X293150Y104350D02*
X294450D01*
X137500Y111300D02*
X147000Y101800D01*
X136284Y95000D02*
X233000D01*
X294450Y104350D02*
X297000Y101800D01*
X278800Y110000D02*
X287000Y101800D01*
X110500Y17000D02*
X237283D01*
X246350Y101800D02*
X247000D01*
X126000Y42600D02*
X137000Y31600D01*
X192500Y106300D02*
X197000Y101800D01*
X155000Y117500D02*
X155938Y116562D01*
X88500Y39000D02*
X110500Y17000D01*
X277800Y116700D02*
X280800D01*
X261500Y66500D02*
X300504D01*
X127500Y111300D02*
X137000Y101800D01*
X267000Y117500D02*
X274500Y110000D01*
X126000Y84716D02*
X136284Y95000D01*
X127500Y111300D02*
Y117500D01*
X230000D02*
X230650D01*
X237000Y17284D02*
X237283Y17000D01*
X192500Y106300D02*
Y117500D01*
X155938Y112862D02*
Y116562D01*
D40*
X81807Y71315D02*
X95500Y85008D01*
X72000Y71315D02*
X81807D01*
X198000Y61000D02*
X203700Y66700D01*
X217000D01*
X204000Y51000D02*
X217000Y64000D01*
Y66700D01*
X93897Y85008D02*
X95500D01*
D41*
X172500Y125000D02*
X210000D01*
X283860Y79795D02*
X288281Y84216D01*
X240000Y117500D02*
Y118475D01*
X287000Y31600D02*
Y32628D01*
X244225Y122700D02*
Y122760D01*
X138000Y56500D02*
X154500Y40000D01*
X256283Y54205D02*
X257000D01*
X307500Y90000D02*
Y121036D01*
X116000Y83422D02*
Y90842D01*
X303284Y84216D02*
X310000Y77500D01*
X100694Y68116D02*
X116289Y83711D01*
X288500Y48783D02*
X306283D01*
X257000Y79795D02*
X283860D01*
X165000Y117500D02*
X172500Y125000D01*
X210000D02*
X246464D01*
X287000Y32628D02*
X288500Y34128D01*
X246464Y125000D02*
X303536D01*
X154500Y40000D02*
X242078D01*
X283079Y54205D02*
X288500Y48783D01*
X303536Y125000D02*
X307500Y121036D01*
X116000Y63342D02*
X122843Y56500D01*
X288500Y84216D02*
X303284D01*
X307500Y90000D02*
X317500Y80000D01*
X97112Y68116D02*
X100694D01*
X123500Y76500D02*
X138000D01*
X300504Y56264D02*
X310000Y65760D01*
X202500Y117500D02*
X210000Y125000D01*
X288500Y34128D02*
Y48783D01*
X240000Y118475D02*
X244225Y122700D01*
X257000Y54205D02*
X283079D01*
X244225Y122760D02*
X246464Y125000D01*
X122843Y56500D02*
X138000D01*
X242078Y40000D02*
X256283Y54205D01*
X95500Y66504D02*
X97112Y68116D01*
X317500Y60000D02*
Y80000D01*
X310000Y65760D02*
Y77500D01*
X288281Y84216D02*
X288500D01*
X116289Y83711D02*
X123500Y76500D01*
X306283Y48783D02*
X317500Y60000D01*
D42*
X72000Y81157D02*
D03*
Y91000D02*
D03*
D43*
Y71315D02*
D03*
D44*
X200000Y66700D02*
D03*
D45*
X323500Y21400D02*
D03*
X83300D02*
D03*
Y111900D02*
D03*
X323500D02*
D03*
D46*
X117500Y117500D02*
D03*
X127500D02*
D03*
X137500D02*
D03*
X287000D02*
D03*
X277000D02*
D03*
X267000D02*
D03*
X297000Y31600D02*
D03*
X287000D02*
D03*
X277000D02*
D03*
X267000D02*
D03*
X257000D02*
D03*
X237000D02*
D03*
X227000D02*
D03*
X187000D02*
D03*
X157000D02*
D03*
X137000D02*
D03*
X117000D02*
D03*
X127000D02*
D03*
X147000D02*
D03*
X167000D02*
D03*
X177000D02*
D03*
X197000D02*
D03*
X207000D02*
D03*
X217000D02*
D03*
X247000D02*
D03*
X107000Y101800D02*
D03*
X117000D02*
D03*
X127000D02*
D03*
X137000D02*
D03*
X147000D02*
D03*
X167000D02*
D03*
X177000D02*
D03*
X217000D02*
D03*
X247000D02*
D03*
X267000D02*
D03*
X287000D02*
D03*
X277000D02*
D03*
X257000D02*
D03*
X237000D02*
D03*
X227000D02*
D03*
X207000D02*
D03*
X197000D02*
D03*
X187000D02*
D03*
X157000D02*
D03*
D47*
X107500Y117500D02*
D03*
X297000D02*
D03*
X107000Y31600D02*
D03*
X297000Y101800D02*
D03*
D48*
X250000Y117500D02*
D03*
X212500D02*
D03*
X175000D02*
D03*
D49*
X240000D02*
D03*
X230000D02*
D03*
X202500D02*
D03*
X192500D02*
D03*
X165000D02*
D03*
X155000D02*
D03*
D50*
X288500Y48783D02*
D03*
Y84216D02*
D03*
X272716Y17000D02*
D03*
X126000Y84716D02*
D03*
D51*
X237283Y17000D02*
D03*
D52*
X126000Y49283D02*
D03*
D53*
X257000Y54205D02*
D03*
Y79795D02*
D03*
D54*
X300504Y66500D02*
D03*
Y76736D02*
D03*
D55*
Y56264D02*
D03*
D56*
X138000Y76500D02*
D03*
D57*
Y66500D02*
D03*
Y56500D02*
D03*
D58*
X95500Y85008D02*
D03*
Y66504D02*
D03*
Y48000D02*
D03*
M02*
