M48
;Layer_Color=9474304
;FILE_FORMAT=2:5
INCH,LZ
;TYPE=PLATED
T1F00S00C0.02756
T2F00S00C0.03150
T3F00S00C0.03346
T4F00S00C0.03543
T5F00S00C0.04016
T6F00S00C0.04331
T7F00S00C0.04528
T8F00S00C0.04724
T9F00S00C0.04882
T10F00S00C0.07283
T11F00S00C0.12500
;TYPE=NON_PLATED
T12F00S00C0.07874
%
T01
X0116Y0043657
Y0063342
Y0071157
Y0090842
T02
X0257Y0054205
Y0079795
T03
X0126Y0049283
Y0084716
X02885Y0084216
Y0048783
X0272716Y0017
X0237283
T04
X0300504Y0056264
Y00665
Y0076736
T05
X0155Y01175
X0165
X0175
X01925
X02025
X02125
X023
X024
X025
T06
X0107Y00316
X0117
X0127
X0137
X0147
Y01018
X0137
X0127
X0117
X0107
X01075Y01175
X01175
X01275
X01375
X0157Y01018
X0167
X0177
X0187
X0197
X0207
X0217
X0227
X0237
X0247
X0257
X0267
X0277
X0287
X0297
Y01175
X0287
X0277
X0267
Y00316
X0277
X0287
X0297
X0257
X0247
X0237
X0227
X0217
X0207
X0197
X0187
X0177
X0167
X0157
T07
X0072Y0071315
Y0081157
Y0091
T08
X0065Y0018
Y0038
Y0058
T09
X0138Y00565
Y00665
Y00765
T10
X00955Y0048
Y0066504
Y0085008
T11
X00833Y00214
Y01119
X0217Y00667
X03235Y01119
Y00214
T12
X0048071Y0025205
Y0050795
M30
