G04*
G04 #@! TF.GenerationSoftware,Altium Limited,Altium Designer,21.9.1 (22)*
G04*
G04 Layer_Color=32896*
%FSLAX25Y25*%
%MOIN*%
G70*
G04*
G04 #@! TF.SameCoordinates,84066233-43AA-439E-81B8-E0E343A60AEF*
G04*
G04*
G04 #@! TF.FilePolarity,Positive*
G04*
G01*
G75*
%ADD10C,0.00984*%
%ADD11C,0.00787*%
%ADD12C,0.00500*%
%ADD15C,0.01000*%
%ADD60C,0.00394*%
%ADD61R,0.07284X0.03866*%
G36*
X185579Y85337D02*
X185646Y85244D01*
X185672Y83638D01*
X185646Y83130D01*
X185619Y82862D01*
X185512Y82621D01*
X185472Y82528D01*
X185405Y82354D01*
X185351Y82220D01*
X185284Y82153D01*
X185191Y82086D01*
X185164Y82032D01*
X185097Y81966D01*
X185003Y81899D01*
X184870Y81845D01*
X184736Y81818D01*
X184455Y81778D01*
X184107Y81805D01*
X184000Y81832D01*
X183920Y81858D01*
X183866Y81885D01*
X183799Y81952D01*
X183652Y82073D01*
X183545Y82099D01*
X183438Y82073D01*
X183344Y81899D01*
X183304Y81858D01*
X183170Y81778D01*
X183117Y81725D01*
X183063Y81698D01*
X182983Y81618D01*
X182849Y81591D01*
X182769Y81564D01*
X182488Y81577D01*
X182314Y81618D01*
X182274Y81658D01*
X182261Y81671D01*
X182234D01*
X182033Y81872D01*
X181966Y81966D01*
X181846Y82113D01*
X181819Y82327D01*
X181792Y82407D01*
X181765Y84254D01*
X181792Y84361D01*
X181846Y84494D01*
X181872Y84548D01*
X182006Y84601D01*
X182528Y84668D01*
X182742Y84722D01*
X183010Y84802D01*
X183157Y84842D01*
X183411Y84882D01*
X183518Y84909D01*
X183786Y84936D01*
X184000Y84989D01*
X184308Y85083D01*
X184508Y85123D01*
X184616Y85150D01*
X185070Y85203D01*
X185284Y85257D01*
X185325Y85297D01*
X185458Y85351D01*
X185579Y85337D01*
D02*
G37*
G36*
X178153Y81925D02*
X178180Y81658D01*
X178126Y81470D01*
X178059Y81323D01*
X177965Y81069D01*
X177805Y80721D01*
X177564Y80266D01*
X177377Y79918D01*
X177350Y79865D01*
X177270Y79785D01*
X177243Y79731D01*
X177136Y79570D01*
X177002Y79330D01*
X177029Y79249D01*
X177176Y79236D01*
X177256Y79263D01*
X177497Y79289D01*
X177511Y79249D01*
X177484Y79062D01*
X177296Y78794D01*
X177136Y78500D01*
X177015Y78299D01*
X176962Y78166D01*
X176882Y77951D01*
X176828Y77818D01*
X176721Y77523D01*
X176694Y77416D01*
X176654Y77215D01*
X176628Y77135D01*
X176694Y76961D01*
X176788Y76921D01*
X176908Y76934D01*
X176949Y76975D01*
X176975Y77028D01*
X177096Y77149D01*
X177163Y77135D01*
X177189Y77001D01*
X177082Y76841D01*
X176989Y76694D01*
X176855Y76399D01*
X176801Y76266D01*
X176708Y76011D01*
X176681Y75931D01*
X176654Y75663D01*
X176628Y75556D01*
X176601Y75369D01*
X176520Y75182D01*
X176494Y74861D01*
X176547Y74727D01*
X176614Y74633D01*
X176601Y74539D01*
X176494Y74379D01*
X176467Y74325D01*
X176427Y74285D01*
X176373Y74151D01*
X176333Y74004D01*
X176453Y73937D01*
X176561Y73964D01*
X176855Y74098D01*
X177069Y74151D01*
X177243Y74218D01*
X177577Y74339D01*
X178126Y74513D01*
X178461Y74633D01*
X178728Y74713D01*
X178875Y74780D01*
X179009Y74834D01*
X179317Y74901D01*
X179504Y75034D01*
X179718Y75061D01*
X179772Y75008D01*
X179825Y74874D01*
X179812Y74727D01*
X179732Y74539D01*
X179692Y74499D01*
X179504Y74392D01*
X179370Y74339D01*
X178916Y74125D01*
X178782Y74071D01*
X178581Y73951D01*
X178407Y73884D01*
X178220Y73804D01*
X177872Y73616D01*
X177524Y73456D01*
X177484Y73415D01*
X177310Y73349D01*
X176801Y73108D01*
X176347Y72894D01*
X176213Y72840D01*
X175597Y72546D01*
X175544Y72519D01*
X175463Y72439D01*
X175410Y72305D01*
X175356Y71877D01*
X175316Y71730D01*
X175196Y71529D01*
X175129Y71355D01*
X175022Y71194D01*
X174861Y70900D01*
X174674Y70632D01*
X174647Y70579D01*
X174540Y70338D01*
X174487Y70284D01*
X174299Y69937D01*
X174165Y69749D01*
X174139Y69428D01*
X174192Y69241D01*
X174353Y68893D01*
X174380Y68786D01*
X174594Y68331D01*
X174620Y68224D01*
X174674Y68090D01*
X174794Y67863D01*
X174848Y67729D01*
X174915Y67555D01*
X175062Y67220D01*
X175116Y67087D01*
X175182Y66913D01*
X175303Y66632D01*
X175397Y66378D01*
X175530Y66083D01*
X175557Y65869D01*
X175530Y65762D01*
X175423Y65521D01*
X175330Y65428D01*
X175223Y65401D01*
X175089Y65454D01*
X175035Y65508D01*
X174861Y65762D01*
X174835Y65816D01*
X174727Y65922D01*
X174661Y66016D01*
X174554Y66177D01*
X174433Y66324D01*
X174406Y66378D01*
X174273Y66565D01*
X174246Y66618D01*
X174192Y66672D01*
X174165Y66725D01*
X173925Y67073D01*
X173791Y67314D01*
X173711Y67394D01*
X173684Y67448D01*
X173630Y67501D01*
X173603Y67555D01*
X173496Y67716D01*
X173470Y67769D01*
X173403Y67836D01*
X173269Y67916D01*
X173149Y67876D01*
X172988Y67582D01*
X172961Y67528D01*
X172908Y67475D01*
X172533Y66779D01*
X172426Y66618D01*
X172212Y66217D01*
X172025Y65869D01*
X171918Y65682D01*
X171891Y65628D01*
X171837Y65575D01*
X171811Y65468D01*
X171704Y65307D01*
X171489Y64906D01*
X171463Y64852D01*
X171382Y64772D01*
X171195Y64424D01*
X171168Y64370D01*
X171115Y64317D01*
X171008Y64130D01*
X170981Y64022D01*
X170847Y63835D01*
X170473Y63113D01*
X170366Y62952D01*
X170178Y62604D01*
X169937Y62149D01*
X169884Y62096D01*
X169790Y61949D01*
X169723Y61775D01*
X169670Y61721D01*
X169643Y61668D01*
X169589Y61614D01*
X169402Y61266D01*
X169188Y60865D01*
X169054Y60677D01*
X169027Y60624D01*
X168920Y60383D01*
X168813Y60223D01*
X168546Y59714D01*
X168492Y59661D01*
X168465Y59553D01*
X168358Y59393D01*
X168171Y59045D01*
X168144Y58991D01*
X168091Y58938D01*
X167877Y58537D01*
X167823Y58483D01*
X167663Y58189D01*
X167556Y58028D01*
X167128Y57225D01*
X166994Y57011D01*
X166967Y56958D01*
X166833Y56744D01*
X166646Y56503D01*
X166619Y56449D01*
X166458Y56289D01*
X166432Y56235D01*
X166218Y56021D01*
X166191Y55968D01*
X166030Y55807D01*
X166004Y55753D01*
X165789Y55539D01*
X165763Y55486D01*
X165442Y55165D01*
X165415Y55111D01*
X165268Y54964D01*
X165214Y54937D01*
X164973Y54697D01*
X164920Y54670D01*
X164839Y54589D01*
X164786Y54563D01*
X164706Y54482D01*
X164465Y54295D01*
X164411Y54268D01*
X164344Y54201D01*
X164197Y54081D01*
X164144Y54054D01*
X163956Y53920D01*
X163716Y53787D01*
X163662Y53733D01*
X163608Y53706D01*
X163555Y53653D01*
X163154Y53439D01*
X163006Y53345D01*
X162672Y53225D01*
X162551Y53158D01*
X162337Y53078D01*
X162230Y53051D01*
X162097Y53024D01*
X161949Y52984D01*
X161775Y52917D01*
X161575Y52877D01*
X161494Y52850D01*
X161066Y52823D01*
X160986Y52797D01*
X160076Y52823D01*
X159808Y52850D01*
X159675Y52903D01*
X159541Y52984D01*
X159487Y53011D01*
X159407Y53091D01*
X159233Y53345D01*
X159126Y53532D01*
X159006Y53760D01*
X158912Y54014D01*
X158805Y54255D01*
X158751Y54389D01*
X158671Y54710D01*
X158604Y54937D01*
X158537Y55379D01*
X158511Y55459D01*
X158484Y56048D01*
X158457Y56128D01*
X158470Y56463D01*
X158497Y56891D01*
X158537Y57225D01*
X158564Y57332D01*
X158591Y57520D01*
X158618Y57627D01*
X158658Y57774D01*
X158685Y57881D01*
X158711Y58015D01*
X158751Y58189D01*
X158818Y58416D01*
X158992Y58911D01*
X159099Y59152D01*
X159193Y59353D01*
X159260Y59527D01*
X159367Y59687D01*
X159554Y60035D01*
X159608Y60089D01*
X159634Y60142D01*
X159688Y60196D01*
X159795Y60383D01*
X159822Y60437D01*
X159929Y60544D01*
X159956Y60597D01*
X160063Y60758D01*
X160089Y60811D01*
X160170Y60891D01*
X160196Y60945D01*
X160250Y60999D01*
X160277Y61052D01*
X160330Y61106D01*
X160357Y61159D01*
X160397Y61199D01*
X160518Y61347D01*
X160544Y61400D01*
X160598Y61453D01*
X160785Y61694D01*
X160812Y61748D01*
X160879Y61815D01*
X160999Y61962D01*
X161026Y62015D01*
X161213Y62203D01*
X161240Y62256D01*
X161320Y62337D01*
X161347Y62390D01*
X161481Y62524D01*
X161508Y62577D01*
X161561Y62631D01*
X161588Y62685D01*
X161695Y62792D01*
X161722Y62845D01*
X161775Y62899D01*
X161802Y62952D01*
X161909Y63059D01*
X161936Y63113D01*
X162016Y63193D01*
X162043Y63247D01*
X162097Y63300D01*
X162163Y63394D01*
X162284Y63541D01*
X162311Y63594D01*
X162364Y63648D01*
X162391Y63701D01*
X162431Y63741D01*
X162551Y63889D01*
X162578Y63942D01*
X162739Y64103D01*
X162766Y64156D01*
X162819Y64210D01*
X162846Y64263D01*
X163060Y64477D01*
X163087Y64531D01*
X163220Y64665D01*
X163247Y64718D01*
X163301Y64772D01*
X163328Y64825D01*
X163381Y64879D01*
X163448Y64973D01*
X163568Y65120D01*
X163595Y65173D01*
X163649Y65227D01*
X163675Y65280D01*
X163782Y65387D01*
X163809Y65441D01*
X163863Y65494D01*
X163889Y65548D01*
X163956Y65615D01*
X164077Y65762D01*
X164103Y65816D01*
X164211Y65922D01*
X164237Y65976D01*
X164291Y66030D01*
X164318Y66083D01*
X164451Y66217D01*
X164478Y66270D01*
X164585Y66378D01*
X164612Y66431D01*
X164799Y66618D01*
X164826Y66672D01*
X164880Y66725D01*
X164906Y66779D01*
X164960Y66832D01*
X165147Y67073D01*
X165174Y67127D01*
X165241Y67194D01*
X165361Y67341D01*
X165388Y67394D01*
X165442Y67448D01*
X165468Y67501D01*
X165575Y67608D01*
X165602Y67662D01*
X165656Y67716D01*
X165682Y67769D01*
X165749Y67836D01*
X165870Y67983D01*
X165896Y68037D01*
X165990Y68130D01*
X166111Y68278D01*
X166137Y68331D01*
X166285Y68478D01*
X166405Y68625D01*
X166432Y68679D01*
X166525Y68773D01*
X166646Y68920D01*
X166673Y68973D01*
X166726Y69027D01*
X166793Y69120D01*
X166913Y69268D01*
X166940Y69321D01*
X167034Y69415D01*
X167087Y69441D01*
X167208Y69589D01*
X167235Y69749D01*
X167168Y69816D01*
X167007Y69843D01*
X166659Y69816D01*
X166298Y69776D01*
X166097Y69736D01*
X165977Y69776D01*
X165950Y69883D01*
X165977Y69990D01*
X166057Y70070D01*
X166084Y70124D01*
X166164Y70204D01*
X166592Y70418D01*
X166847Y70512D01*
X166954Y70539D01*
X167181Y70632D01*
X167516Y70753D01*
X167663Y70793D01*
X167997Y70913D01*
X168292Y71047D01*
X168385Y71114D01*
X168412Y71168D01*
X168532Y71288D01*
X168653Y71435D01*
X168720Y71529D01*
X168840Y71676D01*
X169027Y71917D01*
X169054Y71970D01*
X169121Y72037D01*
X169242Y72184D01*
X169268Y72238D01*
X169429Y72399D01*
X169456Y72452D01*
X169616Y72613D01*
X169643Y72666D01*
X169750Y72773D01*
X169777Y72827D01*
X169911Y72961D01*
X169937Y73014D01*
X169991Y73068D01*
X170018Y73121D01*
X170098Y73201D01*
X170125Y73255D01*
X170165Y73295D01*
X170285Y73442D01*
X170312Y73496D01*
X170473Y73656D01*
X170660Y74004D01*
X170647Y74125D01*
X170620Y74259D01*
X170513Y74901D01*
X170486Y75034D01*
X170459Y75142D01*
X170406Y75463D01*
X170379Y75596D01*
X170352Y75704D01*
X170299Y75971D01*
X170272Y76132D01*
X170205Y76573D01*
X170151Y76787D01*
X170111Y76934D01*
X170085Y77042D01*
X170058Y77175D01*
X170018Y77430D01*
X169964Y77804D01*
X169937Y77911D01*
X169844Y78219D01*
X169817Y78353D01*
X169750Y78821D01*
X169723Y78901D01*
X169696Y79115D01*
X169723Y79223D01*
X169777Y79356D01*
X169870Y79450D01*
X170031Y79477D01*
X170138Y79450D01*
X170258Y79223D01*
X170352Y78995D01*
X170459Y78728D01*
X170553Y78473D01*
X170700Y78139D01*
X170847Y77724D01*
X170887Y77684D01*
X170941Y77550D01*
X171048Y77256D01*
X171182Y76961D01*
X171249Y76787D01*
X171356Y76520D01*
X171476Y76292D01*
X171570Y76038D01*
X171784Y75583D01*
X171851Y75516D01*
X171985Y75489D01*
X172038Y75543D01*
X172292Y75877D01*
X172413Y76105D01*
X172426Y76118D01*
X172439Y76158D01*
X172547Y76453D01*
X172587Y76653D01*
X172613Y76761D01*
X172667Y76948D01*
X172801Y77162D01*
X172868Y77256D01*
X172975Y77282D01*
X173015Y77242D01*
X173122Y77055D01*
X173162Y77015D01*
X173269Y76988D01*
X173322Y77042D01*
X173349Y77149D01*
X173389Y77403D01*
X173443Y77537D01*
X173550Y77777D01*
X173711Y78125D01*
X173764Y78179D01*
X173898Y78420D01*
X174005Y78527D01*
X174032Y78580D01*
X174085Y78634D01*
X174112Y78687D01*
X174219Y78794D01*
X174246Y78848D01*
X174299Y78901D01*
X174326Y78955D01*
X174473Y79102D01*
X174607Y79129D01*
X174741Y79075D01*
X174901Y79049D01*
X175008Y79075D01*
X175075Y79142D01*
X175236Y79437D01*
X175316Y79517D01*
X175343Y79570D01*
X175437Y79664D01*
X175570Y79744D01*
X175651Y79771D01*
X175731Y79744D01*
X175758Y79691D01*
X175798Y79517D01*
X175838Y79477D01*
X175918Y79504D01*
X175999Y79584D01*
X176119Y79731D01*
X176146Y79785D01*
X176226Y79918D01*
X176253Y79972D01*
X176293Y80012D01*
X176413Y80159D01*
X176440Y80213D01*
X176801Y80574D01*
X176855Y80601D01*
X176908Y80654D01*
X177149Y80841D01*
X177203Y80868D01*
X177337Y81002D01*
X177390Y81029D01*
X177497Y81136D01*
X177618Y81283D01*
X177698Y81417D01*
X177751Y81470D01*
X177778Y81524D01*
X177832Y81577D01*
X178032Y81939D01*
X178113Y81966D01*
X178153Y81925D01*
D02*
G37*
G36*
X190958Y81644D02*
X191025Y81577D01*
X191051Y79249D01*
X191011Y79129D01*
X190918Y79062D01*
X190770Y79022D01*
X190663Y79049D01*
X190596Y79115D01*
X190570Y80079D01*
X190543Y80186D01*
X190503Y80226D01*
X190342Y80253D01*
X189994Y80119D01*
X189887Y80092D01*
X189807Y80066D01*
X189513Y80039D01*
X189325Y79985D01*
X189258Y79865D01*
X189272Y79263D01*
X189258Y79089D01*
X189205Y78955D01*
X189084Y78888D01*
X189071Y78875D01*
X188978Y78861D01*
X188870Y78888D01*
X188830Y78928D01*
X188804Y79089D01*
X188777Y79169D01*
X188804Y79570D01*
X188750Y79758D01*
X188630Y79825D01*
X188509Y79811D01*
X188402Y79785D01*
X188148Y79744D01*
X187961Y79718D01*
X187773Y79664D01*
X187653Y79517D01*
X187613Y79289D01*
X187626Y78634D01*
X187599Y78527D01*
X187546Y78393D01*
X187479Y78326D01*
X187345Y78299D01*
X187238Y78326D01*
X187198Y78366D01*
X187171Y78420D01*
X187144Y78500D01*
X187171Y78580D01*
X187158Y78701D01*
X187171Y80453D01*
X187144Y80534D01*
X187171Y80668D01*
X187198Y80775D01*
X187292Y80868D01*
X187345Y80895D01*
X187479Y80949D01*
X187800Y81029D01*
X188068Y81056D01*
X188389Y81109D01*
X188576Y81163D01*
X188697Y81203D01*
X188804Y81230D01*
X188978Y81270D01*
X189084Y81296D01*
X189352Y81323D01*
X189539Y81350D01*
X189753Y81403D01*
X189887Y81457D01*
X190034Y81497D01*
X190168Y81524D01*
X190476Y81564D01*
X190663Y81591D01*
X190797Y81644D01*
X190877Y81671D01*
X190958Y81644D01*
D02*
G37*
G36*
X184602Y81577D02*
X184830Y81537D01*
X184937Y81511D01*
X185057Y81470D01*
X185311Y81296D01*
X185365Y81270D01*
X185405Y81203D01*
X185432Y81149D01*
X185619Y80882D01*
X185646Y80775D01*
Y80748D01*
X185672Y80694D01*
X185699Y79945D01*
X185672Y79677D01*
X185646Y79249D01*
X185485Y78901D01*
X185418Y78834D01*
X185231Y78701D01*
X184883Y78674D01*
X184789Y78768D01*
X184763Y79356D01*
X184789Y79463D01*
X184843Y79597D01*
X184870Y79651D01*
X185044Y79771D01*
X185097Y79798D01*
X185137Y79838D01*
X185164Y79892D01*
X185204Y79932D01*
X185271Y80106D01*
X185244Y80213D01*
X185151Y80280D01*
X184696Y80306D01*
X184482Y80253D01*
X184442Y80213D01*
X184415Y79918D01*
X184442Y79811D01*
X184415Y79731D01*
X184388Y78955D01*
X184415Y78768D01*
X184388Y78580D01*
X184281Y78500D01*
X184147Y78447D01*
X184040Y78420D01*
X183893Y78380D01*
X183813Y78353D01*
X183572Y78380D01*
X183331Y78487D01*
X183277Y78513D01*
X183157Y78634D01*
X183050Y78928D01*
X183010Y79075D01*
X182970Y79249D01*
X182943Y79330D01*
X182956Y79744D01*
X182983Y80012D01*
X183010Y80146D01*
X183037Y80253D01*
X183077Y80453D01*
X183130Y80668D01*
X183344Y80989D01*
X183371Y81042D01*
X183572Y81243D01*
X183759Y81350D01*
X183987Y81470D01*
X184241Y81564D01*
X184321Y81591D01*
X184602Y81577D01*
D02*
G37*
G36*
X191011Y78674D02*
X191065Y78540D01*
X191051Y77831D01*
X191078Y77751D01*
X191051Y77537D01*
X190931Y77443D01*
X190663Y77416D01*
X190476Y77363D01*
X190249Y77296D01*
X190115Y77269D01*
X189700Y77202D01*
X189379Y77149D01*
X189205Y77082D01*
X189031Y77042D01*
X188897Y76988D01*
X188683Y76961D01*
X188576Y76934D01*
X188308Y76908D01*
X188094Y76854D01*
X187867Y76787D01*
X187760Y76761D01*
X187559Y76720D01*
X187452Y76694D01*
X187131Y76640D01*
X187024Y76667D01*
X186957Y76734D01*
X186930Y77644D01*
X186984Y77831D01*
X187091Y77911D01*
X187251Y77938D01*
X187492Y77965D01*
X187653Y77991D01*
X187974Y78072D01*
X188108Y78125D01*
X188322Y78179D01*
X188482Y78206D01*
X188817Y78246D01*
X189138Y78326D01*
X189406Y78406D01*
X189486Y78433D01*
X189780Y78460D01*
X189794Y78473D01*
X189914Y78487D01*
X190101Y78513D01*
X190315Y78567D01*
X190396Y78594D01*
X190556Y78620D01*
X190690Y78674D01*
X190931Y78701D01*
X191011Y78674D01*
D02*
G37*
G36*
X185579Y78299D02*
X185646Y78206D01*
X185672Y77323D01*
X185619Y77135D01*
X185552Y77068D01*
X185458Y77028D01*
X185351Y77001D01*
X185097Y76961D01*
X184990Y76934D01*
X184722Y76908D01*
X184508Y76854D01*
X184241Y76774D01*
X183920Y76694D01*
X183773Y76627D01*
X183692Y76493D01*
X183746Y76332D01*
X183920Y76212D01*
X184294Y76158D01*
X184361Y76065D01*
X184388Y75931D01*
X184335Y75556D01*
X184214Y75463D01*
X184000Y75436D01*
X183893Y75409D01*
X183625Y75382D01*
X183438Y75329D01*
X183385Y75275D01*
X183251Y75249D01*
X183170Y75275D01*
X183117Y75302D01*
X183050Y75396D01*
X183023Y75449D01*
X182970Y75503D01*
X182943Y75797D01*
X182956Y75811D01*
X182970Y75877D01*
X183010Y76025D01*
X183077Y76199D01*
X183144Y76346D01*
X183197Y76372D01*
X183318Y76493D01*
X183344Y76627D01*
X183304Y76667D01*
X183170Y76747D01*
X183077Y76841D01*
X183050Y77028D01*
X183023Y77109D01*
X183037Y77229D01*
X183023Y77510D01*
X183077Y77697D01*
X183197Y77818D01*
X183411Y77898D01*
X183732Y77951D01*
X184000Y77978D01*
X184321Y78058D01*
X184549Y78125D01*
X184656Y78152D01*
X184789Y78179D01*
X185097Y78219D01*
X185204Y78246D01*
X185472Y78326D01*
X185579Y78299D01*
D02*
G37*
G36*
X190208Y76854D02*
X190489Y76734D01*
X190663Y76667D01*
X190703Y76627D01*
X190837Y76439D01*
X190864Y76386D01*
X190918Y76332D01*
X191011Y76185D01*
X191038Y76078D01*
X191092Y75409D01*
X191078Y75155D01*
X191051Y74727D01*
X191025Y74539D01*
X190918Y74299D01*
X190891Y74245D01*
X190770Y74125D01*
X190530Y73991D01*
X190422Y73964D01*
X190235Y73991D01*
X190195Y74031D01*
X190168Y74191D01*
X190142Y74700D01*
X190195Y74834D01*
X190222Y74887D01*
X190422Y75088D01*
X190476Y75115D01*
X190610Y75275D01*
X190637Y75382D01*
X190623Y75530D01*
X190503Y75623D01*
X190182Y75650D01*
X189994Y75623D01*
X189887Y75596D01*
X189820Y75503D01*
X189794Y74165D01*
X189820Y74085D01*
X189767Y73924D01*
X189727Y73884D01*
X189593Y73804D01*
X189432Y73697D01*
X189379Y73670D01*
X188924D01*
X188763Y73777D01*
X188630Y73857D01*
X188589Y73897D01*
X188482Y74085D01*
X188456Y74191D01*
X188416Y74339D01*
X188375Y74513D01*
X188349Y74593D01*
X188362Y75222D01*
X188389Y75382D01*
X188416Y75516D01*
X188482Y75824D01*
X188509Y75931D01*
X188563Y76065D01*
X188589Y76118D01*
X188643Y76172D01*
X188750Y76359D01*
X188844Y76453D01*
X188897Y76480D01*
X188937Y76520D01*
X189084Y76640D01*
X189218Y76694D01*
X189513Y76828D01*
X189753Y76854D01*
X189861Y76881D01*
X190208Y76854D01*
D02*
G37*
G36*
X185579Y75409D02*
X185646Y75342D01*
X185672Y74432D01*
X185619Y74218D01*
X185552Y74151D01*
X185338Y74125D01*
X184963Y74071D01*
X184856Y74044D01*
X184508Y73937D01*
X184361Y73897D01*
X184054Y73857D01*
X183866Y73804D01*
X183746Y73683D01*
X183692Y73549D01*
X183732Y73429D01*
X183866Y73349D01*
X184161Y73322D01*
X184268Y73295D01*
X184335Y73228D01*
X184361Y73014D01*
X184388Y72827D01*
X184335Y72639D01*
X184254Y72586D01*
X184147Y72559D01*
X183906Y72532D01*
X183732Y72492D01*
X183625Y72465D01*
X183492Y72412D01*
X183438Y72385D01*
X183385Y72332D01*
X183197Y72305D01*
X183104Y72399D01*
X182970Y72639D01*
X182943Y72853D01*
X182970Y72961D01*
X183077Y73308D01*
X183130Y73442D01*
X183224Y73536D01*
X183277Y73563D01*
X183371Y73683D01*
X183358Y73777D01*
X183117Y73911D01*
X183050Y73978D01*
X183023Y74165D01*
X183050Y74245D01*
X183023Y74700D01*
X183050Y74780D01*
X183077Y74834D01*
X183117Y74847D01*
X183170Y74901D01*
X183197D01*
X183358Y74954D01*
X183666Y75048D01*
X184080Y75115D01*
X184401Y75168D01*
X184589Y75222D01*
X184897Y75315D01*
X185070Y75356D01*
X185258Y75382D01*
X185365Y75409D01*
X185445Y75436D01*
X185579Y75409D01*
D02*
G37*
G36*
X186636Y72800D02*
X186716Y72666D01*
X186689Y72345D01*
X186663Y71756D01*
X186529Y71462D01*
X186502Y71408D01*
X186422Y71221D01*
X186355Y71101D01*
X186301Y71074D01*
X186248Y71020D01*
X186127Y70873D01*
X185860Y70713D01*
X185713Y70592D01*
X185458Y70472D01*
X185445Y70459D01*
X185418D01*
X185338Y70378D01*
X185151Y70271D01*
X184963Y70191D01*
X184910Y70164D01*
X184816Y70070D01*
X184642Y70003D01*
X184508Y69950D01*
X184428Y69870D01*
X184241Y69763D01*
X184054Y69682D01*
X184000Y69656D01*
X183947Y69602D01*
X183759Y69495D01*
X183625Y69441D01*
X183358Y69254D01*
X183144Y69227D01*
X183050Y69321D01*
X183023Y69562D01*
X183077Y69696D01*
X183224Y69843D01*
X183277Y69870D01*
X183344Y69937D01*
X183518Y70003D01*
X183652Y70057D01*
X183706Y70084D01*
X183759Y70137D01*
X184000Y70271D01*
X184134Y70325D01*
X184428Y70485D01*
X184562Y70539D01*
X184602Y70579D01*
X184629Y70686D01*
X184589Y70726D01*
X184495Y70766D01*
X183799Y70793D01*
X183385Y70833D01*
X183197Y70860D01*
X183130Y70927D01*
X183050Y71061D01*
X183023Y71355D01*
X183050Y71462D01*
X183023Y71810D01*
X183050Y71997D01*
X183170Y72118D01*
X183277Y72144D01*
X183385Y72118D01*
X183465Y72091D01*
X184134Y72064D01*
X184241Y72037D01*
X184602Y71997D01*
X184763Y71970D01*
X184897Y71944D01*
X185003Y71917D01*
X185231Y71877D01*
X185311Y71850D01*
X185953Y71823D01*
X186101Y71890D01*
X186234Y72131D01*
X186261Y72506D01*
X186315Y72720D01*
X186435Y72813D01*
X186636Y72800D01*
D02*
G37*
G36*
X190289Y73482D02*
X190690Y73295D01*
X190730Y73255D01*
X190864Y73014D01*
X190918Y72961D01*
X191011Y72813D01*
X191038Y72706D01*
X191078Y72158D01*
X191105Y72078D01*
X191078Y71837D01*
X191051Y71328D01*
X191025Y71221D01*
X190971Y71034D01*
X190918Y70980D01*
X190891Y70927D01*
X190851Y70887D01*
X190797Y70860D01*
X190757Y70820D01*
X190650Y70793D01*
X190436Y70766D01*
X190208Y70726D01*
X190101Y70753D01*
X190061Y70793D01*
X190034Y71382D01*
X190061Y71489D01*
X190128Y71556D01*
X190262Y71636D01*
X190449Y71770D01*
X190503Y71797D01*
X190543Y71837D01*
X190570Y71890D01*
X190610Y71930D01*
X190650Y72104D01*
X190596Y72238D01*
X190530Y72278D01*
X190289Y72305D01*
X189780Y72278D01*
X189767Y72265D01*
X189727Y72251D01*
X189499Y72184D01*
X189365Y72131D01*
X189192Y72064D01*
X189058Y72011D01*
X189004Y71984D01*
X188804Y71783D01*
X188777Y71596D01*
X188817Y71556D01*
X188951Y71475D01*
X189031Y71449D01*
X189218Y71475D01*
X189406Y71449D01*
X189472Y71355D01*
X189499Y70846D01*
X189446Y70659D01*
X189406Y70619D01*
X189272Y70539D01*
X188790Y70512D01*
X188603Y70565D01*
X188563Y70606D01*
X188482Y70739D01*
X188456Y70846D01*
X188416Y70994D01*
X188375Y71194D01*
X188349Y71275D01*
X188362Y71930D01*
X188389Y72091D01*
X188416Y72198D01*
X188509Y72639D01*
X188750Y72987D01*
X188777Y73041D01*
X188844Y73108D01*
X188897Y73134D01*
X189004Y73242D01*
X189058Y73268D01*
X189098Y73308D01*
X189245Y73349D01*
X189379Y73402D01*
X189539Y73509D01*
X190075Y73536D01*
X190289Y73482D01*
D02*
G37*
G36*
X188790Y70137D02*
X188830Y69883D01*
X188870Y69843D01*
X188964Y69803D01*
X189084Y69816D01*
X189472Y69937D01*
X189606Y69963D01*
X189941Y70003D01*
X190021Y70030D01*
X190583Y70057D01*
X190690Y70030D01*
X190824Y69977D01*
X190877Y69950D01*
X190918Y69910D01*
X191051Y69722D01*
X191078Y68679D01*
X191051Y68572D01*
X190984Y68505D01*
X190797Y68478D01*
X190690Y68505D01*
X190650Y68545D01*
X190543Y68732D01*
X190476Y68799D01*
X190315Y68826D01*
X190195Y68786D01*
X189807Y68719D01*
X189432Y68665D01*
X189325Y68639D01*
X189138Y68585D01*
X188897Y68478D01*
X188857Y68438D01*
X188817Y68344D01*
X188790Y68103D01*
X188777Y68090D01*
Y68063D01*
X188737Y68023D01*
X188576Y67997D01*
X188469Y68023D01*
X188429Y68063D01*
X188402Y68251D01*
X188362Y68371D01*
X188148Y68398D01*
X187961Y68318D01*
X187773Y68291D01*
X187666Y68318D01*
X187599Y68411D01*
X187573Y68759D01*
X187626Y68893D01*
X187920Y69187D01*
X187947Y69241D01*
X188028Y69321D01*
X188054Y69375D01*
X188135Y69455D01*
X188242Y69642D01*
X188295Y69830D01*
X188429Y70124D01*
X188496Y70191D01*
X188710Y70218D01*
X188790Y70137D01*
D02*
G37*
G36*
X185579Y69308D02*
X185672Y69134D01*
X185659Y68184D01*
X185632Y68077D01*
X185619Y68063D01*
Y68037D01*
X185539Y67983D01*
X185432Y67956D01*
X185137Y67930D01*
X185003Y67903D01*
X184682Y67822D01*
X184535Y67782D01*
X184321Y67729D01*
X184187Y67675D01*
X184147Y67635D01*
X184120Y67582D01*
X184147Y67501D01*
X184281Y67448D01*
X184562Y67408D01*
X184776Y67354D01*
X184923Y67287D01*
X185137Y67207D01*
X185365Y67167D01*
X185552Y67113D01*
X185646Y66993D01*
X185672Y65976D01*
X185646Y65869D01*
X185606Y65749D01*
X185499Y65722D01*
X185418Y65749D01*
X185365Y65775D01*
X185311Y65829D01*
X185218Y65869D01*
X185017Y65909D01*
X184830Y65989D01*
X184776Y66016D01*
X184736Y66056D01*
X184522Y66137D01*
X184294Y66177D01*
X184107Y66311D01*
X183947Y66337D01*
X183866Y66311D01*
X183813Y66284D01*
X183746Y66217D01*
X183612Y65976D01*
X183465Y65829D01*
X183411Y65802D01*
X183385Y65749D01*
X183331Y65722D01*
X183291Y65682D01*
X183117Y65615D01*
X183010Y65588D01*
X182930Y65561D01*
X182582Y65535D01*
X182394Y65588D01*
X182287Y65615D01*
X182153Y65668D01*
X182033Y65816D01*
X181966Y65909D01*
X181846Y66056D01*
X181819Y66297D01*
X181792Y66378D01*
X181765Y68331D01*
X181819Y68465D01*
X181939Y68559D01*
X182113Y68625D01*
X182421Y68692D01*
X182608Y68719D01*
X182876Y68746D01*
X182983Y68773D01*
X183211Y68839D01*
X183639Y68946D01*
X183947Y68987D01*
X184054Y69013D01*
X184241Y69040D01*
X184348Y69067D01*
X184482Y69120D01*
X184629Y69161D01*
X184736Y69187D01*
X184897Y69214D01*
X185164Y69241D01*
X185298Y69268D01*
X185472Y69335D01*
X185579Y69308D01*
D02*
G37*
G36*
X184990Y65374D02*
X185124Y65320D01*
X185365Y65133D01*
X185472Y64973D01*
X185646Y64718D01*
X185672Y64424D01*
X185699Y64156D01*
X185672Y63487D01*
X185646Y63300D01*
X185619Y63193D01*
X185565Y63059D01*
X185552Y63046D01*
X185378Y62711D01*
X185351Y62658D01*
X185231Y62564D01*
X185178Y62537D01*
X185070Y62430D01*
X184923Y62337D01*
X184776Y62296D01*
X184562Y62243D01*
X184375Y62163D01*
X184134Y62136D01*
X183866Y62163D01*
X183438Y62296D01*
X183144Y62591D01*
X183077Y62765D01*
X182996Y63086D01*
X182970Y63166D01*
X182943Y63621D01*
X182983Y63982D01*
X183010Y64116D01*
X183050Y64263D01*
X183104Y64477D01*
X183157Y64665D01*
X183237Y64745D01*
X183264Y64799D01*
X183318Y64852D01*
X183398Y64986D01*
X183465Y65053D01*
X183652Y65160D01*
X183706Y65187D01*
X183759Y65240D01*
X183947Y65347D01*
X184027Y65374D01*
X184803Y65401D01*
X184990Y65374D01*
D02*
G37*
G36*
X190984Y68103D02*
X191025Y68063D01*
X191051Y67341D01*
X191078Y67154D01*
X191025Y66939D01*
X190891Y66859D01*
X190744Y66819D01*
X190436Y66725D01*
X190182Y66685D01*
X190075Y66659D01*
X189807Y66632D01*
X189486Y66551D01*
X189192Y66418D01*
X189138Y66391D01*
X189071Y66297D01*
X189098Y66163D01*
X189138Y66123D01*
X189192Y66097D01*
X189352Y65989D01*
X189539Y65963D01*
X189646Y65936D01*
X189687Y65896D01*
X189753Y65802D01*
X189780Y65641D01*
X189767Y65548D01*
X189740Y65441D01*
X189580Y65280D01*
X189553Y65200D01*
X189673Y65133D01*
X190208Y65106D01*
X190315Y65080D01*
X190436Y65039D01*
X190690Y64865D01*
X190744Y64839D01*
X190877Y64625D01*
X190998Y64477D01*
X191025Y64424D01*
X191051Y64344D01*
X191078Y63862D01*
X191105Y63782D01*
X191051Y63086D01*
X191025Y62899D01*
X190958Y62725D01*
X190851Y62564D01*
X190784Y62390D01*
X190690Y62296D01*
X190637Y62270D01*
X190503Y62136D01*
X190315Y62029D01*
X189968Y61868D01*
X189446Y61828D01*
X189192Y61841D01*
X188790Y62029D01*
X188737Y62056D01*
X188589Y62203D01*
X188482Y62390D01*
X188375Y62818D01*
X188349Y62899D01*
X188362Y63581D01*
X188389Y63715D01*
X188442Y63929D01*
X188482Y64156D01*
X188563Y64344D01*
X188589Y64397D01*
X188697Y64504D01*
X188723Y64558D01*
X188804Y64638D01*
X188830Y64692D01*
X188897Y64732D01*
X189245Y64919D01*
X189312Y64986D01*
X189339Y65093D01*
X189272Y65133D01*
X188884Y65120D01*
X188683Y65080D01*
X188670Y65066D01*
X188630Y65053D01*
X188496Y65106D01*
X188456Y65146D01*
X188429Y65200D01*
X188375Y65254D01*
X188349Y65628D01*
X188389Y65775D01*
X188456Y65949D01*
X188509Y66083D01*
X188670Y66244D01*
X188697Y66378D01*
X188670Y66484D01*
X188576Y66551D01*
X188456Y66699D01*
X188429Y67314D01*
X188456Y67501D01*
X188549Y67595D01*
X188643Y67635D01*
X188817Y67675D01*
X189004Y67702D01*
X189325Y67756D01*
X189633Y67849D01*
X189740Y67876D01*
X189941Y67916D01*
X190048Y67943D01*
X190503Y67997D01*
X190610Y68023D01*
X190851Y68130D01*
X190984Y68103D01*
D02*
G37*
G36*
X184522Y62015D02*
X184830Y61949D01*
X185124Y61815D01*
X185258Y61761D01*
X185351Y61668D01*
X185458Y61480D01*
X185512Y61427D01*
X185646Y61186D01*
X185672Y60838D01*
X185699Y60651D01*
X185672Y59901D01*
X185619Y59580D01*
X185565Y59447D01*
X185499Y59380D01*
X185311Y59246D01*
X185097Y59219D01*
X185017Y59192D01*
X184749Y59166D01*
X184656Y59259D01*
X184629Y59821D01*
X184696Y59968D01*
X184830Y60049D01*
X185017Y60182D01*
X185070Y60209D01*
X185164Y60303D01*
X185244Y60437D01*
X185231Y60637D01*
X185044Y60744D01*
X184549Y60731D01*
X184388Y60704D01*
X184174Y60651D01*
X184040Y60597D01*
X183786Y60504D01*
X183652Y60450D01*
X183572Y60370D01*
X183478Y60303D01*
X183371Y60115D01*
X183425Y59982D01*
X183465Y59942D01*
X183572Y59915D01*
X183652Y59888D01*
X183893Y59915D01*
X184000Y59888D01*
X184094Y59768D01*
X184120Y59393D01*
X184094Y59206D01*
X184054Y59085D01*
X184000Y59058D01*
X183960Y59018D01*
X183853Y58991D01*
X183625Y58951D01*
X183545Y58925D01*
X183344Y58938D01*
X183237Y58965D01*
X183224Y58978D01*
X183184Y59018D01*
X183104Y59152D01*
X183050Y59339D01*
X183010Y59487D01*
X182970Y59741D01*
X182943Y59821D01*
X182956Y60236D01*
X182983Y60450D01*
X183010Y60584D01*
X183063Y60798D01*
X183104Y61025D01*
X183157Y61159D01*
X183237Y61239D01*
X183344Y61427D01*
X183492Y61574D01*
X183545Y61601D01*
X183679Y61734D01*
X183893Y61815D01*
X184027Y61868D01*
X184080Y61895D01*
X184134Y61949D01*
X184187Y61975D01*
X184241Y62029D01*
X184522Y62015D01*
D02*
G37*
G36*
X191025Y61721D02*
X191051Y61052D01*
X191078Y60704D01*
X191011Y60530D01*
X190918Y60490D01*
X190637Y60450D01*
X190449Y60396D01*
X190182Y60316D01*
X189968Y60263D01*
X189780Y60236D01*
X189513Y60209D01*
X189299Y60156D01*
X189165Y60102D01*
X189018Y59955D01*
X188991Y59768D01*
X189018Y59661D01*
X189084Y59594D01*
X189272Y59567D01*
X189379Y59594D01*
X189513Y59647D01*
X189620Y59674D01*
X189646D01*
X189687Y59687D01*
X189847Y59714D01*
X190275Y59768D01*
X190449Y59808D01*
X190556Y59834D01*
X190744Y59915D01*
X190958Y59942D01*
X191025Y59875D01*
X191051Y59072D01*
X191078Y58991D01*
X191051Y58777D01*
X190918Y58670D01*
X190690Y58630D01*
X190463Y58563D01*
X190249Y58510D01*
X189941Y58443D01*
X189566Y58389D01*
X189352Y58336D01*
X189272Y58309D01*
X188897Y58282D01*
X188603Y58416D01*
X188536Y58483D01*
X188456Y58617D01*
X188375Y58804D01*
X188349Y59179D01*
X188389Y59326D01*
X188456Y59500D01*
X188563Y59741D01*
X188589Y59794D01*
X188670Y59875D01*
X188697Y60035D01*
X188670Y60142D01*
X188576Y60209D01*
X188523Y60236D01*
X188469Y60289D01*
X188416Y60423D01*
X188429Y61052D01*
X188456Y61159D01*
X188523Y61226D01*
X188616Y61266D01*
X188897Y61306D01*
X189004Y61333D01*
X189151Y61373D01*
X189258Y61400D01*
X189700Y61494D01*
X190075Y61547D01*
X190182Y61574D01*
X190302Y61614D01*
X190503Y61654D01*
X190690Y61734D01*
X190904Y61761D01*
X191025Y61721D01*
D02*
G37*
G36*
X190984Y58149D02*
X191025Y58109D01*
X191051Y57279D01*
X191078Y57172D01*
X191025Y56958D01*
X190944Y56904D01*
X190637Y56864D01*
X190449Y56811D01*
X190222Y56744D01*
X190088Y56717D01*
X189673Y56650D01*
X189486Y56623D01*
X189218Y56543D01*
X189192D01*
X189138Y56516D01*
X188924Y56463D01*
X188790Y56409D01*
X188683Y56382D01*
X188496Y56436D01*
X188456Y56476D01*
X188429Y56663D01*
X188456Y56744D01*
X188429Y57466D01*
X188469Y57587D01*
X188563Y57653D01*
X188737Y57694D01*
X188924Y57720D01*
X189138Y57774D01*
X189285Y57814D01*
X189606Y57894D01*
X189767Y57921D01*
X189981Y57948D01*
X190249Y58001D01*
X190356Y58028D01*
X190530Y58068D01*
X190717Y58149D01*
X190877Y58175D01*
X190984Y58149D01*
D02*
G37*
G36*
X187907Y57399D02*
X188028Y57279D01*
X188054Y57225D01*
X188188Y57038D01*
X188215Y56877D01*
X188188Y56770D01*
X188108Y56583D01*
X188081Y56530D01*
X187987Y56409D01*
X187747Y56222D01*
X187720D01*
X187559Y56195D01*
X187425Y56249D01*
X187372Y56275D01*
X187318Y56329D01*
X187198Y56476D01*
X187171Y56583D01*
X187144Y56663D01*
X187158Y56918D01*
X187198Y57091D01*
X187251Y57225D01*
X187345Y57319D01*
X187439Y57386D01*
X187720Y57453D01*
X187907Y57399D01*
D02*
G37*
G36*
X185606Y58844D02*
X185646Y58777D01*
X185672Y57894D01*
X185646Y57707D01*
X185592Y57653D01*
X185418Y57587D01*
X185311Y57560D01*
X185164Y57520D01*
X185057Y57493D01*
X184897Y57466D01*
X184722Y57426D01*
X184629Y57332D01*
X184642Y57239D01*
X184736Y57172D01*
X184883Y57132D01*
X185057Y57065D01*
X185218Y56958D01*
X185392Y56891D01*
X185525Y56837D01*
X185646Y56690D01*
X185672Y55673D01*
X185646Y55486D01*
X185606Y55446D01*
X185472Y55419D01*
X185365Y55526D01*
X185178Y55633D01*
X185030Y55700D01*
X184883Y55820D01*
X184669Y55901D01*
X184508Y56008D01*
X184214Y56168D01*
X184027Y56195D01*
X183920Y56168D01*
X183906Y56128D01*
X183853Y56075D01*
X183826Y56021D01*
X183732Y55927D01*
X183612Y55780D01*
X183585Y55727D01*
X183451Y55593D01*
X183344Y55406D01*
X183277Y55339D01*
X183090Y55312D01*
X183050Y55352D01*
X183023Y55673D01*
X183050Y55780D01*
X183130Y56048D01*
X183251Y56168D01*
X183371Y56315D01*
X183398Y56369D01*
X183532Y56503D01*
X183639Y56690D01*
X183853Y56904D01*
X183906Y57038D01*
X183933Y57118D01*
X183906Y57199D01*
X183786Y57212D01*
X183599Y57185D01*
X183518Y57158D01*
X183224Y57132D01*
X183010Y57078D01*
X182702Y56985D01*
X182528Y56944D01*
X182448Y56918D01*
X182020Y56891D01*
X182006Y56877D01*
X181859Y56811D01*
X181672Y56784D01*
X181551Y56931D01*
X181525Y57199D01*
X181551Y57279D01*
X181525Y57734D01*
X181578Y57948D01*
X181618Y57988D01*
X181765Y58082D01*
X182073Y58149D01*
X182180Y58175D01*
X182448Y58202D01*
X182635Y58229D01*
X182742Y58256D01*
X183130Y58376D01*
X183264Y58403D01*
X183572Y58443D01*
X183679Y58470D01*
X183866Y58496D01*
X183973Y58523D01*
X184348Y58630D01*
X184428Y58657D01*
X184722Y58684D01*
X184830Y58711D01*
X185284Y58791D01*
X185338Y58844D01*
X185499Y58871D01*
X185606Y58844D01*
D02*
G37*
G36*
X190155Y56302D02*
X190262Y56275D01*
X190663Y56088D01*
X190717Y56061D01*
X190837Y55861D01*
X190864Y55807D01*
X190904Y55767D01*
X191011Y55606D01*
X191038Y55472D01*
X191065Y55205D01*
X191092Y54857D01*
X191078Y54523D01*
X191051Y54175D01*
X191025Y53987D01*
X190944Y53800D01*
X190918Y53746D01*
X190851Y53680D01*
X190663Y53572D01*
X190637D01*
X190463Y53559D01*
X190208Y53519D01*
X190101Y53546D01*
X190061Y53586D01*
X190034Y54175D01*
X190061Y54282D01*
X190128Y54349D01*
X190182Y54375D01*
X190342Y54482D01*
X190476Y54563D01*
X190543Y54630D01*
X190610Y54723D01*
X190650Y54870D01*
X190610Y54991D01*
X190422Y55098D01*
X190034Y55085D01*
X189794Y55058D01*
X189580Y55004D01*
X189446Y54951D01*
X189192Y54857D01*
X189058Y54804D01*
X189004Y54750D01*
X188951Y54723D01*
X188804Y54576D01*
X188777Y54389D01*
X188897Y54268D01*
X189138Y54242D01*
X189218Y54268D01*
X189379Y54242D01*
X189472Y54148D01*
X189499Y53666D01*
X189472Y53479D01*
X189379Y53385D01*
X189285Y53345D01*
X189125Y53318D01*
X188790Y53278D01*
X188603Y53332D01*
X188549Y53385D01*
X188456Y53639D01*
X188402Y53827D01*
X188375Y53907D01*
X188349Y54549D01*
X188375Y54817D01*
X188482Y55245D01*
X188509Y55432D01*
X188616Y55593D01*
X188750Y55780D01*
X188777Y55834D01*
X188817Y55874D01*
X188870Y55901D01*
X188978Y56008D01*
X189486Y56275D01*
X189700Y56302D01*
X189887Y56329D01*
X190155Y56302D01*
D02*
G37*
G36*
X184803Y55125D02*
X184990Y55098D01*
X185097Y55071D01*
X185178Y54991D01*
X185231Y54964D01*
X185325Y54870D01*
X185512Y54630D01*
X185539Y54576D01*
X185592Y54523D01*
X185632Y54429D01*
X185659Y54322D01*
X185699Y53666D01*
X185672Y53238D01*
X185646Y52890D01*
X185619Y52783D01*
X185565Y52649D01*
X185539Y52596D01*
X185499Y52556D01*
X185392Y52395D01*
X185298Y52328D01*
X185124Y52261D01*
X184856Y52288D01*
X184763Y52382D01*
X184776Y53064D01*
X184803Y53171D01*
X185044Y53359D01*
X185097Y53385D01*
X185244Y53586D01*
X185271Y53693D01*
X185244Y53773D01*
X185097Y53894D01*
X184910Y53920D01*
X184642Y53894D01*
X184535Y53867D01*
X184442Y53773D01*
X184415Y53024D01*
X184388Y52944D01*
X184401Y52609D01*
X184388Y52248D01*
X184335Y52114D01*
X184187Y52020D01*
X183545Y51994D01*
X183358Y52074D01*
X183304Y52101D01*
X183144Y52261D01*
X183077Y52435D01*
X183037Y52582D01*
X183010Y52689D01*
X182970Y52890D01*
X182943Y52970D01*
X182956Y53332D01*
X182983Y53626D01*
X183010Y53760D01*
X183104Y54175D01*
X183130Y54282D01*
X183344Y54603D01*
X183371Y54656D01*
X183385Y54670D01*
X183398Y54710D01*
X183438Y54750D01*
X183572Y54830D01*
X183853Y55031D01*
X183987Y55085D01*
X184147Y55111D01*
X184468Y55138D01*
X184803Y55125D01*
D02*
G37*
G36*
X183304Y51646D02*
X183371Y51579D01*
X183398Y51445D01*
X183425Y51338D01*
X183465Y51298D01*
X183786Y51271D01*
X184000Y51325D01*
X184228Y51392D01*
X184335Y51418D01*
X184482Y51459D01*
X184562Y51485D01*
X185258Y51512D01*
X185392Y51459D01*
X185539Y51311D01*
X185672Y51124D01*
X185699Y50187D01*
X185646Y50000D01*
X185565Y49946D01*
X185418Y49906D01*
X185284Y49960D01*
X185191Y50134D01*
X185044Y50254D01*
X184843Y50241D01*
X184508Y50201D01*
X184401Y50174D01*
X184375D01*
X184268Y50147D01*
X184040Y50080D01*
X183933Y50054D01*
X183786Y50013D01*
X183679Y49987D01*
X183492Y49933D01*
X183451Y49893D01*
X183425Y49625D01*
X183398Y49518D01*
X183344Y49465D01*
X183237Y49438D01*
X183117Y49451D01*
X183063Y49505D01*
X182970Y49759D01*
X182930Y49799D01*
X182876Y49826D01*
X182769Y49799D01*
X182689Y49773D01*
X182528Y49746D01*
X182448Y49719D01*
X182234Y49773D01*
X182194Y49813D01*
X182167Y49946D01*
X182194Y50134D01*
X182247Y50348D01*
X182394Y50495D01*
X182448Y50522D01*
X182568Y50669D01*
X182595Y50722D01*
X182729Y50856D01*
X182836Y51044D01*
X182916Y51338D01*
X183023Y51499D01*
X183050Y51552D01*
X183090Y51592D01*
X183224Y51673D01*
X183304Y51646D01*
D02*
G37*
%LPC*%
G36*
X185030Y83879D02*
X184963Y83865D01*
X184696Y83839D01*
X184482Y83785D01*
X184254Y83718D01*
X184080Y83678D01*
X183893Y83598D01*
X183826Y83424D01*
X183880Y83210D01*
X183973Y83116D01*
X184000D01*
X184054Y83089D01*
X184321Y83063D01*
X184682Y83103D01*
X184856Y83143D01*
X184910Y83197D01*
X184963Y83223D01*
X185164Y83424D01*
X185191Y83477D01*
X185244Y83531D01*
X185271Y83718D01*
X185244Y83825D01*
X185191Y83852D01*
X185030Y83879D01*
D02*
G37*
G36*
X183197Y83518D02*
X182956Y83411D01*
X182769Y83384D01*
X182662Y83357D01*
X182394Y83330D01*
X182261Y83277D01*
X182194Y83183D01*
Y83049D01*
X182220Y82942D01*
X182287Y82875D01*
X182475Y82768D01*
X182756Y82782D01*
X182930Y82822D01*
X183037Y82849D01*
X183170Y82902D01*
X183224Y82956D01*
X183344Y83103D01*
X183371Y83317D01*
X183331Y83437D01*
X183197Y83518D01*
D02*
G37*
G36*
X173804Y74606D02*
X173697Y74580D01*
X173550Y74379D01*
X173483Y74285D01*
X173309Y74031D01*
X173282Y73978D01*
X173175Y73870D01*
X173042Y73630D01*
X172961Y73549D01*
X172934Y73496D01*
X172881Y73442D01*
X172854Y73389D01*
X172747Y73228D01*
X172720Y73175D01*
X172667Y73121D01*
X172587Y72987D01*
X172319Y72613D01*
X172292Y72559D01*
X172105Y72291D01*
X172078Y72238D01*
X171837Y71890D01*
X171811Y71837D01*
X171623Y71569D01*
X171516Y71382D01*
X171356Y71221D01*
X171222Y70980D01*
X171182Y70940D01*
X171008Y70686D01*
X170981Y70632D01*
X170874Y70525D01*
X170767Y70338D01*
X170580Y70070D01*
X170553Y70017D01*
X170312Y69669D01*
X170285Y69616D01*
X170098Y69348D01*
X169991Y69161D01*
X169937Y69107D01*
X169911Y69054D01*
X169830Y68973D01*
X169804Y68920D01*
X169696Y68759D01*
X169670Y68706D01*
X169630Y68665D01*
X169509Y68518D01*
X169482Y68465D01*
X169295Y68197D01*
X169188Y68010D01*
X169134Y67956D01*
X169108Y67903D01*
X169054Y67849D01*
X169027Y67796D01*
X168787Y67448D01*
X168680Y67261D01*
X168492Y66993D01*
X168465Y66939D01*
X168278Y66672D01*
X168171Y66484D01*
X168037Y66351D01*
X168011Y66297D01*
X167810Y66016D01*
X167636Y65762D01*
X167609Y65709D01*
X167569Y65668D01*
X167395Y65414D01*
X167368Y65361D01*
X167315Y65307D01*
X167208Y65120D01*
X167101Y64959D01*
X167074Y64906D01*
X166994Y64825D01*
X166860Y64584D01*
X166820Y64544D01*
X166606Y64223D01*
X166485Y64076D01*
X166378Y63889D01*
X166244Y63755D01*
X166218Y63701D01*
X166084Y63487D01*
X166057Y63434D01*
X166017Y63394D01*
X165843Y63139D01*
X165816Y63086D01*
X165776Y63046D01*
X165562Y62725D01*
X165388Y62470D01*
X165361Y62417D01*
X165254Y62256D01*
X165120Y62069D01*
X165094Y62015D01*
X164960Y61828D01*
X164853Y61641D01*
X164799Y61587D01*
X164772Y61534D01*
X164665Y61427D01*
X164639Y61373D01*
X164184Y60731D01*
X164103Y60597D01*
X163970Y60410D01*
X163889Y60276D01*
X163756Y60089D01*
X163729Y60035D01*
X163689Y59995D01*
X163528Y59728D01*
X163301Y59393D01*
X163274Y59339D01*
X163167Y59232D01*
X163033Y58991D01*
X162966Y58925D01*
X162739Y58590D01*
X162712Y58537D01*
X162672Y58496D01*
X162551Y58349D01*
X162525Y58296D01*
X162337Y58028D01*
X162311Y57975D01*
X162204Y57814D01*
X162016Y57466D01*
X161909Y57306D01*
X161708Y56918D01*
X161601Y56757D01*
X161441Y56436D01*
X161267Y56182D01*
X161240Y56075D01*
X161106Y55887D01*
X160999Y55700D01*
X160946Y55566D01*
X160839Y55406D01*
X160625Y55004D01*
X160277Y54335D01*
X160049Y53920D01*
X159956Y53666D01*
X159875Y53586D01*
X159849Y53532D01*
X159808Y53492D01*
X159768Y53345D01*
X159835Y53171D01*
X159915Y53144D01*
X160036Y53184D01*
X160290Y53278D01*
X160518Y53345D01*
X160692Y53412D01*
X160879Y53492D01*
X161601Y53840D01*
X161762Y53947D01*
X161949Y54054D01*
X162297Y54295D01*
X162351Y54322D01*
X162618Y54509D01*
X162752Y54589D01*
X162806Y54643D01*
X162859Y54670D01*
X162966Y54777D01*
X163020Y54804D01*
X163100Y54884D01*
X163154Y54911D01*
X163568Y55325D01*
X163595Y55379D01*
X163782Y55566D01*
X163809Y55620D01*
X163863Y55673D01*
X163889Y55727D01*
X163930Y55767D01*
X164063Y55927D01*
X164170Y56088D01*
X164398Y56423D01*
X164425Y56476D01*
X164505Y56556D01*
X164665Y56851D01*
X164772Y56958D01*
X164880Y57145D01*
X164906Y57199D01*
X165013Y57359D01*
X165147Y57600D01*
X165281Y57787D01*
X165442Y58082D01*
X165549Y58242D01*
X165575Y58296D01*
X165682Y58456D01*
X165709Y58510D01*
X165816Y58670D01*
X165923Y58858D01*
X165950Y58911D01*
X166084Y59099D01*
X166218Y59339D01*
X166298Y59420D01*
X166325Y59473D01*
X166378Y59527D01*
X166485Y59714D01*
X166512Y59768D01*
X166566Y59821D01*
X166699Y60062D01*
X166833Y60249D01*
X166967Y60490D01*
X166994Y60544D01*
X167101Y60704D01*
X167208Y60891D01*
X167395Y61186D01*
X167502Y61373D01*
X167529Y61427D01*
X167582Y61480D01*
X167743Y61775D01*
X167877Y61962D01*
X168011Y62203D01*
X168118Y62310D01*
X168251Y62551D01*
X168439Y62818D01*
X168546Y63006D01*
X168572Y63059D01*
X168626Y63113D01*
X168813Y63461D01*
X168947Y63648D01*
X169054Y63835D01*
X169068Y63849D01*
X169108Y63915D01*
X169295Y64263D01*
X169375Y64344D01*
X169509Y64584D01*
X169616Y64745D01*
X169750Y64932D01*
X169777Y64986D01*
X169911Y65173D01*
X170044Y65414D01*
X170178Y65601D01*
X170339Y65896D01*
X170392Y65949D01*
X170499Y66137D01*
X170767Y66565D01*
X170794Y66618D01*
X170901Y66779D01*
X171061Y67073D01*
X171249Y67341D01*
X171275Y67394D01*
X171382Y67555D01*
X171409Y67608D01*
X171463Y67662D01*
X171597Y67903D01*
X171677Y67983D01*
X171837Y68278D01*
X171971Y68465D01*
X172132Y68759D01*
X172185Y68813D01*
X172346Y69107D01*
X172480Y69294D01*
X172587Y69482D01*
X172613Y69535D01*
X172720Y69696D01*
X172801Y69830D01*
X173042Y70178D01*
X173162Y70405D01*
X173282Y70552D01*
X173389Y70739D01*
X173416Y70793D01*
X173550Y70980D01*
X173711Y71275D01*
X173764Y71328D01*
X173898Y71569D01*
X174005Y71730D01*
X174165Y72024D01*
X174299Y72211D01*
X174433Y72452D01*
X174460Y72506D01*
X174540Y72586D01*
X174647Y72773D01*
X174674Y72827D01*
X174714Y72867D01*
X174888Y73121D01*
X174915Y73175D01*
X175022Y73335D01*
X175049Y73496D01*
X174995Y73630D01*
X174888Y73817D01*
X174727Y73978D01*
X174701Y74031D01*
X174540Y74191D01*
X174018Y74580D01*
X173804Y74606D01*
D02*
G37*
G36*
X183947Y80199D02*
X183759Y80066D01*
X183572Y79958D01*
X183518Y79932D01*
X183478Y79892D01*
X183451Y79838D01*
X183411Y79798D01*
X183385Y79691D01*
X183425Y79544D01*
X183492Y79504D01*
X183893Y79477D01*
X184013Y79517D01*
X184027Y79530D01*
X184054D01*
X184094Y79597D01*
X184120Y79838D01*
X184094Y80025D01*
X184067Y80132D01*
X184027Y80172D01*
X183947Y80199D01*
D02*
G37*
G36*
X189299Y75463D02*
X189058Y75356D01*
X189004Y75302D01*
X188951Y75275D01*
X188804Y75128D01*
X188777Y74941D01*
X188924Y74820D01*
X189272Y74794D01*
X189379Y74820D01*
X189432Y74874D01*
X189446Y74887D01*
X189499Y74968D01*
X189526Y75182D01*
X189472Y75396D01*
X189432Y75436D01*
X189299Y75463D01*
D02*
G37*
G36*
X183385Y67541D02*
X183251Y67488D01*
X182996Y67448D01*
X182662Y67408D01*
X182448Y67354D01*
X182314Y67301D01*
X182194Y67180D01*
X182167Y67020D01*
X182220Y66886D01*
X182314Y66792D01*
X182408Y66725D01*
X182515Y66699D01*
X182849Y66712D01*
X183304Y66926D01*
X183358Y66953D01*
X183478Y67073D01*
Y67100D01*
X183505Y67127D01*
X183585Y67261D01*
X183558Y67448D01*
X183492Y67515D01*
X183385Y67541D01*
D02*
G37*
G36*
X184963Y64196D02*
X184816Y64183D01*
X184575Y64156D01*
X184415Y64130D01*
X184080Y64089D01*
X183866Y64036D01*
X183839D01*
X183679Y63929D01*
X183492Y63822D01*
X183425Y63755D01*
X183398Y63621D01*
X183425Y63514D01*
X183518Y63420D01*
X183920Y63394D01*
X184241Y63447D01*
X184468Y63514D01*
X184602Y63541D01*
X184830Y63581D01*
X185017Y63635D01*
X185244Y63862D01*
X185271Y64022D01*
X185231Y64063D01*
X185044Y64170D01*
X184963Y64196D01*
D02*
G37*
G36*
X190342Y63849D02*
X190075D01*
X189727Y63822D01*
X189539Y63795D01*
X189432Y63768D01*
X188924Y63528D01*
X188884Y63487D01*
X188777Y63300D01*
X188804Y63166D01*
X188870Y63099D01*
X189111Y63073D01*
X189539Y63099D01*
X189727Y63126D01*
X189834Y63153D01*
X190061Y63220D01*
X190315Y63313D01*
X190503Y63394D01*
X190623Y63541D01*
X190650Y63675D01*
X190623Y63782D01*
X190556Y63822D01*
X190342Y63849D01*
D02*
G37*
G36*
X183920Y53787D02*
X183839Y53760D01*
X183786Y53733D01*
X183773Y53693D01*
X183732Y53653D01*
X183492Y53519D01*
X183425Y53452D01*
X183398Y53265D01*
X183451Y53131D01*
X183465Y53118D01*
X183492Y53091D01*
X183973Y53064D01*
X184094Y53184D01*
X184120Y53613D01*
X184094Y53720D01*
X184054Y53760D01*
X183920Y53787D01*
D02*
G37*
%LPD*%
D10*
X84108Y71315D02*
G03*
X84108Y71315I-492J0D01*
G01*
X300996Y51342D02*
G03*
X300996Y51342I-492J0D01*
G01*
D11*
X304835Y58324D02*
G03*
X304418Y74883I-4331J8176D01*
G01*
X296591Y74884D02*
G03*
X295248Y74114I3913J-8384D01*
G01*
Y58886D02*
G03*
X296175Y58323I5256J7614D01*
G01*
X35780Y100646D02*
X81055D01*
Y61669D02*
Y100646D01*
Y61669D02*
Y61681D01*
X35780Y61669D02*
X81055D01*
X35780D02*
Y100646D01*
X292142Y58134D02*
Y74866D01*
X284858Y58134D02*
X292142D01*
X284858Y74866D02*
X292142D01*
X284858Y58134D02*
Y74866D01*
X267402Y12276D02*
Y14346D01*
X242598Y19654D02*
Y21724D01*
X267402Y19654D02*
Y21724D01*
X242598Y12276D02*
Y14346D01*
Y12276D02*
X267402D01*
X242598Y21724D02*
X267402D01*
X128654Y79402D02*
X130724D01*
X121276Y54598D02*
X123346D01*
X121276Y79402D02*
X123346D01*
X128654Y54598D02*
X130724D01*
Y79402D01*
X121276Y54598D02*
Y79402D01*
X295248Y58886D02*
Y74114D01*
X108492Y41504D02*
Y91504D01*
X82508Y41504D02*
X108492D01*
X82508D02*
Y91504D01*
X108492D01*
D12*
X280622Y67000D02*
G03*
X280622Y67000I-23622J0D01*
G01*
D15*
X262004Y47500D02*
Y50839D01*
X263674Y49169D02*
X260335D01*
X262003Y82000D02*
Y85338D01*
X95000Y98499D02*
X96000Y99499D01*
X97999D01*
X98999Y98499D01*
Y97500D01*
X97999Y96500D01*
X96000D01*
X95000Y95500D01*
Y94501D01*
X96000Y93501D01*
X97999D01*
X98999Y94501D01*
X93001Y93501D02*
X91001D01*
X92001D01*
Y99499D01*
X93001Y98499D01*
X221502Y19999D02*
Y14001D01*
X224501D01*
X225500Y15001D01*
Y17000D01*
X224501Y18000D01*
X221502D01*
X223501D02*
X225500Y19999D01*
X227500Y15001D02*
X228499Y14001D01*
X230499D01*
X231498Y15001D01*
Y16000D01*
X230499Y17000D01*
X229499D01*
X230499D01*
X231498Y18000D01*
Y18999D01*
X230499Y19999D01*
X228499D01*
X227500Y18999D01*
X132499Y39001D02*
Y44999D01*
X129500D01*
X128500Y43999D01*
Y42000D01*
X129500Y41000D01*
X132499D01*
X130499D02*
X128500Y39001D01*
X126501D02*
X124501D01*
X125501D01*
Y44999D01*
X126501Y43999D01*
X297004Y83501D02*
Y87499D01*
X298004Y88499D01*
X300003D01*
X301003Y87499D01*
Y83501D01*
X300003Y82501D01*
X298004D01*
X299003Y84500D02*
X297004Y82501D01*
X298004D02*
X297004Y83501D01*
X295005Y82501D02*
X293005D01*
X294005D01*
Y88499D01*
X295005Y87499D01*
X75998Y104658D02*
Y110656D01*
X72999D01*
X72000Y109657D01*
Y107658D01*
X72999Y106658D01*
X75998D01*
X70000Y109657D02*
X69001Y110656D01*
X67001D01*
X66002Y109657D01*
Y108657D01*
X67001Y107658D01*
X66002Y106658D01*
Y105658D01*
X67001Y104658D01*
X69001D01*
X70000Y105658D01*
Y106658D01*
X69001Y107658D01*
X70000Y108657D01*
Y109657D01*
X69001Y107658D02*
X67001D01*
X217002Y42501D02*
Y48499D01*
X221001D01*
X226999Y43501D02*
X225999Y42501D01*
X224000D01*
X223000Y43501D01*
Y44500D01*
X224000Y45500D01*
X225999D01*
X226999Y46500D01*
Y47499D01*
X225999Y48499D01*
X224000D01*
X223000Y47499D01*
X228998Y48499D02*
X230998D01*
X229998D01*
Y42501D01*
X228998Y43501D01*
X275501Y86001D02*
Y91999D01*
X278500D01*
X279500Y90999D01*
Y87001D01*
X278500Y86001D01*
X275501D01*
X281499Y91999D02*
X283499D01*
X282499D01*
Y86001D01*
X281499Y87001D01*
D60*
X95500Y39732D02*
G03*
X95500Y39339I0J-197D01*
G01*
D02*
G03*
X95500Y39732I0J197D01*
G01*
D61*
X288500Y60067D02*
D03*
M02*
